<svg width="12" height="13" viewBox="0 0 12 13" fill="none" xmlns="http://www.w3.org/2000/svg">
<g id="avito.ru 1">
<path id="Vector" d="M9 12.5156C10.6569 12.5156 12 11.1725 12 9.51562C12 7.85877 10.6569 6.51562 9 6.51562C7.34315 6.51562 6 7.85877 6 9.51562C6 11.1725 7.34315 12.5156 9 12.5156Z" fill="#97CF26"/>
<path id="Vector_2" d="M2.4 5.31563C3.72548 5.31563 4.8 4.24111 4.8 2.91563C4.8 1.59014 3.72548 0.515625 2.4 0.515625C1.07452 0.515625 0 1.59014 0 2.91563C0 4.24111 1.07452 5.31563 2.4 5.31563Z" fill="#00AAFF"/>
<path id="Vector_3" d="M9.00001 5.31558C9.99412 5.31558 10.8 4.50969 10.8 3.51558C10.8 2.52146 9.99412 1.71558 9.00001 1.71558C8.0059 1.71558 7.20001 2.52146 7.20001 3.51558C7.20001 4.50969 8.0059 5.31558 9.00001 5.31558Z" fill="#FF6163"/>
<path id="Vector_4" d="M2.40001 10.1156C3.06275 10.1156 3.60001 9.57832 3.60001 8.91558C3.60001 8.25283 3.06275 7.71558 2.40001 7.71558C1.73727 7.71558 1.20001 8.25283 1.20001 8.91558C1.20001 9.57832 1.73727 10.1156 2.40001 10.1156Z" fill="#A169F7"/>
</g>
</svg>
