<svg width="16" height="16" viewBox="0 0 16 16" fill="none" xmlns="http://www.w3.org/2000/svg">
<g id="Group 5048">
<path id="Vector" d="M8.00449 0.015625C4.87246 0.015625 3.95646 0.018856 3.77841 0.0336265C3.13566 0.0870541 2.7357 0.188255 2.29997 0.405196C1.96418 0.571941 1.69935 0.765227 1.43798 1.03617C0.961975 1.53029 0.673489 2.13819 0.569057 2.86079C0.518284 3.21159 0.503513 3.28313 0.500513 5.07498C0.499359 5.67226 0.500513 6.45832 0.500513 7.51268C0.500513 10.6422 0.503975 11.5573 0.518976 11.735C0.570903 12.3604 0.668989 12.7539 0.876699 13.1843C1.27366 14.0082 2.0318 14.6267 2.92495 14.8575C3.23421 14.9372 3.57577 14.981 4.01427 15.0018C4.20006 15.0099 6.09368 15.0156 7.98845 15.0156C9.88323 15.0156 11.778 15.0133 11.9592 15.0041C12.4669 14.9802 12.7617 14.9406 13.0877 14.8564C13.5306 14.7428 13.9433 14.5339 14.2971 14.2443C14.6509 13.9547 14.9372 13.5914 15.136 13.1797C15.3397 12.7597 15.4429 12.3512 15.4897 11.7584C15.4998 11.6291 15.5041 9.56855 15.5041 7.51072C15.5041 5.45255 15.4995 3.39576 15.4893 3.26652C15.442 2.66416 15.3387 2.25912 15.1285 1.83101C14.956 1.48056 14.7644 1.21884 14.4863 0.951243C13.9901 0.477203 13.3831 0.188717 12.6597 0.0844001C12.3093 0.0337419 12.2395 0.0187406 10.4462 0.015625H8.00449Z" fill="url(#paint0_radial_1341_4058)"/>
<path id="Vector_2" d="M8.00449 0.015625C4.87246 0.015625 3.95646 0.018856 3.77841 0.0336265C3.13566 0.0870541 2.7357 0.188255 2.29997 0.405196C1.96418 0.571941 1.69935 0.765227 1.43798 1.03617C0.961975 1.53029 0.673489 2.13819 0.569057 2.86079C0.518284 3.21159 0.503513 3.28313 0.500513 5.07498C0.499359 5.67226 0.500513 6.45832 0.500513 7.51268C0.500513 10.6422 0.503975 11.5573 0.518976 11.735C0.570903 12.3604 0.668989 12.7539 0.876699 13.1843C1.27366 14.0082 2.0318 14.6267 2.92495 14.8575C3.23421 14.9372 3.57577 14.981 4.01427 15.0018C4.20006 15.0099 6.09368 15.0156 7.98845 15.0156C9.88323 15.0156 11.778 15.0133 11.9592 15.0041C12.4669 14.9802 12.7617 14.9406 13.0877 14.8564C13.5306 14.7428 13.9433 14.5339 14.2971 14.2443C14.6509 13.9547 14.9372 13.5914 15.136 13.1797C15.3397 12.7597 15.4429 12.3512 15.4897 11.7584C15.4998 11.6291 15.5041 9.56855 15.5041 7.51072C15.5041 5.45255 15.4995 3.39576 15.4893 3.26652C15.442 2.66416 15.3387 2.25912 15.1285 1.83101C14.956 1.48056 14.7644 1.21884 14.4863 0.951243C13.9901 0.477203 13.3831 0.188717 12.6597 0.0844001C12.3093 0.0337419 12.2395 0.0187406 10.4462 0.015625H8.00449Z" fill="url(#paint1_radial_1341_4058)"/>
<path id="Vector_3" d="M8.00095 1.97705C6.49667 1.97705 6.30788 1.98363 5.71706 2.01052C5.1274 2.03752 4.7249 2.13087 4.37272 2.26784C4.00842 2.40932 3.69939 2.59856 3.39152 2.90655C3.08341 3.21442 2.89417 3.52345 2.75223 3.88764C2.61491 4.23993 2.52144 4.64255 2.4949 5.23198C2.46859 5.8228 2.46167 6.0117 2.46167 7.51598C2.46167 9.02026 2.46836 9.20847 2.49513 9.79929C2.52225 10.389 2.61561 10.7914 2.75246 11.1436C2.89405 11.5079 3.0833 11.817 3.39129 12.1248C3.69904 12.4329 4.00807 12.6226 4.37214 12.7641C4.72455 12.9011 5.12716 12.9944 5.71671 13.0214C6.30753 13.0483 6.4962 13.0549 8.00037 13.0549C9.50477 13.0549 9.69297 13.0483 10.2838 13.0214C10.8735 12.9944 11.2764 12.9011 11.6288 12.7641C11.993 12.6226 12.3016 12.4329 12.6093 12.1248C12.9174 11.817 13.1067 11.5079 13.2486 11.1437C13.3848 10.7915 13.4783 10.3888 13.506 9.79941C13.5325 9.20859 13.5394 9.02026 13.5394 7.51598C13.5394 6.0117 13.5325 5.82291 13.506 5.2321C13.4783 4.64243 13.3848 4.23993 13.2486 3.88775C13.1067 3.52345 12.9174 3.21442 12.6093 2.90655C12.3012 2.59845 11.9931 2.4092 11.6285 2.26784C11.2754 2.13087 10.8727 2.03752 10.283 2.01052C9.69217 1.98363 9.50407 1.97705 7.99933 1.97705H8.00095ZM7.50406 2.97521C7.65153 2.97498 7.81608 2.97521 8.00095 2.97521C9.47984 2.97521 9.65513 2.98052 10.2391 3.00706C10.7792 3.03176 11.0723 3.12199 11.2675 3.19781C11.526 3.2982 11.7103 3.41821 11.904 3.61207C12.0979 3.80594 12.2179 3.99057 12.3185 4.24905C12.3944 4.44407 12.4847 4.73717 12.5093 5.27721C12.5358 5.86111 12.5416 6.03651 12.5416 7.51471C12.5416 8.99291 12.5358 9.16831 12.5093 9.75221C12.4846 10.2923 12.3944 10.5854 12.3185 10.7804C12.2181 11.0389 12.0979 11.2229 11.904 11.4167C11.7102 11.6105 11.5261 11.7305 11.2675 11.8309C11.0725 11.9071 10.7792 11.9971 10.2391 12.0218C9.65524 12.0483 9.47984 12.0541 8.00095 12.0541C6.52194 12.0541 6.34665 12.0483 5.76276 12.0218C5.22271 11.9969 4.92961 11.9066 4.73425 11.8308C4.47576 11.7304 4.29113 11.6104 4.09727 11.4165C3.90341 11.2227 3.7834 11.0385 3.68277 10.7799C3.60696 10.5849 3.51661 10.2918 3.49203 9.75175C3.46549 9.16785 3.46018 8.99245 3.46018 7.51333C3.46018 6.0342 3.46549 5.85973 3.49203 5.27583C3.51672 4.73578 3.60696 4.44268 3.68277 4.24744C3.78317 3.98895 3.90341 3.80432 4.09727 3.61046C4.29113 3.4166 4.47576 3.29659 4.73425 3.19596C4.92949 3.1198 5.22271 3.02979 5.76276 3.00498C6.27372 2.98191 6.47174 2.97498 7.50406 2.97383V2.97521ZM10.9576 3.89491C10.8261 3.89491 10.6976 3.93389 10.5883 4.00694C10.479 4.07998 10.3938 4.1838 10.3435 4.30527C10.2932 4.42674 10.28 4.56039 10.3057 4.68933C10.3314 4.81827 10.3947 4.93671 10.4877 5.02965C10.5806 5.1226 10.6991 5.18588 10.8281 5.21151C10.957 5.23713 11.0907 5.22393 11.2121 5.17359C11.3335 5.12324 11.4373 5.03802 11.5103 4.92868C11.5834 4.81935 11.6223 4.69082 11.6223 4.55935C11.6223 4.19239 11.3245 3.89467 10.9576 3.89467V3.89491ZM8.00095 4.67151C6.43008 4.67151 5.15648 5.94512 5.15648 7.51598C5.15648 9.08684 6.43008 10.3599 8.00095 10.3599C9.57181 10.3599 10.8451 9.08684 10.8451 7.51598C10.8451 5.94512 9.57181 4.67151 8.00095 4.67151ZM8.00095 5.66967C9.02057 5.66967 9.84726 6.49624 9.84726 7.51598C9.84726 8.53561 9.02057 9.36229 8.00095 9.36229C6.98121 9.36229 6.15464 8.53561 6.15464 7.51598C6.15464 6.49624 6.98121 5.66967 8.00095 5.66967Z" fill="white"/>
</g>
<defs>
<radialGradient id="paint0_radial_1341_4058" cx="0" cy="0" r="1" gradientUnits="userSpaceOnUse" gradientTransform="translate(4.48548 16.1709) rotate(-90) scale(14.8661 13.8304)">
<stop stop-color="#FFDD55"/>
<stop offset="0.1" stop-color="#FFDD55"/>
<stop offset="0.5" stop-color="#FF543E"/>
<stop offset="1" stop-color="#C837AB"/>
</radialGradient>
<radialGradient id="paint1_radial_1341_4058" cx="0" cy="0" r="1" gradientUnits="userSpaceOnUse" gradientTransform="translate(-2.01326 1.0962) rotate(78.6776) scale(6.64528 27.399)">
<stop stop-color="#3771C8"/>
<stop offset="0.128" stop-color="#3771C8"/>
<stop offset="1" stop-color="#6600FF" stop-opacity="0"/>
</radialGradient>
</defs>
</svg>
