<svg width="19" height="19" viewBox="0 0 19 19" fill="none" xmlns="http://www.w3.org/2000/svg">
<g id="telegram" clip-path="url(#clip0_406_1027)">
<g id="Group">
<path id="Vector" d="M17.2921 6.39558C17.7303 7.44053 17.9662 8.51918 17.9662 9.66525C17.9662 10.8113 17.7303 11.89 17.2921 12.9349C16.8539 13.9799 16.2471 14.8563 15.5056 15.6315C14.764 16.3731 13.8539 16.9799 12.8089 17.4181C11.764 17.8563 10.6853 18.0922 9.53927 18.0922C8.3932 18.0922 7.31455 17.8563 6.26961 17.4181C5.22466 16.9799 4.34826 16.3731 3.57298 15.6315C2.83141 14.89 2.22466 13.9799 1.78646 12.9349C1.34826 11.89 1.1123 10.8113 1.1123 9.66525C1.1123 8.51918 1.34826 7.44053 1.78646 6.39558C2.22466 5.35064 2.83141 4.47424 3.57298 3.69896C4.31455 2.95738 5.22466 2.35064 6.26961 1.91244C7.31455 1.47424 8.3932 1.23828 9.53927 1.23828C10.6853 1.23828 11.764 1.47424 12.8089 1.91244C13.8539 2.35064 14.7303 2.95738 15.5056 3.69896C16.2471 4.47424 16.8202 5.38435 17.2921 6.39558ZM12.2696 13.5417L13.6516 7.03603C13.719 6.76637 13.6853 6.56412 13.5505 6.42929C13.4157 6.29446 13.2808 6.29446 13.0786 6.36188L4.955 9.49671C4.78646 9.56412 4.65163 9.63154 4.58421 9.73266C4.5168 9.83379 4.5168 9.9012 4.55051 9.96862C4.58421 10.036 4.68534 10.1034 4.85388 10.1372L6.94376 10.7776L11.764 7.7439C11.8988 7.64278 11.9999 7.64277 12.0674 7.67648C12.1011 7.71019 12.1011 7.7439 12.0337 7.81131L8.12354 11.3843L7.955 13.5417C8.08983 13.5417 8.22466 13.4742 8.3932 13.3394L9.40444 12.3619L11.4943 13.9124C11.9325 14.1484 12.1685 14.0136 12.2696 13.5417Z" fill="#3ABBDB"/>
</g>
</g>
<defs>
<clipPath id="clip0_406_1027">
<rect width="18" height="18" fill="white" transform="translate(0.539062 0.867188)"/>
</clipPath>
</defs>
</svg>
