<svg width="16" height="16" viewBox="0 0 16 16" fill="none" xmlns="http://www.w3.org/2000/svg">
<g id="Group">
<path id="Vector" fill-rule="evenodd" clip-rule="evenodd" d="M8 15.0156C12.1421 15.0156 15.5 11.6578 15.5 7.51562C15.5 3.37349 12.1421 0.015625 8 0.015625C3.85786 0.015625 0.5 3.37349 0.5 7.51562C0.5 11.6578 3.85786 15.0156 8 15.0156Z" fill="#FF0002"/>
<path id="Vector_2" fill-rule="evenodd" clip-rule="evenodd" d="M6.96747 8.82202L6.96716 5.9924L9.66903 7.41209L6.96747 8.82202ZM12.9 5.50207C12.9 5.50207 12.8022 4.80812 12.5025 4.50253C12.1222 4.10127 11.6959 4.09938 11.5006 4.07609C10.1012 3.97412 8.00216 3.97412 8.00216 3.97412H7.99778C7.99778 3.97412 5.89872 3.97412 4.49934 4.07609C4.30372 4.09938 3.87778 4.10127 3.49716 4.50253C3.19747 4.80812 3.09997 5.50207 3.09997 5.50207C3.09997 5.50207 2.99997 6.31719 2.99997 7.13199V7.89612C2.99997 8.71124 3.09997 9.52604 3.09997 9.52604C3.09997 9.52604 3.19747 10.22 3.49716 10.5256C3.87778 10.9268 4.37747 10.9143 4.59997 10.9561C5.39997 11.0335 7.99997 11.0575 7.99997 11.0575C7.99997 11.0575 10.1012 11.0543 11.5006 10.9523C11.6959 10.9287 12.1222 10.9268 12.5025 10.5256C12.8022 10.22 12.9 9.52604 12.9 9.52604C12.9 9.52604 13 8.71124 13 7.89612V7.13199C13 6.31719 12.9 5.50207 12.9 5.50207Z" fill="white"/>
</g>
</svg>
