<svg width="12" height="16" viewBox="0 0 12 16" fill="none" xmlns="http://www.w3.org/2000/svg">
<path d="M11.4584 3.85913C11.1599 3.10683 10.7328 2.43093 10.1889 1.85068C9.64493 1.27042 9.01128 0.814936 8.30599 0.496563C7.57536 0.167088 6.79963 0 5.99987 0C5.20036 0 4.4245 0.167095 3.69387 0.496563C2.98834 0.814936 2.35493 1.27055 1.81094 1.85068C1.26695 2.43093 0.839931 3.10683 0.541456 3.85913C0.232573 4.63848 0.0759277 5.46592 0.0759277 6.31899C0.0759277 7.51634 0.383249 8.77069 0.989291 10.0467C1.46942 11.0576 2.13739 12.0853 2.97481 13.1012C4.39567 14.8246 5.7944 15.9045 5.85336 15.9496C5.89724 15.9832 5.94842 16 5.99985 16C6.05127 16 6.10269 15.9832 6.14645 15.9496C6.20541 15.9045 7.60414 14.8246 9.025 13.1012C9.86242 12.0853 10.5304 11.0576 11.0105 10.0467C11.6166 8.77043 11.9239 7.5162 11.9239 6.31899C11.9239 5.46605 11.7672 4.63848 11.4584 3.85913H11.4584ZM5.99984 8.75031C4.74303 8.75031 3.7205 7.65962 3.7205 6.31903C3.7205 4.9783 4.74303 3.88761 5.99984 3.88761C7.25677 3.88761 8.2793 4.9783 8.2793 6.31903C8.2793 7.65962 7.25677 8.75031 5.99984 8.75031Z" fill="#FF8413"/>
</svg>
