<svg width="14" height="14" viewBox="0 0 14 14" fill="none" xmlns="http://www.w3.org/2000/svg">
<g clip-path="url(#clip0_876_3)">
<rect width="14" height="14" rx="7" fill="white"/>
<rect width="14" height="14" fill="#1467A9"/>
<path d="M6.39757 2.61696C6.50347 2.40954 6.42361 2.15466 6.22049 2.04743C6.01736 1.9402 5.76389 2.02106 5.65799 2.22673L4.04167 5.37498H2.55556C2.24826 5.37498 2 5.62635 2 5.93748C2 6.24862 2.24826 6.49998 2.55556 6.49998L3.4566 10.1475C3.57986 10.6484 4.02431 11 4.53472 11H9.46528C9.97569 11 10.4201 10.6484 10.5434 10.1475L11.4444 6.49998C11.7517 6.49998 12 6.24862 12 5.93748C12 5.62635 11.7517 5.37498 11.4444 5.37498H9.95833L8.34201 2.22673C8.23611 2.02106 7.98438 1.9402 7.77951 2.04743C7.57465 2.15466 7.49653 2.40954 7.60243 2.61696L9.0191 5.37498H4.9809L6.39757 2.61696ZM5.33333 7.34374V9.03124C5.33333 9.18593 5.20833 9.31249 5.05556 9.31249C4.90278 9.31249 4.77778 9.18593 4.77778 9.03124V7.34374C4.77778 7.18905 4.90278 7.06249 5.05556 7.06249C5.20833 7.06249 5.33333 7.18905 5.33333 7.34374ZM7 7.06249C7.15278 7.06249 7.27778 7.18905 7.27778 7.34374V9.03124C7.27778 9.18593 7.15278 9.31249 7 9.31249C6.84722 9.31249 6.72222 9.18593 6.72222 9.03124V7.34374C6.72222 7.18905 6.84722 7.06249 7 7.06249ZM9.22222 7.34374V9.03124C9.22222 9.18593 9.09722 9.31249 8.94444 9.31249C8.79167 9.31249 8.66667 9.18593 8.66667 9.03124V7.34374C8.66667 7.18905 8.79167 7.06249 8.94444 7.06249C9.09722 7.06249 9.22222 7.18905 9.22222 7.34374Z" fill="white"/>
</g>
<defs>
<clipPath id="clip0_876_3">
<rect width="14" height="14" rx="7" fill="white"/>
</clipPath>
</defs>
</svg>
