<svg width="14" height="14" viewBox="0 0 14 14" fill="none" xmlns="http://www.w3.org/2000/svg">
<g clip-path="url(#clip0_877_7)">
<rect width="14" height="14" rx="7" fill="white"/>
<rect width="14" height="14" fill="#DD2121"/>
<path d="M2 3.75C2 3.33594 2.33594 3 2.75 3H7.75C8.16406 3 8.5 3.33594 8.5 3.75V4.5H9.29219C9.55781 4.5 9.8125 4.60469 10 4.79219L11.2078 6C11.3953 6.1875 11.5 6.44219 11.5 6.70781V7V7.5V8.5C11.7766 8.5 12 8.72344 12 9C12 9.27656 11.7766 9.5 11.5 9.5H11C11 10.3281 10.3281 11 9.5 11C8.67188 11 8 10.3281 8 9.5H6C6 10.3281 5.32812 11 4.5 11C3.67188 11 3 10.3281 3 9.5H2.75C2.33594 9.5 2 9.16406 2 8.75V3.75ZM8.5 7H10.5V6.70781L9.29219 5.5H8.5V7ZM4.5 10.25C4.69891 10.25 4.88968 10.171 5.03033 10.0303C5.17098 9.88968 5.25 9.69891 5.25 9.5C5.25 9.30109 5.17098 9.11032 5.03033 8.96967C4.88968 8.82902 4.69891 8.75 4.5 8.75C4.30109 8.75 4.11032 8.82902 3.96967 8.96967C3.82902 9.11032 3.75 9.30109 3.75 9.5C3.75 9.69891 3.82902 9.88968 3.96967 10.0303C4.11032 10.171 4.30109 10.25 4.5 10.25ZM10.25 9.5C10.25 9.30109 10.171 9.11032 10.0303 8.96967C9.88968 8.82902 9.69891 8.75 9.5 8.75C9.30109 8.75 9.11032 8.82902 8.96967 8.96967C8.82902 9.11032 8.75 9.30109 8.75 9.5C8.75 9.69891 8.82902 9.88968 8.96967 10.0303C9.11032 10.171 9.30109 10.25 9.5 10.25C9.69891 10.25 9.88968 10.171 10.0303 10.0303C10.171 9.88968 10.25 9.69891 10.25 9.5ZM4.75 4.25V5H4C3.8625 5 3.75 5.1125 3.75 5.25V5.75C3.75 5.8875 3.8625 6 4 6H4.75V6.75C4.75 6.8875 4.8625 7 5 7H5.5C5.6375 7 5.75 6.8875 5.75 6.75V6H6.5C6.6375 6 6.75 5.8875 6.75 5.75V5.25C6.75 5.1125 6.6375 5 6.5 5H5.75V4.25C5.75 4.1125 5.6375 4 5.5 4H5C4.8625 4 4.75 4.1125 4.75 4.25Z" fill="white"/>
</g>
<defs>
<clipPath id="clip0_877_7">
<rect width="14" height="14" rx="7" fill="white"/>
</clipPath>
</defs>
</svg>
