<svg width="14" height="14" viewBox="0 0 14 14" fill="none" xmlns="http://www.w3.org/2000/svg">
<g clip-path="url(#clip0_879_12)">
<rect width="14" height="14" rx="7" fill="white"/>
<rect width="14" height="14" fill="#00950F"/>
<path d="M5.39962 3.25C5.39962 2.91848 5.5682 2.60054 5.86826 2.36612C6.16832 2.1317 6.57529 2 6.99964 2C7.42399 2 7.83097 2.1317 8.13103 2.36612C8.43109 2.60054 8.59966 2.91848 8.59966 3.25C8.59966 3.58152 8.43109 3.89946 8.13103 4.13388C7.83097 4.3683 7.42399 4.5 6.99964 4.5C6.57529 4.5 6.16832 4.3683 5.86826 4.13388C5.5682 3.89946 5.39962 3.58152 5.39962 3.25ZM6.59964 9.5V11.375C6.59964 11.7207 6.24213 12 5.79963 12C5.35712 12 4.99962 11.7207 4.99962 11.375V7.62109L4.47711 8.26953C4.24211 8.5625 3.7471 8.64844 3.3746 8.46484C3.0021 8.28125 2.88709 7.89648 3.1221 7.60547L4.11961 6.36914C4.74212 5.59375 5.82963 5.125 6.99964 5.125C8.16966 5.125 9.25717 5.59375 9.87968 6.36719L10.8772 7.60547C11.1122 7.89844 10.9997 8.2832 10.6272 8.4668C10.2547 8.65039 9.75968 8.5625 9.52467 8.27148L8.99967 7.62109V11.375C8.99967 11.7207 8.64216 12 8.19966 12C7.75715 12 7.39965 11.7207 7.39965 11.375V9.5H6.59964Z" fill="white"/>
</g>
<defs>
<clipPath id="clip0_879_12">
<rect width="14" height="14" rx="7" fill="white"/>
</clipPath>
</defs>
</svg>
