<svg width="14" height="14" viewBox="0 0 14 14" fill="none" xmlns="http://www.w3.org/2000/svg">
<g clip-path="url(#clip0_879_17)">
<rect width="14" height="14" rx="7" fill="white"/>
<rect width="14" height="14" fill="#D56311"/>
<path d="M7.27812 3.07383C7.10937 2.97539 6.89063 2.97539 6.72188 3.07383L4.59844 4.3125H2.75C2.33594 4.3125 2 4.60645 2 4.96875V9.34375C2 9.70605 2.33594 10 2.75 10H6V8.6875C6 8.20488 6.44844 7.8125 7 7.8125C7.55156 7.8125 8 8.20488 8 8.6875V10H11.25C11.6641 10 12 9.70605 12 9.34375V4.96875C12 4.60645 11.6641 4.3125 11.25 4.3125H9.40156L7.27812 3.07383ZM3.5 5.625H4C4.1375 5.625 4.25 5.72344 4.25 5.84375V6.71875C4.25 6.83906 4.1375 6.9375 4 6.9375H3.5C3.3625 6.9375 3.25 6.83906 3.25 6.71875V5.84375C3.25 5.72344 3.3625 5.625 3.5 5.625ZM9.75 5.84375C9.75 5.72344 9.8625 5.625 10 5.625H10.5C10.6375 5.625 10.75 5.72344 10.75 5.84375V6.71875C10.75 6.83906 10.6375 6.9375 10.5 6.9375H10C9.8625 6.9375 9.75 6.83906 9.75 6.71875V5.84375ZM3.5 7.375H4C4.1375 7.375 4.25 7.47344 4.25 7.59375V8.46875C4.25 8.58906 4.1375 8.6875 4 8.6875H3.5C3.3625 8.6875 3.25 8.58906 3.25 8.46875V7.59375C3.25 7.47344 3.3625 7.375 3.5 7.375ZM9.75 7.59375C9.75 7.47344 9.8625 7.375 10 7.375H10.5C10.6375 7.375 10.75 7.47344 10.75 7.59375V8.46875C10.75 8.58906 10.6375 8.6875 10.5 8.6875H10C9.8625 8.6875 9.75 8.58906 9.75 8.46875V7.59375ZM5.625 5.40625C5.625 5.08716 5.76987 4.78114 6.02773 4.55551C6.28559 4.32988 6.63533 4.20312 7 4.20312C7.36467 4.20312 7.71441 4.32988 7.97227 4.55551C8.23013 4.78114 8.375 5.08716 8.375 5.40625C8.375 5.72534 8.23013 6.03136 7.97227 6.25699C7.71441 6.48262 7.36467 6.60938 7 6.60938C6.63533 6.60938 6.28559 6.48262 6.02773 6.25699C5.76987 6.03136 5.625 5.72534 5.625 5.40625ZM7 4.75C6.8625 4.75 6.75 4.84844 6.75 4.96875V5.40625C6.75 5.52656 6.8625 5.625 7 5.625H7.5C7.6375 5.625 7.75 5.52656 7.75 5.40625C7.75 5.28594 7.6375 5.1875 7.5 5.1875H7.25V4.96875C7.25 4.84844 7.1375 4.75 7 4.75Z" fill="white"/>
</g>
<defs>
<clipPath id="clip0_879_17">
<rect width="14" height="14" rx="7" fill="white"/>
</clipPath>
</defs>
</svg>
