<?xml version="1.0" encoding="utf-8"?>
<!DOCTYPE svg PUBLIC "-//W3C//DTD SVG 1.1//EN" "http://www.w3.org/Graphics/SVG/1.1/DTD/svg11.dtd">
<svg version="1.1" xmlns="http://www.w3.org/2000/svg" xmlns:xlink="http://www.w3.org/1999/xlink" x="0px" y="0px" viewBox="0 0 1000 1000" enable-background="new 0 0 1000 1000" xml:space="preserve">
<g><g transform="translate(0.000000,511.000000) scale(0.100000,-0.100000)"><path d="M1966.7,5032c-151-76.9-219.6-200.4-219.6-392.5c0-170.2,71.4-310.2,194.9-384.3c82.4-49.4,153.7-54.9,598.4-63.1l505.1-11L1974.9,3107.7C1384.7,2514.7,882.4,2001.4,857.7,1962.9c-115.3-175.7,5.5-488.6,236.1-601.2c145.5-68.6,214.1-71.4,332.1-13.7c49.4,24.7,579.2,532.5,1180.4,1131l1089.8,1089.8V3061c0-428.2,8.2-521.6,49.4-603.9c140-277.3,639.6-277.3,779.6,0c43.9,87.8,49.4,211.4,49.4,1367.1v1268.2H3331C2095.7,5092.4,2087.4,5092.4,1966.7,5032z"/><path d="M6789.8,2684.9c-11-8.2-19.2-510.6-19.2-1111.8V480.6l-1103.5-5.5l-1106.3-8.2l-8.2-1103.5l-5.5-1106.3l-1106.3-5.5l-1103.5-8.2l-8.2-1103.5l-5.5-1106.3l-1106.3-5.5l-1103.5-8.2l-8.2-444.7l-5.5-447.5h1564.7h1564.7v1111.8v1111.8h1111.8h1111.8v1111.8v1111.8h1111.8h1111.8V686.5v1111.8h1111.8H9900l-5.5,447.5l-8.2,444.7l-1540,8.2C7500.8,2701.4,6798,2695.9,6789.8,2684.9z"/></g></g>
</svg>