<svg width="12" height="13" viewBox="0 0 12 13" fill="none" xmlns="http://www.w3.org/2000/svg">
<g id="arrow_triangle_right">
<path id="Vector" d="M3.6626 9.97799C3.66254 10.0506 3.68369 10.1217 3.72345 10.1826C3.76321 10.2434 3.81985 10.2913 3.88643 10.3203C3.95301 10.3494 4.02663 10.3585 4.09826 10.3463C4.1699 10.3342 4.23643 10.3014 4.28971 10.252L8.21809 6.6252C8.25586 6.59026 8.28599 6.54788 8.3066 6.50073C8.32721 6.45358 8.33785 6.40268 8.33785 6.35122C8.33785 6.29976 8.32721 6.24886 8.3066 6.20171C8.28599 6.15456 8.25586 6.11218 8.21809 6.07723L4.28896 2.45046C4.23566 2.4013 4.16919 2.36872 4.09768 2.35672C4.02617 2.34471 3.95271 2.35379 3.88628 2.38285C3.81985 2.41191 3.76332 2.45969 3.72359 2.52035C3.68387 2.58101 3.66267 2.65193 3.6626 2.72444L3.6626 9.97799Z" fill="#3ABBDB"/>
</g>
</svg>
