<svg width="12" height="13" viewBox="0 0 12 13" fill="none" xmlns="http://www.w3.org/2000/svg">
<g id="arrow_triangle_down">
<path id="Vector" d="M8.96339 4.01367C9.02878 4.01361 9.09277 4.03476 9.1475 4.07452C9.20223 4.11428 9.24533 4.17092 9.27151 4.2375C9.29769 4.30408 9.30581 4.3777 9.29488 4.44934C9.28395 4.52097 9.25445 4.58751 9.20998 4.64078L5.94589 8.56916C5.91443 8.60693 5.87629 8.63707 5.83386 8.65768C5.79142 8.67829 5.74561 8.68893 5.6993 8.68893C5.65299 8.68893 5.60717 8.67829 5.56474 8.65768C5.52231 8.63707 5.48416 8.60693 5.45271 8.56916L2.18862 4.64003C2.14437 4.58673 2.11505 4.52027 2.10425 4.44876C2.09344 4.37725 2.10161 4.30379 2.12777 4.23735C2.15392 4.17092 2.19692 4.11439 2.25152 4.07467C2.30612 4.03494 2.36994 4.01375 2.4352 4.01367H8.96339Z" fill="#028FBE"/>
</g>
</svg>
