<svg width="16" height="16" viewBox="0 0 16 16" fill="none" xmlns="http://www.w3.org/2000/svg">
<g id="back">
<path id="Vector" d="M6.80634 2.67844C6.8688 2.61165 6.94388 2.55789 7.02723 2.52027C7.11058 2.48266 7.20055 2.46192 7.29196 2.45927C7.38337 2.45663 7.47439 2.47211 7.55978 2.50484C7.64517 2.53757 7.72323 2.58689 7.78945 2.64995C7.85567 2.71301 7.90874 2.78857 7.9456 2.87226C7.98246 2.95595 8.00237 3.04611 8.00419 3.13754C8.006 3.22896 7.98969 3.31985 7.95619 3.40493C7.92269 3.49002 7.87266 3.56763 7.809 3.63327L4.30766 7.30972H13.3077C13.4913 7.30972 13.6674 7.38266 13.7972 7.51249C13.9271 7.64232 14 7.81841 14 8.00203C14 8.18564 13.9271 8.36173 13.7972 8.49156C13.6674 8.6214 13.4913 8.69433 13.3077 8.69433H4.30766L7.809 12.3708C7.8717 12.4366 7.92082 12.5141 7.95355 12.599C7.98629 12.6838 8.00199 12.7742 7.99977 12.8651C7.99755 12.956 7.97745 13.0455 7.94061 13.1287C7.90378 13.2118 7.85093 13.2868 7.78509 13.3495C7.65212 13.4761 7.47431 13.5447 7.29077 13.5403C7.10722 13.5358 6.93297 13.4586 6.80634 13.3256L2.19095 8.47944C2.06837 8.35072 2 8.17978 2 8.00203C2 7.82427 2.06837 7.65333 2.19095 7.52461L6.80634 2.67844Z" fill="#028FBE"/>
</g>
</svg>
