<svg width="49" height="49" viewBox="0 0 49 49" fill="none" xmlns="http://www.w3.org/2000/svg">
<g id="building">
<path id="Vector" d="M9.39307 5.30005H29.7931V44.9001H14.1931V42.5H27.3931V7.70005H11.7931V14.9H9.39307V5.30005Z" fill="#82979E"/>
<path id="Vector_2" d="M41.7934 18.4999H32.1934V16.0999H38.1934V13.7005H32.1934V11.3005H40.5934V16.0999H44.1934V44.8999H32.1934V42.4999H41.7934V18.4999Z" fill="#82979E"/>
<path id="Vector_3" d="M17.7931 11.3H15.3931V17.3H17.7931V11.3Z" fill="#82979E"/>
<path id="Vector_4" d="M21.3931 11.3H23.7931V17.3H21.3931V11.3Z" fill="#82979E"/>
<path id="Vector_5" d="M23.7931 22.1001H21.3931V28.1001H23.7931V22.1001Z" fill="#82979E"/>
<path id="Vector_6" d="M21.3931 32.8999H23.7931V38.8999H21.3931V32.8999Z" fill="#82979E"/>
<path id="Vector_7" d="M38.193 20.8999H35.793V26.8999H38.193V20.8999Z" fill="#82979E"/>
<path id="Vector_8" d="M35.793 31.7H38.193V37.7H35.793V31.7Z" fill="#82979E"/>
<path id="Vector_9" fill-rule="evenodd" clip-rule="evenodd" d="M10.593 17.3005C9.60764 17.3005 8.7278 17.9177 8.39239 18.8443L3.86645 31.3471C2.74463 34.4463 4.08627 37.8973 7.00671 39.4251C7.74772 39.8127 8.56107 40.0385 9.39307 40.0894V44.9005H11.7931V40.0894C12.625 40.0385 13.4384 39.8127 14.1794 39.4251C17.0998 37.8973 18.4414 34.4463 17.3197 31.3471L12.7937 18.8443C12.4583 17.9177 11.5784 17.3005 10.593 17.3005ZM6.12315 32.1641L10.593 19.816L15.0629 32.1641C15.776 34.1339 14.9233 36.3274 13.067 37.2984C12.5619 37.5625 12.0004 37.7005 11.4305 37.7005H9.75559C9.18562 37.7005 8.62414 37.5625 8.1191 37.2984C6.26287 36.3274 5.41012 34.1339 6.12315 32.1641Z" fill="#82979E"/>
</g>
</svg>
