<svg width="25" height="24" viewBox="0 0 25 24" fill="none" xmlns="http://www.w3.org/2000/svg">
<g id="menu_28 1">
<g id="Group 5045">
<path id="Mask" d="M18.9991 5.21885L4.42754 17.0777C3.85271 17.5456 3.68656 18.2932 4.05644 18.7477C4.42631 19.2022 5.19215 19.1914 5.76698 18.7236L20.3385 6.86467C20.9133 6.39685 21.0795 5.64918 20.7096 5.1947C20.3397 4.74021 19.5739 4.75103 18.9991 5.21885Z" fill="#0D2F47"/>
<path id="Mask_2" d="M5.76656 5.21885L20.3381 17.0777C20.9129 17.5456 21.0791 18.2932 20.7092 18.7477C20.3393 19.2022 19.5735 19.1914 18.9986 18.7236L4.42712 6.86467C3.85229 6.39685 3.68615 5.64918 4.05602 5.1947C4.4259 4.74021 5.19173 4.75103 5.76656 5.21885Z" fill="#0D2F47"/>
</g>
</g>
</svg>
