<svg width="12" height="13" viewBox="0 0 12 13" fill="none" xmlns="http://www.w3.org/2000/svg">
<g id="check_circle_on" clip-path="url(#clip0_406_4649)">
<circle id="Ellipse 56" cx="6" cy="6.35156" r="6" fill="#028FBE"/>
<path id="Exclude" fill-rule="evenodd" clip-rule="evenodd" d="M9.71079 4.72162C9.68822 4.77626 9.65511 4.82592 9.61335 4.86775L5.72175 8.76775C5.67995 8.80966 5.63029 8.84291 5.57562 8.8656C5.52095 8.88828 5.46234 8.89996 5.40315 8.89996C5.34396 8.89996 5.28535 8.88828 5.23068 8.8656C5.17601 8.84291 5.12635 8.80966 5.08455 8.76775L3.25215 6.93175C3.21039 6.88992 3.17728 6.84026 3.15471 6.78562C3.13214 6.73099 3.12055 6.67244 3.12061 6.61333C3.12066 6.55422 3.13236 6.49569 3.15503 6.4411C3.17771 6.38651 3.21091 6.33691 3.25275 6.29515C3.29459 6.25339 3.34424 6.22028 3.39888 6.19771C3.45351 6.17514 3.51206 6.16355 3.57117 6.16361C3.63029 6.16367 3.68881 6.17536 3.7434 6.19804C3.798 6.22071 3.84759 6.25391 3.88935 6.29575L5.40315 7.81255L8.97615 4.23175C9.01791 4.18991 9.0675 4.15671 9.1221 4.13404C9.17669 4.11136 9.23521 4.09967 9.29433 4.09961C9.35344 4.09955 9.41199 4.11114 9.46662 4.13371C9.52126 4.15628 9.57091 4.18939 9.61275 4.23115C9.65459 4.27291 9.68779 4.32251 9.71047 4.3771C9.73314 4.43169 9.74484 4.49022 9.74489 4.54933C9.74495 4.60844 9.73336 4.66699 9.71079 4.72162Z" fill="white"/>
</g>
<defs>
<clipPath id="clip0_406_4649">
<rect width="12" height="12" fill="white" transform="translate(0 0.351562)"/>
</clipPath>
</defs>
</svg>
