<svg width="41" height="45" viewBox="0 0 41 45" fill="none" xmlns="http://www.w3.org/2000/svg">
<g id="Frame 5090">
<g id="Group">
<g id="&#60;Layer&#62;">
<path id="Vector" d="M14.4922 39.7528C0.934118 30.635 2.33976 24.4789 2.40244 9.81819C2.40322 9.54497 2.48521 9.27818 2.6379 9.05192C2.79058 8.82567 3.00703 8.65022 3.25961 8.54799L14.7602 4.01426C15.0784 3.88848 15.4323 3.88848 15.7506 4.01426L27.2511 8.54799C27.5037 8.65022 27.7202 8.82567 27.8729 9.05192C28.0255 9.27818 28.1075 9.54497 28.1083 9.81819C28.171 24.4789 29.5766 30.6413 16.0185 39.7528C15.7918 39.902 15.5265 39.9814 15.2554 39.9814C14.9842 39.9814 14.719 39.902 14.4922 39.7528Z" fill="url(#paint0_linear_16_11681)"/>
<g id="Vector_2" filter="url(#filter0_b_16_11681)">
<path d="M23.677 44.0961C8.47552 33.8731 10.0515 26.9709 10.1236 10.5331C10.1238 10.2269 10.2153 9.92768 10.3862 9.67394C10.5571 9.42019 10.7997 9.22345 11.0829 9.10896L23.9774 4.02569C24.3342 3.88466 24.7311 3.88466 25.0879 4.02569L37.9824 9.10896C38.2659 9.22317 38.5088 9.41979 38.6801 9.67356C38.8513 9.92733 38.9431 10.2267 38.9435 10.5331C39.0138 26.9709 40.5915 33.8802 25.3883 44.0961C25.1341 44.2633 24.8367 44.3524 24.5326 44.3524C24.2286 44.3524 23.9312 44.2633 23.677 44.0961Z" fill="url(#paint1_linear_16_11681)" fill-opacity="0.5"/>
<path d="M10.4782 10.5347L10.4782 10.5334C10.4785 10.2976 10.5489 10.0673 10.6804 9.87208C10.8116 9.67728 10.9976 9.52632 11.2145 9.43831C11.2149 9.43813 11.2154 9.43795 11.2158 9.43776L24.1075 4.35565L24.1078 4.35553C24.3808 4.24761 24.6845 4.24761 24.9575 4.35553L24.9578 4.35565L37.8499 9.43793C37.8502 9.43808 37.8506 9.43823 37.851 9.43838C38.0682 9.52616 38.2546 9.67706 38.3861 9.87196C38.5178 10.0672 38.5885 10.2976 38.5888 10.5336L38.5888 10.5346C38.5951 11.9962 38.6131 13.3788 38.6303 14.6934C38.6616 17.088 38.6899 19.2569 38.6385 21.2663C38.5591 24.3724 38.2892 27.0608 37.5534 29.5471C36.0888 34.4959 32.7565 38.7174 25.1921 43.8006C24.996 43.9293 24.7668 43.9978 24.5326 43.9978C24.2985 43.9978 24.0694 43.9293 23.8733 43.8007C16.3098 38.7139 12.9774 34.4924 11.5128 29.5445C10.777 27.0586 10.5071 24.3708 10.4278 21.2654C10.3764 19.2548 10.4049 17.0846 10.4364 14.6881C10.4537 13.3752 10.4718 11.9943 10.4782 10.5347Z" stroke="url(#paint2_linear_16_11681)" stroke-width="0.709342"/>
</g>
<path id="Vector_3" d="M23.5509 28.9303C23.408 28.9308 23.2664 28.9028 23.1343 28.848C23.0022 28.7933 22.8822 28.7128 22.7813 28.6113L18.8175 24.635C18.6134 24.4304 18.4987 24.153 18.4985 23.8636C18.4984 23.5742 18.6128 23.2966 18.8167 23.0918C19.0205 22.8871 19.2971 22.772 19.5856 22.7718C19.8741 22.7716 20.1508 22.8864 20.3549 23.0909L23.5509 26.2971L31.633 18.1892C31.8389 17.9948 32.1122 17.8884 32.3949 17.8927C32.6777 17.897 32.9476 18.0116 33.1476 18.2121C33.3475 18.4127 33.4617 18.6835 33.466 18.9672C33.4702 19.2508 33.3642 19.5249 33.1704 19.7315L24.3239 28.606C24.223 28.7089 24.1027 28.7906 23.97 28.8463C23.8372 28.902 23.6948 28.9305 23.5509 28.9303Z" fill="white"/>
</g>
</g>
</g>
<defs>
<filter id="filter0_b_16_11681" x="4.37018" y="-1.75482" width="40.326" height="51.7811" filterUnits="userSpaceOnUse" color-interpolation-filters="sRGB">
<feFlood flood-opacity="0" result="BackgroundImageFix"/>
<feGaussianBlur in="BackgroundImageFix" stdDeviation="2.83737"/>
<feComposite in2="SourceAlpha" operator="in" result="effect1_backgroundBlur_16_11681"/>
<feBlend mode="normal" in="SourceGraphic" in2="effect1_backgroundBlur_16_11681" result="shape"/>
</filter>
<linearGradient id="paint0_linear_16_11681" x1="3.98707" y1="53.6848" x2="29.4327" y2="52.5688" gradientUnits="userSpaceOnUse">
<stop stop-color="#028FBE"/>
<stop offset="1" stop-color="#3ABBDB"/>
</linearGradient>
<linearGradient id="paint1_linear_16_11681" x1="3.14992" y1="-17.1155" x2="37.3812" y2="33.5574" gradientUnits="userSpaceOnUse">
<stop stop-color="white"/>
<stop offset="0.12" stop-color="#F6FBFE"/>
<stop offset="0.31" stop-color="#DEF1FB"/>
<stop offset="0.56" stop-color="#B6E0F5"/>
<stop offset="0.84" stop-color="#7FC9EE"/>
<stop offset="1" stop-color="#5EBBEA"/>
</linearGradient>
<linearGradient id="paint2_linear_16_11681" x1="13.9011" y1="51.245" x2="49.3493" y2="61.8061" gradientUnits="userSpaceOnUse">
<stop offset="0.0128737" stop-color="#DEF1FF" stop-opacity="0.52"/>
<stop offset="1" stop-color="#DBF0FF"/>
</linearGradient>
</defs>
</svg>
