<svg width="41" height="48" viewBox="0 0 41 48" fill="none" xmlns="http://www.w3.org/2000/svg">
<g id="Frame" clip-path="url(#clip0_16_11658)">
<g id="Group">
<g id="&#60;Layer&#62;">
<path id="Vector" d="M31.8798 22.209H5.75125C3.96264 22.209 2.5127 23.6589 2.5127 25.4475V44.4794C2.5127 46.268 3.96264 47.7179 5.75125 47.7179H31.8798C33.6684 47.7179 35.1183 46.268 35.1183 44.4794V25.4475C35.1183 23.6589 33.6684 22.209 31.8798 22.209Z" fill="url(#paint0_linear_16_11658)"/>
<path id="Vector_2" opacity="0.45" d="M36.9053 16.7669H34.9142V10.2662C34.9142 8.96416 34.6578 7.67489 34.1595 6.47199C33.6613 5.2691 32.931 4.17614 32.0103 3.25548C31.0897 2.33483 29.9967 1.60451 28.7938 1.10625C27.5909 0.607997 26.3016 0.351562 24.9996 0.351562C23.6976 0.351562 22.4084 0.607997 21.2055 1.10625C20.0026 1.60451 18.9096 2.33483 17.989 3.25548C17.0683 4.17614 16.338 5.2691 15.8397 6.47199C15.3415 7.67489 15.085 8.96416 15.085 10.2662V16.7669H13.0939C12.7063 16.7667 12.3224 16.8428 11.9642 16.9911C11.606 17.1393 11.2806 17.3567 11.0065 17.6308C10.7324 17.9049 10.515 18.2304 10.3667 18.5886C10.2185 18.9467 10.1423 19.3306 10.1426 19.7183V37.0623C10.1426 37.4499 10.2189 37.8337 10.3672 38.1917C10.5156 38.5498 10.733 38.8752 11.007 39.1492C11.2811 39.4233 11.6064 39.6407 11.9645 39.789C12.3226 39.9373 12.7064 40.0136 13.0939 40.0136H36.9053C37.6879 40.0132 38.4383 39.7021 38.9917 39.1487C39.5451 38.5953 39.8562 37.8449 39.8567 37.0623V19.7183C39.8567 18.9355 39.5457 18.1848 38.9922 17.6314C38.4387 17.0779 37.6881 16.7669 36.9053 16.7669ZM18.9149 10.2662C18.9008 9.45828 19.0477 8.65567 19.3471 7.90519C19.6465 7.1547 20.0924 6.47137 20.6587 5.89506C21.2251 5.31874 21.9005 4.861 22.6456 4.54854C23.3908 4.23607 24.1907 4.07513 24.9987 4.07513C25.8067 4.07513 26.6066 4.23607 27.3517 4.54854C28.0969 4.861 28.7723 5.31874 29.3387 5.89506C29.905 6.47137 30.3509 7.1547 30.6503 7.90519C30.9497 8.65567 31.0966 9.45828 31.0825 10.2662V16.7669H18.9149V10.2662Z" fill="#028FBE"/>
<g id="Vector_3" filter="url(#filter0_b_16_11658)">
<path d="M36.9053 16.7669H34.9142V10.2662C34.9142 8.96416 34.6578 7.67489 34.1595 6.47199C33.6613 5.2691 32.931 4.17614 32.0103 3.25548C31.0897 2.33483 29.9967 1.60451 28.7938 1.10625C27.5909 0.607997 26.3016 0.351562 24.9996 0.351562C23.6976 0.351562 22.4084 0.607997 21.2055 1.10625C20.0026 1.60451 18.9096 2.33483 17.989 3.25548C17.0683 4.17614 16.338 5.2691 15.8397 6.47199C15.3415 7.67489 15.085 8.96416 15.085 10.2662V16.7669H13.0939C12.7063 16.7667 12.3224 16.8428 11.9642 16.9911C11.606 17.1393 11.2806 17.3567 11.0065 17.6308C10.7324 17.9049 10.515 18.2304 10.3667 18.5886C10.2185 18.9467 10.1423 19.3306 10.1426 19.7183V37.0623C10.1426 37.4499 10.2189 37.8337 10.3672 38.1917C10.5156 38.5498 10.733 38.8752 11.007 39.1492C11.2811 39.4233 11.6064 39.6407 11.9645 39.789C12.3226 39.9373 12.7064 40.0136 13.0939 40.0136H36.9053C37.6879 40.0132 38.4383 39.7021 38.9917 39.1487C39.5451 38.5953 39.8562 37.8449 39.8567 37.0623V19.7183C39.8567 18.9355 39.5457 18.1848 38.9922 17.6314C38.4387 17.0779 37.6881 16.7669 36.9053 16.7669ZM18.9149 10.2662C18.9008 9.45828 19.0477 8.65567 19.3471 7.90519C19.6465 7.1547 20.0924 6.47137 20.6587 5.89506C21.2251 5.31874 21.9005 4.861 22.6456 4.54854C23.3908 4.23607 24.1907 4.07513 24.9987 4.07513C25.8067 4.07513 26.6066 4.23607 27.3517 4.54854C28.0969 4.861 28.7723 5.31874 29.3387 5.89506C29.905 6.47137 30.3509 7.1547 30.6503 7.90519C30.9497 8.65567 31.0966 9.45828 31.0825 10.2662V16.7669H18.9149V10.2662Z" fill="url(#paint1_linear_16_11658)" fill-opacity="0.5"/>
<path d="M34.5928 16.7669V17.0884H34.9142H36.9053C37.6028 17.0884 38.2717 17.3654 38.7649 17.8586C39.2581 18.3518 39.5352 19.0208 39.5352 19.7183V37.0621C39.5348 37.7595 39.2576 38.4282 38.7644 38.9214C38.2713 39.4145 37.6025 39.6918 36.9051 39.6922H13.0939C12.7486 39.6922 12.4066 39.6242 12.0875 39.492C11.7684 39.3599 11.4785 39.1662 11.2343 38.9219C10.9901 38.6777 10.7964 38.3878 10.6642 38.0687C10.532 37.7497 10.464 37.4077 10.464 37.0623L10.464 19.7183L10.464 19.7181C10.4638 19.3727 10.5317 19.0306 10.6637 18.7115C10.7958 18.3923 10.9895 18.1023 11.2338 17.8581C11.478 17.6138 11.768 17.4201 12.0871 17.2881L11.9642 16.9911L12.0871 17.2881C12.4063 17.156 12.7483 17.0881 13.0937 17.0884H13.0939H15.085H15.4065V16.7669V10.2662C15.4065 9.00636 15.6546 7.75889 16.1367 6.595C16.6188 5.4311 17.3254 4.37358 18.2162 3.48277C19.1071 2.59195 20.1646 1.88531 21.3285 1.40321C22.4924 0.921112 23.7398 0.672991 24.9996 0.672991C26.2594 0.672991 27.5069 0.921112 28.6708 1.40321C29.8347 1.88531 30.8922 2.59196 31.783 3.48277C32.6738 4.37357 33.3805 5.4311 33.8626 6.595C34.3447 7.75889 34.5928 9.00637 34.5928 10.2662V16.7669ZM14.7636 16.7669H13.0939L39.8567 19.7183C39.8567 18.9355 39.5457 18.1848 38.9922 17.6314C38.4387 17.0779 37.6881 16.7669 36.9053 16.7669H35.2357H34.9142V16.4455V10.2662C34.9142 8.96416 34.6578 7.67489 34.1595 6.47199C33.6613 5.2691 32.931 4.17614 32.0103 3.25548C31.0897 2.33483 29.9967 1.60451 28.7938 1.10625C27.5909 0.607997 26.3016 0.351562 24.9996 0.351562C23.6976 0.351562 22.4084 0.607997 21.2055 1.10625C20.0026 1.60451 18.9096 2.33483 17.989 3.25548C17.0683 4.17614 16.338 5.2691 15.8397 6.47199C15.3415 7.67489 15.085 8.96416 15.085 10.2662V16.4455V16.7669H14.7636ZM31.0825 17.0884H31.4039V16.7669V10.2689C31.4184 9.41932 31.2637 8.57532 30.9488 7.78609C30.6336 6.99595 30.1642 6.27652 29.5679 5.66977C28.9717 5.06301 28.2605 4.58109 27.476 4.25212C26.6915 3.92315 25.8494 3.7537 24.9987 3.7537C24.148 3.7537 23.3058 3.92314 22.5213 4.25212C21.7368 4.58109 21.0257 5.06301 20.4295 5.66977C19.8332 6.27652 19.3638 6.99596 19.0486 7.78608C18.7337 8.57534 18.579 9.41935 18.5935 10.269V16.7669V17.0884H18.9149H31.0825Z" stroke="url(#paint2_linear_16_11658)" stroke-width="0.642857"/>
</g>
<path id="Vector_4" d="M27.7071 27.7016C27.9495 26.1998 26.9286 24.7858 25.4268 24.5434C23.925 24.301 22.511 25.3219 22.2686 26.8237C22.0261 28.3255 23.047 29.7395 24.5488 29.9819C26.0507 30.2244 27.4647 29.2034 27.7071 27.7016Z" fill="white"/>
<path id="Vector_5" d="M25 33.7849C24.6636 33.7849 24.3409 33.6513 24.103 33.4134C23.8651 33.1755 23.7314 32.8528 23.7314 32.5163V28.3819C23.7314 28.0454 23.8651 27.7227 24.103 27.4848C24.3409 27.2469 24.6636 27.1133 25 27.1133C25.3365 27.1133 25.6591 27.2469 25.897 27.4848C26.1349 27.7227 26.2686 28.0454 26.2686 28.3819V32.5256C26.2662 32.8605 26.1314 33.1808 25.8938 33.4167C25.6561 33.6526 25.3349 33.7849 25 33.7849Z" fill="white"/>
</g>
</g>
</g>
<defs>
<filter id="filter0_b_16_11658" x="6.92829" y="-2.86272" width="36.1424" height="46.0907" filterUnits="userSpaceOnUse" color-interpolation-filters="sRGB">
<feFlood flood-opacity="0" result="BackgroundImageFix"/>
<feGaussianBlur in="BackgroundImageFix" stdDeviation="1.60714"/>
<feComposite in2="SourceAlpha" operator="in" result="effect1_backgroundBlur_16_11658"/>
<feBlend mode="normal" in="SourceGraphic" in2="effect1_backgroundBlur_16_11658" result="shape"/>
</filter>
<linearGradient id="paint0_linear_16_11658" x1="4.59945" y1="57.4113" x2="36.5677" y2="54.9107" gradientUnits="userSpaceOnUse">
<stop stop-color="#028FBE"/>
<stop offset="1" stop-color="#3ABBDB"/>
</linearGradient>
<linearGradient id="paint1_linear_16_11658" x1="51.6069" y1="49.2087" x2="4.67834" y2="3.24437" gradientUnits="userSpaceOnUse">
<stop stop-color="white"/>
<stop offset="0.12" stop-color="#F6FBFE"/>
<stop offset="0.31" stop-color="#DEF1FB"/>
<stop offset="0.56" stop-color="#B6E0F5"/>
<stop offset="0.84" stop-color="#7FC9EE"/>
<stop offset="1" stop-color="#5EBBEA"/>
</linearGradient>
<linearGradient id="paint2_linear_16_11658" x1="14.0969" y1="46.7749" x2="50.1744" y2="58.0112" gradientUnits="userSpaceOnUse">
<stop offset="0.0128737" stop-color="#DEF1FF" stop-opacity="0.52"/>
<stop offset="1" stop-color="#DBF0FF"/>
</linearGradient>
<clipPath id="clip0_16_11658">
<rect width="40.5" height="47.5714" fill="white" transform="translate(0.5 0.351562)"/>
</clipPath>
</defs>
</svg>
