<svg width="21" height="21" viewBox="0 0 21 21" fill="none" xmlns="http://www.w3.org/2000/svg">
<g id="medal-label-icon 1" clip-path="url(#clip0_428_1391)">
<g id="Layer 2">
<g id="Layer 1">
<g id="Clip path group">
<mask id="mask0_428_1391" style="mask-type:luminance" maskUnits="userSpaceOnUse" x="0" y="0" width="21" height="21">
<g id="clip-path">
<path id="Vector" d="M20.3853 0.851562H0.385254L0.385254 20.8516H20.3853L20.3853 0.851562Z" fill="white"/>
</g>
</mask>
<g mask="url(#mask0_428_1391)">
<g id="Group">
<path id="Vector_2" d="M4.84515 8.05159L0.497153 1.83559C0.430851 1.74174 0.391754 1.6314 0.384172 1.51673C0.376591 1.40207 0.400819 1.28754 0.454186 1.18577C0.507553 1.084 0.587986 0.998944 0.686617 0.939978C0.785248 0.881012 0.898246 0.850427 1.01315 0.851595H5.35315C5.56659 0.863543 5.77439 0.924629 5.96033 1.03009C6.14628 1.13555 6.30536 1.28254 6.42515 1.45959L9.12515 5.95959C7.52074 6.21119 6.0293 6.94018 4.84515 8.05159ZM17.2452 13.9836C17.2444 15.344 16.84 16.6737 16.0833 17.8043C15.3265 18.9348 14.2514 19.8155 12.994 20.3349C11.7366 20.8542 10.3534 20.9889 9.01937 20.7218C7.68538 20.4547 6.4606 19.7979 5.50002 18.8346C4.53943 17.8712 3.88622 16.6445 3.62304 15.3097C3.35986 13.975 3.49855 12.5921 4.02155 11.3362C4.54455 10.0803 5.42835 9.00779 6.56112 8.25435C7.69389 7.50091 9.0247 7.10043 10.3852 7.10359C12.2081 7.10359 13.9564 7.82748 15.2458 9.11611C16.5352 10.4047 17.2601 12.1527 17.2612 13.9756M13.7532 12.4796L11.7052 12.1796L10.7852 10.3236C10.7478 10.2495 10.6906 10.1873 10.62 10.1438C10.5494 10.1004 10.4681 10.0773 10.3852 10.0773C10.3022 10.0773 10.2209 10.1004 10.1503 10.1438C10.0797 10.1873 10.0225 10.2495 9.98515 10.3236L9.06915 12.1796L7.02115 12.4796C6.9378 12.4924 6.85974 12.5284 6.79596 12.5836C6.73218 12.6388 6.68527 12.7108 6.66061 12.7915C6.63596 12.8721 6.63457 12.9581 6.6566 13.0395C6.67863 13.1209 6.72319 13.1944 6.78515 13.2516L8.26515 14.6956L7.91315 16.7356C7.89882 16.8182 7.90796 16.9032 7.93956 16.9809C7.97115 17.0586 8.02391 17.1259 8.09185 17.1751C8.15979 17.2243 8.24017 17.2534 8.32384 17.2591C8.40752 17.2649 8.49113 17.247 8.56515 17.2076L10.3852 16.2396L12.2172 17.2036C12.2912 17.243 12.3748 17.2609 12.4585 17.2551C12.5421 17.2494 12.6225 17.2203 12.6905 17.1711C12.7584 17.1219 12.8112 17.0546 12.8428 16.9769C12.8743 16.8992 12.8835 16.8142 12.8692 16.7316L12.5172 14.6916L13.9852 13.2516C14.045 13.1933 14.0873 13.1194 14.1073 13.0382C14.1273 12.9571 14.1243 12.872 14.0985 12.7926C14.0727 12.7131 14.0252 12.6424 13.9613 12.5885C13.8975 12.5346 13.8198 12.4997 13.7372 12.4876M20.2692 1.83559L15.9252 8.05159C14.7399 6.9433 13.2486 6.21717 11.6452 5.96759L14.3452 1.45959C14.4559 1.27414 14.613 1.12061 14.8009 1.01404C14.9888 0.907465 15.2011 0.851491 15.4172 0.851595H19.7572C19.8717 0.851169 19.9842 0.882293 20.0822 0.941555C20.1803 1.00082 20.2601 1.08593 20.313 1.18756C20.3659 1.2892 20.3898 1.40343 20.382 1.51774C20.3743 1.63204 20.3353 1.74202 20.2692 1.83559Z" fill="white"/>
</g>
</g>
</g>
</g>
</g>
</g>
<defs>
<clipPath id="clip0_428_1391">
<rect width="20" height="20" fill="white" transform="translate(0.385254 0.851562)"/>
</clipPath>
</defs>
</svg>
