<svg width="17" height="17" viewBox="0 0 17 17" fill="none" xmlns="http://www.w3.org/2000/svg">
<g id="filter">
<path id="Vector" fill-rule="evenodd" clip-rule="evenodd" d="M6.14755 6.93355C5.72733 6.93355 5.38668 6.59289 5.38668 6.17268C5.38668 5.75247 5.72733 5.41181 6.14755 5.41181C6.56776 5.41181 6.90842 5.75247 6.90842 6.17268C6.90842 6.59289 6.56776 6.93355 6.14755 6.93355ZM4.33245 5.60203C4.57484 4.83029 5.29582 4.27051 6.14755 4.27051C6.99927 4.27051 7.72025 4.83029 7.96264 5.60203H12.8052C13.1203 5.60203 13.3758 5.85752 13.3758 6.17268C13.3758 6.48784 13.1203 6.74333 12.8052 6.74333H7.96264C7.72025 7.51507 6.99927 8.07486 6.14755 8.07486C5.29582 8.07486 4.57484 7.51507 4.33245 6.74333H3.29428C2.97913 6.74333 2.72363 6.48784 2.72363 6.17268C2.72363 5.85752 2.97913 5.60203 3.29428 5.60203H4.33245ZM9.95189 11.8792C10.3721 11.8792 10.7128 11.5386 10.7128 11.1183C10.7128 10.6981 10.3721 10.3575 9.95189 10.3575C9.53167 10.3575 9.19102 10.6981 9.19102 11.1183C9.19102 11.5386 9.53167 11.8792 9.95189 11.8792ZM11.7669 10.5477C11.5246 9.77593 10.8036 9.21616 9.95189 9.21616C9.10018 9.21616 8.37918 9.77593 8.13684 10.5477H3.29428C2.97913 10.5477 2.72363 10.8032 2.72363 11.1183C2.72363 11.4335 2.97913 11.689 3.29428 11.689H8.13684C8.37918 12.4607 9.10018 13.0205 9.95189 13.0205C10.8036 13.0205 11.5246 12.4607 11.7669 11.689H12.8052C13.1203 11.689 13.3758 11.4335 13.3758 11.1183C13.3758 10.8032 13.1203 10.5477 12.8052 10.5477H11.7669Z" fill="#028FBE"/>
</g>
</svg>
