<svg width="109" height="43" viewBox="0 0 109 43" fill="none" xmlns="http://www.w3.org/2000/svg">
<g id="Layer_1" clip-path="url(#clip0_899_225)">
<g id="P4GnVb.tif">
<g id="Group">
<path id="Vector" d="M21.4442 42.8955C14.6295 42.8955 7.81476 42.8955 0.997151 42.8955C0.669335 42.8955 0.505426 42.7332 0.505426 42.4085C0.505426 28.9918 0.502534 15.572 0.499641 2.15234C0.499641 1.83741 0.493856 1.52539 0.499641 1.21046C0.514104 0.924682 0.540136 0.90427 0.817816 0.898438C0.878558 0.898438 0.939301 0.898438 0.997151 0.898438C14.6526 0.898438 28.3052 0.898438 41.9607 0.898438C42.2519 0.898438 42.3984 1.04327 42.4003 1.33293C42.4003 15.053 42.4003 28.773 42.4003 42.496C42.4003 42.5689 42.3946 42.6418 42.4003 42.7118C42.4148 42.8547 42.3512 42.9072 42.2123 42.8955C42.0937 42.8868 41.9722 42.8955 41.8508 42.8955C35.0476 42.8955 28.2445 42.8955 21.4413 42.8955H21.4442ZM6.27595 33.8849C6.38876 33.9345 6.51025 33.9141 6.62595 33.9141C7.76848 33.9141 8.90813 33.8907 10.0507 33.9257C10.5655 33.9403 10.9705 33.8791 11.1209 33.3104C11.8469 32.1994 12.4659 31.0272 13.1485 29.8899C13.8398 28.741 14.4964 27.5746 15.1675 26.414C15.9109 25.128 16.6832 23.8624 17.415 22.5706C17.791 21.9086 18.1728 21.2496 18.5459 20.5877C18.7947 20.1473 19.0695 19.7216 19.2835 19.2609C19.3905 19.0305 19.5728 18.9197 19.8273 18.9226C20.0789 18.9226 20.3306 18.9109 20.5851 18.9109C23.7813 18.9139 26.9775 18.9197 30.1738 18.9255C30.2779 18.9255 30.4167 18.9722 30.4804 18.8818C30.5642 18.7622 30.4312 18.6631 30.3762 18.5639C29.8267 17.6133 29.2771 16.6627 28.7217 15.7149C28.4093 15.1813 28.0854 14.6535 27.773 14.1199C27.4461 13.56 27.1251 12.9943 26.8011 12.4315C26.5813 12.0494 26.3875 11.6529 26.1329 11.2971C25.7425 10.7518 25.4416 10.154 25.1148 9.57371C24.7995 9.01675 24.4698 8.46561 24.1631 7.90281C23.7756 7.19421 23.3533 6.5031 22.9483 5.80325C22.8037 5.55247 22.7285 5.53789 22.5867 5.77992C22.1934 6.4477 21.7595 7.09215 21.4413 7.79783C21.2504 8.22066 21.0074 8.61433 20.7703 8.99634C20.3769 9.63204 20.024 10.2911 19.6133 10.918C19.3269 11.3496 19.0897 11.8191 18.8352 12.2711C18.3377 13.1517 17.8083 14.012 17.3253 14.9014C17.1286 15.2659 16.9579 15.6566 16.741 15.9978C16.4575 16.4498 16.1683 16.9018 15.8848 17.3567C15.4307 18.0886 15.0055 18.838 14.5977 19.5962C14.3142 20.124 13.9873 20.6227 13.6865 21.1388C13.1977 21.9757 12.706 22.8155 12.2142 23.6524C11.6386 24.6352 11.0428 25.6091 10.4961 26.6093C10.1027 27.3267 9.6891 28.0295 9.26101 28.7206C8.76929 29.5166 8.32673 30.3419 7.85526 31.1467C7.38089 31.9545 6.86313 32.736 6.39455 33.5466C6.3367 33.6487 6.26728 33.7478 6.28174 33.8878L6.27595 33.8849ZM39.2244 33.882C39.2157 33.8295 39.2244 33.7741 39.1983 33.7391C38.8194 33.1705 38.4984 32.5668 38.1599 31.972C37.4368 30.6976 36.6905 29.4321 35.953 28.1665C35.5451 27.4637 35.1315 26.7668 34.7265 26.0611C34.6224 25.8832 34.5038 25.7783 34.2753 25.8016C34.0121 25.8278 33.746 25.8074 33.4828 25.8074C30.4543 25.8074 27.4259 25.8074 24.3974 25.8016C24.166 25.8016 24.0446 25.8541 23.9404 26.0844C23.7206 26.5685 23.4429 27.0234 23.1971 27.4958C22.9078 28.0499 22.5029 28.5339 22.2136 29.0967C21.9909 29.5371 21.6669 29.9278 21.4355 30.3594C21.0074 31.1584 20.5273 31.9224 20.0905 32.7156C19.5872 33.6341 19.0174 34.5177 18.5286 35.4479C18.355 35.7774 18.1439 35.8766 17.7881 35.8766C13.6547 35.8649 9.51844 35.8678 5.38507 35.8649C5.27804 35.8649 5.16813 35.8707 5.06111 35.8737C4.98012 35.8766 4.92516 35.9232 4.90202 35.999C4.76029 36.4423 4.54335 36.8535 4.27146 37.2209C3.97064 37.6233 3.81444 38.1132 3.47891 38.4894C3.39214 38.5885 3.45577 38.6818 3.6004 38.6964C3.64668 38.7022 3.69585 38.6964 3.74502 38.6964C9.20027 38.6439 14.6584 38.6877 20.1137 38.676C20.3422 38.676 20.5822 38.6439 20.7963 38.7051C21.1781 38.816 21.4066 38.6643 21.5859 38.3581C21.8405 37.9236 22.1037 37.495 22.3496 37.0547C22.876 36.1128 23.4863 35.2175 23.952 34.2407C24.0127 34.1124 24.1342 34.0278 24.2702 33.9607C24.4119 33.8907 24.5507 33.9141 24.6896 33.9141C29.3899 33.9141 34.0873 33.9141 38.7876 33.9111C38.9264 33.9111 39.0711 33.9403 39.2215 33.8791L39.2244 33.882ZM12.9027 33.8791C12.9403 33.8907 12.9721 33.9111 13.0039 33.9111C14.3749 33.9141 15.7431 33.917 17.1141 33.9199C17.2761 33.9199 17.386 33.8441 17.4612 33.7099C17.5075 33.6254 17.5393 33.535 17.5885 33.4533C18.0918 32.6048 18.6009 31.7562 19.1042 30.9047C19.4628 30.2981 19.8157 29.6887 20.1686 29.0822C20.6893 28.184 21.207 27.2829 21.7277 26.3848C22.1934 25.5829 22.6995 24.8043 23.1247 23.9761C23.2231 23.7837 23.3648 23.6845 23.5875 23.7079C23.6714 23.7166 23.7553 23.7079 23.8392 23.7079C26.5437 23.7079 29.2482 23.7079 31.9526 23.7079C32.2795 23.7079 32.5919 23.8128 32.9361 23.7254C33.2832 23.6379 33.3179 23.6437 33.1501 23.3171C33.1183 23.2529 33.0807 23.1917 33.046 23.1305C32.67 22.4598 32.239 21.8212 31.8948 21.133C31.8051 20.9522 31.6865 20.8764 31.4725 20.8764C27.88 20.8851 24.2846 20.8851 20.6922 20.8764C20.4926 20.8764 20.374 20.9463 20.2901 21.1067C19.9083 21.8387 19.4223 22.5064 19.0666 23.2559C18.7368 23.947 18.2682 24.5593 17.8835 25.2242C17.3513 26.1457 16.848 27.0847 16.2927 27.9915C15.827 28.7556 15.3844 29.5341 14.9187 30.2952C14.482 31.0097 14.1667 31.7941 13.6374 32.4531C13.6171 32.4794 13.6084 32.5173 13.5969 32.5523C13.4609 32.8993 13.2584 33.2113 13.0502 33.5204C12.975 33.6312 12.9113 33.7391 12.9084 33.882L12.9027 33.8791Z" fill="#EC1D30"/>
<path id="Vector_2" d="M74.7155 23.3346C74.7155 23.9732 74.7213 24.6118 74.7126 25.2504C74.7097 25.4458 74.7531 25.545 74.9642 25.5129C75.0221 25.5041 75.0857 25.5129 75.1436 25.5129C75.2477 25.5071 75.294 25.5508 75.294 25.6587C75.294 26.2361 75.2911 26.8164 75.294 27.3938C75.294 27.5512 75.2188 27.6095 75.077 27.6125C74.7762 27.6125 74.4754 27.6125 74.1775 27.6125C74.0242 27.6125 73.9634 27.5308 73.9808 27.3792C73.9866 27.3325 73.9866 27.2829 73.9837 27.2334C73.975 26.9884 73.8824 26.8893 73.6337 26.8893C72.6965 26.8893 71.7594 26.8893 70.8251 26.8951C70.5503 26.8951 70.5387 26.9184 70.5329 27.2188C70.5272 27.6241 70.5243 27.627 70.1338 27.6183C69.966 27.6154 69.7982 27.6125 69.6305 27.6066C69.4569 27.6008 69.373 27.5279 69.3759 27.3383C69.3817 26.8076 69.3817 26.2769 69.373 25.7462C69.373 25.5741 69.4396 25.5158 69.6044 25.5041C69.9747 25.4779 70.0268 25.3992 70.0962 25.0288C70.2032 24.466 70.2205 23.8886 70.3247 23.3317C70.4491 22.6552 70.4606 21.9786 70.5272 21.3021C70.5532 21.0192 70.6197 20.958 70.8945 20.958C72.0949 20.958 73.2953 20.958 74.4957 20.9609C74.6114 20.9609 74.6663 20.9376 74.6866 21.1388C74.7415 21.7133 74.6894 22.2877 74.7155 22.8593C74.7242 23.0167 74.7155 23.1713 74.7155 23.3288V23.3346ZM71.5684 25.577C71.8577 25.6441 72.1209 25.5829 72.3812 25.5858C72.6155 25.5887 72.9135 25.6849 73.0725 25.5216C73.2143 25.3758 73.1217 25.0842 73.1217 24.8597C73.1275 24.1015 73.1217 23.3433 73.1275 22.5823C73.1275 22.4044 73.087 22.3169 72.8874 22.3315C72.6618 22.3461 72.4304 22.3315 72.2048 22.3373C72.0746 22.3373 72.0052 22.3869 71.9734 22.5443C71.8577 23.1246 71.8577 23.7166 71.7622 24.2998C71.6928 24.7197 71.6841 25.1484 71.5684 25.5741V25.577Z" fill="#606161"/>
<path id="Vector_3" d="M95.7991 38.8102C95.7471 38.6615 95.7644 38.5303 95.7615 38.3961C95.7615 36.6727 95.7615 34.9494 95.7615 33.2289C95.7615 33.1676 95.7644 33.1093 95.7615 33.0481C95.75 32.9023 95.7933 32.8323 95.9582 32.8323C96.8346 32.8381 97.7111 32.809 98.5846 32.844C99.0474 32.8615 99.4813 33.0102 99.8313 33.3776C100.358 33.9317 100.462 34.7715 100.031 35.3955C99.8515 35.6521 99.837 35.6725 100.057 35.8533C100.627 36.3257 100.621 37.2793 100.28 37.8829C99.9903 38.3932 99.5391 38.6353 98.9577 38.7052C98.0379 38.819 97.1181 38.7286 96.2012 38.7606C96.071 38.7665 95.938 38.7315 95.7962 38.8102H95.7991ZM98.1305 36.4511C97.6079 36.4492 97.3688 36.6961 97.4131 37.1918C97.4131 37.1918 97.4131 37.2151 97.4131 37.2268C97.4131 37.3259 97.4565 37.3843 97.5635 37.3843C97.8528 37.3814 98.1449 37.4134 98.4255 37.3697C98.9317 37.2968 98.9809 37.2064 98.9346 36.699C98.923 36.5794 98.871 36.559 98.7697 36.5153C98.5441 36.4161 98.3185 36.4745 98.1247 36.4511H98.1305ZM97.983 35.1447C98.0437 35.1447 98.1016 35.1447 98.1623 35.1447C98.6396 35.1331 98.8044 34.9348 98.7177 34.477C98.6974 34.3661 98.6482 34.3137 98.521 34.2699C98.2028 34.162 97.8846 34.2349 97.5693 34.2116C97.4652 34.2028 97.4218 34.2699 97.4189 34.3661C97.4189 34.439 97.4189 34.509 97.4189 34.5819C97.4276 35.2322 97.3408 35.1651 97.9859 35.1447H97.983Z" fill="#606161"/>
<path id="Vector_4" d="M91.6509 38.8422C90.7196 38.9064 89.9501 38.5127 89.3688 37.8478C88.9869 37.4133 88.7035 36.8564 88.7093 36.2178C88.7122 35.8241 88.6746 35.4304 88.7671 35.0397C89.0506 33.8237 89.6378 33.2055 90.8237 32.8293C91.0348 32.7622 91.2604 32.7272 91.4832 32.7097C92.7327 32.6135 94.1298 33.2871 94.5666 34.6198C94.9137 35.6812 94.8443 36.7251 94.1819 37.6729C93.7596 38.2765 93.1521 38.5885 92.4637 38.7781C92.1947 38.851 91.9228 38.8393 91.6509 38.8422ZM90.2944 35.7891C90.2799 36.0545 90.3117 36.3461 90.4477 36.6143C90.76 37.2267 91.4109 37.425 91.9518 37.3317C92.5216 37.2355 92.9063 36.8972 93.0798 36.3286C93.2245 35.8562 93.1174 35.4217 92.9121 34.993C92.5158 34.1648 91.3038 33.9957 90.6617 34.6839C90.3753 34.9901 90.2857 35.3517 90.2944 35.7891Z" fill="#606161"/>
<path id="Vector_5" d="M54.9485 15.0996C54.3671 15.1696 53.751 14.9159 53.2187 14.5106C52.5969 14.0382 52.215 13.3967 52.1341 12.5947C52.1022 12.2944 52.0791 11.9999 52.1109 11.6966C52.2613 10.3552 52.9873 9.5008 54.2543 9.08963C54.8241 8.90592 55.391 8.89426 55.9695 9.07214C56.4699 9.22669 56.9356 9.43664 57.3116 9.81282C57.7339 10.2356 57.9248 10.7576 58.081 11.3321C58.243 11.9445 58.1823 12.5131 58.0029 13.0788C57.6761 14.1082 56.9587 14.7439 55.9203 15.0238C55.6369 15.0996 55.3534 15.088 54.9514 15.0967L54.9485 15.0996ZM55.0555 13.6037C55.203 13.6037 55.417 13.6154 55.6166 13.5133C56.0765 13.28 56.4092 12.9855 56.4786 12.4052C56.548 11.8132 56.4786 11.3175 56.0534 10.8772C55.6282 10.4369 55.1133 10.4077 54.6043 10.5739C54.1096 10.7372 53.7915 11.1221 53.7076 11.6674C53.6671 11.9328 53.67 12.1952 53.7191 12.4577C53.8406 13.105 54.1964 13.5395 55.0526 13.6037H55.0555Z" fill="#606161"/>
<path id="Vector_6" d="M79.3026 38.8363C78.7154 38.8858 78.1947 38.7604 77.7088 38.4922C76.9394 38.0664 76.4766 37.4074 76.3059 36.553C76.1844 35.9464 76.2336 35.3399 76.3638 34.7334C76.4216 34.4592 76.5489 34.2172 76.6993 34.0073C77.0956 33.462 77.6105 33.0304 78.2699 32.8554C78.8137 32.7096 79.3662 32.628 79.9505 32.7942C80.3901 32.9196 80.8009 33.0625 81.1711 33.3278C81.7496 33.7419 82.0533 34.328 82.2182 35.0075C82.3136 35.3924 82.3686 35.7773 82.2963 36.1768C82.1401 37.0429 81.819 37.8156 81.0525 38.3143C80.5145 38.6642 79.9447 38.9296 79.3055 38.8392L79.3026 38.8363ZM80.7025 35.9144C80.6765 35.3195 80.5666 34.8121 80.0488 34.4592C79.5687 34.1326 78.5708 34.2026 78.2034 34.6575C77.8476 35.0979 77.7117 35.6198 77.8303 36.1681C77.9084 36.5326 78.0646 36.8883 78.4146 37.1099C78.9236 37.4336 79.4385 37.4395 79.9592 37.1683C80.4711 36.9 80.6447 36.4218 80.6996 35.9144H80.7025Z" fill="#606161"/>
<path id="Vector_7" d="M87.1183 23.8536C87.1183 24.746 87.1183 25.6383 87.1183 26.5306C87.1183 26.8689 87.1038 26.8805 86.7799 26.8864C86.4444 26.8922 86.1059 26.8834 85.7704 26.898C85.5824 26.9068 85.5159 26.8455 85.5188 26.6589C85.5274 26.2127 85.5245 25.7666 85.5216 25.3204C85.5216 25.0405 85.4927 25.0347 85.2179 24.9997C84.8737 24.9559 84.6828 25.1017 84.5266 25.4021C84.2952 25.8541 84.0725 26.3119 83.8035 26.7464C83.7283 26.8689 83.6502 26.9009 83.5171 26.898C83.1209 26.8893 82.7246 26.8951 82.3283 26.8893C82.0593 26.8863 82.0044 26.8047 82.1287 26.5714C82.4064 26.0524 82.7275 25.5595 83.0543 25.0696C83.2395 24.7955 83.2539 24.8072 83.037 24.5797C82.6841 24.2123 82.444 23.7895 82.392 23.2675C82.3283 22.6027 82.5048 22.002 82.9358 21.5121C83.2308 21.1767 83.6589 21.0134 84.113 20.9493C85.0299 20.818 85.9526 20.9084 86.8696 20.8734C87.0807 20.8647 87.1241 20.9463 87.1212 21.1388C87.1125 22.0428 87.1183 22.9468 87.1183 23.8507V23.8536ZM85.5216 23.1567C85.5216 22.9555 85.5188 22.798 85.5216 22.6435C85.5274 22.4977 85.4667 22.4131 85.3163 22.4131C84.9923 22.4102 84.6684 22.4131 84.3444 22.4044C84.1593 22.3985 84.0204 22.5152 83.9828 22.6493C83.9076 22.9234 83.8932 23.2179 84.0118 23.495C84.0407 23.565 84.0985 23.597 84.1593 23.6408C84.382 23.7982 84.6308 23.7895 84.8824 23.7778C85.0849 23.7691 85.3394 23.8653 85.4725 23.7341C85.6229 23.5883 85.4985 23.3258 85.5188 23.1567H85.5216Z" fill="#606161"/>
<path id="Vector_8" d="M62.5849 36.5619C62.0555 36.3811 61.5262 36.4744 61.0056 36.454C60.7163 36.4423 60.7163 36.4511 60.7134 36.1565C60.7134 35.8912 60.7221 35.6258 60.7134 35.3605C60.7076 35.1884 60.7655 35.133 60.9419 35.1388C61.4799 35.1534 62.0208 35.1447 62.5791 35.1447C62.6022 34.7918 62.4026 34.5644 62.1539 34.4156C61.827 34.2203 61.4539 34.1036 61.0663 34.2611C60.9506 34.3078 60.8291 34.2523 60.7163 34.3107C60.4936 34.4273 60.2738 34.5352 60.2072 34.8122C60.1523 35.0368 59.9961 35.098 59.7762 35.0863C59.4523 35.0718 59.1283 35.0863 58.8044 35.0805C58.5527 35.0805 58.4717 35.0047 58.5585 34.7947C58.7378 34.3515 58.8854 33.8733 59.2556 33.5437C59.8052 33.0538 60.4676 32.7797 61.1936 32.7681C61.827 32.7593 62.4663 32.8643 63.0187 33.2259C63.6233 33.6225 64.0542 34.1503 64.2249 34.8764C64.4071 35.6521 64.358 36.4015 64.0485 37.1392C63.7274 37.9033 63.146 38.3611 62.3911 38.6381C61.9369 38.8043 61.4741 38.8889 60.9969 38.8393C60.3923 38.7752 59.8283 38.5827 59.3568 38.1715C58.9635 37.8304 58.6684 37.4279 58.5238 36.9147C58.4978 36.8214 58.492 36.731 58.4775 36.6377C58.4544 36.5065 58.4978 36.4394 58.6482 36.4423C59.0444 36.4511 59.4407 36.4481 59.837 36.4423C59.9614 36.4423 60.0568 36.489 60.0713 36.6144C60.1147 37.0022 60.3866 37.183 60.7047 37.3055C61.2919 37.5329 62.2783 37.3492 62.582 36.556L62.5849 36.5619Z" fill="#606161"/>
<path id="Vector_9" d="M55.9546 38.7869V35.7367C55.6104 36.0691 55.3241 36.3345 55.0493 36.6115C54.4303 37.2326 53.8142 37.8596 53.1981 38.4836C53.0968 38.5857 52.9956 38.6848 52.8597 38.7402C52.634 38.8306 52.4807 38.749 52.4547 38.507C52.4402 38.3757 52.4431 38.2416 52.4431 38.1104C52.4374 36.4715 52.4316 34.8298 52.4258 33.191C52.4258 32.7856 52.4518 32.8206 52.7729 32.8294C53.0853 32.8381 53.3977 32.8294 53.71 32.8294C54.0195 32.8294 54.0195 32.8323 54.0167 33.156C54.0109 33.9025 54.0051 34.6519 54.0022 35.3984C54.0022 35.4334 54.0109 35.4684 54.0195 35.5267C54.2914 35.4188 54.4245 35.1564 54.653 35.0135C54.8121 34.9115 54.9394 34.7598 55.0695 34.6169C55.6249 34.0191 56.2641 33.5088 56.8311 32.9198C56.9005 32.8469 56.9872 32.8061 57.0682 32.774C57.3459 32.669 57.5368 32.8061 57.5426 33.1093C57.5484 33.3397 57.5368 33.5671 57.5368 33.7975C57.5368 35.3051 57.5426 36.8127 57.5455 38.3203C57.5455 38.7461 57.531 38.7577 57.0972 38.7636C56.7298 38.7694 56.3567 38.7373 55.9546 38.7869Z" fill="#606161"/>
<path id="Vector_10" d="M82.2739 12.1397C82.0917 12.0989 82.0194 12.2272 81.9297 12.3176C81.1112 13.1312 80.2955 13.9477 79.4769 14.7642C79.3496 14.8925 79.2195 15.012 79.0228 15.0237C78.855 15.0325 78.7393 14.9858 78.748 14.7875C78.7509 14.7029 78.748 14.6184 78.748 14.5338C78.748 12.8454 78.748 11.157 78.748 9.47153C78.748 9.4103 78.7509 9.35197 78.748 9.29074C78.7393 9.1566 78.7914 9.08661 78.9331 9.08953C79.3294 9.08953 79.7257 9.08953 80.1219 9.08661C80.3302 9.08661 80.3475 9.21784 80.3447 9.3753C80.3389 10.0635 80.336 10.7488 80.336 11.437C80.336 11.5419 80.2984 11.6498 80.3591 11.7577C80.3938 11.7519 80.4401 11.7606 80.4604 11.7431C80.8103 11.3641 81.2355 11.0695 81.5855 10.6904C82.0425 10.2005 82.5834 9.79813 83.0405 9.30532C83.1764 9.15951 83.35 9.05745 83.5756 9.07495C83.7549 9.08953 83.8359 9.17993 83.8619 9.33739C83.8735 9.40738 83.8706 9.48028 83.8706 9.55318C83.8706 11.2416 83.8764 12.93 83.8764 14.6155C83.8764 15.0179 83.8764 15.0179 83.4772 15.0179C83.1764 15.0179 82.8756 15.0179 82.5777 15.0179C82.3029 15.012 82.2768 14.9975 82.2942 14.7321C82.3144 14.3705 82.2942 14.006 82.2855 13.6473C82.2739 13.1458 82.3405 12.6413 82.2797 12.1426L82.2739 12.1397Z" fill="#606161"/>
<path id="Vector_11" d="M73.8506 11.8628C74.189 11.4633 74.5737 11.2213 74.8832 10.8918C75.4415 10.2998 76.0692 9.78657 76.665 9.23836C76.8212 9.09547 77.0295 9.17712 77.1972 9.09255C77.2146 9.0838 77.3708 9.15962 77.3737 9.27918C77.3737 9.35208 77.3766 9.42498 77.3737 9.49497C77.3245 11.195 77.365 12.8951 77.3737 14.5922C77.3737 14.6651 77.3737 14.738 77.3737 14.808C77.3737 14.9334 77.3245 15.0151 77.1828 15.0151C76.7633 15.0151 76.341 15.0122 75.9216 15.0151C75.7741 15.0151 75.7857 14.913 75.7857 14.8168C75.7944 13.9974 75.8059 13.178 75.8146 12.3585C75.8146 12.2798 75.8696 12.1719 75.7741 12.1311C75.6844 12.0932 75.6208 12.1632 75.5456 12.2361C74.6229 13.0759 73.7725 13.9857 72.8932 14.8664C72.8382 14.9218 72.7775 14.9393 72.711 14.9655C72.3812 15.0967 72.2713 15.0355 72.2655 14.6826C72.2568 14.0907 72.2597 13.5016 72.2597 12.9097C72.2597 11.9911 72.2742 11.0726 72.2511 10.1569C72.2453 9.86531 72.2655 9.57662 72.2568 9.28501C72.2511 9.13629 72.306 9.06922 72.4651 9.07506C72.8382 9.08672 73.2085 9.09838 73.5816 9.0838C73.787 9.07797 73.8535 9.14213 73.8506 9.34625C73.8419 10.0461 73.8477 10.746 73.8477 11.4429C73.8477 11.5566 73.8477 11.6733 73.8477 11.857L73.8506 11.8628Z" fill="#606161"/>
<path id="Vector_12" d="M78.0563 23.6905C78.1517 23.7138 78.1864 23.6351 78.2356 23.5884C79.0079 22.8506 79.8034 22.1362 80.538 21.3605C80.7492 21.1389 80.9835 20.9902 81.3132 21.0106C81.4665 21.0223 81.536 21.066 81.5475 21.2118C81.5533 21.2964 81.5562 21.381 81.5562 21.4655C81.5591 23.1189 81.562 24.7694 81.5649 26.4228C81.5649 26.5191 81.5736 26.6182 81.5504 26.7086C81.5157 26.8456 81.4376 26.9156 81.267 26.904C80.943 26.8806 80.619 26.8952 80.2951 26.8923C80.029 26.8923 79.8323 26.7115 79.9248 26.4811C80.0348 26.2099 79.9393 25.9563 79.9682 25.6967C80.0174 25.2185 79.9885 24.7344 79.9885 24.2504C79.9885 24.192 80.0029 24.1133 79.9451 24.0871C79.8815 24.0579 79.8034 24.0608 79.7484 24.125C79.7166 24.16 79.6819 24.195 79.6472 24.227C78.8054 24.9969 77.9927 25.7988 77.1943 26.6153C77.0931 26.7203 76.989 26.8165 76.853 26.869C76.5782 26.9769 76.4394 26.8865 76.4394 26.589C76.4365 24.8044 76.4394 23.0198 76.4336 21.2352C76.4336 21.0339 76.4886 20.9523 76.6968 20.9581C77.0699 20.9698 77.4431 20.9698 77.8133 20.9581C77.9927 20.9523 78.0389 21.0164 78.036 21.1827C78.0274 21.9292 78.0245 22.6786 78.0245 23.4251C78.0245 23.5155 77.9753 23.6147 78.0592 23.6934L78.0563 23.6905Z" fill="#606161"/>
<path id="Vector_13" d="M52.9464 23.6904C53.0621 23.705 53.0968 23.6292 53.1431 23.5825C53.5856 23.113 54.0832 22.7018 54.5286 22.2324C54.9104 21.827 55.3443 21.4625 55.7377 21.063C55.8967 20.9026 56.0992 20.9376 56.2757 20.9785C56.455 21.0193 56.4579 21.2059 56.4579 21.3692C56.4579 23.1072 56.4666 24.8422 56.4666 26.5802C56.4666 26.8747 56.4348 26.901 56.1281 26.901C55.8158 26.901 55.5034 26.901 55.191 26.8981C54.9307 26.8981 54.7455 26.7173 54.8207 26.4781C54.9191 26.1661 54.8757 25.8599 54.8728 25.5538C54.8728 25.2592 54.8931 24.9647 54.8439 24.6644C54.815 24.4836 54.8699 24.2503 54.8815 24.0345C54.705 23.9645 54.6269 24.0899 54.5402 24.1745C53.9588 24.7518 53.3745 25.3234 52.8047 25.9095C52.5183 26.204 52.1972 26.4519 51.9051 26.7348C51.8473 26.7902 51.772 26.8368 51.6968 26.8689C51.477 26.9651 51.3526 26.8893 51.344 26.6502C51.3324 26.3498 51.3353 26.0466 51.3353 25.7462C51.3353 24.2736 51.3353 22.8039 51.3353 21.3313C51.3353 20.9726 51.3353 20.9697 51.6795 20.9639C51.9803 20.958 52.2811 20.9639 52.5791 20.9639C52.9175 20.9639 52.9319 20.9755 52.9319 21.3021C52.9319 22.0253 52.9233 22.7485 52.9175 23.4717C52.9175 23.5446 52.9001 23.6175 52.9435 23.6933L52.9464 23.6904Z" fill="#606161"/>
<path id="Vector_14" d="M108.477 12.0873C108.477 12.9563 108.477 13.8224 108.477 14.6914C108.477 14.9976 108.474 15.0063 108.188 15.0121C107.84 15.018 107.49 15.0121 107.143 15.018C106.981 15.0238 106.938 14.9567 106.944 14.8051C106.955 14.3823 106.952 13.9624 106.958 13.5395C106.961 13.2479 106.964 13.2479 106.689 13.2129C106.655 13.2071 106.617 13.2071 106.585 13.1954C106.333 13.108 106.18 13.2246 106.05 13.4287C105.819 13.7991 105.619 14.1927 105.44 14.5893C105.298 14.9013 105.095 15.0501 104.743 15.0209C104.422 14.9917 104.095 15.018 103.771 15.0063C103.528 14.9976 103.481 14.9042 103.588 14.6797C103.849 14.1344 104.193 13.6445 104.531 13.1517C104.644 12.9855 104.665 12.898 104.508 12.7668C104.19 12.5014 103.965 12.1486 103.889 11.7578C103.797 11.2942 103.759 10.7984 103.944 10.3464C104.121 9.91779 104.387 9.55036 104.838 9.33749C105.188 9.17128 105.538 9.07796 105.92 9.08088C106.594 9.08379 107.265 9.08671 107.939 9.08963C108.034 9.08963 108.133 9.08379 108.225 9.09837C108.491 9.1392 108.514 9.17127 108.5 9.45122C108.451 10.3319 108.483 11.2125 108.48 12.0903L108.477 12.0873ZM107.013 10.5127C106.588 10.5068 106.206 10.4806 105.824 10.5185C105.576 10.5418 105.428 10.6672 105.367 10.9005C105.321 11.0784 105.31 11.2738 105.385 11.4312C105.477 11.6178 105.558 11.8686 105.81 11.889C106.154 11.9182 106.504 11.889 106.851 11.8978C106.978 11.8978 107.016 11.854 107.016 11.7316C107.01 11.3379 107.016 10.9413 107.016 10.5097L107.013 10.5127Z" fill="#606161"/>
<path id="Vector_15" d="M61.1816 26.9302C61.1266 26.7873 61.1469 26.6415 61.1469 26.4986C61.1469 25.233 61.1469 23.9675 61.1469 22.7019C61.1469 22.3899 61.1469 22.3928 60.849 22.3899C60.6089 22.387 60.3688 22.3811 60.1287 22.3695C59.9957 22.3636 59.9291 22.4132 59.9205 22.5503C59.8829 23.0752 59.8597 23.603 59.7903 24.122C59.7122 24.7198 59.7469 25.3322 59.5792 25.9212C59.3825 26.6211 58.9399 26.9302 58.1387 26.936C57.9102 26.936 57.6846 26.8923 57.4561 26.8894C57.3201 26.8894 57.19 26.8398 57.2391 26.624C57.2883 26.4082 57.2507 26.1808 57.3172 25.9562C57.3924 25.6879 57.3635 25.6792 57.6556 25.6704C57.9189 25.6646 57.9651 25.6092 58.049 25.3584C58.1676 25.0114 58.1532 24.6527 58.1994 24.2999C58.2775 23.7138 58.3209 23.1247 58.3788 22.5386C58.4222 22.1216 58.5668 21.7075 58.4916 21.2789C58.4627 21.1097 58.5986 20.9756 58.7721 20.961C58.8213 20.9581 58.8676 20.961 58.9168 20.961C60.0825 20.961 61.2452 20.9581 62.4109 20.961C62.7175 20.961 62.7406 20.9843 62.7406 21.2876C62.7406 23.0343 62.7407 24.784 62.7378 26.5307C62.7378 26.8573 62.7002 26.8894 62.356 26.8923C62.0812 26.8952 61.8035 26.8923 61.5287 26.8923C61.413 26.8923 61.2944 26.8777 61.1845 26.936L61.1816 26.9302Z" fill="#606161"/>
<path id="Vector_16" d="M70.3104 35.8358C70.3104 36.6931 70.3104 37.5475 70.3104 38.4048C70.3104 38.7489 70.2872 38.7693 69.943 38.7693C69.6422 38.7693 69.3414 38.7693 69.0435 38.7693C68.7253 38.7693 68.7224 38.7606 68.7253 38.4427C68.7282 37.2005 68.7311 35.9583 68.734 34.716C68.734 34.2611 68.734 34.2611 68.2769 34.2582C68.1323 34.2582 67.9877 34.2524 67.846 34.2524C67.5394 34.2524 67.3918 34.369 67.4526 34.6635C67.5104 34.9464 67.4468 35.2147 67.4121 35.4742C67.3803 35.725 67.36 35.9728 67.3658 36.2207C67.3774 36.7864 67.2819 37.3376 67.1373 37.8799C67.0187 38.3203 66.5588 38.7868 66.0237 38.781C65.7229 38.781 65.4249 38.7693 65.1241 38.7606C64.9824 38.7577 64.8956 38.711 64.8985 38.5506C64.9014 38.2736 64.9014 37.9966 64.8985 37.7196C64.8985 37.5708 64.9737 37.5504 65.1039 37.5475C65.532 37.5446 65.6361 37.4425 65.6968 37.0226C65.7663 36.5298 65.772 36.0282 65.8472 35.5384C65.934 34.9901 65.9311 34.4303 66.0468 33.8849C66.0989 33.6312 66.0439 33.3688 66.1191 33.1064C66.177 32.9051 66.2522 32.8264 66.4576 32.8264C67.6232 32.8293 68.7889 32.8264 69.9546 32.8264C70.293 32.8264 70.3219 32.8643 70.3219 33.1909C70.3219 34.0716 70.3219 34.9522 70.3219 35.8329C70.3219 35.8329 70.319 35.8329 70.3162 35.8329L70.3104 35.8358Z" fill="#606161"/>
<path id="Vector_17" d="M96.9991 15.0939C96.435 15.0939 95.8826 15.0881 95.333 15.0968C95.1941 15.0968 95.171 14.9977 95.1392 14.9248C94.8586 14.2716 94.4392 13.6913 94.1586 13.0381C94.1152 12.939 94.1037 12.7815 93.9446 12.7786C93.7537 12.7757 93.557 12.764 93.3719 12.8019C93.2706 12.8223 93.2996 12.9652 93.2996 13.0585C93.3025 13.4201 93.3111 13.7817 93.3169 14.1433C93.3198 14.3562 93.2967 14.5661 93.262 14.779C93.2273 14.9744 93.1492 15.0152 92.9785 15.0123C92.6893 15.0064 92.4029 15.0123 92.1136 15.0094C91.9951 15.0094 91.8736 14.9889 91.7608 15.056C91.7029 14.9306 91.7232 14.7965 91.7232 14.6653C91.7232 12.9419 91.7232 11.2156 91.7232 9.49217C91.7232 9.40761 91.7232 9.32304 91.7232 9.23848C91.7232 9.1335 91.7781 9.08392 91.8794 9.08392C92.2988 9.08392 92.7211 9.07226 93.1405 9.08392C93.3256 9.08684 93.3198 9.24139 93.3198 9.37845C93.3198 9.9325 93.314 10.4865 93.314 11.0435C93.314 11.1281 93.314 11.2126 93.3198 11.2972C93.3314 11.4372 93.4211 11.4809 93.5454 11.4576C93.5888 11.4488 93.6293 11.3964 93.6698 11.3964C94.2107 11.4022 94.3611 11.0289 94.4681 10.5944C94.5462 10.2795 94.6359 9.96457 94.7863 9.67297C94.928 9.40177 95.1189 9.21515 95.4371 9.12766C95.7871 9.03143 96.1313 8.99353 96.49 8.99936C96.6173 8.99936 96.6896 9.05768 96.7127 9.18307C96.7619 9.45426 96.7879 9.72837 96.7763 10.0025C96.7706 10.1629 96.7011 10.2533 96.5305 10.2387C96.2355 10.2124 96.1255 10.3816 96.0359 10.6382C95.8623 11.1397 95.7032 11.6559 95.3908 12.0933C95.3214 12.1895 95.3648 12.2304 95.4111 12.3062C95.8681 13.0235 96.3164 13.7496 96.7792 14.4641C96.9007 14.6507 96.9297 14.8548 96.9933 15.0852L96.9991 15.0939Z" fill="#606161"/>
<path id="Vector_18" d="M70.4286 11.332C70.2839 11.332 70.1393 11.332 69.9976 11.332C69.7951 11.332 69.636 11.3466 69.5464 11.0608C69.4741 10.8334 69.205 10.6847 68.9563 10.5797C68.4443 10.361 67.7733 10.5622 67.3886 10.9558C67.0877 11.2649 66.9663 11.6353 66.9547 12.0027C66.9431 12.3614 67.0444 12.7434 67.2844 13.0612C67.8138 13.7611 68.5166 13.764 69.2137 13.4607C69.3526 13.3995 69.4972 13.2654 69.5319 13.0525C69.5695 12.8163 69.7604 12.7055 70.0034 12.7084C70.2926 12.7084 70.579 12.6996 70.8682 12.7142C71.1691 12.7288 71.2761 12.8717 71.1777 13.1546C71.0736 13.452 70.9868 13.7932 70.7988 14.0148C70.498 14.3676 70.1422 14.7001 69.6823 14.875C69.0922 15.0996 68.4646 15.2016 67.8658 15.0762C67.0646 14.9129 66.327 14.5718 65.8787 13.7932C65.4708 13.0875 65.3812 12.3468 65.4737 11.5507C65.5489 10.9034 65.789 10.3406 66.2373 9.88857C66.7117 9.41033 67.3105 9.16538 67.9786 9.06915C68.7018 8.96709 69.3728 9.12164 69.9947 9.45699C70.4951 9.72818 70.848 10.1743 71.0967 10.6905C71.1083 10.7109 71.1112 10.7371 71.117 10.7605C71.2057 11.1396 71.0524 11.3291 70.6571 11.3291C70.5848 11.3291 70.5125 11.3291 70.4401 11.3291L70.4286 11.332Z" fill="#606161"/>
<path id="Vector_19" d="M89.8602 11.3321C89.7995 11.3321 89.7387 11.3263 89.6809 11.3321C89.3483 11.3787 89.0966 11.3175 88.9636 10.9472C88.8594 10.6614 88.5412 10.5827 88.2925 10.5302C87.3756 10.3406 86.5744 10.7722 86.4702 11.8511C86.4384 12.1894 86.4818 12.5102 86.6264 12.828C86.9648 13.5745 87.7545 13.8166 88.4834 13.525C88.7408 13.4229 88.9664 13.2858 89.033 12.9826C89.0792 12.7785 89.2181 12.6968 89.4264 12.7026C89.7879 12.7143 90.1466 12.7114 90.5081 12.7201C90.6586 12.7231 90.7453 12.7376 90.6759 12.9534C90.5168 13.455 90.3404 13.9303 89.9528 14.3152C89.5045 14.7614 88.9549 15.0034 88.359 15.0763C87.552 15.1784 86.771 15.053 86.0913 14.5427C85.455 14.0674 85.0529 13.4579 84.9459 12.6589C84.8649 12.0465 84.8678 11.4516 85.0934 10.8655C85.4607 9.90614 86.1549 9.3725 87.1413 9.13338C87.9743 8.93217 88.7437 9.05756 89.464 9.45706C90.0743 9.79533 90.4821 10.3319 90.6499 11.0288C90.6962 11.2213 90.6181 11.3146 90.404 11.3233C90.2247 11.3292 90.0425 11.3233 89.8631 11.3233L89.8602 11.3321Z" fill="#606161"/>
<path id="Vector_20" d="M63.8858 11.3322C63.8019 11.3322 63.7152 11.3235 63.6342 11.3322C63.342 11.3672 63.1048 11.338 63.0094 10.9881C62.9342 10.7169 62.6825 10.6353 62.4425 10.5624C61.6731 10.332 60.8342 10.574 60.571 11.4488C60.4177 11.9533 60.4148 12.4899 60.678 12.9681C61.0165 13.5834 61.8524 13.8138 62.5234 13.528C62.7751 13.4201 62.9689 13.2685 63.0557 13.0031C63.1338 12.7582 63.2957 12.6823 63.5445 12.6998C63.8685 12.7232 64.1924 12.7144 64.5164 12.7115C64.661 12.7115 64.7189 12.7786 64.687 12.9127C64.5193 13.6242 64.2098 14.2453 63.5705 14.6536C63.1338 14.9335 62.6565 15.0735 62.1416 15.0968C61.5892 15.1202 61.0541 15.0706 60.5479 14.814C60.2066 14.6419 59.9057 14.4349 59.6396 14.1549C59.281 13.7788 59.0553 13.3414 58.9772 12.8369C58.8355 11.9212 58.85 11.0231 59.4227 10.2299C59.8479 9.64089 60.4206 9.28513 61.1351 9.14807C61.5082 9.07517 61.8726 8.98186 62.2631 9.06934C62.723 9.17432 63.1772 9.27055 63.5821 9.53299C64.0854 9.85959 64.4122 10.3087 64.5945 10.8715C64.6263 10.9706 64.606 11.0873 64.6118 11.1951C64.6205 11.3089 64.5569 11.3351 64.4585 11.3351C64.2676 11.3322 64.0738 11.3351 63.8829 11.3351L63.8858 11.3322Z" fill="#606161"/>
<path id="Vector_21" d="M46.7216 12.0466C46.7216 11.1543 46.7216 10.2619 46.7216 9.37254C46.7216 9.09843 46.7274 9.0926 46.9935 9.08969C47.8208 9.08385 48.6509 9.05469 49.4782 9.08969C50.3633 9.12759 51.205 9.57083 51.4335 10.7548C51.5607 11.4225 51.4855 12.032 51.1124 12.5948C50.8029 13.0614 50.3314 13.3005 49.7992 13.4317C49.3885 13.5338 48.972 13.5017 48.5554 13.5017C48.3732 13.5017 48.3067 13.5513 48.3154 13.7466C48.3327 14.0587 48.324 14.3736 48.3154 14.6856C48.3096 14.9335 48.2199 15.0093 47.9538 15.0122C47.6298 15.0122 47.3059 14.9947 46.9819 15.0122C46.7708 15.0239 46.7158 14.9568 46.7158 14.7527C46.7245 13.9099 46.7187 13.0672 46.7187 12.2215C46.7187 12.1603 46.7187 12.102 46.7187 12.0407L46.7216 12.0466ZM48.9402 12.0582C49.1195 12.0582 49.2988 12.0582 49.4782 12.0582C49.6517 12.0582 49.7905 11.9708 49.8513 11.822C49.9381 11.6033 50.019 11.37 49.9641 11.1309C49.8889 10.7985 49.7124 10.5506 49.3538 10.4865C49.0819 10.4398 48.8042 10.4806 48.5294 10.4631C48.353 10.4515 48.3009 10.5302 48.3009 10.6964C48.3067 11.0814 48.3067 11.4663 48.3009 11.8512C48.3009 11.9999 48.3414 12.0786 48.5063 12.0641C48.648 12.0524 48.7926 12.0641 48.9373 12.0641L48.9402 12.0582Z" fill="#606161"/>
<path id="Vector_22" d="M46.7218 35.7978C46.7218 34.9055 46.7218 34.0132 46.7218 33.1209C46.7218 32.8468 46.7276 32.841 46.9937 32.838C47.8239 32.8322 48.654 32.8001 49.4813 32.838C50.8523 32.9051 51.5378 33.882 51.4829 35.1126C51.4684 35.48 51.4077 35.8649 51.2081 36.2003C50.8754 36.7601 50.3722 37.0605 49.7503 37.1888C49.3829 37.2646 49.0098 37.2471 48.6367 37.2559C48.3243 37.2617 48.3243 37.2617 48.3214 37.5621C48.3214 37.8158 48.3214 38.0695 48.3185 38.3232C48.3156 38.7168 48.2693 38.7664 47.8904 38.7664C47.6011 38.7664 47.3148 38.7547 47.0255 38.7664C46.7565 38.7751 46.7189 38.816 46.7218 38.4427C46.7247 37.7545 46.7218 37.0663 46.7218 36.3811C46.7218 36.1886 46.7218 35.9961 46.7218 35.8008V35.7978ZM48.304 35.0105C48.304 35.203 48.3098 35.3954 48.304 35.5879C48.2982 35.7279 48.3301 35.7949 48.4949 35.8183C48.7205 35.8503 48.9433 35.8678 49.1689 35.8737C49.7821 35.8882 50.1494 35.3079 49.9065 34.7277C49.7994 34.4681 49.6346 34.2873 49.3569 34.2378C49.0503 34.1823 48.7379 34.2173 48.4284 34.2173C48.3127 34.2173 48.3069 34.3136 48.3069 34.3981C48.3069 34.6023 48.3069 34.8064 48.3069 35.0105H48.304Z" fill="#606161"/>
<path id="Vector_23" d="M83.3758 38.8248C83.37 38.6761 83.3613 38.5682 83.3584 38.4603C83.3584 36.699 83.3584 34.9377 83.3584 33.1764C83.3584 32.844 83.3584 32.8381 83.6824 32.8381C84.4402 32.8352 85.198 32.8177 85.953 32.8381C86.7108 32.8585 87.3848 33.1064 87.7666 33.815C88.0616 34.3661 88.1889 34.9348 88.0066 35.5938C87.8186 36.2762 87.4339 36.7311 86.8352 37.0314C86.5054 37.1976 86.1294 37.2151 85.7679 37.2414C85.5654 37.256 85.36 37.2501 85.1546 37.2472C85.0013 37.2472 84.9464 37.3084 84.9493 37.4659C84.9608 37.7779 84.9579 38.0929 84.9493 38.4078C84.9435 38.6848 84.8625 38.7606 84.579 38.7636C84.3014 38.7665 84.0266 38.7636 83.7489 38.7636C83.6303 38.7636 83.5088 38.7402 83.37 38.8277L83.3758 38.8248ZM84.9406 34.9989C84.9406 35.203 84.9406 35.4072 84.9406 35.6113C84.9406 35.725 84.9811 35.7892 85.1026 35.8008C85.3166 35.8213 85.5307 35.8621 85.7447 35.8708C86.2769 35.8912 86.5893 35.5792 86.5286 35.0485C86.4592 34.439 86.1844 34.162 85.6522 34.2058C85.4989 34.2174 85.3398 34.2203 85.1865 34.2058C84.9898 34.1883 84.9348 34.2816 84.9406 34.4565C84.9464 34.6373 84.9406 34.8181 84.9406 34.9989Z" fill="#606161"/>
<path id="Vector_24" d="M103.265 15.018C102.75 15.018 102.261 15.0122 101.769 15.0209C101.596 15.0238 101.518 14.9159 101.494 14.7906C101.413 14.3415 101.144 14.2511 100.731 14.2861C100.314 14.3211 99.8919 14.3007 99.4725 14.2773C99.2411 14.2628 99.111 14.3502 99.0329 14.5544C99.0068 14.6214 98.9721 14.6827 98.9461 14.7497C98.8824 14.9072 98.7667 15.0034 98.599 15.0063C98.168 15.0122 97.7341 15.0122 97.3031 15.0093C97.1325 15.0093 97.1036 14.9364 97.1788 14.7789C97.306 14.5048 97.3812 14.2044 97.5288 13.942C97.8961 13.2859 98.168 12.586 98.4949 11.9124C98.7957 11.2942 99.0965 10.6702 99.3684 10.0374C99.4928 9.74578 99.6576 9.47167 99.7849 9.18298C99.8428 9.05175 99.9151 8.99635 100.054 9.00218C100.172 9.00801 100.297 8.99052 100.413 9.00801C100.537 9.02843 100.624 9.08091 100.687 9.22963C100.968 9.88575 101.243 10.5506 101.564 11.1863C102.018 12.0932 102.42 13.0263 102.868 13.9362C103.027 14.2628 103.195 14.5894 103.265 15.0151V15.018ZM100.262 12.9184C100.358 12.9184 100.453 12.9243 100.549 12.9184C100.734 12.9097 100.794 12.8426 100.731 12.6852C100.618 12.4111 100.491 12.1428 100.366 11.8745C100.343 11.822 100.314 11.7579 100.242 11.7695C100.181 11.7783 100.126 11.822 100.112 11.8803C100.039 12.1807 99.9122 12.4606 99.7589 12.7289C99.701 12.831 99.7242 12.9155 99.8659 12.9184C99.9961 12.9184 100.129 12.9184 100.259 12.9184H100.262Z" fill="#606161"/>
<path id="Vector_25" d="M65.5757 26.8892C65.191 26.8892 64.8063 26.8892 64.4216 26.8892C64.1208 26.8892 64.0167 26.7522 64.0919 26.446C64.1208 26.3264 64.1121 26.2068 64.1121 26.0873C64.1092 24.4835 64.1034 22.8796 64.1005 21.2758C64.1005 20.9754 64.1092 20.9609 64.3927 20.955C64.7051 20.9492 65.0175 20.9521 65.3298 20.955C65.5931 20.9609 65.622 20.9842 65.6249 21.2437C65.6307 21.6549 65.6336 22.0631 65.622 22.4743C65.6162 22.6522 65.6769 22.6988 65.8476 22.6959C66.3335 22.6901 66.8108 22.693 67.2967 22.8155C68.0285 22.9992 68.4769 23.4278 68.6851 24.1335C68.9281 24.9529 68.7748 25.6936 68.1818 26.3118C67.7798 26.7288 67.2447 26.8542 66.6922 26.8863C66.322 26.9096 65.9488 26.8892 65.5757 26.8892ZM65.6104 24.8188C65.6104 24.9996 65.6104 25.1687 65.6104 25.3349C65.6104 25.4516 65.6509 25.5128 65.7753 25.5128C66.0385 25.5099 66.3046 25.5362 66.562 25.5041C66.7645 25.4808 67.0162 25.472 67.1434 25.297C67.2938 25.0871 67.3517 24.8159 67.2244 24.5622C67.1116 24.3377 66.9728 24.1248 66.6662 24.1452C66.5476 24.1539 66.4261 24.1394 66.3075 24.1452C66.0935 24.1569 65.8302 24.0548 65.6798 24.1802C65.5034 24.3289 65.6567 24.6118 65.6075 24.8159L65.6104 24.8188Z" fill="#606161"/>
<path id="Vector_26" d="M72.6877 38.8306V34.2786C72.3001 34.229 71.9328 34.2524 71.5683 34.2524C71.2473 34.2524 71.2473 34.2524 71.2444 33.9433C71.2444 33.6546 71.2473 33.363 71.2444 33.0743C71.2415 32.9197 71.2646 32.8352 71.4555 32.8352C72.7658 32.8381 74.0732 32.8352 75.3835 32.8264C75.5802 32.8264 75.667 32.8993 75.6612 33.1034C75.6496 33.4038 75.6496 33.7071 75.6612 34.0074C75.667 34.2057 75.5947 34.2932 75.3893 34.2815C75.103 34.267 74.8137 34.2728 74.5245 34.264C74.2063 34.2553 74.1976 34.2553 74.1976 34.5702C74.1947 35.5967 74.1976 36.6202 74.1976 37.6467C74.1976 37.8887 74.2063 38.1278 74.2063 38.3698C74.2063 38.7548 74.2063 38.7577 73.8389 38.7635C73.5873 38.7664 73.3356 38.7635 73.0811 38.7635C72.9625 38.7635 72.841 38.7431 72.6935 38.8335L72.6877 38.8306Z" fill="#606161"/>
<path id="Vector_27" d="M48.3154 24.6234C48.3154 25.2504 48.3154 25.8773 48.3154 26.5013C48.3154 26.8484 48.2749 26.8833 47.9191 26.8863C47.5836 26.8863 47.2481 26.8804 46.9126 26.8863C46.7679 26.8892 46.7159 26.8367 46.7245 26.6996C46.7245 26.6763 46.7245 26.6501 46.7245 26.6267C46.7245 24.8188 46.7274 23.0137 46.7188 21.2058C46.7188 20.9871 46.8084 20.9521 46.9935 20.955C48.084 20.9608 49.1774 20.9608 50.2678 20.9608C50.398 20.9608 50.4327 20.9696 50.453 21.1504C50.4906 21.4741 50.4501 21.7948 50.4848 22.1127C50.5079 22.3255 50.4125 22.3868 50.2158 22.3868C49.6893 22.3868 49.16 22.3926 48.6336 22.4014C48.3154 22.4072 48.3154 22.4101 48.3154 22.7425C48.3154 23.3695 48.3154 23.9964 48.3154 24.6205V24.6234Z" fill="#606161"/>
<path id="Vector_28" d="M81.4725 8.8593C80.7928 8.8418 80.3792 8.56769 80.1535 7.93782C80.1102 7.81535 80.1304 7.70162 80.1217 7.58498C80.1159 7.52082 80.1506 7.46834 80.2027 7.43334C80.4312 7.27588 80.8391 7.32253 81.0329 7.55582C81.1572 7.70745 81.2845 7.77744 81.487 7.77744C81.675 7.77744 81.7676 7.67246 81.8746 7.56457C82.1002 7.33711 82.5138 7.26713 82.7857 7.41585C82.9043 7.48 82.9303 7.63163 82.9188 7.7162C82.8638 8.12736 82.6932 8.48896 82.2911 8.67267C82.0337 8.78931 81.7618 8.8593 81.4754 8.85346L81.4725 8.8593Z" fill="#606161"/>
<path id="Vector_29" d="M24.565 15.6041C23.8216 15.6041 23.0696 15.6041 22.3146 15.6041C22.0514 15.6041 21.7853 15.6099 21.5221 15.6041C21.3225 15.6012 21.2907 15.5399 21.3919 15.365C21.7043 14.8371 22.0225 14.3093 22.3436 13.7844C22.4969 13.5337 22.6531 13.2858 22.8179 13.0409C23.0002 12.7697 23.1506 12.7638 23.2749 13.0642C23.5873 13.8078 24.0588 14.461 24.4146 15.1783C24.4753 15.2979 24.6257 15.3912 24.5621 15.5982L24.565 15.6041Z" fill="#EC1D30"/>
<path id="Vector_30" d="M25.5371 31.0009C25.9421 30.2806 26.347 29.5633 26.7491 28.843C26.8272 28.7059 26.9342 28.6272 27.0962 28.6301C27.2032 28.6301 27.3131 28.6272 27.4201 28.6272C28.8982 28.6272 30.3734 28.6389 31.8514 28.6272C32.1638 28.6272 32.3576 28.7409 32.5051 29.015C32.7828 29.5341 33.0894 30.0386 33.3845 30.5489C33.4018 30.581 33.4249 30.6101 33.4423 30.6422C33.6621 31.0359 33.6332 31.0884 33.1791 31.0913C30.813 31.0971 28.447 31.1 26.0809 31.1C25.8987 31.1 25.6933 31.1671 25.5371 31.0009Z" fill="#EC1D30"/>
</g>
</g>
</g>
<defs>
<clipPath id="clip0_899_225">
<rect width="108" height="42" fill="white" transform="translate(0.5 0.898438)"/>
</clipPath>
</defs>
</svg>
