<svg width="85" height="47" viewBox="0 0 85 47" fill="none" xmlns="http://www.w3.org/2000/svg">
<g id="xw1DFX">
<g id="Group">
<path id="Vector" d="M49.8395 0.898438C49.8153 0.917446 49.7696 0.921247 49.7709 0.95673C49.7734 1.01122 49.8268 1.01375 49.8662 1.02009C50.2296 1.06698 50.5778 1.16962 50.9209 1.29888C51.6287 1.56626 52.2818 1.92362 52.8524 2.42543C53.3302 2.84488 53.7711 3.29982 54.1129 3.83712C54.5069 4.45678 54.8245 5.11447 54.9821 5.83678C55.0456 6.12444 55.1321 6.40577 55.1473 6.70483C55.1892 7.53105 55.1664 8.35728 55.1765 9.18477C55.1778 9.29629 55.1308 9.32037 55.0355 9.3191C54.2946 9.30389 53.5538 9.33177 52.813 9.28869C52.6389 9.27855 52.6376 9.27728 52.6376 9.10874C52.6376 8.49668 52.6427 7.88461 52.6376 7.27128C52.6338 6.91012 52.5817 6.56037 52.4724 6.20681C52.3733 5.88621 52.2284 5.59981 52.0607 5.31976C51.8612 4.98775 51.6083 4.69629 51.3199 4.43524C51.0962 4.23249 50.8459 4.07282 50.5816 3.92329C50.1101 3.6559 49.6031 3.51904 49.0758 3.43794C48.9817 3.424 48.8852 3.424 48.7911 3.42527C47.2561 3.43034 45.7211 3.38852 44.186 3.41513C43.6193 3.42527 43.0665 3.53805 42.5468 3.76742C42.0487 3.98665 41.6446 4.33767 41.271 4.72924C40.7042 5.32229 40.3827 6.02813 40.2417 6.82648C40.215 6.97601 40.2125 7.12555 40.2125 7.27508C40.2125 10.4697 40.215 13.6631 40.2188 16.8578C40.2188 17.4648 40.3586 18.0414 40.642 18.5787C41.0041 19.263 41.5239 19.7952 42.191 20.2007C42.6167 20.4592 43.0754 20.6075 43.5481 20.7253C43.7336 20.7722 43.9306 20.7583 44.1238 20.7583C45.7439 20.7608 47.3641 20.7862 48.983 20.7507C49.6146 20.7367 50.2194 20.5213 50.7633 20.1665C51.1127 19.9384 51.4241 19.6697 51.7011 19.3656C51.9514 19.0906 52.1306 18.7624 52.2869 18.4266C52.4038 18.177 52.5017 17.921 52.5588 17.6485C52.6109 17.4027 52.6592 17.1543 52.6605 16.9034C52.6643 16.1798 52.6579 15.4575 52.6567 14.7339C52.6567 14.2967 52.6567 13.8595 52.658 13.4223C52.658 13.2779 52.6478 13.2614 52.5105 13.2639C52.1077 13.2728 51.7049 13.2475 51.3046 13.2639C50.6184 13.2906 49.9322 13.2665 49.2461 13.288C49.1812 13.2906 49.1558 13.2665 49.1457 13.2221C49.1317 13.1613 49.1304 13.0967 49.1304 13.0333C49.133 12.1995 49.1406 11.3657 49.138 10.5306C49.138 10.4152 49.1787 10.4026 49.2727 10.4038C49.9132 10.4064 50.5536 10.4064 51.1941 10.4064C52.8409 10.4064 54.4878 10.4026 56.1347 10.4026C60.3014 10.4026 64.4681 10.4051 68.6335 10.4051C73.8486 10.4051 79.0636 10.4051 84.2774 10.4051C84.3193 10.4051 84.3625 10.4051 84.4045 10.4051V13.288C84.3549 13.2665 84.3054 13.2639 84.2507 13.2665C83.8428 13.2817 83.4362 13.2918 83.0283 13.2728C82.8288 13.2627 82.8212 13.2703 82.8212 13.4654C82.8199 13.8405 82.8237 14.2156 82.8237 14.5895C82.8237 16.2115 82.8211 17.8335 82.8186 19.4556C82.8186 19.619 82.811 19.6241 82.6521 19.6317C81.9647 19.6621 81.2759 19.6406 80.5885 19.6495C80.2657 19.6533 80.2721 19.6469 80.2733 19.3365C80.2759 17.9273 80.2746 16.5169 80.2746 15.1077C80.2746 14.5958 80.2746 14.0838 80.2759 13.5719C80.2759 13.5187 80.2721 13.4667 80.2708 13.4135C80.2683 13.3108 80.2212 13.2627 80.112 13.2665C79.7041 13.2804 79.2974 13.2576 78.8895 13.2728C78.6786 13.2804 78.4664 13.2728 78.2542 13.2652C78.1525 13.2614 78.1182 13.2918 78.1182 13.3995C78.1207 14.0281 78.1157 14.6566 78.1131 15.2839C78.1131 15.4752 78.1131 15.4752 77.9225 15.4752C77.1817 15.4752 76.4396 15.474 75.6987 15.4765C75.5971 15.4765 75.559 15.4676 75.5602 15.3422C75.5717 14.7035 75.5666 14.0648 75.5691 13.4262C75.5691 13.3336 75.5526 13.2969 75.4421 13.283C75.0621 13.2361 74.6822 13.2779 74.3035 13.2716C74.1497 13.269 73.9972 13.2779 73.8435 13.2665C73.6745 13.2538 73.6694 13.2601 73.6681 13.4388C73.6681 14.0509 73.6681 14.6642 73.6681 15.2763C73.6681 15.4089 73.6025 15.4752 73.4712 15.4752C72.7354 15.4752 71.9997 15.4752 71.2639 15.4752C71.0797 15.4752 71.0809 15.4752 71.0809 15.289C71.0835 14.6718 71.0847 14.0534 71.086 13.4363C71.086 13.269 71.0847 13.2677 70.9234 13.2665C70.368 13.2601 69.8115 13.2944 69.2562 13.2639C69.1456 13.2576 69.124 13.3058 69.1253 13.4033C69.1278 14.2169 69.1253 15.0292 69.1253 15.8427C69.1253 17.0567 69.1253 18.272 69.1278 19.486C69.1278 19.6343 69.1062 19.6545 68.9347 19.6533C68.4848 19.6507 68.035 19.6482 67.5852 19.6469C67.3158 19.6469 67.0451 19.6495 66.7757 19.6495C66.5902 19.6495 66.5838 19.6444 66.5838 19.467C66.5826 18.0946 66.58 16.7209 66.58 15.3485C66.58 14.72 66.5826 14.0914 66.5826 13.4642C66.5826 13.2627 66.58 13.2614 66.383 13.2652C63.9738 13.2982 61.5657 13.2868 59.1564 13.2792C57.6735 13.2741 56.1918 13.2817 54.7089 13.2804C54.503 13.2804 54.2972 13.2665 54.0913 13.2551C54.0418 13.2525 53.9986 13.2525 53.9477 13.3083C54.1536 13.3729 54.2756 13.5326 54.4166 13.6682C54.8436 14.0813 55.0939 14.5857 55.1346 15.1762C55.1676 15.6438 55.1714 16.1152 55.1702 16.5841C55.1676 17.6929 54.9605 18.7586 54.4382 19.7483C54.1422 20.3109 53.7736 20.8191 53.3327 21.2854C52.6948 21.9596 51.9362 22.4437 51.0924 22.801C50.5613 23.0266 50.0009 23.1622 49.4278 23.242C49.1596 23.2788 48.8903 23.2876 48.6209 23.2876C47.1011 23.2876 45.5813 23.2876 44.0628 23.2876C43.7667 23.2876 43.4744 23.2661 43.1822 23.2103C42.083 22.9987 41.0753 22.5818 40.1959 21.8848C39.0078 20.9433 38.2238 19.7407 37.8769 18.2644C37.7612 17.7702 37.699 17.2696 37.699 16.7602C37.7015 13.5237 37.6964 10.2873 37.699 7.05078C37.699 6.5629 37.8273 6.0915 37.9544 5.62262C38.0865 5.13728 38.267 4.67094 38.5161 4.23375C38.9328 3.50257 39.4767 2.87783 40.1273 2.34307C40.9609 1.65623 41.914 1.22918 42.975 1.03656C43.0475 1.02389 43.1224 1.02262 43.1961 1.02389C43.2813 1.02643 43.3257 0.992212 43.3245 0.906041H49.8369L49.8395 0.898438Z" fill="#A0712A"/>
<path id="Vector_2" d="M12.335 0.9809C12.438 1.05567 12.5599 1.01385 12.6718 1.03539C13.3325 1.16591 13.9577 1.38894 14.5397 1.72602C14.893 1.93131 15.2272 2.16321 15.55 2.41412C15.8587 2.65363 16.1142 2.93875 16.3683 3.23021C16.7063 3.61671 16.9719 4.04883 17.1994 4.50503C17.343 4.79522 17.4815 5.08922 17.5704 5.40476C17.7013 5.86856 17.8119 6.33363 17.8576 6.81644C17.8919 7.17506 17.8817 7.53115 17.8817 7.8885C17.8843 12.9992 17.883 18.1099 17.8817 23.2193C17.8817 23.4271 17.8817 23.4259 17.6708 23.4246C16.9503 23.4246 16.2311 23.4221 15.5106 23.4246C15.4051 23.4246 15.3632 23.4031 15.3632 23.2852C15.3682 20.989 15.3682 18.6928 15.3682 16.3953C15.3682 13.3971 15.3771 10.3976 15.3632 7.39936C15.3568 6.03076 14.7621 4.95109 13.654 4.14388C13.1864 3.80426 12.6629 3.59897 12.1063 3.47859C11.8738 3.4279 11.6323 3.39748 11.3883 3.39748C9.8533 3.40382 8.317 3.38228 6.78323 3.40762C5.99665 3.42156 5.26217 3.6598 4.61791 4.13754C3.79067 4.75087 3.24172 5.54288 3.00918 6.55032C2.94691 6.82277 2.91896 7.09396 2.91896 7.37148C2.91896 12.524 2.91768 17.6765 2.91641 22.8277C2.91641 22.9646 2.91514 23.1027 2.91641 23.2396C2.91641 23.3929 2.89227 23.4195 2.73216 23.4221C2.5784 23.4246 2.42464 23.4221 2.27216 23.4221C1.73718 23.4233 1.20348 23.4259 0.668502 23.4271C0.610048 23.4271 0.552866 23.4221 0.494412 23.4208C0.425793 23.4208 0.40292 23.3853 0.405462 23.3207C0.408003 23.2104 0.406732 23.0989 0.406732 22.9887C0.406732 17.7829 0.406732 12.5772 0.406732 7.37275C0.406732 6.6593 0.512202 5.9636 0.756182 5.29197C1.15773 4.18823 1.75624 3.21374 2.66735 2.45087C3.52001 1.73743 4.48195 1.24068 5.58239 1.03412C5.70184 1.01131 5.82129 0.988503 5.94455 0.992305H6.25588C6.24826 0.940349 6.16185 0.960624 6.1898 0.895996H11.9716C11.95 0.970762 11.9919 0.987236 12.0542 0.985969C12.1482 0.983434 12.2423 0.9809 12.335 0.979632V0.9809Z" fill="#123C39"/>
<path id="Vector_3" d="M15.268 46.8086C15.2706 46.8391 15.2744 46.8682 15.2769 46.8986H14.7051C14.7152 46.8771 14.7267 46.8568 14.7368 46.8353C14.9109 46.7795 15.0901 46.8086 15.268 46.8086Z" fill="#A0712A"/>
<path id="Vector_4" d="M17.2773 46.8986C17.2799 46.8783 17.2824 46.8593 17.2862 46.839C17.4565 46.7731 17.6331 46.8124 17.8072 46.8073C17.8111 46.8378 17.8149 46.8682 17.8187 46.8973H17.2786L17.2773 46.8986Z" fill="#A0712A"/>
<path id="Vector_5" d="M12.3349 0.980853C12.2409 0.983388 12.1468 0.985922 12.0541 0.987189C11.9931 0.988456 11.9499 0.971983 11.9715 0.897217C12.0985 0.898484 12.2256 0.898484 12.3527 0.898484C12.3463 0.926363 12.3412 0.954242 12.3349 0.980853Z" fill="#A0712A"/>
<path id="Vector_6" d="M6.19055 0.898438C6.16259 0.963066 6.249 0.94279 6.25662 0.994746H5.9453C6.02281 0.923782 5.89701 0.938988 5.90463 0.898438H6.0317C6.0317 0.925049 6.05077 0.930118 6.07237 0.928851C6.08889 0.927584 6.09778 0.916179 6.09524 0.898438H6.19055Z" fill="#A0712A"/>
<path id="Vector_7" d="M6.09479 0.898438C6.09733 0.916179 6.08843 0.926316 6.07191 0.928851C6.05031 0.931385 6.03252 0.926316 6.03125 0.898438H6.09479Z" fill="#123C39"/>
<path id="Vector_8" d="M43.2632 0.898438C43.2581 0.906041 43.253 0.913644 43.2492 0.921247C43.2429 0.913644 43.2378 0.906041 43.2314 0.898438C43.2416 0.898438 43.253 0.898438 43.2632 0.898438Z" fill="#A0712A"/>
<path id="Vector_9" d="M19.0564 15.1167C19.0564 12.4404 19.0501 9.76273 19.0615 7.08637C19.0641 6.59849 19.1924 6.12201 19.3195 5.65061C19.6168 4.55193 20.2115 3.62053 21.0121 2.83612C21.8749 1.99215 22.8978 1.40036 24.0987 1.15325C24.4901 1.07215 24.8827 1.01639 25.2855 1.01766C27.0112 1.02146 28.7368 1.00372 30.4625 1.02146C31.3291 1.03033 32.1436 1.28504 32.9213 1.66267C33.5313 1.9592 34.0701 2.35964 34.5555 2.82471C35.2048 3.44692 35.7068 4.1743 36.0333 5.01953C36.2265 5.51882 36.3828 6.02444 36.4463 6.5554C36.4984 6.99639 36.5747 7.43232 36.5696 7.88218C36.5556 9.44466 36.5632 11.0071 36.5632 12.5709C36.5632 12.9523 36.52 13.3287 36.4717 13.7063C36.3396 14.7315 35.9304 15.6401 35.337 16.4676C34.4322 17.7297 33.2111 18.5458 31.7129 18.9589C31.3393 19.0616 30.9606 19.1123 30.5781 19.1477C29.7699 19.2225 28.9618 19.1655 28.1536 19.1782C27.5182 19.1883 26.8828 19.1782 26.2475 19.1807C26.0747 19.1807 25.9018 19.1832 25.7278 19.2048C25.5054 19.2314 25.2817 19.1731 25.0594 19.1541C24.8141 19.1338 24.5739 19.0857 24.3325 19.0464C24.0745 19.0033 23.8242 18.9171 23.5713 18.8436C22.9182 18.6535 22.3464 18.3063 21.7783 17.9477C21.7517 17.9312 21.7275 17.9084 21.7008 17.8932C21.5941 17.8336 21.5649 17.8488 21.5649 17.9718C21.5649 18.4052 21.5687 18.8373 21.5687 19.2707C21.5699 20.5797 21.5699 21.8887 21.575 23.199C21.575 23.3004 21.5534 23.3346 21.4467 23.3334C20.6944 23.3283 19.9434 23.3283 19.1911 23.3334C19.0806 23.3334 19.0577 23.2928 19.059 23.1952C19.0615 22.9 19.0552 22.6034 19.0552 22.3082C19.0552 19.9119 19.0552 17.5143 19.0552 15.118L19.0564 15.1167ZM34.018 10.2126H34.0154C34.0154 9.3154 34.0167 8.41694 34.0154 7.51975C34.0154 7.26885 33.9875 7.0192 33.9443 6.7721C33.7689 5.78367 33.2695 4.98278 32.4867 4.36438C31.7789 3.80554 30.9631 3.50648 30.0558 3.50141C28.4992 3.49254 26.9426 3.49887 25.3859 3.49634C25.2373 3.49634 25.0873 3.50901 24.9437 3.53435C24.1991 3.66234 23.5408 3.97661 22.9677 4.46956C22.0452 5.26411 21.5826 6.27408 21.5738 7.483C21.561 9.11898 21.5699 10.7562 21.5687 12.3935C21.5687 12.5316 21.575 12.6685 21.5966 12.8041C21.6157 12.9244 21.5534 13.0385 21.6195 13.1703C21.6652 13.2615 21.6652 13.392 21.6907 13.5023C21.9626 14.6909 22.6424 15.5805 23.6971 16.1812C24.2855 16.5157 24.9297 16.6754 25.6083 16.6767C27.1383 16.6779 28.6682 16.6767 30.1982 16.6741C30.4129 16.6741 30.6251 16.6437 30.831 16.5905C31.7446 16.3535 32.5363 15.9151 33.1386 15.1725C33.7079 14.4704 34.0192 13.6734 34.018 12.7622C34.018 11.9119 34.018 11.0616 34.018 10.2126Z" fill="#123C39"/>
<path id="Vector_10" d="M12.9156 31.0913C12.7059 31.1661 12.5064 31.27 12.2891 31.2421C12.0693 31.2142 11.8507 31.1483 11.6906 30.9798C11.4682 30.7454 11.3475 30.4602 11.2687 30.1472C11.1925 29.8418 11.1912 29.5314 11.2179 29.2285C11.2509 28.8585 11.3361 28.491 11.6284 28.2173C11.8634 27.9968 12.1417 27.922 12.4556 27.9676C12.6182 27.9904 12.7695 28.0411 12.9283 28.1742C12.9283 28.031 12.9283 27.9245 12.9283 27.8168C12.9283 27.4785 12.9283 27.1414 12.9232 26.803C12.9232 26.727 12.9347 26.6903 13.0223 26.6839C13.1469 26.6738 13.2714 26.6408 13.3934 26.613C13.5179 26.5838 13.5281 26.6345 13.5268 26.7283C13.5243 26.9285 13.5268 27.13 13.5255 27.3302C13.523 27.5925 13.5433 27.8561 13.4976 28.1209C13.5611 28.1336 13.6043 28.0994 13.6475 28.0766C13.9512 27.9093 14.2765 27.9068 14.5777 28.036C14.7734 28.1209 14.9348 28.2958 15.0275 28.5049C15.2093 28.9155 15.2779 29.3387 15.2169 29.7886C15.194 29.9584 15.1953 30.132 15.1457 30.298C15.0746 30.5363 14.9678 30.7606 14.7912 30.9367C14.5345 31.1939 14.2257 31.3042 13.861 31.2003C13.7949 31.1813 13.7314 31.1509 13.6641 31.142C13.5764 31.1293 13.5179 31.1496 13.5205 31.2687C13.5306 31.5906 13.523 31.9125 13.5281 32.2343C13.5294 32.3446 13.5014 32.4029 13.3756 32.3902C13.2701 32.3801 13.1634 32.3826 13.0579 32.3889C12.9537 32.3953 12.9194 32.3573 12.9207 32.2521C12.9283 31.9036 12.927 31.5551 12.9308 31.2066C12.9308 31.1699 12.9423 31.1331 12.9131 31.09L12.9156 31.0913ZM13.5281 29.5935H13.5306C13.5306 29.8786 13.5306 30.1637 13.5306 30.4488C13.5306 30.535 13.5408 30.6237 13.6259 30.6706C14.0097 30.8797 14.4405 30.777 14.5409 30.3386C14.6552 29.8393 14.6514 29.3337 14.5409 28.8331C14.4786 28.5493 14.2753 28.4149 13.983 28.4238C13.8852 28.4263 13.7975 28.4631 13.7073 28.4935C13.5789 28.5353 13.5243 28.6215 13.5268 28.7558C13.5306 29.0359 13.5268 29.3147 13.5268 29.5947L13.5281 29.5935ZM12.927 29.6087C12.927 29.4667 12.927 29.3235 12.927 29.1816C12.927 29.0346 12.9258 28.8863 12.9308 28.7393C12.9347 28.6519 12.9105 28.5835 12.8343 28.5379C12.5102 28.3389 12.0108 28.349 11.9092 28.8749C11.819 29.3425 11.7999 29.8127 11.9105 30.2816C12.0108 30.7086 12.3476 30.8759 12.7555 30.7124C12.8724 30.6655 12.9308 30.5933 12.9296 30.4628C12.9245 30.1776 12.9283 29.8938 12.9283 29.6087H12.927Z" fill="#123C39"/>
<path id="Vector_11" d="M0.40828 43.7875C0.427341 43.5708 0.377783 43.3123 0.436236 43.055C0.545519 42.571 0.783144 42.173 1.19867 41.8905C1.30414 41.8182 1.42105 41.7675 1.54431 41.7321C2.11613 41.5686 2.66382 41.6066 3.17338 41.9323C3.32968 42.0324 3.44785 42.1743 3.55587 42.3238C3.80112 42.6609 3.90023 43.0424 3.93835 43.4517C3.95742 43.6506 3.97775 43.8483 3.96504 44.0473C3.932 44.5592 3.82526 45.0509 3.48979 45.4589C3.19625 45.815 2.81376 45.9899 2.34614 46.0178C2.0958 46.033 1.85564 46.033 1.61674 45.9633C1.07795 45.8062 0.742481 45.4349 0.536623 44.9305C0.441319 44.6986 0.387949 44.4604 0.405739 44.2069C0.414634 44.0815 0.40701 43.9535 0.40701 43.7862L0.40828 43.7875ZM1.07668 43.7545C1.07668 43.9231 1.07033 44.0916 1.07795 44.2601C1.09066 44.5516 1.16436 44.8304 1.3105 45.0851C1.51508 45.4425 1.9916 45.6478 2.37028 45.5628C2.80741 45.464 3.06155 45.1878 3.17719 44.7683C3.242 44.5339 3.2547 44.2931 3.26995 44.0536C3.28139 43.866 3.25852 43.6772 3.24708 43.4897C3.2331 43.2717 3.20515 43.0588 3.13907 42.8535C2.8989 42.1071 2.32326 42.0337 1.73492 42.2022C1.44138 42.2858 1.27237 42.5355 1.17072 42.8244C1.06525 43.1273 1.0627 43.4415 1.07795 43.7558L1.07668 43.7545Z" fill="#123C39"/>
<path id="Vector_12" d="M5.22169 43.2959C5.27252 43.2959 5.28777 43.2516 5.31573 43.2224C5.54954 42.9867 5.84054 42.8536 6.16584 42.8524C6.64745 42.8524 7.03121 43.0539 7.27264 43.4923C7.48358 43.8763 7.51916 44.2869 7.47596 44.7101C7.46071 44.8635 7.42513 45.0155 7.3743 45.1638C7.218 45.6301 6.8927 45.8975 6.42761 46.0255C5.85706 46.1826 5.22296 45.9241 4.95357 45.5199C4.7744 45.25 4.68799 44.9522 4.67147 44.6328C4.65749 44.3616 4.62191 44.0879 4.64351 43.8193C4.6613 43.5836 4.65622 43.3453 4.72484 43.1096C4.78583 42.898 4.83412 42.6838 4.94086 42.49C5.14164 42.1237 5.46313 41.8969 5.838 41.7372C6.23827 41.5662 6.64999 41.4192 7.03883 41.2189C7.10999 41.1822 7.15701 41.1847 7.19259 41.2595C7.24215 41.3634 7.2917 41.4686 7.34507 41.5712C7.38828 41.6536 7.35397 41.6954 7.27773 41.7271C6.95242 41.8627 6.62839 41.9995 6.30435 42.1377C6.10103 42.2251 5.89645 42.3087 5.70076 42.4089C5.37926 42.5749 5.25346 42.8701 5.20263 43.2072C5.19882 43.2351 5.18484 43.2706 5.22169 43.2934V43.2959ZM6.79358 44.5188C6.81137 44.2058 6.78214 43.9042 6.63474 43.6241C6.56358 43.4873 6.46065 43.3821 6.30689 43.3479C5.86976 43.2503 5.56733 43.4112 5.42882 43.8294C5.33479 44.1133 5.37164 44.4035 5.36401 44.6924C5.35893 44.885 5.40595 45.0687 5.47457 45.2462C5.56479 45.4768 5.78971 45.6415 6.03877 45.6289C6.39203 45.6111 6.61187 45.5072 6.73513 45.127C6.79993 44.9281 6.80375 44.7228 6.79358 44.52V44.5188Z" fill="#123C39"/>
<path id="Vector_13" d="M0.541692 26.8954C0.588709 26.8663 0.636996 26.8777 0.684013 26.8777C1.52523 26.8777 2.36645 26.8777 3.20894 26.8777C3.38939 26.8777 3.35889 26.8739 3.35889 27.0336C3.36016 28.3477 3.36143 29.6618 3.36143 30.9759C3.36143 31.1596 3.36016 31.1596 3.17845 31.1558C3.06154 31.1533 2.9459 31.1482 2.829 31.152C2.72734 31.1558 2.68922 31.1229 2.6943 31.0164C2.7032 30.8111 2.69684 30.6046 2.69684 30.3993C2.69684 29.4438 2.6943 28.4883 2.70065 27.5341C2.70065 27.4074 2.66634 27.3782 2.54435 27.3808C2.13137 27.3884 1.71838 27.3884 1.30667 27.3808C1.19484 27.3795 1.16816 27.4099 1.16816 27.5202C1.17197 28.6657 1.1707 29.81 1.1707 30.9556C1.1707 31.1875 1.13258 31.2141 0.900036 31.1634C0.828876 31.1482 0.752632 31.1469 0.680201 31.1545C0.565836 31.1659 0.527714 31.1191 0.540421 31.0101C0.570919 30.7262 0.562023 30.4411 0.562023 30.156C0.562023 29.1587 0.559482 28.1614 0.556941 27.1641C0.556941 27.0741 0.549316 26.9854 0.544233 26.898L0.541692 26.8954Z" fill="#123C39"/>
<path id="Vector_14" d="M4.99263 30.9405C4.98373 31.0532 5.02948 31.1572 5.03837 31.2661C5.05998 31.5741 5.02567 31.8833 5.05616 32.1925C5.06252 32.2622 5.03075 32.3281 4.93926 32.3433C4.78677 32.3699 4.63428 32.4066 4.48307 32.4396C4.43351 32.4497 4.41445 32.4294 4.41445 32.3826C4.41445 32.3559 4.41445 32.3293 4.41445 32.304C4.41445 31.0418 4.41445 29.781 4.41445 28.5188C4.41445 28.3857 4.40555 28.2552 4.36489 28.1285C4.34075 28.055 4.36235 28.0297 4.43732 28.0094C4.59616 27.9676 4.76009 27.965 4.9202 27.9384C4.97103 27.9296 4.98119 27.9638 4.98119 28.0069C4.98119 28.1006 4.98119 28.1957 4.98119 28.2907C5.03837 28.2907 5.07014 28.2603 5.10699 28.2299C5.28871 28.0854 5.48948 27.9802 5.73092 27.9878C5.83258 27.9904 5.93424 27.9752 6.03589 27.9752C6.2481 27.9726 6.41076 28.0715 6.57849 28.1602C6.66363 28.2058 6.72717 28.3046 6.78435 28.3896C6.95209 28.6417 7.06391 28.9091 7.08424 29.2208C7.10966 29.6035 7.10457 29.9799 6.97877 30.3411C6.78435 30.8986 6.39805 31.2218 5.78429 31.2091C5.57335 31.204 5.34843 31.1635 5.16926 31.014C5.12224 30.9747 5.06379 30.9443 4.99136 30.9405H4.99263ZM5.736 28.4909C5.48059 28.463 5.28871 28.6037 5.11589 28.7849C5.07014 28.8331 5.046 28.8888 5.046 28.956C5.046 29.383 5.046 29.8088 5.046 30.2359C5.046 30.3322 5.08666 30.407 5.16418 30.464C5.24042 30.521 5.31793 30.5755 5.40434 30.6148C5.81479 30.8023 6.22015 30.6287 6.34468 30.1979C6.47175 29.7569 6.43617 29.3134 6.30529 28.8812C6.21888 28.5974 6.04606 28.4922 5.736 28.4909Z" fill="#123C39"/>
<path id="Vector_15" d="M19.9187 37.8353C19.9187 37.265 19.9174 36.696 19.9187 36.1258C19.9187 35.937 19.8971 35.7494 19.8653 35.5644C19.8513 35.4808 19.8729 35.444 19.9504 35.4314C20.0801 35.4098 20.2097 35.3845 20.3406 35.368C20.4575 35.3528 20.4765 35.3807 20.4854 35.5112C20.4892 35.5695 20.4473 35.6493 20.5185 35.681C20.582 35.7089 20.6087 35.624 20.6557 35.5948C20.92 35.4339 21.1907 35.3541 21.5172 35.3819C22.1615 35.4364 22.5173 36.0498 22.5834 36.601C22.6317 37.0052 22.6063 37.4032 22.4728 37.7821C22.3445 38.1457 22.1107 38.4359 21.7155 38.5652C21.3737 38.678 21.056 38.6222 20.7408 38.4778C20.6722 38.4461 20.596 38.3764 20.5248 38.4131C20.4371 38.4587 20.5223 38.5475 20.5197 38.6172C20.5083 38.939 20.5121 39.2609 20.5172 39.5828C20.5185 39.6956 20.4854 39.7614 20.3634 39.7779C20.2491 39.7919 20.1347 39.8172 20.0229 39.8451C19.9314 39.8692 19.9149 39.8337 19.9161 39.7513C19.9187 39.1126 19.9174 38.474 19.9174 37.8365L19.9187 37.8353ZM20.5426 36.9774H20.5477C20.5477 37.189 20.5477 37.3994 20.5477 37.611C20.5477 37.6921 20.5604 37.7694 20.6188 37.8315C20.826 38.0532 21.0839 38.147 21.38 38.0862C21.6456 38.0317 21.7905 37.8353 21.8527 37.5844C21.9277 37.2815 21.9468 36.9736 21.901 36.6631C21.8756 36.4908 21.8387 36.321 21.7434 36.1702C21.6596 36.0358 21.5477 35.9306 21.3851 35.9066C21.1004 35.8648 20.8552 35.9547 20.6392 36.141C20.5756 36.1968 20.5401 36.2576 20.5413 36.345C20.5451 36.5567 20.5426 36.767 20.5426 36.9786V36.9774Z" fill="#123C39"/>
<path id="Vector_16" d="M17.8074 46.8085C17.6334 46.8124 17.4567 46.7743 17.2864 46.8402C17.2445 46.7857 17.2509 46.7198 17.2509 46.6577C17.2483 46.4727 17.2471 46.2877 17.2471 46.104C17.2471 46.0216 17.2216 45.9785 17.1289 45.9798C16.5418 45.9836 15.9535 45.9836 15.3664 45.9798C15.2812 45.9798 15.2749 46.014 15.2749 46.0824C15.2749 46.3245 15.2711 46.5678 15.2685 46.8098C15.0906 46.8098 14.9127 46.7807 14.7374 46.8364C14.6954 46.7465 14.7107 46.6489 14.7107 46.5551C14.7069 46.2434 14.7069 45.9329 14.7069 45.6212C14.7069 45.5743 14.6802 45.5008 14.7691 45.5084C14.9331 45.5236 15.0093 45.4488 15.0817 45.3006C15.238 44.9812 15.3727 44.6593 15.4401 44.3083C15.524 43.8711 15.5316 43.4301 15.5278 42.9879C15.5278 42.8688 15.5583 42.8409 15.6764 42.8422C16.2165 42.8485 16.7566 42.8498 17.2953 42.8422C17.4211 42.8396 17.4389 42.8802 17.4389 42.9917C17.4339 43.7774 17.4389 44.5643 17.4339 45.3512C17.4339 45.4653 17.4478 45.5185 17.5825 45.5109C17.8163 45.4982 17.8189 45.5084 17.8163 45.7492C17.8125 46.1027 17.829 46.4563 17.8074 46.8085ZM15.5735 45.5058C15.9662 45.5058 16.3664 45.5058 16.7655 45.5058C16.8366 45.5058 16.8353 45.4577 16.8353 45.4083C16.8353 45.2397 16.8353 45.0712 16.8353 44.9014C16.8353 44.4211 16.8328 43.9421 16.8366 43.4618C16.8366 43.3579 16.8036 43.3212 16.7006 43.3237C16.51 43.3275 16.3207 43.3237 16.1301 43.3212C16.0869 43.3212 16.0348 43.3212 16.0411 43.3807C16.0538 43.4986 15.9916 43.6063 16.0068 43.7229C16.0272 43.8711 15.9852 44.0143 15.9687 44.1588C15.9217 44.5998 15.7756 45.0154 15.5799 45.4133C15.5684 45.4374 15.5545 45.4602 15.5735 45.5046V45.5058Z" fill="#123C39"/>
<path id="Vector_17" d="M0.561914 36.6074C0.561914 35.984 0.563184 35.4099 0.561914 34.8346C0.561914 34.6927 0.546665 34.5507 0.53777 34.4101C0.531416 34.3201 0.570809 34.2922 0.65976 34.2935C1.11468 34.2973 1.5696 34.2973 2.02452 34.2935C2.38667 34.291 2.71198 34.3949 2.98646 34.6306C3.20248 34.8156 3.32066 35.0728 3.35497 35.3428C3.3969 35.6697 3.37911 36.0017 3.16817 36.2906C2.88988 36.6733 2.5201 36.8786 2.04358 36.885C1.78943 36.8888 1.53529 36.89 1.28241 36.8837C1.19219 36.8812 1.16805 36.9103 1.16932 36.9977C1.17313 37.4615 1.17186 37.9266 1.17059 38.3904C1.17059 38.5488 1.15788 38.5602 1.00286 38.5628C0.892302 38.5628 0.780478 38.5602 0.669925 38.5666C0.577162 38.5716 0.536499 38.5463 0.542853 38.4424C0.584787 37.8151 0.547936 37.1878 0.561914 36.6074ZM1.17059 35.5848C1.17059 35.8015 1.17949 36.0182 1.16678 36.2336C1.15915 36.3654 1.20871 36.392 1.32562 36.3831C1.45142 36.3743 1.57976 36.3831 1.70557 36.3806C1.84789 36.3768 1.99148 36.3958 2.13253 36.3679C2.63065 36.2716 2.75391 35.6608 2.63065 35.3453C2.49342 34.9955 2.21894 34.8283 1.85424 34.8042C1.65347 34.7903 1.45142 34.8004 1.25065 34.7928C1.17186 34.7903 1.16805 34.8295 1.16932 34.8891C1.17059 35.121 1.16932 35.3529 1.16932 35.5848H1.17059Z" fill="#123C39"/>
<path id="Vector_18" d="M32.8208 45.165C32.8755 45.1574 32.8818 45.1144 32.8971 45.0852C33.1716 44.5188 33.5058 43.9878 33.8362 43.4556C33.9302 43.3035 34.0153 43.1451 34.1106 42.9943C34.1526 42.9271 34.1932 42.8891 34.2746 42.8739C34.4207 42.8486 34.5668 42.8283 34.713 42.8131C34.7879 42.8055 34.8133 42.8321 34.8133 42.9107C34.8108 43.8864 34.8095 44.8634 34.8121 45.8392C34.8121 45.952 34.7701 45.9938 34.6609 45.9786C34.6189 45.9735 34.5757 45.9786 34.5338 45.9761C34.4309 45.9697 34.2987 46.0242 34.2314 45.9545C34.1704 45.8924 34.2136 45.7632 34.2136 45.6643C34.2123 45.0992 34.2161 44.5352 34.2098 43.9701C34.2098 43.8788 34.2835 43.8079 34.258 43.7027C34.1691 43.7344 34.1449 43.8129 34.1106 43.8776C33.7485 44.5631 33.3241 45.2119 32.9403 45.8848C32.8488 46.0458 32.7039 46.0217 32.568 46.0052C32.4905 45.9963 32.4142 45.9748 32.3354 45.9799C32.2249 45.9875 32.2058 45.9368 32.2071 45.8367C32.2122 45.1245 32.2236 44.4111 32.2033 43.6989C32.1969 43.4708 32.2198 43.2439 32.2122 43.0171C32.2096 42.9259 32.216 42.8511 32.357 42.8688C32.4549 42.8815 32.5616 42.8334 32.6633 42.8118C32.8336 42.7763 32.8399 42.7801 32.8412 42.9601C32.8425 43.3238 32.8437 43.6887 32.8437 44.0524C32.8437 44.2843 32.8475 44.5175 32.8386 44.7494C32.8336 44.8875 32.7954 45.0231 32.8208 45.1638V45.165Z" fill="#123C39"/>
<path id="Vector_19" d="M18.4623 45.9531C18.4598 45.7846 18.4547 45.616 18.4547 45.4475C18.4547 44.6504 18.4572 43.8533 18.4521 43.0575C18.4521 42.9333 18.4852 42.8687 18.611 42.8624C18.6529 42.8598 18.6936 42.8472 18.7355 42.8446C18.8372 42.8396 18.9617 42.7534 19.0341 42.8307C19.0989 42.9004 19.0532 43.0322 19.0532 43.1361C19.0557 43.7063 19.0532 44.2753 19.0596 44.8456C19.0596 44.9039 18.977 44.9913 19.0748 45.023C19.1599 45.0496 19.1383 44.9381 19.1676 44.8975C19.3315 44.6568 19.4675 44.397 19.6288 44.1524C19.8118 43.8736 19.9745 43.5821 20.1473 43.297C20.2019 43.2071 20.2553 43.1145 20.3036 43.0233C20.3951 42.8484 20.5272 42.8104 20.7039 42.8434C20.7611 42.8535 20.8132 42.8206 20.8665 42.8015C20.9898 42.7572 21.0521 42.799 21.0521 42.927C21.0533 43.8242 21.0521 44.7214 21.0533 45.6186C21.0533 45.7174 21.0088 45.8112 21.0228 45.9138C21.0317 45.9835 20.9745 45.981 20.9262 45.981C20.7992 45.981 20.6721 45.9747 20.545 45.981C20.4459 45.9861 20.4154 45.9455 20.418 45.8517C20.4243 45.6832 20.423 45.5147 20.423 45.3449C20.423 45.0179 20.423 44.691 20.423 44.364C20.423 44.1853 20.423 44.0067 20.4802 43.8318C20.4942 43.7887 20.4866 43.7393 20.4917 43.6696C20.3557 43.7925 20.2985 43.9408 20.2223 44.0751C19.8728 44.6834 19.498 45.2752 19.132 45.8733C19.0862 45.948 19.024 45.9797 18.9388 45.9772C18.7851 45.9734 18.6326 45.9721 18.4788 45.9709L18.475 45.9582L18.461 45.9557L18.4623 45.9531Z" fill="#123C39"/>
<path id="Vector_20" d="M3.99 37.8442C4.01033 37.7669 4.00906 37.6896 3.99 37.6123C4.0332 37.5933 4.03193 37.5756 3.99 37.5578C4.01033 37.5173 4.00143 37.4754 4.00143 37.4336C4.00143 36.8748 3.99889 36.3159 4.0027 35.7571C4.0027 35.6633 3.93027 35.5632 4.01033 35.4758C4.08784 35.3909 4.19585 35.4656 4.28734 35.434C4.35088 35.4124 4.4284 35.4226 4.48558 35.3934C4.61011 35.33 4.60121 35.4061 4.60121 35.4859C4.60121 36.1613 4.60121 36.8355 4.60121 37.5109C4.60121 37.5794 4.60121 37.6478 4.60121 37.715C4.66221 37.7289 4.66983 37.6807 4.68381 37.6529C4.95829 37.0699 5.33188 36.544 5.65337 35.989C5.7347 35.8471 5.82111 35.7089 5.90625 35.5696C5.93929 35.5151 5.97868 35.4644 6.0473 35.4504C6.20741 35.42 6.37006 35.3997 6.53399 35.3934C6.60515 35.3909 6.60515 35.4365 6.60515 35.4872C6.60388 35.6823 6.60261 35.8775 6.60388 36.0726C6.60388 36.6315 6.60642 37.1903 6.60769 37.7479C6.55813 37.8176 6.56194 37.8873 6.60388 37.9583C6.60134 38.1217 6.59879 38.2852 6.59879 38.4487C6.59879 38.531 6.57338 38.5741 6.4768 38.5665C6.35609 38.5577 6.23283 38.5589 6.11211 38.5665C6.01807 38.5729 6.00028 38.5348 6.00155 38.4499C6.00537 37.8594 6.00282 37.2676 6.00282 36.6771C6.00282 36.5567 6.00282 36.4351 6.00282 36.3109C5.93675 36.321 5.93293 36.378 5.9126 36.4148C5.51995 37.113 5.09171 37.7897 4.68889 38.4816C4.65713 38.5374 4.619 38.5665 4.55038 38.564C4.40806 38.5589 4.26447 38.5589 4.12215 38.5602C4.0421 38.5602 4.00906 38.5285 4.01033 38.4461C4.01033 38.3359 4.00016 38.2256 3.99381 38.1154C4.05099 38.0242 4.05099 37.9329 3.99254 37.8417L3.99 37.8442Z" fill="#123C39"/>
<path id="Vector_21" d="M25.1884 28.0766C25.3358 27.9993 25.5023 28.0196 25.6573 27.979C25.7424 27.9575 25.7513 28.0158 25.7539 28.0791C25.7602 28.2502 25.7412 28.4226 25.7653 28.5936C25.7119 28.6329 25.7132 28.6709 25.7666 28.7089C25.7412 29.0878 25.7615 29.468 25.7539 29.8469C25.7513 29.9686 25.745 30.0889 25.7399 30.2106C25.7399 30.2397 25.717 30.2778 25.759 30.2917C25.8085 30.3082 25.82 30.2626 25.8352 30.2309C25.9 30.1016 25.9686 29.9749 26.036 29.8469C26.177 29.5783 26.3587 29.3337 26.5011 29.0663C26.6701 28.7508 26.9052 28.4732 27.0335 28.1362C27.0526 28.0855 27.3003 27.9626 27.3601 27.9955C27.4478 28.0449 27.5151 27.9892 27.5863 27.9778C27.7565 27.9537 27.7553 27.9448 27.7553 28.1235C27.7553 28.5252 27.7553 28.9256 27.7565 29.3273C27.7578 29.8875 27.7565 30.4463 27.7654 31.0064C27.7667 31.1255 27.7324 31.1673 27.6129 31.1559C27.5024 31.1458 27.3906 31.1458 27.28 31.1534C27.1822 31.1597 27.1529 31.1268 27.1542 31.0292C27.1593 30.4539 27.1593 29.8786 27.1606 29.3033C27.1606 29.1829 27.1606 29.0638 27.1339 28.9332C27.0462 29.0701 26.9534 29.2032 26.8721 29.3438C26.5468 29.909 26.1796 30.4501 25.8733 31.0267C25.8263 31.1154 25.7653 31.1597 25.6586 31.1521C25.5379 31.1433 25.4146 31.1471 25.2939 31.1521C25.1897 31.1572 25.1592 31.1179 25.1592 31.0127C25.163 30.644 25.1808 30.2752 25.1744 29.9052C25.1655 29.3045 25.1757 28.7026 25.1782 28.1019C25.1909 28.0969 25.1935 28.088 25.1884 28.0753V28.0766Z" fill="#123C39"/>
<path id="Vector_22" d="M37.9137 29.6111C37.9137 29.8228 37.9214 30.0331 37.9112 30.2448C37.9049 30.3918 37.9455 30.5273 37.9786 30.6655C37.9862 30.6997 38.009 30.7326 38.0281 30.763C38.0637 30.8201 38.1946 30.8391 38.1399 30.9265C38.0637 31.0482 37.9874 31.18 37.8527 31.2522C37.8083 31.2763 37.7613 31.2446 37.7219 31.2142C37.6393 31.1483 37.5605 31.0786 37.5122 30.981C37.469 30.8923 37.4309 30.8708 37.3368 30.9481C37.0903 31.1496 36.7968 31.2661 36.4778 31.2446C36.0471 31.2154 35.6735 31.0697 35.5045 30.6199C35.474 30.5388 35.4943 30.4564 35.4841 30.374C35.4168 29.8278 35.8107 29.4832 36.2211 29.34C36.5236 29.2348 36.8374 29.2145 37.1551 29.2221C37.3292 29.2259 37.3292 29.2221 37.3279 29.0523C37.3279 28.9585 37.3216 28.866 37.3013 28.7723C37.2555 28.5556 37.1627 28.4808 36.9366 28.458C36.5909 28.4238 36.2821 28.5175 35.9911 28.6962C35.8412 28.7887 35.8132 28.7761 35.7408 28.6202C35.7116 28.5581 35.6747 28.5011 35.6366 28.444C35.5896 28.3731 35.6137 28.3287 35.6824 28.292C36.1919 28.0119 36.732 27.8877 37.3114 27.9891C37.516 28.0246 37.6888 28.1412 37.8108 28.297C37.882 28.387 37.9099 28.5226 37.9303 28.6481C37.9824 28.9699 37.9252 29.2905 37.915 29.6124L37.9137 29.6111ZM37.3267 29.9394C37.3267 29.8861 37.3241 29.8342 37.3267 29.781C37.3343 29.6682 37.2936 29.6175 37.1716 29.6251C37.0153 29.6352 36.8578 29.6302 36.7027 29.6631C36.5439 29.6961 36.4041 29.7645 36.2961 29.8874C36.1309 30.0762 36.0966 30.3195 36.2161 30.5489C36.3164 30.7415 36.4905 30.796 36.6964 30.7795C36.9569 30.758 37.1539 30.6376 37.2822 30.4082C37.2924 30.3905 37.2911 30.3677 37.2924 30.3461C37.3038 30.2105 37.3318 30.0749 37.3254 29.9368L37.3267 29.9394Z" fill="#123C39"/>
<path id="Vector_23" d="M32.24 36.9484C32.2235 37.2918 32.212 37.6352 32.0417 37.952C31.8435 38.3208 31.5398 38.5476 31.1345 38.6262C30.3161 38.7833 29.6744 38.3258 29.4774 37.5034C29.372 37.0586 29.4152 36.6265 29.5588 36.221C29.7672 35.6305 30.2538 35.2934 30.9947 35.391C31.2209 35.4201 31.428 35.4645 31.611 35.5899C31.9515 35.8231 32.1218 36.1652 32.2069 36.5568C32.2349 36.6861 32.2451 36.8178 32.24 36.9509V36.9484ZM31.5411 37.0713C31.5551 36.8293 31.5309 36.5935 31.4775 36.3629C31.4089 36.0639 31.1256 35.8358 30.8295 35.8294C30.5118 35.8231 30.2704 35.9929 30.1928 36.3122C30.0721 36.8052 30.067 37.2994 30.2373 37.7847C30.3263 38.0356 30.5372 38.1852 30.8003 38.1928C31.1065 38.2016 31.3022 38.0838 31.4191 37.8253C31.5284 37.5845 31.5589 37.3311 31.5424 37.0726L31.5411 37.0713Z" fill="#123C39"/>
<path id="Vector_24" d="M50.047 27.9574C50.7256 27.9194 51.2148 28.3984 51.3647 28.994C51.5121 29.582 51.4918 30.1472 51.1589 30.6744C50.9683 30.9785 50.676 31.128 50.3354 31.2117C49.9568 31.3054 49.6035 31.2269 49.2858 31.0393C49.052 30.9012 48.8995 30.6642 48.789 30.4095C48.6136 30.0065 48.5958 29.5909 48.6784 29.1664C48.7064 29.0206 48.7178 28.8673 48.7737 28.7317C48.8246 28.6088 48.9186 28.5023 49.0037 28.3959C49.2668 28.0677 49.6238 27.9549 50.047 27.9587V27.9574ZM49.3341 29.4794C49.3176 29.7759 49.3392 30.0483 49.4281 30.3107C49.5018 30.5299 49.6238 30.7238 49.8678 30.7643C50.2567 30.8277 50.5693 30.7504 50.7014 30.2486C50.7878 29.9204 50.7878 29.5845 50.7459 29.25C50.723 29.0599 50.6722 28.8787 50.5743 28.714C50.4473 28.4998 50.2579 28.3858 50.0114 28.4022C49.7649 28.4187 49.573 28.5353 49.4637 28.771C49.3557 29.0042 49.3049 29.2462 49.3354 29.4806L49.3341 29.4794Z" fill="#123C39"/>
<path id="Vector_25" d="M31.3839 29.5428C31.38 29.9204 31.3381 30.2208 31.1958 30.5059C30.9963 30.905 30.6761 31.123 30.2466 31.2155C29.8399 31.303 29.4714 31.2079 29.1436 30.9811C28.9669 30.8594 28.8272 30.6858 28.7458 30.4717C28.6302 30.1688 28.5501 29.8558 28.5628 29.5365C28.5794 29.1069 28.6798 28.6912 28.9733 28.3491C29.1588 28.1324 29.4041 28.0183 29.6773 27.9778C30.0953 27.9144 30.4969 27.9638 30.8438 28.2363C31.1043 28.4403 31.2352 28.7242 31.3178 29.0334C31.3673 29.2209 31.3953 29.4135 31.3851 29.5428H31.3839ZM30.685 29.6378C30.7053 29.4325 30.6748 29.1981 30.6163 28.97C30.5681 28.7837 30.5121 28.5924 30.3215 28.4859C29.9721 28.292 29.4701 28.434 29.3469 28.8648C29.2109 29.335 29.2363 29.8026 29.3443 30.2689C29.4219 30.6022 29.6519 30.7758 29.9759 30.7834C30.3012 30.791 30.5198 30.6275 30.6252 30.2917C30.6888 30.0902 30.6989 29.8811 30.685 29.6378Z" fill="#123C39"/>
<path id="Vector_26" d="M16.2742 36.9305C16.2691 36.7277 16.2958 36.5135 16.3339 36.3032C16.3555 36.1828 16.4317 36.0675 16.4991 35.975C16.7227 35.6721 16.982 35.4047 17.4038 35.3921C17.5589 35.3883 17.7088 35.3743 17.8677 35.3895C18.3721 35.4402 18.7089 35.7063 18.8982 36.1536C19.1486 36.7454 19.1244 37.355 18.8804 37.9366C18.7762 38.185 18.5589 38.3903 18.2921 38.5081C18.0278 38.626 17.7444 38.7071 17.4623 38.6526C16.954 38.555 16.569 38.2762 16.386 37.7681C16.2894 37.5007 16.2653 37.2244 16.2742 36.9305ZM18.3963 37.0914C18.3912 36.6656 18.3404 36.3944 18.24 36.1777C18.1739 36.0345 18.0773 35.9268 17.9261 35.8635C17.6059 35.7317 17.1306 35.8482 17.0214 36.3159C16.9235 36.7366 16.9235 37.1611 17.0074 37.5843C17.029 37.6933 17.0671 37.7972 17.123 37.8935C17.1942 38.0165 17.2933 38.1052 17.4293 38.1546C17.7914 38.2838 18.1104 38.1508 18.2641 37.7972C18.3709 37.5514 18.3976 37.2903 18.3976 37.0914H18.3963Z" fill="#123C39"/>
<path id="Vector_27" d="M7.7781 29.5795C7.74887 29.1981 7.83274 28.8408 8.04241 28.5265C8.19871 28.292 8.40457 28.0893 8.69302 28.0171C8.85567 27.9765 9.02595 27.9347 9.19877 27.9803C9.22418 27.9866 9.25087 27.9854 9.27755 27.9841C9.84175 27.9638 10.2052 28.2604 10.4085 28.7482C10.6525 29.3324 10.6588 29.928 10.3805 30.5084C10.1836 30.9177 9.84811 31.1408 9.39954 31.2155C8.85313 31.3068 8.42236 31.1116 8.07672 30.7061C7.95346 30.5616 7.91661 30.3677 7.84672 30.1941C7.76539 29.9927 7.78318 29.7836 7.77937 29.577L7.7781 29.5795ZM8.46683 29.5479C8.46683 29.8279 8.46937 30.1067 8.5723 30.3728C8.66888 30.6225 8.94335 30.8277 9.19623 30.7999C9.44402 30.7733 9.65623 30.6643 9.76932 30.4159C9.85446 30.2296 9.88623 30.0332 9.89131 29.833C9.90021 29.4959 9.91292 29.1576 9.78457 28.8357C9.72104 28.6773 9.63844 28.5341 9.46816 28.4593C9.06661 28.2832 8.62313 28.51 8.50877 28.9497C8.45794 29.1461 8.4681 29.3476 8.46683 29.5466V29.5479Z" fill="#123C39"/>
<path id="Vector_28" d="M26.9629 42.8028C27.3428 42.8738 27.6262 43.0715 27.8117 43.4162C27.9109 43.5999 27.9388 43.7951 27.9503 43.9953C27.9591 44.1461 27.9973 44.2956 27.9846 44.449C27.9795 44.5149 27.9706 44.5567 27.888 44.5567C27.6618 44.5567 27.4331 44.5845 27.212 44.5731C26.8854 44.5567 26.5601 44.5833 26.2335 44.5567C26.0442 44.5415 26.0416 44.5516 26.0467 44.748C26.0569 45.1535 26.2475 45.4615 26.5969 45.54C26.9057 45.6097 27.231 45.6414 27.4915 45.374C27.5792 45.2841 27.691 45.3031 27.7685 45.4044C27.9515 45.6414 27.9503 45.6553 27.6936 45.8011C27.2336 46.0621 26.7456 46.1166 26.2462 45.9455C25.8345 45.8036 25.5791 45.502 25.4444 45.0914C25.2944 44.6327 25.3033 44.1651 25.4266 43.7127C25.5016 43.439 25.6922 43.2071 25.9285 43.0246C26.1458 42.8573 26.3873 42.7826 26.6579 42.7851C26.7316 42.7851 26.8053 42.7813 26.8803 42.78C26.8981 42.8244 26.9311 42.8168 26.9654 42.8041L26.9629 42.8028ZM26.696 44.1119C26.8803 44.1119 27.0658 44.1119 27.2501 44.1119C27.292 44.1119 27.3543 44.1321 27.3479 44.051C27.3263 43.8077 27.2984 43.5632 27.0976 43.3921C26.8206 43.1564 26.5004 43.1805 26.278 43.3832C26.1115 43.5353 26.0531 43.7596 26.0302 43.9826C26.0213 44.0675 26.0543 44.1182 26.1573 44.1144C26.3364 44.1068 26.5156 44.1119 26.6948 44.1119H26.696Z" fill="#123C39"/>
<path id="Vector_29" d="M37.4229 44.5606C37.2005 44.5606 36.9781 44.5669 36.7557 44.558C36.6439 44.553 36.5384 44.5897 36.4279 44.5847C36.3898 44.5834 36.3732 44.5973 36.3682 44.6366C36.3135 45.07 36.6134 45.5667 37.1141 45.5731C37.3771 45.5769 37.616 45.5224 37.8397 45.3893C37.8524 45.3817 37.8714 45.383 37.8829 45.3741C38.0188 45.2753 38.0239 45.2728 38.1078 45.4223C38.1497 45.4983 38.2679 45.5579 38.2336 45.6402C38.2044 45.7099 38.0989 45.7505 38.0226 45.7986C37.6923 46.009 37.3263 46.0762 36.9438 46.028C36.2767 45.9444 35.8916 45.5934 35.7303 44.9369C35.6248 44.5112 35.6413 44.0854 35.7709 43.6685C35.9018 43.2477 36.2042 42.9677 36.6083 42.8308C36.7532 42.7814 36.9413 42.7421 37.1154 42.8029C37.2043 42.8346 37.3034 42.7966 37.3975 42.8219C37.8536 42.9449 38.1103 43.2579 38.2387 43.6938C38.2679 43.7952 38.2768 43.8991 38.2743 44.0055C38.2717 44.1462 38.2666 44.2881 38.3035 44.4262C38.3264 44.5099 38.3136 44.5568 38.1993 44.5504C37.9401 44.539 37.6808 44.5466 37.4216 44.5466C37.4216 44.5504 37.4216 44.5542 37.4216 44.558L37.4229 44.5606ZM37.0366 44.1107C37.2272 44.1107 37.4165 44.1107 37.6071 44.1107C37.6503 44.1107 37.7139 44.1285 37.6948 44.0448C37.663 43.9067 37.6376 43.766 37.5919 43.633C37.4928 43.344 37.2081 43.1958 36.9171 43.2439C36.4698 43.3174 36.3644 43.747 36.3682 44.0499C36.3682 44.1285 36.4241 44.1107 36.4673 44.1107C36.6579 44.1107 36.8472 44.1107 37.0378 44.1107H37.0366Z" fill="#123C39"/>
<path id="Vector_30" d="M18.5441 29.4046C18.5365 29.7239 18.5365 29.7226 18.2137 29.7239C17.7054 29.7264 17.1971 29.734 16.6901 29.7366C16.605 29.7366 16.5643 29.7518 16.5758 29.8519C16.5935 30.0179 16.5897 30.2093 16.685 30.3322C16.8324 30.521 16.9951 30.7187 17.2772 30.7478C17.6 30.7808 17.8897 30.7047 18.154 30.5299C18.2417 30.4716 18.2747 30.4906 18.3217 30.5691C18.4793 30.8315 18.4844 30.8365 18.215 30.9848C17.7931 31.218 17.3445 31.2927 16.8795 31.1457C16.4614 31.0139 16.178 30.7301 16.0281 30.3182C15.929 30.0458 15.8641 29.7657 15.8832 29.4743C15.9099 29.0814 15.9811 28.7025 16.2543 28.3933C16.5681 28.0372 16.9684 27.9143 17.431 27.9612C17.9837 28.017 18.323 28.3224 18.4628 28.8521C18.4996 28.9927 18.525 29.1372 18.5289 29.2842C18.5162 29.3273 18.4984 29.3704 18.5441 29.4046ZM17.2442 29.2855C17.3445 29.2855 17.4449 29.2855 17.5453 29.2855C17.835 29.2855 17.9354 29.1452 17.8465 28.8647C17.7575 28.5847 17.4996 28.387 17.2378 28.3959C16.8642 28.4098 16.5287 28.8293 16.5758 29.2145C16.5846 29.288 16.6253 29.2842 16.6723 29.2842C16.8629 29.2842 17.0535 29.2842 17.2442 29.2842V29.2855Z" fill="#123C39"/>
<path id="Vector_31" d="M13.4829 44.5617C13.2186 44.5617 12.9543 44.5617 12.6887 44.5617C12.5223 44.5617 12.5172 44.5782 12.507 44.7429C12.4714 45.2992 12.9899 45.6338 13.3991 45.5983C13.6291 45.578 13.8451 45.5096 14.0357 45.3715C14.1539 45.2853 14.178 45.2929 14.2517 45.4183C14.2568 45.4272 14.2555 45.4399 14.2606 45.4488C14.3402 45.5898 14.3106 45.7043 14.1717 45.7922C13.8235 46.0127 13.4334 46.0824 13.0356 46.0368C12.4104 45.9645 11.9492 45.483 11.8513 44.8506C11.7929 44.473 11.7891 44.0941 11.8945 43.7266C11.9708 43.4643 12.1309 43.2527 12.3367 43.0601C12.6684 42.7521 13.0636 42.7825 13.4588 42.7876C13.549 42.7876 13.638 42.8649 13.7282 42.9017C14.1081 43.0537 14.2936 43.3579 14.3877 43.7355C14.4156 43.8495 14.4283 43.9648 14.4169 44.0789C14.4055 44.1968 14.4449 44.307 14.4512 44.4211C14.4576 44.5161 14.422 44.5541 14.3241 44.5528C14.0433 44.549 13.7638 44.5516 13.4829 44.5516C13.4829 44.5554 13.4829 44.5592 13.4829 44.5617ZM13.1475 44.1106C13.3431 44.1106 13.5388 44.1106 13.7345 44.1106C13.7739 44.1106 13.8311 44.1195 13.8197 44.0523C13.7815 43.8331 13.7765 43.6012 13.6036 43.4275C13.4334 43.2565 13.2415 43.1842 13.0013 43.2603C12.7129 43.3515 12.4651 43.7165 12.4778 44.0282C12.4816 44.1055 12.5172 44.1118 12.5756 44.1118C12.7662 44.1118 12.9568 44.1118 13.1462 44.1118L13.1475 44.1106Z" fill="#123C39"/>
<path id="Vector_32" d="M35.5523 37.0092C35.5473 37.1143 35.4939 37.1435 35.3884 37.1422C34.8331 37.1372 34.2765 37.1422 33.7212 37.1372C33.6094 37.1372 33.5586 37.1562 33.57 37.2829C33.5878 37.4894 33.6336 37.6871 33.7581 37.8544C33.8941 38.0381 34.0885 38.137 34.3172 38.1547C34.6247 38.1775 34.9208 38.1446 35.1661 37.9304C35.1813 37.9178 35.2067 37.8988 35.2207 37.9038C35.3338 37.9456 35.3656 38.0622 35.4342 38.1459C35.4901 38.213 35.4253 38.265 35.3757 38.3017C35.1089 38.4994 34.8026 38.5869 34.4786 38.6236C34.3261 38.6413 34.166 38.6401 34.0249 38.6147C33.8864 38.5894 33.7416 38.5197 33.6107 38.4437C33.2053 38.2105 33.0096 37.8417 32.941 37.3982C32.8965 37.1156 32.9118 36.828 32.941 36.5454C32.9817 36.1487 33.3337 35.5265 33.8381 35.4226C34.1533 35.358 34.4659 35.3352 34.7747 35.4619C35.1584 35.619 35.3808 35.9092 35.4774 36.3021C35.5307 36.5162 35.5295 36.738 35.5523 36.9572C35.5091 36.9749 35.5091 36.9927 35.5523 37.0104V37.0092ZM34.2588 36.6974V36.7C34.4443 36.7 34.6285 36.7 34.8141 36.7C34.8827 36.7 34.9322 36.6873 34.9157 36.6037C34.8712 36.3743 34.8115 36.1525 34.6362 35.9802C34.3909 35.7394 33.8381 35.7762 33.6984 36.1779C33.659 36.2932 33.6272 36.4098 33.6094 36.5289C33.5865 36.6784 33.6018 36.6949 33.7517 36.6962C33.9207 36.6974 34.0897 36.6962 34.2588 36.6962V36.6974Z" fill="#123C39"/>
<path id="Vector_33" d="M52.1162 29.5174C52.0958 29.1613 52.1835 28.8369 52.3754 28.5366C52.5825 28.2135 52.8544 28.0158 53.2522 27.9816C53.4949 27.9613 53.7287 27.9689 53.9587 28.036C54.2116 28.1108 54.3819 28.2933 54.5382 28.4986C54.6627 28.6621 54.6767 28.8572 54.7173 29.0409C54.7567 29.2184 54.744 29.4072 54.7605 29.5897C54.7694 29.6961 54.7275 29.7252 54.6246 29.7252C54.0782 29.7252 53.533 29.7341 52.9866 29.7379C52.8023 29.7392 52.7833 29.7569 52.7922 29.9331C52.8151 30.3386 53.1086 30.6909 53.472 30.7428C53.7973 30.7884 54.0959 30.7124 54.359 30.5223C54.434 30.4678 54.4721 30.4843 54.5089 30.5426C54.697 30.8442 54.7898 30.7758 54.4327 30.9798C54.0782 31.1813 53.6969 31.2649 53.2865 31.1914C52.7134 31.0875 52.3703 30.739 52.1924 30.203C52.1187 29.98 52.1149 29.7493 52.1149 29.52L52.1162 29.5174ZM53.4657 29.2843C53.655 29.2843 53.8456 29.2817 54.0349 29.2855C54.1125 29.2868 54.1404 29.2652 54.1226 29.1867C54.0947 29.0587 54.082 28.9269 54.0349 28.804C53.9117 28.4796 53.5978 28.3275 53.2687 28.4301C52.998 28.5151 52.7579 28.9066 52.7922 29.1943C52.8036 29.2893 52.8659 29.283 52.9281 29.2843C53.1073 29.2855 53.2865 29.2843 53.4657 29.2843Z" fill="#123C39"/>
<path id="Vector_34" d="M47.8405 29.5477C47.8405 30.0382 47.838 30.5286 47.8431 31.0202C47.8431 31.1216 47.8177 31.1647 47.7109 31.1584C47.5902 31.1508 47.4669 31.1482 47.3462 31.1546C47.2369 31.1609 47.1988 31.128 47.2014 31.0126C47.2103 30.6388 47.2064 30.2637 47.2052 29.8886C47.2052 29.729 47.2039 29.7289 47.0489 29.7277C46.7477 29.7277 46.4453 29.7328 46.1441 29.7239C46.0234 29.7201 45.9916 29.7606 45.9942 29.8759C46.0005 30.2561 45.9916 30.6363 45.998 31.0152C45.9992 31.128 45.9675 31.1647 45.8544 31.1546C45.7337 31.1432 45.6104 31.147 45.4897 31.1533C45.3893 31.1584 45.3588 31.114 45.3626 31.0215C45.369 30.8745 45.3728 30.7263 45.3728 30.5793C45.3766 29.8037 45.3817 29.0282 45.3817 28.2526C45.3817 28.0436 45.4389 27.9916 45.6574 28.0043C45.7324 28.0093 45.8099 27.9878 45.8862 27.9751C45.9726 27.9599 45.9967 27.9954 45.9954 28.079C45.9929 28.4224 46.0018 28.7646 45.9954 29.108C45.9929 29.2208 46.0259 29.255 46.1378 29.2525C46.4504 29.2461 46.7617 29.2525 47.0743 29.2525C47.2141 29.2525 47.2166 29.2499 47.1798 29.1004C47.162 29.0282 47.2128 28.9724 47.2077 28.9027C47.1899 28.6417 47.2306 28.3794 47.1798 28.1196C47.1645 28.0397 47.2357 28.0233 47.3043 28.0157C47.4339 28.0017 47.5635 27.9853 47.6931 27.965C47.8266 27.9447 47.8342 27.9485 47.8342 28.0904C47.8342 28.5758 47.8342 29.0611 47.8342 29.5465H47.8393L47.8405 29.5477Z" fill="#123C39"/>
<path id="Vector_35" d="M24.4845 44.4438C24.5036 44.8468 24.4629 45.3245 24.5023 45.8023C24.5138 45.9467 24.4578 45.986 24.3041 45.9797C24.2088 45.9759 24.1135 45.9696 24.0182 45.9797C23.9102 45.9898 23.8809 45.9467 23.8835 45.8454C23.8924 45.5552 23.8924 45.265 23.8962 44.9748C23.8962 44.9064 23.8962 44.8379 23.8924 44.7695C23.8822 44.5566 23.8822 44.5579 23.6598 44.5566C23.379 44.5566 23.0982 44.5579 22.8186 44.5515C22.7093 44.549 22.6712 44.5832 22.6737 44.6973C22.6801 45.0774 22.6776 45.4576 22.6763 45.8378C22.6763 46.0114 22.675 46.0101 22.5086 46.0114C22.3764 46.0139 22.2506 45.9657 22.1184 45.9746C22.0435 45.9797 22.0409 45.9214 22.0422 45.8644C22.0447 45.6844 22.046 45.5057 22.046 45.3258C22.046 44.6187 22.0435 43.9116 22.0435 43.2032C22.0435 43.1183 22.0473 43.0347 22.0485 42.9498C22.0511 42.8725 22.0841 42.8383 22.168 42.8421C22.2709 42.8471 22.37 42.8421 22.473 42.7939C22.6064 42.7318 22.6763 42.7901 22.6763 42.9358C22.6788 43.2742 22.6826 43.6113 22.6763 43.9496C22.675 44.0459 22.6941 44.0801 22.7957 44.0789C23.0715 44.0738 23.346 44.0751 23.6217 44.0852C23.6979 44.0877 23.7653 44.0256 23.8479 44.07C23.867 44.0801 23.8949 44.0168 23.8936 43.9686C23.8911 43.6784 23.9114 43.3882 23.8962 43.098C23.8847 42.8687 23.9063 42.8497 24.1427 42.8421C24.1846 42.8408 24.2278 42.8471 24.2698 42.8421C24.4858 42.8066 24.4858 42.8053 24.4858 43.022C24.4858 43.4706 24.4858 43.9192 24.4858 44.4438H24.4845Z" fill="#123C39"/>
<path id="Vector_36" d="M28.7798 44.4186C28.7798 43.9497 28.7798 43.4796 28.7798 43.0107C28.7798 42.846 28.7836 42.8435 28.9476 42.846C29.0543 42.846 29.1623 42.8422 29.2614 42.8093C29.3783 42.77 29.3809 42.8219 29.3809 42.9106C29.3783 43.2591 29.3834 43.6076 29.3771 43.9548C29.3758 44.0562 29.4012 44.0891 29.5067 44.0866C29.818 44.079 30.1306 44.0777 30.4432 44.0853C30.5665 44.0879 30.5957 44.041 30.5932 43.9282C30.5868 43.6165 30.5932 43.306 30.5881 42.9943C30.5868 42.8904 30.616 42.8511 30.7279 42.8397C30.8384 42.8283 30.9528 42.8422 31.0659 42.789C31.1612 42.7434 31.2171 42.8004 31.2171 42.9119C31.2184 43.8142 31.2171 44.7164 31.2184 45.6187C31.2184 45.7175 31.1751 45.8113 31.1879 45.9139C31.1968 45.9836 31.1383 45.9798 31.09 45.9798C30.968 45.9798 30.846 45.9735 30.7253 45.9824C30.6084 45.9912 30.5817 45.9405 30.583 45.8354C30.5881 45.4615 30.5868 45.0864 30.5868 44.7113C30.5868 44.5567 30.5843 44.5643 30.4292 44.5555C30.1916 44.5428 29.9578 44.5897 29.7214 44.5859C29.6643 44.5859 29.6109 44.5834 29.5524 44.5643C29.4254 44.5225 29.3809 44.5643 29.3796 44.6999C29.3796 45.075 29.3796 45.4489 29.3796 45.824C29.3796 45.9811 29.3771 45.9811 29.2246 45.9798C29.1191 45.9798 29.0124 45.976 28.9069 45.9824C28.8014 45.99 28.7722 45.9481 28.7735 45.8442C28.7786 45.369 28.776 44.8951 28.776 44.4199H28.7798V44.4186Z" fill="#123C39"/>
<path id="Vector_37" d="M8.79593 44.6656C8.79593 44.2652 8.79212 43.8635 8.79847 43.463C8.80101 43.3553 8.76162 43.3224 8.66377 43.3224C8.45283 43.3224 8.24062 43.316 8.02968 43.3173C7.94581 43.3173 7.90642 43.2996 7.90261 43.2045C7.90007 43.1234 7.87084 43.0436 7.87211 42.9574C7.87338 42.8788 7.8988 42.8421 7.98266 42.8421C8.43758 42.8434 8.8925 42.8446 9.34742 42.8408C9.44146 42.8408 9.43002 42.894 9.43002 42.9523C9.43002 43.2641 9.4351 43.5745 9.42621 43.885C9.4224 44.0016 9.46687 44.0307 9.57107 44.0257C9.86207 44.0105 10.1505 44.0219 10.4377 44.0776C10.8062 44.1499 11.0718 44.3513 11.1696 44.7125C11.2675 45.0749 11.2344 45.4259 10.932 45.7022C10.7262 45.8897 10.4707 45.9607 10.2039 45.9696C9.76041 45.9835 9.31565 45.9746 8.87217 45.9823C8.76797 45.9835 8.7972 45.9164 8.7972 45.8669C8.79593 45.4665 8.7972 45.0648 8.7972 44.6643L8.79593 44.6656ZM9.42875 45.0141C9.42875 45.151 9.43383 45.2878 9.42748 45.4247C9.42367 45.5121 9.45035 45.5489 9.54184 45.5413C9.72483 45.5261 9.90781 45.5362 10.0921 45.5108C10.35 45.4766 10.5495 45.3347 10.5495 45.0344C10.5495 44.7467 10.4517 44.5845 10.1721 44.5173C9.9472 44.4629 9.71975 44.5021 9.49356 44.4907C9.43002 44.4869 9.43002 44.5262 9.43002 44.5718C9.43002 44.7188 9.43002 44.8671 9.43002 45.0141H9.42875Z" fill="#123C39"/>
<path id="Vector_38" d="M34.0663 30.5919C34.0638 30.4335 34.0613 30.2751 34.0587 30.1167C34.0574 30.0597 34.0651 30.0026 34.0257 29.9519C34.0053 29.9253 34.0003 29.8987 34.0257 29.8607C34.0778 29.7859 34.0524 29.7302 33.9558 29.7302C33.6013 29.7276 33.2467 29.7302 32.8922 29.7264C32.7956 29.7251 32.8109 29.7821 32.8109 29.8392C32.8109 30.2029 32.8109 30.5678 32.8109 30.9315C32.8109 31.152 32.7397 31.2078 32.5161 31.1647C32.5008 31.1621 32.4856 31.1583 32.4703 31.1558C32.3839 31.1406 32.2644 31.1951 32.2174 31.1191C32.178 31.0544 32.2098 30.9454 32.2098 30.8567C32.2098 30.1598 32.2073 29.4641 32.2123 28.7671C32.2136 28.5681 32.1641 28.373 32.1742 28.1728C32.1793 28.0689 32.2022 28.0144 32.3178 28.0232C32.4856 28.0359 32.6419 27.9675 32.8109 27.9421C32.8109 28.3362 32.8147 28.7278 32.8083 29.1194C32.807 29.2284 32.8325 29.2613 32.9468 29.2588C33.2747 29.2512 33.6025 29.2537 33.9304 29.2613C34.0269 29.2638 34.0574 29.2423 34.0587 29.1422C34.06 28.8254 34.0689 28.5099 34.0562 28.193C34.0511 28.0422 34.0651 28.027 34.2125 28.022C34.3192 28.0182 34.4247 28.003 34.5251 27.9726C34.6382 27.9383 34.6521 27.9865 34.6509 28.079C34.6483 28.3109 34.6509 28.5428 34.6509 28.776C34.6509 29.4831 34.6509 30.1902 34.6509 30.8973C34.6509 30.9505 34.6509 31.0025 34.6471 31.0557C34.642 31.1292 34.6115 31.1697 34.5263 31.1647C34.4056 31.1571 34.2824 31.152 34.1616 31.1596C34.0473 31.1672 34.0396 31.1089 34.0574 31.024C34.0613 31.0227 34.0638 31.0215 34.0676 31.0202C34.0651 31.0151 34.0613 31.0101 34.0587 31.005C34.0587 30.9049 34.0587 30.8061 34.06 30.7059C34.0981 30.6705 34.0918 30.6337 34.0663 30.5944V30.5919Z" fill="#123C39"/>
<path id="Vector_39" d="M26.3629 37.0143C26.3629 36.5555 26.3654 36.0955 26.3604 35.6368C26.3604 35.5278 26.387 35.4721 26.5014 35.4556C26.6259 35.4391 26.7492 35.4075 26.875 35.3922C26.9779 35.3808 27.0021 35.4151 27.0008 35.5114C26.9944 35.8598 27.0008 36.2083 26.9919 36.5555C26.9881 36.6734 27.016 36.7152 27.1393 36.7025C27.2905 36.6886 27.4456 36.7114 27.5955 36.662C27.6806 36.6341 27.7429 36.591 27.7836 36.5074C27.8458 36.3781 27.8916 36.2451 27.9221 36.1057C27.95 35.9764 27.9983 35.8548 28.0491 35.7331C28.1381 35.5152 28.3147 35.4493 28.5269 35.429C28.574 35.4252 28.6184 35.4265 28.6667 35.4125C28.7328 35.3922 28.823 35.358 28.8611 35.448C28.9069 35.5532 28.9399 35.6672 28.8942 35.7838C28.8802 35.818 28.8383 35.8066 28.809 35.8117C28.6032 35.8446 28.5193 35.9967 28.4621 36.1678C28.4265 36.2704 28.4075 36.3794 28.3719 36.482C28.316 36.6392 28.241 36.7798 28.0885 36.8648C28.0225 36.9015 27.9907 36.9446 28.0835 36.9813C28.2448 37.0434 28.3084 37.179 28.3592 37.3248C28.424 37.5136 28.4825 37.7036 28.5473 37.8925C28.5994 38.0458 28.6845 38.1649 28.8637 38.1865C28.9666 38.1991 28.9908 38.2663 28.9666 38.3588C28.9603 38.3841 28.9501 38.4082 28.9437 38.4336C28.8916 38.6414 28.8777 38.649 28.6642 38.6021C28.5714 38.5818 28.4748 38.5806 28.3833 38.5616C28.1546 38.5134 28.0085 38.3765 27.9577 38.1459C27.9119 37.9406 27.8789 37.7315 27.8217 37.53C27.7836 37.3944 27.7353 37.2436 27.5701 37.2132C27.4214 37.1866 27.2715 37.1575 27.1177 37.1689C27.0211 37.1765 26.9957 37.2132 26.9983 37.307C27.0033 37.6441 26.9995 37.9824 26.9983 38.3195C26.9983 38.3613 26.9983 38.4044 26.9944 38.4462C26.9894 38.5324 26.9551 38.5818 26.8547 38.5692C26.7606 38.5577 26.6641 38.5616 26.5688 38.559C26.3769 38.5539 26.3718 38.5539 26.3705 38.355C26.368 37.9064 26.3705 37.4578 26.3705 37.0092H26.3654L26.3629 37.0143Z" fill="#123C39"/>
<path id="Vector_40" d="M41.1982 29.5542C41.1982 30.0243 41.1982 30.4932 41.1982 30.9633C41.1982 31.1521 41.1969 31.1521 41.0025 31.1521C40.9122 31.1521 40.822 31.1471 40.7331 31.1547C40.62 31.1635 40.592 31.1154 40.592 31.0064C40.5971 30.241 40.5946 29.4756 40.5946 28.7102C40.5946 28.4986 40.5933 28.5011 40.3874 28.5024C40.2337 28.5024 40.0812 28.4986 39.9274 28.491C39.8512 28.4872 39.8118 28.491 39.7953 28.5911C39.7597 28.7989 39.7749 29.0093 39.7381 29.2158C39.6822 29.539 39.6911 29.8684 39.6199 30.1903C39.5932 30.3107 39.5831 30.4362 39.5589 30.5591C39.4814 30.9582 39.2069 31.1217 38.841 31.1787C38.5805 31.2193 38.4966 31.1496 38.4699 30.8873C38.4648 30.8417 38.475 30.8201 38.5296 30.8011C38.6643 30.7542 38.7939 30.6972 38.8994 30.5895C39.0379 30.4488 39.0481 30.2663 39.0684 30.094C39.0964 29.8583 39.1358 29.6251 39.165 29.3907C39.1777 29.2881 39.1853 29.1829 39.1917 29.0828C39.2018 28.9218 39.2476 28.7634 39.2336 28.6C39.2184 28.4276 39.2832 28.2591 39.2641 28.0855C39.2539 27.9942 39.3251 28.0196 39.3721 28.0196C39.8436 28.0196 40.3137 28.017 40.7852 28.0196C40.9199 28.0196 41.1003 27.96 41.1778 28.0487C41.2439 28.1247 41.1982 28.2996 41.1982 28.4301C41.1982 28.8052 41.1982 29.1791 41.1982 29.5542Z" fill="#123C39"/>
<path id="Vector_41" d="M12.861 36.9978C12.861 37.473 12.8572 37.9482 12.8636 38.4234C12.8648 38.5426 12.8305 38.5882 12.7111 38.573C12.6488 38.5654 12.584 38.5692 12.5205 38.5679C12.3459 38.5654 12.2587 38.4746 12.2587 38.2955C12.2587 37.5567 12.2587 36.8179 12.2574 36.0778C12.2574 35.908 12.2561 35.908 12.0821 35.9068C11.908 35.9042 11.7326 35.9055 11.5585 35.9004C11.4924 35.8991 11.467 35.9182 11.4619 35.9879C11.4327 36.3465 11.3908 36.7051 11.3603 37.0637C11.3336 37.3843 11.298 37.7062 11.2116 38.0192C11.1252 38.3284 10.927 38.5134 10.6118 38.5742C10.5153 38.5933 10.4225 38.63 10.3208 38.63C10.2459 38.63 10.2001 38.6123 10.1925 38.5299C10.1874 38.4729 10.1811 38.412 10.1569 38.3601C10.1086 38.2549 10.176 38.2131 10.2509 38.1928C10.3539 38.1649 10.4327 38.1054 10.514 38.0446C10.7021 37.9039 10.7313 37.691 10.7592 37.4844C10.7961 37.2145 10.8063 36.9408 10.838 36.6709C10.8685 36.3984 10.88 36.1234 10.9232 35.851C10.9384 35.7534 10.9346 35.6508 10.927 35.5507C10.9219 35.4734 10.9587 35.4468 11.0235 35.4404C11.0756 35.4353 11.129 35.4341 11.1824 35.4341C11.6958 35.4341 12.2091 35.4379 12.7225 35.4341C12.8318 35.4341 12.8674 35.4607 12.8648 35.5735C12.8585 36.0487 12.8623 36.5239 12.8623 36.9991L12.861 36.9978Z" fill="#123C39"/>
<path id="Vector_42" d="M42.2164 29.6148C42.2164 29.1447 42.219 28.6758 42.2139 28.2057C42.2139 28.1018 42.2444 28.0485 42.3486 28.0359C42.4642 28.0219 42.5786 28.0016 42.6929 27.9852C42.7832 27.9725 42.8225 27.9978 42.8187 28.103C42.8098 28.4148 42.8187 28.7252 42.8111 29.037C42.8086 29.1535 42.8454 29.1992 42.9649 29.1941C43.2698 29.1814 43.5748 29.1852 43.8734 29.2549C44.2229 29.336 44.4859 29.521 44.5787 29.8873C44.6778 30.2788 44.6219 30.6248 44.2953 30.9061C44.0984 31.0759 43.8671 31.1317 43.6282 31.1431C43.2114 31.1621 42.792 31.152 42.374 31.1545C42.2706 31.1545 42.2185 31.1008 42.2177 30.9936C42.2177 30.5348 42.2177 30.0748 42.2177 29.6161L42.2164 29.6148ZM42.8187 30.1711C42.8187 30.1711 42.8124 30.1711 42.8098 30.1711C42.8098 30.3181 42.8098 30.4664 42.8098 30.6134C42.8098 30.6615 42.8048 30.7148 42.8759 30.7135C43.1491 30.7059 43.4249 30.7452 43.6904 30.6451C43.8239 30.5944 43.9179 30.5095 43.9509 30.3726C43.9853 30.2332 43.984 30.0913 43.9357 29.9532C43.8798 29.7948 43.7578 29.6832 43.6015 29.6744C43.3766 29.6617 43.1542 29.6224 42.9267 29.6313C42.8429 29.6338 42.8149 29.668 42.8162 29.7466C42.8187 29.8885 42.8162 30.0305 42.8162 30.1737L42.8187 30.1711Z" fill="#123C39"/>
<path id="Vector_43" d="M8.58813 36.7C8.7152 36.7 8.84227 36.6949 8.96935 36.7012C9.07101 36.7063 9.09261 36.6632 9.08879 36.5694C9.07736 36.2362 8.89183 35.908 8.63133 35.8623C8.3594 35.8142 8.0684 35.7762 7.83459 35.9916C7.7431 36.0765 7.68083 36.0537 7.6173 35.9663C7.59188 35.932 7.56647 35.8991 7.53851 35.8661C7.38348 35.6799 7.37459 35.6862 7.60967 35.5569C7.92862 35.3821 8.26918 35.3415 8.63769 35.3884C8.93377 35.4251 9.16885 35.5417 9.37217 35.7407C9.57802 35.9434 9.70001 36.1969 9.74195 36.4769C9.79913 36.8571 9.80675 37.2411 9.71399 37.6187C9.57802 38.1725 9.20443 38.5349 8.65167 38.6299C8.17896 38.711 7.76978 38.597 7.39873 38.3043C7.3174 38.2396 7.30597 38.1877 7.37713 38.1142C7.41398 38.0762 7.44702 38.0343 7.48006 37.9938C7.58553 37.8683 7.65542 37.8455 7.75835 37.952C7.87017 38.066 7.98962 38.1256 8.14846 38.1408C8.22089 38.1484 8.29205 38.1877 8.37338 38.1927C8.74824 38.213 9.0494 37.9469 9.0799 37.5173C9.10658 37.1384 9.1104 37.1397 8.73172 37.1397C8.55128 37.1397 8.37211 37.1359 8.19166 37.141C8.10398 37.1435 8.07222 37.1105 8.06459 37.0244C8.03918 36.7101 8.04807 36.6987 8.36448 36.7012C8.43818 36.7012 8.51316 36.7012 8.58686 36.7012C8.58686 36.7012 8.58686 36.7012 8.58686 36.7H8.58813Z" fill="#123C39"/>
<path id="Vector_44" d="M24.6193 38.6287C23.9458 38.6135 23.5062 38.2308 23.3499 37.563C23.2393 37.0916 23.2927 36.643 23.463 36.1931C23.5811 35.8827 23.7984 35.6837 24.0704 35.5101C24.2953 35.3656 24.5367 35.3593 24.7832 35.3707C25.0361 35.3821 25.2687 35.4695 25.4783 35.614C25.552 35.6647 25.5597 35.7167 25.5037 35.7838C25.4669 35.8282 25.4377 35.8801 25.3983 35.9219C25.3436 35.979 25.3157 36.0677 25.2407 36.0943C25.1594 36.1234 25.1352 36.0195 25.0742 35.9891C24.5621 35.7331 24.2381 35.9169 24.0551 36.4339C23.9509 36.7279 23.9496 37.0548 23.9852 37.3678C24.0119 37.5985 24.0729 37.8266 24.2635 37.9964C24.4478 38.1598 24.7083 38.2093 24.9345 38.1104C25.0717 38.0496 25.1886 37.9584 25.3004 37.862C25.3525 37.8164 25.3703 37.8278 25.4097 37.8747C25.4859 37.966 25.5419 38.0737 25.6372 38.151C25.6855 38.1903 25.6486 38.2435 25.6156 38.2701C25.3296 38.4893 25.0793 38.6401 24.6206 38.6287H24.6193Z" fill="#123C39"/>
<path id="Vector_45" d="M21.2418 30.4258C21.3282 30.5373 21.4006 30.6387 21.4807 30.7338C21.5277 30.7908 21.5086 30.8275 21.4642 30.8668C21.3727 30.9467 21.2748 31.0176 21.1643 31.0708C20.6344 31.3243 19.971 31.2407 19.6051 30.8668C19.4577 30.7173 19.3484 30.545 19.2836 30.346C19.1972 30.0811 19.1387 29.8087 19.1565 29.5312C19.1921 28.9926 19.3598 28.4921 19.8198 28.1753C20.1871 27.9218 20.6191 27.8737 21.0512 28.0397C21.163 28.0827 21.2824 28.1182 21.3701 28.2171C21.4209 28.2741 21.4184 28.3159 21.3828 28.3691C21.3625 28.3995 21.3409 28.43 21.3167 28.4578C21.2545 28.5288 21.2253 28.6416 21.1376 28.6733C21.0385 28.7075 20.9902 28.5782 20.9012 28.5491C20.4514 28.4008 20.0575 28.4553 19.924 29.0154C19.8224 29.4399 19.8173 29.8784 19.9533 30.2953C20.0943 30.73 20.5467 30.8808 20.9177 30.6514C21.0258 30.5842 21.135 30.5196 21.243 30.4258H21.2418Z" fill="#123C39"/>
<path id="Vector_46" d="M22.078 29.5755C22.1034 29.2942 22.1339 29.0179 22.2597 28.7556C22.3957 28.473 22.613 28.2715 22.8557 28.0929C22.9536 28.0206 23.0806 28.0054 23.2039 27.9826C23.3932 27.9484 23.5775 27.9788 23.763 27.989C23.9752 28.0016 24.1493 28.1106 24.312 28.2424C24.3552 28.2766 24.3514 28.3172 24.3234 28.3526C24.2294 28.4718 24.1328 28.5871 24.0286 28.7138C23.8202 28.4604 23.5356 28.4604 23.2636 28.4984C23.0336 28.5301 22.9332 28.729 22.8633 28.9406C22.7617 29.2511 22.7617 29.5704 22.7757 29.8885C22.7846 30.071 22.8239 30.256 22.9167 30.4157C23.1505 30.8161 23.608 30.8491 23.9244 30.5918C24.1493 30.4081 24.1493 30.4068 24.3196 30.6438C24.3374 30.6691 24.3577 30.6932 24.378 30.716C24.4276 30.7692 24.4212 30.8123 24.3666 30.8617C24.204 31.0113 24.0222 31.1228 23.8037 31.1709C23.3246 31.2761 22.8811 31.214 22.5126 30.8655C22.275 30.6425 22.1619 30.3498 22.1085 30.0342C22.0895 29.9202 22.0869 29.8049 22.078 29.6896C22.1123 29.6503 22.1162 29.6123 22.0742 29.5755H22.078Z" fill="#123C39"/>
<path id="Vector_47" d="M14.9572 37.2348C14.9572 37.62 14.9572 38.0053 14.9572 38.3905C14.9572 38.5679 14.9547 38.5679 14.7691 38.5679C14.6789 38.5679 14.5887 38.5692 14.4997 38.5679C14.3333 38.5641 14.3295 38.5591 14.3295 38.3968C14.3282 37.6314 14.3256 36.866 14.3244 36.1019C14.3244 35.9735 14.2617 35.9089 14.1363 35.908C13.9457 35.9068 13.7551 35.9055 13.5645 35.9055C13.4755 35.9055 13.4349 35.8776 13.4323 35.7762C13.426 35.4379 13.4209 35.4379 13.7589 35.4379C14.1821 35.4379 14.6065 35.4493 15.0284 35.4316C15.2723 35.4214 15.515 35.4518 15.7578 35.4366C15.8569 35.4303 15.8874 35.4658 15.8785 35.5646C15.8492 35.9042 15.8518 35.9042 15.5112 35.9068C15.3689 35.9068 15.2253 35.9106 15.083 35.9068C14.9813 35.9055 14.9496 35.9422 14.9508 36.0487C14.9585 36.4441 14.9534 36.8407 14.9534 37.2361H14.9572V37.2348Z" fill="#123C39"/>
<path id="Vector_48" d="M3.99085 37.8442C4.05057 37.9355 4.0493 38.0255 3.99212 38.118C3.95272 38.0267 3.954 37.9355 3.99085 37.8442Z" fill="#A0712A"/>
<path id="Vector_49" d="M6.60269 37.9582C6.55949 37.8872 6.55568 37.8175 6.6065 37.7478C6.68402 37.8188 6.68529 37.8897 6.60269 37.9582Z" fill="#A0712A"/>
<path id="Vector_50" d="M25.7682 28.7088C25.7148 28.6708 25.7136 28.6328 25.7669 28.5935C25.8051 28.6315 25.8051 28.6695 25.7682 28.7088Z" fill="#A0712A"/>
<path id="Vector_51" d="M18.5442 29.4046C18.4985 29.3691 18.5162 29.326 18.529 29.2842C18.595 29.3171 18.5938 29.3577 18.5442 29.4046Z" fill="#A0712A"/>
<path id="Vector_52" d="M22.0783 29.5757C22.1215 29.6124 22.1177 29.6504 22.0821 29.6897C22.0313 29.6542 22.0249 29.6162 22.0783 29.5757Z" fill="#A0712A"/>
<path id="Vector_53" d="M34.0656 30.592C34.091 30.6301 34.0974 30.6681 34.0592 30.7036C34.0084 30.663 34.0021 30.6263 34.0656 30.592Z" fill="#A0712A"/>
<path id="Vector_54" d="M26.9631 42.8029C26.9288 42.8156 26.8957 42.8232 26.8779 42.7788C26.9224 42.7294 26.9478 42.7484 26.9631 42.8029Z" fill="#A0712A"/>
<path id="Vector_55" d="M25.1886 28.0764C25.1937 28.0891 25.1912 28.098 25.1785 28.103C25.1632 28.1056 25.1441 28.1106 25.148 28.0866C25.148 28.0815 25.1746 28.0802 25.1886 28.0764Z" fill="#A0712A"/>
<path id="Vector_56" d="M35.5529 37.009C35.5097 36.9913 35.5097 36.9736 35.5529 36.9558C35.5859 36.9736 35.5859 36.9913 35.5529 37.009Z" fill="#A0712A"/>
<path id="Vector_57" d="M3.98962 37.5579C4.03156 37.5756 4.0341 37.5933 3.98962 37.6124C3.95658 37.5946 3.95658 37.5769 3.98962 37.5579Z" fill="#A0712A"/>
<path id="Vector_58" d="M34.0584 31.0012C34.0584 31.0012 34.0649 31.0116 34.0675 31.0169C34.0636 31.0182 34.061 31.0195 34.0571 31.0208C34.0506 31.0143 34.0519 31.0077 34.0571 31.0012H34.0584Z" fill="#A0712A"/>
<path id="Vector_59" d="M18.4623 45.9531L18.4766 45.9557L18.4804 45.9688C18.4623 45.9766 18.4584 45.9688 18.4623 45.9531Z" fill="#A0712A"/>
</g>
</g>
</svg>
