<svg width="12" height="12" viewBox="0 0 12 12" fill="none" xmlns="http://www.w3.org/2000/svg">
<path d="M2.612 11.3516V0.151562H7.012C8.452 0.151562 9.588 0.471562 10.42 1.11156C11.252 1.7409 11.668 2.66356 11.668 3.87956C11.668 5.09556 11.252 6.02356 10.42 6.66356C9.588 7.30356 8.452 7.62356 7.012 7.62356H3.508L4.228 6.87156V11.3516H2.612ZM4.228 7.03156L3.508 6.29556H7.012C7.99333 6.29556 8.74533 6.08756 9.268 5.67156C9.79067 5.25556 10.052 4.66356 10.052 3.89556C10.052 3.13823 9.79067 2.5569 9.268 2.15156C8.74533 1.74623 7.99333 1.54356 7.012 1.54356H3.508L4.228 0.743562V7.03156ZM0.98 9.47956V8.56756H7.78V9.47956H0.98Z" fill="#0D2F47"/>
</svg>
