<svg width="52" height="53" viewBox="0 0 52 53" fill="none" xmlns="http://www.w3.org/2000/svg">
<g id="4">
<g id="&#60;Layer&#62;">
<g id="Group">
<path id="Vector" d="M38.8576 0H2.56441C1.14813 0 0 1.45021 0 3.23913V38.6645C0 40.4535 1.14813 41.9037 2.56441 41.9037H38.8576C40.2739 41.9037 41.422 40.4535 41.422 38.6645V3.23913C41.422 1.45021 40.2739 0 38.8576 0Z" fill="url(#paint0_linear_557_6499)"/>
</g>
<g id="Vector_2" filter="url(#filter0_b_557_6499)">
<path d="M36.2344 50.3999C34.1661 50.3999 32.118 49.9925 30.2071 49.201C28.2962 48.4095 26.5599 47.2494 25.0974 45.7868C23.6349 44.3243 22.4748 42.588 21.6833 40.6772C20.8917 38.7663 20.4844 36.7182 20.4844 34.6499C20.485 30.4729 22.1445 26.4672 25.0981 23.5136C28.0517 20.5601 32.0574 18.9005 36.2344 18.8999C40.4115 18.8999 44.4176 20.5593 47.3713 23.513C50.325 26.4667 51.9844 30.4728 51.9844 34.6499C51.9847 36.7183 51.5775 38.7665 50.7861 40.6775C49.9947 42.5885 48.8346 44.3249 47.372 45.7875C45.9094 47.2501 44.173 48.4102 42.262 49.2016C40.351 49.993 38.3028 50.4002 36.2344 50.3999Z" fill="url(#paint1_linear_557_6499)" fill-opacity="0.5"/>
<path d="M36.2344 50.1374H36.2344C38.2683 50.1377 40.2824 49.7373 42.1616 48.9591C44.0407 48.1809 45.7482 47.0401 47.1864 45.6019C48.6246 44.1637 49.7654 42.4562 50.5436 40.5771C51.3218 38.6979 51.7222 36.6839 51.7219 34.65V34.6499C51.7219 30.5424 50.0902 26.6031 47.1857 23.6986C44.2812 20.7941 40.3419 19.1624 36.2344 19.1624L36.2344 50.1374ZM36.2344 50.1374C34.2005 50.1374 32.1866 49.7368 30.3075 48.9585M36.2344 50.1374L30.3075 48.9585M30.3075 48.9585C28.4285 48.1802 26.7212 47.0394 25.283 45.6012M30.3075 48.9585L25.283 45.6012M25.283 45.6012C23.8449 44.1631 22.7041 42.4557 21.9258 40.5767M25.283 45.6012L21.9258 40.5767M21.9258 40.5767C21.1475 38.6977 20.7469 36.6838 20.7469 34.6499M21.9258 40.5767L20.7469 34.6499M20.7469 34.6499C20.7475 30.5425 22.3793 26.6036 25.2837 23.6993M20.7469 34.6499H20.4844C20.4844 36.7182 20.8917 38.7663 21.6833 40.6772C22.4748 42.588 23.6349 44.3243 25.0974 45.7868C26.5599 47.2494 28.2962 48.4095 30.2071 49.201L25.2837 23.6993M25.2837 23.6993C28.188 20.7949 32.127 19.163 36.2344 19.1624L25.2837 23.6993Z" stroke="url(#paint2_linear_557_6499)" stroke-width="0.525"/>
</g>
<path id="Vector_3" d="M43.7194 38.3249H35.5751C35.1931 38.3249 34.8268 38.1738 34.5566 37.9049C34.2865 37.636 34.1348 37.2713 34.1348 36.891V25.5838C34.1348 25.2035 34.2865 24.8388 34.5566 24.5699C34.8268 24.301 35.1931 24.1499 35.5751 24.1499C35.9571 24.1499 36.3235 24.301 36.5936 24.5699C36.8637 24.8388 37.0155 25.2035 37.0155 25.5838V35.457H43.7194C44.1014 35.457 44.4678 35.6081 44.7379 35.877C45.008 36.1459 45.1598 36.5107 45.1598 36.891C45.1598 37.2713 45.008 37.636 44.7379 37.9049C44.4678 38.1738 44.1014 38.3249 43.7194 38.3249Z" fill="white"/>
</g>
</g>
<defs>
<filter id="filter0_b_557_6499" x="16.2844" y="14.6999" width="39.9" height="39.9" filterUnits="userSpaceOnUse" color-interpolation-filters="sRGB">
<feFlood flood-opacity="0" result="BackgroundImageFix"/>
<feGaussianBlur in="BackgroundImageFix" stdDeviation="2.1"/>
<feComposite in2="SourceAlpha" operator="in" result="effect1_backgroundBlur_557_6499"/>
<feBlend mode="normal" in="SourceGraphic" in2="effect1_backgroundBlur_557_6499" result="shape"/>
</filter>
<linearGradient id="paint0_linear_557_6499" x1="2.65101" y1="57.8271" x2="43.3629" y2="55.3642" gradientUnits="userSpaceOnUse">
<stop stop-color="#028FBE"/>
<stop offset="1" stop-color="#3ABBDB"/>
</linearGradient>
<linearGradient id="paint1_linear_557_6499" x1="25.0919" y1="23.5142" x2="47.3656" y2="45.7879" gradientUnits="userSpaceOnUse">
<stop stop-color="white"/>
<stop offset="0.12" stop-color="#F6FBFE"/>
<stop offset="0.31" stop-color="#DEF1FB"/>
<stop offset="0.56" stop-color="#B6E0F5"/>
<stop offset="0.84" stop-color="#7FC9EE"/>
<stop offset="1" stop-color="#5EBBEA"/>
</linearGradient>
<linearGradient id="paint2_linear_557_6499" x1="24.6764" y1="55.7698" x2="60.4497" y2="70.6414" gradientUnits="userSpaceOnUse">
<stop offset="0.0128737" stop-color="#DEF1FF" stop-opacity="0.52"/>
<stop offset="1" stop-color="#DBF0FF"/>
</linearGradient>
</defs>
</svg>
