<svg width="45" height="53" viewBox="0 0 45 53" fill="none" xmlns="http://www.w3.org/2000/svg">
<g id="3" clip-path="url(#clip0_557_6879)">
<g id="Group">
<g id="&#60;Layer&#62;">
<g id="Group_2">
<path id="Vector" d="M26.9212 3.38924H20.6299C20.6299 2.49036 20.2714 1.62829 19.6332 0.992688C18.995 0.357082 18.1294 0 17.2268 0C16.3243 0 15.4587 0.357082 14.8205 0.992688C14.1823 1.62829 13.8237 2.49036 13.8237 3.38924H7.53424C6.99473 3.38924 6.47731 3.60269 6.09582 3.98263C5.71432 4.36258 5.5 4.87788 5.5 5.4152V9.53212C5.49976 9.79833 5.5522 10.062 5.65433 10.308C5.75645 10.554 5.90625 10.7776 6.09517 10.9659C6.2841 11.1542 6.50843 11.3036 6.75535 11.4055C7.00227 11.5074 7.26695 11.5599 7.53424 11.5599H26.9212C27.4609 11.5594 27.9783 11.3456 28.3598 10.9653C28.7412 10.5851 28.9555 10.0696 28.9555 9.53212V5.4152C28.9555 4.87788 28.7412 4.36258 28.3597 3.98263C27.9782 3.60269 27.4608 3.38924 26.9212 3.38924Z" fill="url(#paint0_linear_557_6879)"/>
</g>
<g id="Vector_2" filter="url(#filter0_b_557_6879)">
<path d="M31.5417 6.25854H2.93533C1.31419 6.25854 0 7.56739 0 9.18192V50.0785C0 51.6931 1.31419 53.0019 2.93533 53.0019H31.5417C33.1628 53.0019 34.477 51.6931 34.477 50.0785V9.18192C34.477 7.56739 33.1628 6.25854 31.5417 6.25854Z" fill="url(#paint1_linear_557_6879)" fill-opacity="0.6"/>
<path d="M2.93533 6.4996H31.5417C33.0306 6.4996 34.236 7.70144 34.236 9.18192V50.0785C34.236 51.559 33.0306 52.7609 31.5417 52.7609H2.93533C1.44639 52.7609 0.241052 51.559 0.241052 50.0785V9.18192C0.241052 7.70144 1.44639 6.4996 2.93533 6.4996Z" stroke="url(#paint2_linear_557_6879)" stroke-width="0.482104"/>
</g>
<path id="Vector_3" d="M24.7131 48.0401L20.6881 49.593C20.5387 49.6507 20.3756 49.6639 20.2187 49.631C20.0619 49.598 19.918 49.5204 19.8047 49.4075C19.6913 49.2946 19.6133 49.1513 19.5803 48.9951C19.5472 48.8389 19.5605 48.6765 19.6184 48.5276L21.1776 44.5191C21.4267 43.8771 21.8078 43.2941 22.2963 42.8073L40.3797 24.7994C40.5333 24.6461 40.7157 24.5245 40.9165 24.4416C41.1173 24.3586 41.3326 24.3159 41.55 24.3159C41.7674 24.3159 41.9827 24.3586 42.1835 24.4416C42.3843 24.5245 42.5667 24.6461 42.7203 24.7994L44.5135 26.5852C44.6673 26.7381 44.7894 26.9198 44.8727 27.1198C44.956 27.3198 44.9989 27.5342 44.9989 27.7507C44.9989 27.9672 44.956 28.1816 44.8727 28.3816C44.7894 28.5817 44.6673 28.7633 44.5135 28.9163L26.4319 46.926C25.9431 47.4126 25.3577 47.792 24.7131 48.0401Z" fill="url(#paint3_linear_557_6879)"/>
<path id="Vector_4" d="M27.0948 21.0079H7.3633C7.19561 21.0142 7.02834 20.9868 6.87153 20.9273C6.71472 20.8678 6.57159 20.7774 6.45069 20.6615C6.32979 20.5456 6.2336 20.4066 6.16791 20.2528C6.10222 20.099 6.06836 19.9336 6.06836 19.7665C6.06836 19.5993 6.10222 19.4339 6.16791 19.2801C6.2336 19.1263 6.32979 18.9873 6.45069 18.8714C6.57159 18.7555 6.71472 18.6651 6.87153 18.6056C7.02834 18.5461 7.19561 18.5187 7.3633 18.5251H27.0948C27.4171 18.5373 27.7222 18.6735 27.9459 18.9049C28.1696 19.1364 28.2946 19.4452 28.2946 19.7665C28.2946 20.0877 28.1696 20.3965 27.9459 20.628C27.7222 20.8595 27.4171 20.9956 27.0948 21.0079Z" fill="white"/>
<path id="Vector_5" d="M27.0948 28.7518H7.3633C7.19561 28.7581 7.02834 28.7307 6.87153 28.6712C6.71472 28.6117 6.57159 28.5213 6.45069 28.4054C6.32979 28.2895 6.2336 28.1505 6.16791 27.9967C6.10222 27.8429 6.06836 27.6775 6.06836 27.5104C6.06836 27.3432 6.10222 27.1778 6.16791 27.024C6.2336 26.8702 6.32979 26.7312 6.45069 26.6153C6.57159 26.4994 6.71472 26.409 6.87153 26.3495C7.02834 26.29 7.19561 26.2626 7.3633 26.269H27.0948C27.4171 26.2812 27.7222 26.4173 27.9459 26.6488C28.1696 26.8803 28.2946 27.1891 28.2946 27.5104C28.2946 27.8316 28.1696 28.1404 27.9459 28.3719C27.7222 28.6034 27.4171 28.7395 27.0948 28.7518Z" fill="white"/>
<path id="Vector_6" d="M17.714 36.4959H7.3633C7.19561 36.5023 7.02834 36.4749 6.87153 36.4154C6.71472 36.3558 6.57159 36.2654 6.45069 36.1495C6.32979 36.0336 6.2336 35.8946 6.16791 35.7408C6.10222 35.587 6.06836 35.4216 6.06836 35.2545C6.06836 35.0874 6.10222 34.922 6.16791 34.7682C6.2336 34.6144 6.32979 34.4754 6.45069 34.3595C6.57159 34.2436 6.71472 34.1531 6.87153 34.0936C7.02834 34.0341 7.19561 34.0067 7.3633 34.0131H17.714C18.0364 34.0254 18.3414 34.1615 18.5652 34.393C18.7889 34.6244 18.9139 34.9332 18.9139 35.2545C18.9139 35.5758 18.7889 35.8846 18.5652 36.116C18.3414 36.3475 18.0364 36.4837 17.714 36.4959Z" fill="white"/>
</g>
</g>
</g>
<defs>
<filter id="filter0_b_557_6879" x="-3.85683" y="2.40172" width="42.1902" height="54.4571" filterUnits="userSpaceOnUse" color-interpolation-filters="sRGB">
<feFlood flood-opacity="0" result="BackgroundImageFix"/>
<feGaussianBlur in="BackgroundImageFix" stdDeviation="1.92841"/>
<feComposite in2="SourceAlpha" operator="in" result="effect1_backgroundBlur_557_6879"/>
<feBlend mode="normal" in="SourceGraphic" in2="effect1_backgroundBlur_557_6879" result="shape"/>
</filter>
<linearGradient id="paint0_linear_557_6879" x1="7.00115" y1="15.9527" x2="29.7875" y2="13.1232" gradientUnits="userSpaceOnUse">
<stop stop-color="#028FBE"/>
<stop offset="1" stop-color="#3ABBDB"/>
</linearGradient>
<linearGradient id="paint1_linear_557_6879" x1="-32.5797" y1="-23.585" x2="36.4353" y2="49.3252" gradientUnits="userSpaceOnUse">
<stop stop-color="white"/>
<stop offset="0.12" stop-color="#F6FBFE"/>
<stop offset="0.31" stop-color="#DEF1FB"/>
<stop offset="0.56" stop-color="#B6E1F6"/>
<stop offset="0.84" stop-color="#7FCAEF"/>
<stop offset="1" stop-color="#5EBCEB"/>
</linearGradient>
<linearGradient id="paint2_linear_557_6879" x1="4.5882" y1="60.9704" x2="46.5627" y2="73.8408" gradientUnits="userSpaceOnUse">
<stop offset="0.0128737" stop-color="#DEF1FF" stop-opacity="0.52"/>
<stop offset="1" stop-color="#DBF0FF"/>
</linearGradient>
<linearGradient id="paint3_linear_557_6879" x1="21.1904" y1="59.2751" x2="46.1878" y2="57.7391" gradientUnits="userSpaceOnUse">
<stop stop-color="#028FBE"/>
<stop offset="1" stop-color="#3ABBDB"/>
</linearGradient>
<clipPath id="clip0_557_6879">
<rect width="45" height="53" fill="white"/>
</clipPath>
</defs>
</svg>
