<svg width="48" height="49" viewBox="0 0 48 49" fill="none" xmlns="http://www.w3.org/2000/svg">
<g id="key ">
<path id="Vector" d="M34.4092 30.7725C36.0828 30.7725 37.4395 29.4158 37.4395 27.7422C37.4395 26.0686 36.0828 24.7119 34.4092 24.7119C32.7356 24.7119 31.3789 26.0686 31.3789 27.7422C31.3789 29.4158 32.7356 30.7725 34.4092 30.7725Z" stroke="#82979E" stroke-width="2"/>
<path id="Vector_2" d="M22.894 13.8031C24.2328 13.8031 25.3182 12.7177 25.3182 11.3788C25.3182 10.04 24.2328 8.95459 22.894 8.95459C21.5551 8.95459 20.4697 10.04 20.4697 11.3788C20.4697 12.7177 21.5551 13.8031 22.894 13.8031Z" stroke="#82979E" stroke-width="2"/>
<path id="Vector_3" d="M43.5002 25.9241L34.4093 18.6514L25.3184 25.9241V44.1059H43.5002V25.9241Z" stroke="#82979E" stroke-width="2"/>
<path id="Vector_4" d="M13.7658 15.652L14.6233 16.5087L15.1811 15.9505L14.8964 15.2145L13.7658 15.652ZM18.6189 20.5062L19.0566 19.3759L18.3207 19.0909L17.7623 19.6486L18.6189 20.5062ZM4.71212 24.7122L3.85472 23.8554L3.5 24.2104V24.7122H4.71212ZM4.71212 29.5607H3.5V30.7728H4.71212V29.5607ZM9.56061 29.5607V30.7728H10.0627L10.4177 30.4178L9.56061 29.5607ZM11.9848 27.1365L12.8419 27.9936L13.197 27.6385V27.1365H11.9848ZM11.9848 23.5001V22.288H10.7727V23.5001H11.9848ZM15.6212 23.5001V24.7122H16.1228L16.4778 24.3578L15.6212 23.5001ZM28.9545 12.591C28.9545 16.6076 25.6984 19.8637 21.6818 19.8637V22.288C27.0373 22.288 31.3788 17.9465 31.3788 12.591H28.9545ZM14.4091 12.591C14.4091 8.57439 17.6652 5.31829 21.6818 5.31829V2.89404C16.3263 2.89404 11.9848 7.23552 11.9848 12.591H14.4091ZM21.6818 5.31829C25.6984 5.31829 28.9545 8.57439 28.9545 12.591H31.3788C31.3788 7.23552 27.0373 2.89404 21.6818 2.89404V5.31829ZM14.8964 15.2145C14.5821 14.4023 14.4091 13.5183 14.4091 12.591H11.9848C11.9848 13.8222 12.2149 15.0025 12.6354 16.0893L14.8964 15.2145ZM21.6818 19.8637C20.7539 19.8637 19.8693 19.6905 19.0566 19.3759L18.1812 21.6365C19.2687 22.0577 20.4498 22.288 21.6818 22.288V19.8637ZM3.5 24.7122V29.5607H5.92424V24.7122H3.5ZM4.71212 30.7728H9.56061V28.3486H4.71212V30.7728ZM10.4177 30.4178L12.8419 27.9936L11.1277 26.2794L8.7035 28.7036L10.4177 30.4178ZM13.197 27.1365V23.5001H10.7727V27.1365H13.197ZM11.9848 24.7122H15.6212V22.288H11.9848V24.7122ZM12.9085 14.7951L3.85472 23.8554L5.56953 25.5691L14.6233 16.5087L12.9085 14.7951ZM17.7623 19.6486L14.7646 22.6424L16.4778 24.3578L19.4755 21.3639L17.7623 19.6486Z" fill="#82979E"/>
<path id="Vector_5" d="M28.3484 10.1664C27.2168 10.1664 26.1361 10.3726 25.1401 10.7485L24.2842 8.48028C25.5496 8.00285 26.9201 7.74219 28.3484 7.74219C34.7082 7.74219 39.8636 12.8977 39.8636 19.2573C39.8636 20.4394 39.6855 21.5799 39.3546 22.6535L37.2755 20.985C37.3831 20.4256 37.4393 19.848 37.4393 19.2573C37.4393 14.2366 33.3693 10.1664 28.3484 10.1664Z" fill="#82979E"/>
<path id="Vector_6" d="M31.9168 29.3614L32.3129 30.0711C31.0768 30.5245 29.7414 30.7719 28.3482 30.7719C24.226 30.7719 20.6109 28.605 18.5781 25.3538L20.3609 23.6016C20.6101 24.0587 20.8975 24.4921 21.2186 24.8974C22.8852 27.0008 25.4598 28.3476 28.3482 28.3476C29.4405 28.3476 30.4878 28.155 31.458 27.8018L31.9168 29.3614Z" fill="#82979E"/>
</g>
</svg>
