<svg width="49" height="49" viewBox="0 0 49 49" fill="none" xmlns="http://www.w3.org/2000/svg">
<g id="kitchen">
<path id="Vector" fill-rule="evenodd" clip-rule="evenodd" d="M26.193 5.30005H27.393H42.993H44.193V6.50005V42.5V43.7001H42.993H27.393H26.193V42.5V6.50005V5.30005ZM28.593 41.3H41.793V19.7H28.593V41.3ZM28.593 17.3V7.70005H41.793V17.3H28.593ZM5.79297 24.5H6.99297H22.593H23.793V25.7001V42.5V43.7001H22.593H18.993H17.793H11.793H10.593H6.99297H5.79297V42.5V25.7001V24.5ZM12.993 41.3H16.593V36.5H12.993V41.3ZM18.993 41.3V35.3001V34.1H17.793H11.793H10.593V35.3001V41.3H8.19297V26.9H21.393V41.3H18.993ZM16.593 11.3H12.993V7.70005H16.593V11.3ZM18.993 6.50005V12.1677L22.422 17.8826L23.5124 19.7H21.393H8.19297H6.07354L7.16398 17.8826L10.593 12.1677V6.50005V5.30005H11.793H17.793H18.993V6.50005ZM12.4724 13.7H17.1135L19.2735 17.3H10.3124L12.4724 13.7ZM33.393 28.1H30.993V23.3H33.393V28.1ZM18.993 29.3H10.593V31.7001H18.993V29.3ZM33.393 10.1V14.9H30.993V10.1H33.393Z" fill="#82979E"/>
</g>
</svg>
