<svg width="8" height="9" viewBox="0 0 8 9" fill="none" xmlns="http://www.w3.org/2000/svg">
<g clip-path="url(#clip0_406_972)">
<path d="M5.81729 0.968913C6.7032 0.648495 7.14609 0.488285 7.43513 0.588058C7.68633 0.674796 7.88381 0.872224 7.97052 1.12348C8.07033 1.41249 7.91009 1.85542 7.58966 2.74128L6.08474 6.90197C5.72609 7.89361 5.54677 8.38942 5.31771 8.49853C5.12008 8.59268 4.88738 8.5752 4.706 8.45268C4.49581 8.31059 4.3924 7.79361 4.1856 6.75957L3.78783 4.77076L1.79901 4.37299C0.764984 4.16619 0.247969 4.06278 0.105932 3.85259C-0.0166361 3.67121 -0.0340828 3.43851 0.0600734 3.24088C0.169181 3.01185 0.664996 2.83251 1.65663 2.47384L5.81729 0.968913Z" fill="#3ABBDB"/>
</g>
<defs>
<clipPath id="clip0_406_972">
<rect width="8" height="8" fill="white" transform="translate(0 0.558594)"/>
</clipPath>
</defs>
</svg>
