<svg width="144" height="73" viewBox="0 0 144 73" fill="none" xmlns="http://www.w3.org/2000/svg">
<g clip-path="url(#clip0_406_989)">
<path d="M2.11854 59.4369C1.43979 58.9867 0.883016 58.3755 0.497859 57.6578C0.112701 56.9401 -0.0888672 56.1383 -0.0888672 55.3238C-0.0888672 54.5093 0.112701 53.7075 0.497859 52.9898C0.883016 52.2721 1.43979 51.6609 2.11854 51.2107C4.37147 50.0172 6.91985 49.4961 9.46044 49.7094C12.0077 49.4944 14.5632 50.0155 16.8229 51.2107C17.5017 51.6609 18.0584 52.2721 18.4436 52.9898C18.8287 53.7075 19.0303 54.5093 19.0303 55.3238C19.0303 56.1383 18.8287 56.9401 18.4436 57.6578C18.0584 58.3755 17.5017 58.9867 16.8229 59.4369C14.5632 60.6321 12.0077 61.1531 9.46044 60.9382C6.91985 61.1515 4.37147 60.6304 2.11854 59.4369ZM5.14167 56.6811C5.50812 57.1078 6.00832 57.3978 6.5607 57.5037C7.51164 57.7193 8.48567 57.816 9.46044 57.7917C10.4489 57.8188 11.4369 57.7221 12.4013 57.5037C12.9537 57.3978 13.4539 57.1078 13.8203 56.6811C14.1048 56.3028 14.2501 55.8379 14.2316 55.3649C14.2466 54.8955 14.1095 54.4339 13.8409 54.0487C13.4586 53.6311 12.9552 53.3435 12.4013 53.2261C11.4425 53.018 10.4617 52.9282 9.48101 52.9587C8.50714 52.9293 7.53333 53.0191 6.58126 53.2261C6.03524 53.3487 5.53996 53.6358 5.16224 54.0487C4.87775 54.427 4.73248 54.8919 4.75093 55.3649C4.74419 55.8429 4.90417 56.3083 5.20337 56.6811H5.14167Z" fill="#0D2F47"/>
<path d="M20.3599 50.0176H36.2776V52.9585H24.946V53.925H32.5552C33.641 53.8667 34.7164 54.1626 35.6195 54.7682C35.9951 55.0861 36.2898 55.4887 36.4793 55.9428C36.6688 56.3969 36.7477 56.8895 36.7095 57.3801C36.7095 59.6011 35.311 60.7117 32.5964 60.7117H20.3599V50.0176ZM31.1362 57.9148C31.7943 57.9148 32.1234 57.6885 32.1234 57.2361C32.1314 57.1368 32.1104 57.0372 32.063 56.9496C32.0155 56.862 31.9436 56.79 31.856 56.7425C31.6355 56.6232 31.3866 56.5663 31.1362 56.578H24.9665V57.9148H31.1362Z" fill="#0D2F47"/>
<path d="M37.1826 50.0176H44.2983V53.2052H50.8793C52.2086 53.1161 53.5358 53.4087 54.7045 54.0484C55.162 54.371 55.5251 54.8098 55.7565 55.3195C55.9879 55.8292 56.079 56.3915 56.0207 56.9482C56.0748 57.5045 55.9816 58.0652 55.7506 58.5742C55.5196 59.0831 55.1588 59.5224 54.7045 59.8479C53.5383 60.4959 52.2107 60.7957 50.8793 60.7117H39.7122V53.1024H37.1826V50.0176ZM50.3651 57.7914C51.0849 57.7914 51.4345 57.5034 51.4345 56.9276C51.4401 56.8149 51.4229 56.7022 51.384 56.5962C51.3452 56.4902 51.2854 56.3931 51.2083 56.3106C50.9634 56.1367 50.6642 56.0564 50.3651 56.0844H44.1955V57.7914H50.3651Z" fill="#0D2F47"/>
<path d="M57.2754 50.0176H72.4322V52.9173H61.8615V53.9867H72.0415V56.7014H61.9643V57.8119H72.6173V60.7117H57.2754V50.0176Z" fill="#0D2F47"/>
<path d="M83.8869 56.9276H78.7455V60.7117H74.0977V50.0176H78.6838V53.9456H83.7635L85.82 50.0176H91.0025L87.9383 55.2412L91.2082 60.7117H86.0051L83.8869 56.9276Z" fill="#0D2F47"/>
<path d="M96.9046 53.3081H91.2285V50.0176H107.002V53.3081H101.306V60.7117H96.9046V53.3081Z" fill="#0D2F47"/>
<path d="M121.09 60.7117V54.542L112.638 60.7117H108.154V50.0176H112.638V56.0639L121.09 50.0176H125.512V60.7117H121.09Z" fill="#0D2F47"/>
<path d="M127.404 50.0176H139.744C142.294 50.0176 143.569 50.9225 143.569 52.7322C143.579 53.2304 143.451 53.7216 143.199 54.1513C142.918 54.5516 142.524 54.8594 142.068 55.0356C142.621 55.1968 143.11 55.5277 143.466 55.9816C143.838 56.4641 144.034 57.059 144.021 57.668C144.021 59.7245 142.582 60.7322 139.682 60.7322H127.404V50.0176ZM137.996 54.1307C138.633 54.1307 138.962 53.9045 138.962 53.452C138.962 52.9996 138.633 52.7734 137.996 52.7734H131.99V54.1307H137.996ZM138.119 58.1204C138.88 58.1204 139.25 57.8531 139.25 57.3389C139.25 56.8248 138.88 56.578 138.119 56.578H131.949V58.1204H138.119Z" fill="#0D2F47"/>
<path d="M23.8148 71.5721L23.5474 70.8317H21.861L21.6142 71.5721H20.7505L22.1695 67.459H23.1772L24.6374 71.5721H23.8148ZM22.1284 70.0091H23.2801L22.6837 68.3844L22.1284 70.0091Z" fill="#028FBE"/>
<path d="M28.5456 67.459V68.2405H27.0238V71.5721H26.2012V67.459H28.5456Z" fill="#028FBE"/>
<path d="M30.9103 70.7906H32.6584V71.5721H30.1699V67.459H32.6789V68.2405H30.9103V69.1042H32.4733V69.8652H30.9103V70.7906Z" fill="#028FBE"/>
<path d="M36.7922 67.459H37.5943V71.5721H36.7922V69.8652H35.2704V71.5721H34.4478V67.459H35.2704V69.0837H36.7922V67.459Z" fill="#028FBE"/>
<path d="M41.4818 71.6513C41.1993 71.6586 40.9184 71.6075 40.6566 71.5014C40.3948 71.3952 40.1576 71.2362 39.9599 71.0344C39.7581 70.8367 39.5991 70.5995 39.493 70.3377C39.3868 70.0759 39.3357 69.795 39.343 69.5125C39.3357 69.2301 39.3868 68.9492 39.493 68.6874C39.5991 68.4255 39.7581 68.1884 39.9599 67.9907C40.1576 67.7888 40.3948 67.6299 40.6566 67.5237C40.9184 67.4176 41.1993 67.3665 41.4818 67.3737C41.842 67.3712 42.1966 67.4634 42.5101 67.6411C42.8208 67.7955 43.0785 68.0389 43.2504 68.3403L42.5512 68.7516C42.4513 68.5694 42.3015 68.4196 42.1193 68.3197C41.9249 68.21 41.705 68.1533 41.4818 68.1552C41.3021 68.1472 41.1227 68.178 40.956 68.2454C40.7892 68.3128 40.6389 68.4153 40.5152 68.546C40.3904 68.673 40.2931 68.8244 40.2294 68.9907C40.1657 69.157 40.137 69.3346 40.145 69.5125C40.1362 69.6904 40.1647 69.8682 40.2288 70.0344C40.2928 70.2005 40.391 70.3515 40.5169 70.4774C40.6428 70.6033 40.7938 70.7015 40.9599 70.7656C41.1261 70.8296 41.3039 70.8581 41.4818 70.8493C41.7032 70.8575 41.9229 70.8079 42.1193 70.7053C42.3015 70.6055 42.4513 70.4556 42.5512 70.2735L43.2504 70.6848C43.0785 70.9862 42.8208 71.2296 42.5101 71.384C42.1966 71.5616 41.842 71.6538 41.4818 71.6513Z" fill="#028FBE"/>
<path d="M47.6301 67.459V68.2405H46.5195V71.5721H45.6969V68.2405H44.6069V67.459H47.6301Z" fill="#028FBE"/>
<path d="M51.7438 69.4302C51.9108 69.524 52.049 69.6618 52.1432 69.8285C52.2375 69.9953 52.2843 70.1847 52.2785 70.3762C52.2837 70.5385 52.2532 70.6999 52.1893 70.8492C52.1253 70.9984 52.0294 71.1318 51.9083 71.2399C51.6552 71.4533 51.3345 71.5699 51.0034 71.569H49.2554V67.4559H50.8801C51.2068 67.4441 51.5248 67.5624 51.7644 67.7849C51.8808 67.8869 51.9727 68.0138 52.0332 68.1563C52.0938 68.2987 52.1214 68.453 52.114 68.6076C52.1204 68.764 52.0903 68.9198 52.0261 69.0626C51.9618 69.2054 51.8652 69.3313 51.7438 69.4302ZM50.8801 68.2168H50.0574V69.1217H50.8801C50.9372 69.1237 50.9942 69.1138 51.0473 69.0925C51.1004 69.0713 51.1485 69.0392 51.1885 68.9983C51.267 68.9065 51.3107 68.79 51.3119 68.6693C51.3146 68.5478 51.2704 68.43 51.1885 68.3402C51.1485 68.2993 51.1004 68.2672 51.0473 68.246C50.9942 68.2247 50.9372 68.2148 50.8801 68.2168ZM51.0034 70.8081C51.0656 70.8105 51.1275 70.7988 51.1845 70.7739C51.2415 70.749 51.2921 70.7114 51.3325 70.6641C51.3814 70.6206 51.4198 70.5665 51.4448 70.5059C51.4697 70.4453 51.4805 70.3799 51.4765 70.3145C51.4714 70.1907 51.4199 70.0733 51.3323 69.9856C51.2447 69.898 51.1273 69.8465 51.0034 69.8415H50.0574V70.8081H51.0034Z" fill="#028FBE"/>
<path d="M57.4401 71.0359C57.2424 71.2378 57.0053 71.3967 56.7434 71.5029C56.4816 71.609 56.2007 71.6601 55.9183 71.6529C55.6393 71.6573 55.3623 71.6048 55.1042 71.4988C54.8461 71.3927 54.6123 71.2352 54.417 71.0359C54.02 70.6288 53.7979 70.0827 53.7979 69.5141C53.7979 68.9454 54.02 68.3993 54.417 67.9922C54.6123 67.7929 54.8461 67.6354 55.1042 67.5293C55.3623 67.4233 55.6393 67.3708 55.9183 67.3752C56.3647 67.3195 56.8172 67.4116 57.2062 67.6377C57.5953 67.8637 57.8995 68.211 58.0722 68.6265C58.2449 69.0419 58.2766 69.5026 58.1624 69.9378C58.0483 70.373 57.7945 70.7587 57.4401 71.0359ZM54.9723 70.4806C55.2266 70.7237 55.5665 70.8567 55.9183 70.8508C56.0928 70.856 56.2665 70.8259 56.4291 70.7623C56.5916 70.6987 56.7397 70.6029 56.8643 70.4806C57.1132 70.2204 57.2521 69.8742 57.2521 69.5141C57.2521 69.1539 57.1132 68.8077 56.8643 68.5475C56.7437 68.4184 56.5969 68.3168 56.4337 68.2494C56.2705 68.182 56.0947 68.1504 55.9183 68.1567C55.7421 68.153 55.5672 68.1858 55.4043 68.253C55.2415 68.3203 55.0944 68.4205 54.9723 68.5475C54.7324 68.8122 54.5995 69.1568 54.5995 69.5141C54.5995 69.8713 54.7324 70.2159 54.9723 70.4806Z" fill="#028FBE"/>
<path d="M64.7815 67.459H65.5835V71.5721H64.7815V69.8652H63.2596V71.5721H62.437V67.459H63.2596V69.0837H64.7815V67.459Z" fill="#028FBE"/>
<path d="M68.3397 70.7906H69.985V71.5721H67.5171V67.459H69.985V68.2405H68.3397V69.1042H69.985V69.8652H68.3397V70.7906Z" fill="#028FBE"/>
<path d="M74.9618 70.7899H75.4143V72.3529H74.5917V71.5714H72.3295V72.3529H71.5068V70.7899H71.9181C72.1673 70.3755 72.2822 69.8943 72.2472 69.412V67.3555H74.9618V70.7899ZM72.7819 70.7899H74.0981V68.2192H73.0698V69.412C73.0929 69.8884 72.9938 70.3627 72.7819 70.7899Z" fill="#028FBE"/>
<path d="M79.6095 69.4302C79.7765 69.524 79.9147 69.6618 80.0089 69.8285C80.1032 69.9953 80.15 70.1847 80.1442 70.3762C80.1494 70.5385 80.119 70.6999 80.055 70.8492C79.991 70.9984 79.8951 71.1318 79.774 71.2399C79.5209 71.4533 79.2002 71.5699 78.8692 71.569H77.1211V67.4559H78.7458C79.0725 67.4441 79.3905 67.5624 79.6301 67.7849C79.7503 67.8849 79.8461 68.0109 79.9102 68.1535C79.9743 68.296 80.0051 68.4513 80.0003 68.6076C80.0027 68.7655 79.9687 68.9218 79.9009 69.0645C79.8332 69.2071 79.7335 69.3323 79.6095 69.4302ZM78.7458 68.2168H77.9437V69.1217H78.7458C78.8029 69.1237 78.8599 69.1138 78.913 69.0925C78.9661 69.0713 79.0142 69.0392 79.0543 68.9983C79.1328 68.9065 79.1764 68.79 79.1776 68.6693C79.1803 68.5478 79.1361 68.43 79.0543 68.3402C79.0142 68.2993 78.9661 68.2672 78.913 68.246C78.8599 68.2247 78.8029 68.2148 78.7458 68.2168ZM78.8692 70.8081C78.9315 70.8121 78.994 70.8012 79.0512 70.7761C79.1085 70.7511 79.1589 70.7127 79.1982 70.6641C79.2471 70.6206 79.2855 70.5665 79.3105 70.5059C79.3354 70.4453 79.3463 70.3799 79.3422 70.3145C79.3446 70.2523 79.3329 70.1904 79.308 70.1334C79.2831 70.0764 79.2455 70.0258 79.1982 69.9855C79.1589 69.9369 79.1085 69.8985 79.0512 69.8734C78.994 69.8484 78.9315 69.8374 78.8692 69.8415H77.9437V70.8081H78.8692Z" fill="#028FBE"/>
<path d="M84.2362 71.5721V69.0837L82.4676 71.5721H81.8506V67.459H82.6526V70.0091L84.3801 67.459H84.9971V71.5721H84.2362Z" fill="#028FBE"/>
<path d="M91.8255 71.5721H90.9206L89.6456 69.7006V71.5721H88.8435V69.7006L87.5685 71.5721H86.6636L88.1032 69.5155L86.7253 67.459H87.6302L88.8435 69.2893V67.459H89.6456V69.2893L90.8795 67.459H91.7638L90.4065 69.5155L91.8255 71.5721Z" fill="#028FBE"/>
<path d="M95.8358 71.5721V69.0837L94.0877 71.5721H93.4502V67.459H94.2728V70.0091L96.0209 67.5001H96.7201V71.6132L95.8358 71.5721Z" fill="#028FBE"/>
<path d="M102.602 67.459V71.5721H101.8V68.8986L100.649 70.8112L99.4969 68.9191V71.5721H98.6948V67.459H99.5174L100.69 69.3922L101.862 67.459H102.602Z" fill="#028FBE"/>
<path d="M108.011 71.0344C107.814 71.2362 107.576 71.3952 107.315 71.5014C107.053 71.6075 106.772 71.6586 106.489 71.6513C105.922 71.6513 105.378 71.426 104.977 71.0249C104.576 70.6238 104.351 70.0798 104.351 69.5125C104.351 68.9453 104.576 68.4013 104.977 68.0002C105.378 67.5991 105.922 67.3737 106.489 67.3737C106.772 67.3665 107.053 67.4176 107.315 67.5237C107.576 67.6299 107.814 67.7888 108.011 67.9907C108.408 68.3978 108.63 68.9439 108.63 69.5125C108.63 70.0811 108.408 70.6273 108.011 71.0344ZM105.543 70.4791C105.668 70.6014 105.816 70.6972 105.979 70.7608C106.141 70.8244 106.315 70.8545 106.489 70.8493C106.841 70.8552 107.181 70.7222 107.435 70.4791C107.675 70.2143 107.808 69.8698 107.808 69.5125C107.808 69.1552 107.675 68.8107 107.435 68.546C107.313 68.419 107.166 68.3187 107.003 68.2515C106.841 68.1842 106.666 68.1514 106.489 68.1552C106.313 68.1489 106.137 68.1805 105.974 68.2479C105.811 68.3153 105.664 68.4169 105.543 68.546C105.294 68.8062 105.156 69.1524 105.156 69.5125C105.156 69.8726 105.294 70.2189 105.543 70.4791Z" fill="#028FBE"/>
<path d="M112.309 71.6513C112.027 71.6586 111.746 71.6075 111.484 71.5014C111.222 71.3952 110.985 71.2362 110.788 71.0344C110.586 70.8367 110.427 70.5995 110.321 70.3377C110.214 70.0759 110.163 69.795 110.171 69.5125C110.163 69.2301 110.214 68.9492 110.321 68.6874C110.427 68.4255 110.586 68.1884 110.788 67.9907C110.985 67.7888 111.222 67.6299 111.484 67.5237C111.746 67.4176 112.027 67.3665 112.309 67.3737C112.67 67.3712 113.024 67.4634 113.338 67.6411C113.648 67.7955 113.906 68.0389 114.078 68.3403L113.379 68.7516C113.279 68.5694 113.129 68.4196 112.947 68.3197C112.752 68.21 112.533 68.1533 112.309 68.1552C112.13 68.1472 111.95 68.178 111.784 68.2454C111.617 68.3128 111.467 68.4153 111.343 68.546C111.221 68.674 111.126 68.826 111.066 68.9925C111.006 69.1589 110.981 69.336 110.993 69.5125C110.982 69.689 111.008 69.8658 111.068 70.032C111.128 70.1982 111.222 70.3504 111.343 70.4791C111.471 70.6029 111.622 70.6996 111.788 70.7632C111.954 70.8268 112.132 70.8561 112.309 70.8493C112.531 70.8575 112.751 70.8079 112.947 70.7053C113.138 70.6172 113.291 70.4641 113.379 70.2735L114.078 70.6848C113.909 70.981 113.659 71.2234 113.358 71.384C113.039 71.5652 112.677 71.6575 112.309 71.6513Z" fill="#028FBE"/>
<path d="M118.458 67.459V68.2405H117.285V71.5721H116.483V68.2405H115.435V67.459H118.458Z" fill="#028FBE"/>
<path d="M122.469 71.5721V69.0837L120.7 71.5721H120.083V67.459H120.885V70.0091L122.654 67.5001H123.271V71.6132L122.469 71.5721Z" fill="#028FBE"/>
<path d="M69.2447 36.3002H65.7074V4.69089L77.1418 7.98138V15.4878L80.0416 16.1459V5.63691L62.6226 0.351562V39.385H69.2447" fill="#028FBE"/>
<path d="M90.6945 39.3847H70.1289V15.7754L90.6945 19.6006V39.3847ZM73.2549 36.2792H87.6508V22.706L73.2549 19.9091V36.2792Z" fill="#3ABBDB"/>
<path d="M58.0156 6.00781L61.4295 7.32401V39.3857H58.0156V6.00781Z" fill="#0D2F47"/>
<path d="M48.4531 33.0332L51.867 34.37V39.388H48.4531V33.0332Z" fill="#028FBE"/>
<path d="M53.3271 25.9968L56.741 24.002V39.385H53.3271V25.9968Z" fill="#3ABBDB"/>
</g>
<defs>
<clipPath id="clip0_406_989">
<rect width="143.918" height="72" fill="white" transform="translate(0.0410156 0.351562)"/>
</clipPath>
</defs>
</svg>
