<svg width="132" height="28" viewBox="0 0 132 28" fill="none" xmlns="http://www.w3.org/2000/svg">
<g id="Group">
<g id="Group 4946">
<path id="path54" d="M37.0938 24.0759H38.1288L37.5984 22.5709L37.0938 24.0759ZM38.604 25.417L38.3701 24.7538H36.8581L36.6371 25.417H35.8525L37.1417 21.7346H38.0404L39.3388 25.417H38.604Z" fill="#028FBE"/>
<g id="g56">
<path id="path58" d="M42.8402 21.7316V22.4261H41.4737V25.4141H40.748V21.7316H42.8402Z" fill="#028FBE"/>
</g>
<g id="g60">
<path id="path62" d="M45.0225 24.7196H46.5731V25.4141H44.2969V21.7316H46.5474V22.4261H45.0225V23.2109H46.4166V23.8943H45.0225V24.7196Z" fill="#028FBE"/>
</g>
<g id="g64">
<path id="path66" d="M50.2278 21.7316H50.9479V25.4141H50.2278V23.8869H48.8613V25.4141H48.1357V21.7316H48.8613V23.1943H50.2278V21.7316Z" fill="#028FBE"/>
</g>
<g id="g68">
<path id="path70" d="M58.2572 25.4141C57.7029 25.4141 57.2462 25.2298 56.8852 24.8614C56.5242 24.493 56.3438 24.0398 56.3438 23.5001C56.3438 22.9567 56.5242 22.5017 56.8852 22.1351C57.2462 21.7685 57.7029 21.5861 58.2572 21.5861C58.5906 21.5861 58.8981 21.6635 59.1799 21.8182C59.4617 21.9748 59.6826 22.1866 59.8392 22.4538L59.2149 22.8167C59.1228 22.6509 58.9939 22.5219 58.8244 22.4298C58.6569 22.3359 58.4672 22.2898 58.2572 22.2898C57.8999 22.2898 57.6108 22.4022 57.3916 22.6269C57.1725 22.8517 57.0638 23.1409 57.0638 23.5001C57.0638 23.8538 57.1725 24.143 57.3916 24.3677C57.6108 24.5925 57.8999 24.703 58.2572 24.703C58.4672 24.703 58.6587 24.6569 58.8281 24.5648C58.9976 24.4709 59.1265 24.3438 59.2149 24.1835L59.8392 24.5464C59.6826 24.8135 59.4635 25.0235 59.1817 25.1801C58.9018 25.3367 58.5942 25.4141 58.2572 25.4141Z" fill="#028FBE"/>
</g>
<g id="g72">
<path id="path74" d="M63.758 21.7316V22.4261H62.7654V25.4141H62.0379V22.4261H61.0508V21.7316H63.758Z" fill="#028FBE"/>
</g>
<g id="g72_2">
<path id="path74_2" d="M55.1076 21.76V22.4544H54.115V25.4424H53.3875V22.4544H52.4004V21.76H55.1076Z" fill="#028FBE"/>
</g>
<g id="g76">
<path id="path78" d="M66.7766 24.7362C66.8981 24.7362 67.0012 24.6956 67.0804 24.6127C67.1615 24.5298 67.202 24.4267 67.202 24.2996C67.202 24.1761 67.1615 24.0748 67.0804 23.9919C67.0012 23.9109 66.8981 23.8685 66.7766 23.8685H65.9405V24.7362H66.7766ZM66.6661 22.4114H65.9405V23.2219H66.6661C66.7784 23.2219 66.8723 23.1832 66.9478 23.1059C67.0233 23.0285 67.0602 22.9327 67.0602 22.8167C67.0602 22.7006 67.0233 22.6048 66.9497 22.5274C66.876 22.4501 66.7821 22.4114 66.6661 22.4114ZM67.4395 23.5056C67.7618 23.6917 67.9221 23.9717 67.9221 24.3475C67.9221 24.6588 67.8116 24.9148 67.5906 25.1138C67.3696 25.3146 67.0988 25.4141 66.7766 25.4141H65.2148V21.7335H66.6661C66.981 21.7335 67.248 21.8311 67.4635 22.0245C67.679 22.2198 67.7858 22.4685 67.7858 22.7688C67.7858 23.0746 67.6698 23.3196 67.4395 23.5056Z" fill="#028FBE"/>
</g>
<g id="g80">
<path id="path82" d="M70.34 24.444C70.5683 24.6688 70.8501 24.783 71.1871 24.783C71.5223 24.783 71.8059 24.6688 72.0324 24.444C72.2608 24.2174 72.375 23.9282 72.375 23.5782C72.375 23.2282 72.2608 22.939 72.0324 22.7106C71.8059 22.4821 71.5223 22.3698 71.1871 22.3698C70.8501 22.3698 70.5683 22.4821 70.34 22.7106C70.1116 22.939 69.9993 23.2282 69.9993 23.5782C69.9993 23.9282 70.1116 24.2174 70.34 24.444ZM72.5426 24.9377C72.1724 25.308 71.7194 25.4922 71.1871 25.4922C70.6531 25.4922 70.2018 25.308 69.8317 24.9377C69.4633 24.5674 69.2773 24.1143 69.2773 23.5782C69.2773 23.0422 69.4633 22.589 69.8317 22.2187C70.2018 21.8485 70.6531 21.6642 71.1871 21.6642C71.7194 21.6642 72.1724 21.8485 72.5426 22.2187C72.9146 22.589 73.1006 23.0422 73.1006 23.5782C73.1006 24.1143 72.9146 24.5674 72.5426 24.9377Z" fill="#028FBE"/>
</g>
<g id="g84">
<path id="path86" d="M79.1204 21.7316H79.8405V25.4141H79.1204V23.8869H77.7539V25.4141H77.0283V21.7316H77.7539V23.1943H79.1204V21.7316Z" fill="#028FBE"/>
</g>
<g id="g88">
<path id="path90" d="M82.3028 24.7196H83.8534V25.4141H81.5771V21.7316H83.8276V22.4261H82.3028V23.2109H83.6969V23.8943H82.3028V24.7196Z" fill="#028FBE"/>
</g>
<g id="g92">
<path id="path94" d="M86.4996 24.7124H87.7298V22.4042H86.7519V23.4763C86.7519 24.0087 86.6672 24.4214 86.4996 24.7124ZM88.4554 24.7124H88.8495V26.1106H88.1239V25.4069H86.0889V26.1106H85.3633V24.7124H85.7224C85.925 24.4287 86.0263 24.0124 86.0263 23.4653V21.7245H88.4554V24.7124Z" fill="#028FBE"/>
</g>
<g id="g96">
<path id="path98" d="M91.7346 24.7362C91.858 24.7362 91.9574 24.6956 92.0384 24.6127C92.1195 24.5298 92.16 24.4267 92.16 24.2996C92.16 24.1761 92.1195 24.0748 92.0384 23.9919C91.9574 23.9109 91.858 23.8685 91.7346 23.8685H90.8985V24.7362H91.7346ZM91.6241 22.4114H90.8985V23.2219H91.6241C91.7364 23.2219 91.8303 23.1832 91.9058 23.1059C91.9813 23.0285 92.0182 22.9327 92.0182 22.8167C92.0182 22.7006 91.9813 22.6048 91.9077 22.5274C91.834 22.4501 91.7401 22.4114 91.6241 22.4114ZM92.3957 23.5056C92.7198 23.6917 92.8801 23.9717 92.8801 24.3475C92.8801 24.6588 92.7696 24.9148 92.5486 25.1138C92.3276 25.3146 92.0569 25.4141 91.7346 25.4141H90.1729V21.7335H91.6241C91.939 21.7335 92.2042 21.8311 92.4197 22.0245C92.6351 22.2198 92.7438 22.4685 92.7438 22.7688C92.7438 23.0746 92.6278 23.3196 92.3957 23.5056Z" fill="#028FBE"/>
</g>
<g id="g100">
<path id="path102" d="M96.5342 25.4141V23.1814L94.9633 25.4141H94.4053V21.7316H95.1309V23.9827L96.7073 21.7316H97.2598V25.4141H96.5342Z" fill="#028FBE"/>
</g>
<g id="g104">
<path id="path106" d="M103.344 25.4141H102.536L101.394 23.734V25.4141H100.668V23.7377L99.5265 25.4141H98.7217L99.9998 23.5369L98.7751 21.7316H99.5799L100.668 23.373V21.7316H101.394V23.3748L102.482 21.7316H103.291L102.061 23.5369L103.344 25.4141Z" fill="#028FBE"/>
</g>
<g id="g108">
<path id="path110" d="M106.93 25.4141V23.1814L105.359 25.4141H104.801V21.7316H105.526V23.9827L107.103 21.7316H107.655V25.4141H106.93Z" fill="#028FBE"/>
</g>
<g id="g112">
<path id="path114" d="M112.992 21.7316V25.4141H112.272V23.0248L111.233 24.7343L111.15 24.7362L110.117 23.034V25.4141H109.39V21.7316H110.137L111.193 23.4706L112.242 21.7316H112.992Z" fill="#028FBE"/>
</g>
<g id="g116">
<path id="path118" d="M115.621 24.444C115.848 24.6688 116.131 24.783 116.467 24.783C116.804 24.783 117.087 24.6688 117.314 24.444C117.542 24.2174 117.656 23.9282 117.656 23.5782C117.656 23.2282 117.542 22.939 117.314 22.7106C117.087 22.4821 116.804 22.3698 116.467 22.3698C116.131 22.3698 115.848 22.4821 115.621 22.7106C115.393 22.939 115.279 23.2282 115.279 23.5782C115.279 23.9282 115.393 24.2174 115.621 24.444ZM117.824 24.9377C117.452 25.308 117.001 25.4922 116.467 25.4922C115.934 25.4922 115.483 25.308 115.113 24.9377C114.743 24.5674 114.559 24.1143 114.559 23.5782C114.559 23.0422 114.743 22.589 115.113 22.2187C115.483 21.8485 115.934 21.6642 116.467 21.6642C117.001 21.6642 117.452 21.8485 117.824 22.2187C118.196 22.589 118.382 23.0422 118.382 23.5782C118.382 24.1143 118.196 24.5674 117.824 24.9377Z" fill="#028FBE"/>
</g>
<g id="g120">
<path id="path122" d="M121.688 25.4922C121.134 25.4922 120.677 25.308 120.316 24.9395C119.955 24.5711 119.774 24.118 119.774 23.5782C119.774 23.0348 119.955 22.5798 120.316 22.2132C120.677 21.8466 121.134 21.6642 121.688 21.6642C122.021 21.6642 122.329 21.7416 122.611 21.8963C122.892 22.0529 123.113 22.2648 123.27 22.5319L122.646 22.8948C122.553 22.729 122.425 22.6 122.257 22.5079C122.088 22.414 121.898 22.3679 121.688 22.3679C121.331 22.3679 121.041 22.4803 120.822 22.705C120.603 22.9298 120.494 23.219 120.494 23.5782C120.494 23.9319 120.603 24.2211 120.822 24.4459C121.041 24.6706 121.331 24.7811 121.688 24.7811C121.898 24.7811 122.088 24.7351 122.259 24.643C122.428 24.549 122.557 24.4219 122.646 24.2616L123.27 24.6245C123.113 24.8917 122.894 25.1017 122.614 25.2582C122.332 25.4148 122.025 25.4922 121.688 25.4922Z" fill="#028FBE"/>
</g>
<g id="g124">
<path id="path126" d="M127.188 21.7316V22.4261H126.193V25.4141H125.467V22.4261H124.479V21.7316H127.188Z" fill="#028FBE"/>
</g>
<g id="g128">
<path id="path130" d="M130.772 25.4141V23.1814L129.202 25.4141H128.644V21.7316H129.369V23.9827L130.946 21.7316H131.498V25.4141H130.772Z" fill="#028FBE"/>
</g>
<g id="Group 4973">
<path id="Vector" d="M14.9167 25.5628H12.4213V3.26406L20.4877 5.58534V10.8807L22.5334 11.345V3.93143L10.2451 0.202881V27.739H14.9167" fill="#028FBE"/>
<path id="Vector_2" d="M30.048 27.7394H15.54V11.0842L30.048 13.7827V27.7394ZM17.7453 25.5487H27.9008V15.9734L17.7453 14.0003V25.5487Z" fill="#3ABBDB"/>
<path id="Vector_3" d="M6.99414 4.19263L9.40246 5.12114V27.7391H6.99414V4.19263Z" fill="#0D2F47"/>
<path id="Vector_4" d="M0.248047 23.2571L2.65637 24.2001V27.74H0.248047V23.2571Z" fill="#028FBE"/>
<path id="Vector_5" d="M3.68652 18.2937L6.09485 16.8865V27.7384H3.68652V18.2937Z" fill="#3ABBDB"/>
</g>
</g>
<path id="Vector_6" d="M36.8446 15.2455C36.3906 14.9444 36.0182 14.5356 35.7606 14.0556C35.503 13.5756 35.3682 13.0393 35.3682 12.4945C35.3682 11.9497 35.503 11.4134 35.7606 10.9334C36.0182 10.4534 36.3906 10.0446 36.8446 9.7435C38.3514 8.94526 40.0559 8.59673 41.7551 8.73939C43.4588 8.59561 45.168 8.94413 46.6794 9.7435C47.1334 10.0446 47.5058 10.4534 47.7634 10.9334C48.021 11.4134 48.1558 11.9497 48.1558 12.4945C48.1558 13.0393 48.021 13.5756 47.7634 14.0556C47.5058 14.5356 47.1334 14.9444 46.6794 15.2455C45.168 16.0449 43.4588 16.3934 41.7551 16.2496C40.0559 16.3923 38.3514 16.0438 36.8446 15.2455ZM38.8666 13.4023C39.1117 13.6877 39.4462 13.8817 39.8157 13.9525C40.4517 14.0967 41.1032 14.1614 41.7551 14.1451C42.4162 14.1633 43.077 14.0986 43.7221 13.9525C44.0915 13.8817 44.4261 13.6877 44.6712 13.4023C44.8615 13.1493 44.9586 12.8384 44.9463 12.522C44.9563 12.2081 44.8646 11.8993 44.6849 11.6417C44.4292 11.3624 44.0926 11.17 43.7221 11.0915C43.0808 10.9523 42.4248 10.8923 41.7689 10.9127C41.1175 10.893 40.4662 10.953 39.8294 11.0915C39.4642 11.1735 39.1329 11.3655 38.8803 11.6417C38.69 11.8947 38.5929 12.2057 38.6052 12.522C38.6007 12.8417 38.7077 13.153 38.9078 13.4023H38.8666Z" fill="#0D2F47"/>
<path id="Vector_7" d="M49.0449 8.9458H59.6913V10.9128H52.1123V11.5593H57.2017C57.9279 11.5202 58.6472 11.7181 59.2512 12.1232C59.5024 12.3358 59.6995 12.6051 59.8263 12.9088C59.953 13.2125 60.0058 13.542 59.9802 13.8701C59.9802 15.3557 59.0448 16.0984 57.2292 16.0984H49.0449V8.9458ZM56.2526 14.2277C56.6927 14.2277 56.9128 14.0764 56.9128 13.7738C56.9182 13.7074 56.9042 13.6408 56.8724 13.5822C56.8407 13.5236 56.7926 13.4755 56.734 13.4437C56.5865 13.3639 56.4201 13.3259 56.2526 13.3337H52.1261V14.2277H56.2526Z" fill="#0D2F47"/>
<path id="Vector_8" d="M60.2969 8.9458H65.0561V11.0778H69.4577C70.3469 11.0182 71.2345 11.2139 72.0162 11.6418C72.3222 11.8575 72.5651 12.151 72.7198 12.4919C72.8746 12.8329 72.9356 13.2089 72.8965 13.5813C72.9327 13.9533 72.8704 14.3284 72.7159 14.6688C72.5614 15.0092 72.3201 15.303 72.0162 15.5207C71.2362 15.9541 70.3483 16.1546 69.4577 16.0984H61.9887V11.0091H60.2969V8.9458ZM69.1139 14.1452C69.5953 14.1452 69.8291 13.9526 69.8291 13.5675C69.8328 13.4921 69.8213 13.4167 69.7953 13.3458C69.7693 13.2749 69.7294 13.21 69.6778 13.1549C69.514 13.0385 69.3139 12.9848 69.1139 13.0035H64.9874V14.1452H69.1139Z" fill="#0D2F47"/>
<path id="Vector_9" d="M73.7354 8.9458H83.8728V10.8853H76.8027V11.6005H83.6115V13.4162H76.8715V14.159H83.9966V16.0984H73.7354V8.9458Z" fill="#0D2F47"/>
<path id="Vector_10" d="M91.5337 13.5675H88.095V16.0984H84.9863V8.9458H88.0537V11.573H91.4512L92.8267 8.9458H96.293L94.2435 12.4396L96.4305 16.0984H92.9505L91.5337 13.5675Z" fill="#0D2F47"/>
<path id="Vector_11" d="M100.242 11.1466H96.4453V8.9458H106.995V11.1466H103.185V16.0984H100.242V11.1466Z" fill="#0D2F47"/>
<path id="Vector_12" d="M116.418 16.0984V11.9719L110.764 16.0984H107.766V8.9458H110.764V12.9898L116.418 8.9458H119.375V16.0984H116.418Z" fill="#0D2F47"/>
<path id="Vector_13" d="M120.642 8.9458H128.895C130.6 8.9458 131.453 9.55102 131.453 10.7615C131.46 11.0946 131.374 11.4232 131.205 11.7106C131.018 11.9783 130.754 12.1842 130.449 12.302C130.819 12.4099 131.146 12.6312 131.384 12.9348C131.633 13.2575 131.764 13.6554 131.756 14.0627C131.756 15.4382 130.793 16.1122 128.853 16.1122H120.642V8.9458ZM127.725 11.6968C128.152 11.6968 128.372 11.5455 128.372 11.2429C128.372 10.9403 128.152 10.789 127.725 10.789H123.709V11.6968H127.725ZM127.808 14.3653C128.317 14.3653 128.565 14.1865 128.565 13.8426C128.565 13.4987 128.317 13.3337 127.808 13.3337H123.681V14.3653H127.808Z" fill="#0D2F47"/>
</g>
</svg>
