<svg width="184" height="39" viewBox="0 0 184 39" fill="none" xmlns="http://www.w3.org/2000/svg">
<g id="Group">
<g id="Group 4946">
<path id="path54" d="M51.4385 36.9726H52.4621L51.9375 35.4841L51.4385 36.9726ZM52.932 38.2988L52.7007 37.643H51.2054L50.9868 38.2988H50.2109L51.4859 34.657H52.3747L53.6587 38.2988H52.932Z" fill="white"/>
<g id="g56">
<path id="path58" d="M57.1213 34.657V35.3439H55.7698V38.2988H55.0522V34.657H57.1213Z" fill="white"/>
</g>
<g id="g60">
<path id="path62" d="M59.2791 37.612H60.8127V38.2988H58.5615V34.657H60.7872V35.3439H59.2791V36.12H60.6579V36.7958H59.2791V37.612Z" fill="white"/>
</g>
<g id="g64">
<path id="path66" d="M64.4274 34.657H65.1396V38.2988H64.4274V36.7886H63.076V38.2988H62.3584V34.657H63.076V36.1036H64.4274V34.657Z" fill="white"/>
</g>
<g id="g68">
<path id="path70" d="M72.3694 38.2988C71.8212 38.2988 71.3695 38.1166 71.0125 37.7523C70.6555 37.3879 70.4771 36.9398 70.4771 36.406C70.4771 35.8685 70.6555 35.4186 71.0125 35.056C71.3695 34.6935 71.8212 34.5131 72.3694 34.5131C72.6991 34.5131 73.0032 34.5896 73.2819 34.7427C73.5605 34.8975 73.7791 35.107 73.9339 35.3712L73.3165 35.7301C73.2254 35.5661 73.0979 35.4386 72.9304 35.3475C72.7646 35.2546 72.577 35.209 72.3694 35.209C72.0161 35.209 71.7301 35.3202 71.5134 35.5424C71.2966 35.7647 71.1892 36.0507 71.1892 36.406C71.1892 36.7558 71.2966 37.0418 71.5134 37.264C71.7301 37.4863 72.0161 37.5956 72.3694 37.5956C72.577 37.5956 72.7665 37.5501 72.934 37.459C73.1016 37.3661 73.2291 37.2404 73.3165 37.0819L73.9339 37.4408C73.7791 37.7049 73.5624 37.9126 73.2837 38.0675C73.0069 38.2223 72.7027 38.2988 72.3694 38.2988Z" fill="white"/>
</g>
<g id="g72">
<path id="path74" d="M77.8092 34.657V35.3439H76.8275V38.2988H76.1081V35.3439H75.1318V34.657H77.8092Z" fill="white"/>
</g>
<g id="g72_2">
<path id="path74_2" d="M69.254 34.6824V35.3693H68.2723V38.3242H67.5529V35.3693H66.5767V34.6824H69.254Z" fill="white"/>
</g>
<g id="g76">
<path id="path78" d="M80.794 37.6284C80.9142 37.6284 81.0162 37.5883 81.0945 37.5063C81.1746 37.4244 81.2147 37.3223 81.2147 37.1966C81.2147 37.0746 81.1746 36.9744 81.0945 36.8924C81.0162 36.8122 80.9142 36.7703 80.794 36.7703H79.9671V37.6284H80.794ZM80.6847 35.3293H79.9671V36.1309H80.6847C80.7958 36.1309 80.8887 36.0926 80.9634 36.0161C81.038 35.9396 81.0745 35.8449 81.0745 35.7301C81.0745 35.6153 81.038 35.5206 80.9652 35.4441C80.8923 35.3675 80.7995 35.3293 80.6847 35.3293ZM81.4497 36.4114C81.7684 36.5954 81.9269 36.8724 81.9269 37.244C81.9269 37.5519 81.8176 37.8051 81.599 38.0019C81.3805 38.2005 81.1127 38.2988 80.794 38.2988H79.2495V34.6589H80.6847C80.9962 34.6589 81.2602 34.7554 81.4733 34.9467C81.6864 35.1398 81.7921 35.3858 81.7921 35.6827C81.7921 35.9851 81.6773 36.2274 81.4497 36.4114Z" fill="white"/>
</g>
<g id="g80">
<path id="path82" d="M84.319 37.3345C84.5448 37.5567 84.8235 37.6697 85.1568 37.6697C85.4883 37.6697 85.7687 37.5567 85.9928 37.3345C86.2186 37.1104 86.3315 36.8244 86.3315 36.4782C86.3315 36.1321 86.2186 35.8461 85.9928 35.6202C85.7687 35.3943 85.4883 35.2831 85.1568 35.2831C84.8235 35.2831 84.5448 35.3943 84.319 35.6202C84.0931 35.8461 83.982 36.1321 83.982 36.4782C83.982 36.8244 84.0931 37.1104 84.319 37.3345ZM86.4973 37.8227C86.1312 38.1889 85.6831 38.3711 85.1568 38.3711C84.6286 38.3711 84.1824 38.1889 83.8163 37.8227C83.452 37.4565 83.2681 37.0084 83.2681 36.4782C83.2681 35.9481 83.452 35.4999 83.8163 35.1337C84.1824 34.7676 84.6286 34.5854 85.1568 34.5854C85.6831 34.5854 86.1312 34.7676 86.4973 35.1337C86.8652 35.4999 87.0491 35.9481 87.0491 36.4782C87.0491 37.0084 86.8652 37.4565 86.4973 37.8227Z" fill="white"/>
</g>
<g id="g84">
<path id="path86" d="M93.0021 34.657H93.7143V38.2988H93.0021V36.7886H91.6507V38.2988H90.9331V34.657H91.6507V36.1036H93.0021V34.657Z" fill="white"/>
</g>
<g id="g88">
<path id="path90" d="M96.1483 37.612H97.6818V38.2988H95.4307V34.657H97.6563V35.3439H96.1483V36.12H97.527V36.7958H96.1483V37.612Z" fill="white"/>
</g>
<g id="g92">
<path id="path94" d="M100.3 37.5997H101.517V35.317H100.55V36.3772C100.55 36.9037 100.466 37.3118 100.3 37.5997ZM102.234 37.5997H102.624V38.9824H101.906V38.2865H99.8939V38.9824H99.1763V37.5997H99.5314C99.7318 37.3191 99.8319 36.9074 99.8319 36.3663V34.6447H102.234V37.5997Z" fill="white"/>
</g>
<g id="g96">
<path id="path98" d="M105.477 37.6284C105.599 37.6284 105.697 37.5883 105.777 37.5063C105.857 37.4244 105.897 37.3223 105.897 37.1966C105.897 37.0746 105.857 36.9744 105.777 36.8924C105.697 36.8122 105.599 36.7703 105.477 36.7703H104.65V37.6284H105.477ZM105.367 35.3293H104.65V36.1309H105.367C105.478 36.1309 105.571 36.0926 105.646 36.0161C105.721 35.9396 105.757 35.8449 105.757 35.7301C105.757 35.6153 105.721 35.5206 105.648 35.4441C105.575 35.3675 105.482 35.3293 105.367 35.3293ZM106.13 36.4114C106.451 36.5954 106.609 36.8724 106.609 37.244C106.609 37.5519 106.5 37.8051 106.282 38.0019C106.063 38.2005 105.795 38.2988 105.477 38.2988H103.932V34.6589H105.367C105.679 34.6589 105.941 34.7554 106.154 34.9467C106.367 35.1398 106.475 35.3858 106.475 35.6827C106.475 35.9851 106.36 36.2274 106.13 36.4114Z" fill="white"/>
</g>
<g id="g100">
<path id="path102" d="M110.224 38.2988V36.0908L108.671 38.2988H108.119V34.657H108.836V36.8833L110.395 34.657H110.942V38.2988H110.224Z" fill="white"/>
</g>
<g id="g104">
<path id="path106" d="M116.958 38.2988H116.159L115.029 36.6373V38.2988H114.312V36.641L113.183 38.2988H112.387L113.651 36.4424L112.44 34.657H113.235L114.312 36.2803V34.657H115.029V36.2821L116.106 34.657H116.905L115.689 36.4424L116.958 38.2988Z" fill="white"/>
</g>
<g id="g108">
<path id="path110" d="M120.504 38.2988V36.0908L118.95 38.2988H118.398V34.657H119.116V36.8833L120.675 34.657H121.221V38.2988H120.504Z" fill="white"/>
</g>
<g id="g112">
<path id="path114" d="M126.5 34.657V38.2988H125.787V35.9359L124.76 37.6266L124.678 37.6284L123.656 35.9451V38.2988H122.937V34.657H123.676L124.72 36.3768L125.758 34.657H126.5Z" fill="white"/>
</g>
<g id="g116">
<path id="path118" d="M129.099 37.3345C129.323 37.5567 129.604 37.6697 129.935 37.6697C130.269 37.6697 130.549 37.5567 130.773 37.3345C130.999 37.1104 131.112 36.8244 131.112 36.4782C131.112 36.1321 130.999 35.8461 130.773 35.6202C130.549 35.3943 130.269 35.2831 129.935 35.2831C129.604 35.2831 129.323 35.3943 129.099 35.6202C128.873 35.8461 128.76 36.1321 128.76 36.4782C128.76 36.8244 128.873 37.1104 129.099 37.3345ZM131.278 37.8227C130.91 38.1889 130.463 38.3711 129.935 38.3711C129.409 38.3711 128.963 38.1889 128.597 37.8227C128.23 37.4565 128.048 37.0084 128.048 36.4782C128.048 35.9481 128.23 35.4999 128.597 35.1337C128.963 34.7676 129.409 34.5854 129.935 34.5854C130.463 34.5854 130.91 34.7676 131.278 35.1337C131.645 35.4999 131.829 35.9481 131.829 36.4782C131.829 37.0084 131.645 37.4565 131.278 37.8227Z" fill="white"/>
</g>
<g id="g120">
<path id="path122" d="M135.099 38.3711C134.551 38.3711 134.099 38.1889 133.742 37.8246C133.386 37.4602 133.207 37.012 133.207 36.4782C133.207 35.9408 133.386 35.4908 133.742 35.1283C134.099 34.7657 134.551 34.5854 135.099 34.5854C135.429 34.5854 135.733 34.6619 136.012 34.8149C136.291 34.9698 136.509 35.1793 136.664 35.4435L136.046 35.8024C135.955 35.6384 135.828 35.5109 135.662 35.4198C135.495 35.3269 135.307 35.2813 135.099 35.2813C134.746 35.2813 134.46 35.3924 134.243 35.6147C134.027 35.837 133.919 36.123 133.919 36.4782C133.919 36.828 134.027 37.114 134.243 37.3363C134.46 37.5586 134.746 37.6679 135.099 37.6679C135.307 37.6679 135.495 37.6223 135.664 37.5312C135.832 37.4383 135.959 37.3126 136.046 37.1541L136.664 37.513C136.509 37.7772 136.292 37.9849 136.016 38.1397C135.737 38.2946 135.433 38.3711 135.099 38.3711Z" fill="white"/>
</g>
<g id="g124">
<path id="path126" d="M140.539 34.657V35.3439H139.556V38.2988H138.838V35.3439H137.86V34.657H140.539Z" fill="white"/>
</g>
<g id="g128">
<path id="path130" d="M144.084 38.2988V36.0908L142.53 38.2988H141.979V34.657H142.696V36.8833L144.255 34.657H144.802V38.2988H144.084Z" fill="white"/>
</g>
<g id="Group 4973">
<path id="Vector" d="M21.1142 35.5896H17.6461V4.59826L28.857 7.82442V15.1841L31.7001 15.8293V5.52578L14.6216 0.34375V38.6141H21.1142" fill="white"/>
<path id="Vector_2" d="M42.1445 38.6126H21.981V15.4648L42.1445 19.2153V38.6126ZM25.0458 35.5679H39.1603V22.26L25.0458 19.5177V35.5679Z" fill="white"/>
<path id="Vector_3" d="M10.103 5.88672L13.4502 7.17719V38.6121H10.103V5.88672Z" fill="white"/>
<path id="Vector_4" d="M0.727539 32.3828L4.07469 33.6934V38.6133H0.727539V32.3828Z" fill="white"/>
<path id="Vector_5" d="M5.50684 25.4871L8.85398 23.5312V38.6136H5.50684V25.4871Z" fill="white"/>
</g>
</g>
<path id="Vector_6" d="M51.5905 27.3578C50.9596 26.9393 50.442 26.3712 50.084 25.704C49.7259 25.0369 49.5386 24.2915 49.5386 23.5344C49.5386 22.7773 49.7259 22.0319 50.084 21.3648C50.442 20.6977 50.9596 20.1295 51.5905 19.711C53.6848 18.6016 56.0537 18.1172 58.4153 18.3154C60.7832 18.1156 63.1587 18.6 65.2593 19.711C65.8902 20.1295 66.4078 20.6977 66.7658 21.3648C67.1238 22.0319 67.3112 22.7773 67.3112 23.5344C67.3112 24.2915 67.1238 25.0369 66.7658 25.704C66.4078 26.3712 65.8902 26.9393 65.2593 27.3578C63.1587 28.4688 60.7832 28.9532 58.4153 28.7534C56.0537 28.9517 53.6848 28.4673 51.5905 27.3578ZM54.4007 24.7961C54.7414 25.1928 55.2063 25.4623 55.7198 25.5608C56.6038 25.7612 57.5092 25.8511 58.4153 25.8285C59.3342 25.8537 60.2526 25.7638 61.1491 25.5608C61.6626 25.4623 62.1275 25.1928 62.4682 24.7961C62.7326 24.4445 62.8677 24.0123 62.8505 23.5726C62.8644 23.1363 62.737 22.7072 62.4873 22.3491C62.1319 21.9609 61.664 21.6936 61.1491 21.5845C60.2578 21.391 59.3461 21.3076 58.4344 21.3359C57.5292 21.3086 56.6239 21.392 55.7389 21.5845C55.2314 21.6984 54.771 21.9653 54.4198 22.3491C54.1554 22.7008 54.0204 23.133 54.0375 23.5726C54.0312 24.017 54.18 24.4496 54.4581 24.7961H54.4007Z" fill="white"/>
<path id="Vector_7" d="M68.5464 18.6055H83.343V21.3392H72.8095V22.2377H79.8828C80.8922 22.1835 81.8918 22.4585 82.7313 23.0215C83.0805 23.317 83.3544 23.6912 83.5306 24.1133C83.7067 24.5355 83.78 24.9934 83.7445 25.4494C83.7445 27.5141 82.4445 28.5464 79.9211 28.5464H68.5464V18.6055ZM78.5638 25.9464C79.1755 25.9464 79.4814 25.7362 79.4814 25.3156C79.4889 25.2233 79.4694 25.1307 79.4253 25.0493C79.3811 24.9678 79.3143 24.9009 79.2329 24.8568C79.0279 24.7459 78.7966 24.693 78.5638 24.7038H72.8286V25.9464H78.5638Z" fill="white"/>
<path id="Vector_8" d="M84.1851 18.6055H90.7996V21.5686H96.9171C98.1528 21.4858 99.3865 21.7577 100.473 22.3524C100.898 22.6523 101.236 23.0602 101.451 23.534C101.666 24.0078 101.751 24.5304 101.696 25.0479C101.747 25.5651 101.66 26.0863 101.445 26.5594C101.231 27.0325 100.895 27.4409 100.473 27.7435C99.3888 28.3458 98.1547 28.6245 96.9171 28.5464H86.5365V21.473H84.1851V18.6055ZM96.4391 25.8317C97.1082 25.8317 97.4332 25.5641 97.4332 25.0288C97.4384 24.924 97.4224 24.8193 97.3863 24.7207C97.3501 24.6222 97.2946 24.532 97.2229 24.4553C96.9953 24.2936 96.7172 24.219 96.4391 24.245H90.704V25.8317H96.4391Z" fill="white"/>
<path id="Vector_9" d="M102.862 18.6055H116.952V21.301H107.125V22.2951H116.588V24.8185H107.221V25.8509H117.124V28.5464H102.862V18.6055Z" fill="white"/>
<path id="Vector_10" d="M127.599 25.0288H122.82V28.5464H118.5V18.6055H122.763V22.2568H127.485L129.396 18.6055H134.214L131.365 23.4612L134.405 28.5464H129.568L127.599 25.0288Z" fill="white"/>
<path id="Vector_11" d="M139.701 21.6642H134.424V18.6055H149.087V21.6642H143.792V28.5464H139.701V21.6642Z" fill="white"/>
<path id="Vector_12" d="M162.183 28.5464V22.8112L154.326 28.5464H150.158V18.6055H154.326V24.2259L162.183 18.6055H166.293V28.5464H162.183Z" fill="white"/>
<path id="Vector_13" d="M168.053 18.6055H179.523C181.894 18.6055 183.079 19.4466 183.079 21.1289C183.088 21.592 182.969 22.0486 182.735 22.448C182.473 22.8202 182.107 23.1063 181.683 23.2701C182.198 23.42 182.653 23.7275 182.983 24.1494C183.329 24.5979 183.511 25.151 183.499 25.717C183.499 27.6288 182.161 28.5655 179.466 28.5655H168.053V18.6055ZM177.898 22.4289C178.491 22.4289 178.797 22.2186 178.797 21.798C178.797 21.3775 178.491 21.1672 177.898 21.1672H172.316V22.4289H177.898ZM178.013 26.1376C178.72 26.1376 179.064 25.8891 179.064 25.4112C179.064 24.9332 178.72 24.7038 178.013 24.7038H172.278V26.1376H178.013Z" fill="white"/>
</g>
</svg>
