<svg width="25" height="24" viewBox="0 0 25 24" fill="none" xmlns="http://www.w3.org/2000/svg">
<g id="menu_28 1" clip-path="url(#clip0_470_16898)">
<g id="Page-2">
<g id="menu_28">
<path id="Mask" fill-rule="evenodd" clip-rule="evenodd" d="M4.9565 5.60742H19.8104C20.3964 5.60742 20.8714 6.08245 20.8714 6.66842C20.8714 7.25439 20.3964 7.72941 19.8104 7.72941H4.9565C4.37053 7.72941 3.89551 7.25439 3.89551 6.66842C3.89551 6.08245 4.37053 5.60742 4.9565 5.60742ZM4.9565 11.1246H19.8104C20.3964 11.1246 20.8714 11.5996 20.8714 12.1856C20.8714 12.7716 20.3964 13.2466 19.8104 13.2466H4.9565C4.37053 13.2466 3.89551 12.7716 3.89551 12.1856C3.89551 11.5996 4.37053 11.1246 4.9565 11.1246ZM4.9565 16.6418H19.8104C20.3964 16.6418 20.8714 17.1168 20.8714 17.7028C20.8714 18.2887 20.3964 18.7638 19.8104 18.7638H4.9565C4.37053 18.7638 3.89551 18.2887 3.89551 17.7028C3.89551 17.1168 4.37053 16.6418 4.9565 16.6418Z" fill="#0D2F47"/>
</g>
</g>
</g>
<defs>
<clipPath id="clip0_470_16898">
<rect width="23.7663" height="23.7663" fill="white" transform="translate(0.5 0.088623)"/>
</clipPath>
</defs>
</svg>
