<svg width="162" height="26" viewBox="0 0 162 26" fill="none" xmlns="http://www.w3.org/2000/svg">
<path d="M22.3622 5.52344C22.9543 6.29922 23.4555 7.14204 23.8558 8.03498L12.5023 16.5169L7.75732 13.5025V9.87597L12.5023 12.8904L22.3622 5.52344Z" fill="#21A038"/>
<path d="M2.91512 13.2451C2.91512 13.0824 2.91904 12.9207 2.92687 12.76L0.0513054 12.6172C0.0415179 12.8255 0.035648 13.0358 0.035648 13.248C0.0344245 14.9064 0.356283 16.5486 0.982769 18.0805C1.60925 19.6125 2.52802 21.0041 3.68638 22.1753L5.72609 20.1092C4.83443 19.2092 4.12707 18.1394 3.64467 16.9614C3.16226 15.7835 2.91434 14.5205 2.91512 13.2451Z" fill="url(#paint0_linear_16_12163)"/>
<path d="M12.5002 3.53344C12.6607 3.53344 12.8202 3.53939 12.9787 3.54733L13.1226 0.632075C12.9165 0.622156 12.709 0.617197 12.5002 0.617197C10.8631 0.615174 9.24178 0.940893 7.72928 1.57565C6.21678 2.21041 4.8429 3.14171 3.68652 4.31607L5.72623 6.38323C6.61434 5.47927 7.67 4.76214 8.83252 4.27307C9.99504 3.784 11.2414 3.53264 12.5002 3.53344Z" fill="url(#paint1_linear_16_12163)"/>
<path d="M12.5004 22.9601C12.3399 22.9601 12.1803 22.9601 12.0208 22.9472L11.877 25.8615C12.0838 25.872 12.2916 25.8774 12.5004 25.8774C14.1368 25.8791 15.7573 25.5531 17.269 24.9182C18.7807 24.2833 20.1537 23.3518 21.3092 22.1775L19.2734 20.1113C18.3851 21.0148 17.3296 21.7315 16.1673 22.2204C15.005 22.7093 13.7588 22.9607 12.5004 22.9601Z" fill="url(#paint2_linear_16_12163)"/>
<path d="M17.9028 5.22768L20.3261 3.41743C18.1111 1.59969 15.3462 0.610189 12.4961 0.615254V3.53249C14.4261 3.53006 16.3113 4.12116 17.9028 5.22768Z" fill="url(#paint3_linear_16_12163)"/>
<path d="M24.9637 13.2479C24.9652 12.489 24.8998 11.7315 24.7679 10.9844L22.0852 12.988C22.0852 13.0744 22.0852 13.1607 22.0852 13.2479C22.0859 14.6052 21.8052 15.9474 21.2613 17.1876C20.7173 18.4278 19.9223 19.5384 18.9277 20.4473L20.8627 22.6147C22.1557 21.4317 23.1889 19.9866 23.8954 18.373C24.6019 16.7594 24.9659 15.0133 24.9637 13.2479Z" fill="#21A038"/>
<path d="M12.5001 22.9597C11.1608 22.9602 9.83636 22.6756 8.61244 22.1244C7.38858 21.5731 6.29256 20.7675 5.39539 19.7598L3.25781 21.7198C4.42493 23.0304 5.85082 24.0777 7.44302 24.7939C9.03521 25.51 10.7581 25.879 12.5001 25.8769V22.9597Z" fill="url(#paint4_linear_16_12163)"/>
<path d="M6.07258 6.04821L4.13857 3.88086C2.84522 5.0636 1.81162 6.50864 1.10479 8.12227C0.397972 9.73588 0.0337175 11.4821 0.0356522 13.2475H2.91513C2.91454 11.8904 3.1953 10.5481 3.73922 9.30793C4.28315 8.06775 5.0781 6.95718 6.07258 6.04821Z" fill="url(#paint5_linear_16_12163)"/>
<mask id="mask0_16_12163" style="mask-type:luminance" maskUnits="userSpaceOnUse" x="31" y="5" width="131" height="17">
<path d="M161.747 5.00586H31.6748V21.7043H161.747V5.00586Z" fill="white"/>
</mask>
<g mask="url(#mask0_16_12163)">
<path d="M71.9635 7.83572L75.5298 5.20312H63.5942V21.0227H75.5298V18.3901H66.9999V14.3379H74.2763V11.7053H66.9999V7.83572H71.9635Z" fill="#21A038"/>
<path d="M55.5626 11.3652H51.4188V7.83396H58.0321L61.5962 5.19336H48.0151V21.013H55.1243C59.11 21.013 61.3974 19.2029 61.3974 16.0462C61.3974 13.0263 59.3255 11.3652 55.5626 11.3652ZM54.971 18.3795H51.4188V13.9961H54.971C57.1267 13.9961 58.1375 14.7307 58.1375 16.1879C58.1375 17.645 57.062 18.3795 54.971 18.3795Z" fill="#21A038"/>
<path d="M84.3026 5.20117H77.8057V21.0207H81.2109V16.5393H84.3026C88.4477 16.5393 91.0118 14.3538 91.0118 10.8618C91.0118 7.36986 88.4477 5.20117 84.3026 5.20117ZM84.2307 13.9047H81.2109V7.83578H84.2307C86.411 7.83578 87.6143 8.91412 87.6143 10.8715C87.6143 12.8288 86.411 13.9047 84.2307 13.9047Z" fill="#21A038"/>
<path d="M42.9051 17.2877C42.0254 17.765 41.0398 18.0122 40.0396 18.0063C37.0457 18.0063 34.8738 15.8647 34.8738 12.9157C34.8738 9.9666 37.0457 7.82034 40.0396 7.82034C41.1192 7.80197 42.1765 8.13 43.0568 8.75658L45.4389 6.99882L45.2778 6.88413C43.8883 5.66004 42.0316 5.01172 39.9065 5.01172C37.6014 5.01172 35.5113 5.78877 34.019 7.20244C33.2645 7.93032 32.6678 8.80624 32.2659 9.77552C31.8641 10.7448 31.6659 11.7866 31.6837 12.8361C31.6677 13.8962 31.8651 14.9486 32.2639 15.9307C32.6627 16.9127 33.2549 17.804 34.0051 18.5517C35.5043 20.0215 37.5898 20.8313 39.8784 20.8313C42.2698 20.8313 44.36 19.9957 45.7752 18.4744L43.643 16.8829L42.9051 17.2877Z" fill="#21A038"/>
<path d="M104.515 11.3652H100.373V7.83396H109.274V5.19336H96.9668V21.013H104.067C108.052 21.013 110.34 19.2029 110.34 16.0462C110.349 13.0263 108.278 11.3652 104.515 11.3652ZM103.923 18.3795H100.373V13.9961H103.923C106.079 13.9961 107.089 14.7307 107.089 16.1879C107.089 17.645 106.023 18.3795 103.923 18.3795Z" fill="#21A038"/>
<path d="M149.055 20.9915H145.603V5.17188H149.055V11.8162H150.934L156.009 5.17188H159.921L153.903 12.6974L160.891 20.9915H156.311L151.174 14.7698H149.055V20.9915Z" fill="#21A038"/>
<path d="M122.882 17.9859H115.579L114.341 21.0579H110.667L117.517 5.23828H121.19L127.929 21.0579H124.12L122.882 17.9859ZM121.738 15.1195L119.252 8.97549L116.752 15.1195H121.738Z" fill="#21A038"/>
<path d="M132.577 5.23828V11.8443H139.721V5.23828H143.281V21.0579H139.721V14.8244H132.577V21.0579H129.018V5.23828H132.577Z" fill="#21A038"/>
</g>
<defs>
<linearGradient id="paint0_linear_16_12163" x1="4.26874" y1="21.8113" x2="1.04713" y2="12.622" gradientUnits="userSpaceOnUse">
<stop offset="0.14" stop-color="#F1E813"/>
<stop offset="0.3" stop-color="#E6E418"/>
<stop offset="0.58" stop-color="#C9DA26"/>
<stop offset="0.89" stop-color="#A2CC39"/>
</linearGradient>
<linearGradient id="paint1_linear_16_12163" x1="4.50867" y1="4.83187" x2="12.6389" y2="1.77469" gradientUnits="userSpaceOnUse">
<stop offset="0.06" stop-color="#0FA7DF"/>
<stop offset="0.54" stop-color="#0098F8"/>
<stop offset="0.92" stop-color="#0290EA"/>
</linearGradient>
<linearGradient id="paint2_linear_16_12163" x1="11.6871" y1="24.1167" x2="20.8619" y2="22.0715" gradientUnits="userSpaceOnUse">
<stop offset="0.12" stop-color="#A2CC39"/>
<stop offset="0.28" stop-color="#86C239"/>
<stop offset="0.87" stop-color="#219F38"/>
</linearGradient>
<linearGradient id="paint3_linear_16_12163" x1="11.8971" y1="1.59229" x2="19.749" y2="3.98319" gradientUnits="userSpaceOnUse">
<stop offset="0.06" stop-color="#0290EA"/>
<stop offset="0.79" stop-color="#0C89CA"/>
</linearGradient>
<linearGradient id="paint4_linear_16_12163" x1="3.98012" y1="21.3647" x2="12.5347" y2="24.5194" gradientUnits="userSpaceOnUse">
<stop offset="0.13" stop-color="#F1E813"/>
<stop offset="0.3" stop-color="#EAE616"/>
<stop offset="0.53" stop-color="#D8DF1F"/>
<stop offset="0.8" stop-color="#BAD52D"/>
<stop offset="0.98" stop-color="#A2CC39"/>
</linearGradient>
<linearGradient id="paint5_linear_16_12163" x1="1.10836" y1="13.6007" x2="4.61157" y2="4.60856" gradientUnits="userSpaceOnUse">
<stop offset="0.07" stop-color="#A2CC39"/>
<stop offset="0.26" stop-color="#81C45E"/>
<stop offset="0.92" stop-color="#0FA7DF"/>
</linearGradient>
</defs>
</svg>
