<svg width="181" height="41" viewBox="0 0 181 41" fill="none" xmlns="http://www.w3.org/2000/svg">
<g clip-path="url(#clip0_16_12496)">
<path d="M46.4457 0.296875V32.22H33.127V40.2125H0.946289V8.25494H14.1864V0.296875H46.4457ZM17.7268 29.5851C18.7455 26.9188 19.7453 24.3309 20.9999 21.8588C21.1225 21.8933 21.2451 21.9278 21.3677 21.9622V29.5381C22.116 29.6415 22.726 29.6571 23.5529 29.5005C23.7321 26.029 23.6284 22.5387 23.6378 18.9827C22.3204 18.9733 21.2357 18.8761 20.1761 19.0422C18.8775 21.3669 18.1198 23.886 16.9313 26.4833C15.4944 23.9173 14.9473 21.2949 13.6771 19.0579H10.4071V29.56C11.1806 29.6101 11.8503 29.6978 12.7338 29.4503V21.8902C14.1204 24.4217 14.8593 27.1193 16.1044 29.5819H17.7236L17.7268 29.5851ZM30.3444 18.9545C30.794 18.1023 31.4354 17.9519 31.973 17.7639C32.8817 17.4443 33.6049 16.9117 34.2651 16.2506C36.0353 14.4741 35.5983 11.6982 33.3533 10.4763C30.1494 8.73117 27.3291 9.77762 26.0966 13.1802C26.6248 13.4496 27.153 13.7159 27.6907 13.9885C28.1717 13.3963 28.5773 12.7948 29.0835 12.2966C29.8979 11.4977 31.514 11.5134 32.3598 12.2622C33.2339 13.036 33.3093 14.3175 32.4164 15.3138C31.9856 15.7963 31.4668 16.2193 30.8914 16.5984C29.4546 17.5414 27.807 18.1054 26.4707 19.0422V21.2667H35.7178C35.7115 20.3362 35.8687 19.6688 35.5668 18.9576H30.3475L30.3444 18.9545Z" fill="#43419A"/>
<path d="M95.4165 22.5208C95.4354 22.2075 95.4354 21.891 95.6869 21.584H103.277V29.7269C103.695 30.3911 104.22 30.0496 104.598 30.3598V35.5137H102.507C102.208 34.5205 102.566 33.4114 102.287 32.3054H94.8474C94.3727 33.3049 94.86 34.4265 94.5456 35.5263H92.4673V30.2877C92.8572 29.9744 93.376 30.2658 93.8696 30.0151C94.8003 27.7029 94.9135 25.162 95.3977 22.6994C95.4511 22.6743 95.4574 22.6148 95.4197 22.5176L95.4165 22.5208ZM100.812 30.0903V23.6894C99.636 23.774 98.5544 23.5704 97.5577 23.7991C97.1018 25.9578 96.6648 28.0319 96.2089 30.1937C97.6678 30.1937 98.9726 30.1937 100.277 30.1906C100.425 30.1906 100.573 30.1373 100.812 30.0903Z" fill="#23212F"/>
<path d="M65.8576 10.807C65.2476 10.879 64.6817 10.9354 64.0623 10.738C63.097 8.42582 62.1223 6.08853 61.1476 3.75124C61.0753 3.76064 61.003 3.77004 60.9307 3.77944V10.713C60.1069 10.948 59.412 10.8853 58.6543 10.785V0.3393C59.6353 0.0385229 60.6697 0.267239 61.7607 0.179512C62.7889 2.60766 63.8076 5.02015 64.9741 7.771C66.084 5.02015 67.0461 2.63899 68.0051 0.260973H71.3253V10.6973C70.6871 11.0451 69.9702 10.785 69.1716 10.8508V3.63845L68.8351 3.53506C67.8573 5.91934 66.8826 8.30676 65.8576 10.807Z" fill="#23212F"/>
<path d="M109.688 30.7607V37.5438H107.502V21.6904C108.084 21.4272 108.691 21.5494 109.251 21.5995C109.662 22.0131 109.313 22.552 109.744 23.1692C110.82 21.6841 112.319 21.1139 114.023 21.5118C115.07 21.7562 116.152 22.0382 116.894 23.0282C119.397 26.365 118.177 29.8552 116.256 31.4092C114.36 32.9413 111.735 32.7721 109.688 30.7607ZM109.681 27.1514C109.64 28.8808 110.86 30.2155 112.533 30.2657C114.495 30.3252 115.954 28.9654 116.007 27.026C116.058 25.1243 114.633 23.5389 112.857 23.5201C111.011 23.5013 109.735 24.9613 109.681 27.1514Z" fill="#23212F"/>
<path d="M101.736 10.9284C100.638 10.9002 99.7644 10.4584 99.0035 9.27408V16.1324H96.7051V0.329093C97.3559 0.10351 97.9627 0.178705 98.5507 0.253899C98.8997 0.708198 98.4941 1.29095 98.9689 1.83925C99.6983 0.761461 100.613 0.0283161 101.943 0.0721795C102.361 0.0753126 102.78 0.0815787 103.195 0.0847118C105.993 0.426219 107.663 3.35566 107.615 5.55823C107.559 8.1869 105.691 10.4835 103.179 10.9409C102.698 10.9378 102.217 10.9346 101.736 10.9284ZM98.9595 5.4987C98.8588 7.51642 100.069 8.93571 102.05 8.91691C103.861 8.90124 105.314 7.24384 105.26 5.32012C105.213 3.62511 103.745 2.13376 102.097 2.11496C100.192 2.09303 98.9469 3.43713 98.9563 5.4987H98.9595Z" fill="#23212F"/>
<path d="M79.3337 29.8365C78.9722 31.4626 77.7491 32.0798 76.2839 32.1613C74.3093 32.2709 72.3254 32.1895 70.2471 32.1895V21.6028C72.492 21.5276 74.7621 21.3552 76.9976 21.8503C78.0069 22.0759 78.7552 22.8121 78.8527 23.8774C78.9596 25.0554 78.5603 26.0862 77.3718 26.6345C78.1673 27.2455 79.0665 27.7687 79.3054 28.859C79.3149 29.1848 79.3243 29.5107 79.3337 29.8365ZM76.548 24.6387C75.6488 22.6962 73.9949 23.6769 72.58 23.4732C72.5235 24.3881 72.4134 25.1463 72.6618 25.9358C73.407 25.9358 74.083 25.9358 74.759 25.9358C75.5324 25.9358 76.1801 25.7102 76.504 24.9301C76.5197 24.833 76.5323 24.7359 76.548 24.6387ZM72.5455 30.2689C73.6711 30.2689 74.6583 30.3347 75.633 30.247C76.3279 30.1843 76.8373 29.6893 76.9442 28.9843C77.0731 28.1415 76.2807 27.9285 75.7651 27.8251C74.7181 27.6152 73.6239 27.5995 72.5455 27.8501V30.2689Z" fill="#23212F"/>
<path d="M79.7175 0.03125C82.9938 0.620272 84.5816 2.76018 84.1665 6.20032H76.4444C76.1049 7.7042 77.0292 8.50001 77.9977 8.81958C79.5257 9.32714 81.0789 9.07963 82.0851 7.78566C82.9403 7.49742 83.1478 8.34649 83.7232 8.40288C82.6479 11.0817 78.3718 12.0247 76.1017 10.1699C73.0236 7.65094 73.0833 3.28027 76.1615 0.814524C76.9098 0.21297 77.7838 0.2537 78.6108 0.0343831C78.9786 0.140908 79.3496 0.109577 79.7175 0.0343831V0.03125ZM81.9593 4.44892C81.3305 2.60352 80.3086 1.91424 78.6359 2.0709C77.4443 2.18055 76.8343 2.87297 76.5702 4.44892H81.9562H81.9593Z" fill="#23212F"/>
<path d="M170.616 21.6566C171.348 21.4874 172.005 21.5312 172.82 21.6158V27.9447C172.92 27.9791 173.018 28.0136 173.118 28.0481C174.643 25.9176 176.171 23.7902 177.744 21.597H180.02V32.1524H177.891V25.5009C175.734 27.4653 174.442 29.9812 172.6 32.1806C172.024 32.2433 171.358 32.3091 170.619 32.1117V21.6597L170.616 21.6566Z" fill="#23212F"/>
<path d="M126.622 30.893C124.723 32.8856 122.705 33.0423 121.041 31.4319C120.007 30.4324 120.107 29.2074 120.428 28.1077C120.733 27.0518 121.714 26.4346 122.855 26.1996C124.072 25.9521 125.305 25.8706 126.503 25.8644C127.33 24.8085 126.786 24.232 125.927 23.7339C124.726 23.0383 123.013 23.5553 122.063 24.9307C121.415 24.9245 121.004 24.3668 120.419 24.2226C120.868 21.0895 126.16 20.6102 128.072 22.4994C128.707 23.1261 129.097 24.0629 129.134 24.962C129.229 27.0424 129.175 29.1291 129.172 31.2126C129.172 31.5165 129.257 31.8392 128.999 32.1713H127.301C126.71 31.8705 127.383 31.0371 126.622 30.893ZM126.6 27.5657C125.82 27.5124 125.044 27.4497 124.27 27.6126C122.607 28.0607 122.462 28.2863 122.749 29.9499C124.016 30.7771 124.849 30.8366 125.783 30.0032C126.484 29.3766 127.349 28.7155 126.603 27.5657H126.6Z" fill="#23212F"/>
<path d="M90.1909 32.1575H88.1283C88.056 31.7126 87.9931 31.3241 87.9334 30.9482C87.6661 30.9262 87.5278 30.945 87.3454 31.1267C85.5815 32.9001 83.5221 32.9439 81.9783 31.3429C81.035 30.3654 81.1356 29.1842 81.4438 28.1252C81.755 27.0569 82.7172 26.4271 83.8648 26.1984C85.0344 25.9634 86.2135 25.8287 87.4837 25.8913C87.9868 25.0172 87.9176 24.353 86.9964 23.8047C85.7041 23.0371 84.1006 23.4663 82.9687 24.9827C82.4436 24.7133 81.906 24.4376 81.3715 24.1619C82.2707 22.116 84.4999 21.0288 86.8329 21.4643C88.8515 21.8402 90.1846 23.5447 90.1909 25.7817C90.1972 27.8652 90.1909 29.9487 90.1909 32.1607V32.1575ZM85.5406 27.5519C83.6101 28.0218 83.4435 28.2537 83.7862 30.0051C84.7137 30.8322 85.7607 30.804 86.6914 30.096C87.4774 29.4975 88.2415 28.7362 87.6692 27.5487C86.9587 27.5487 86.2512 27.5487 85.5406 27.5487V27.5519Z" fill="#23212F"/>
<path d="M148.685 27.9624H143.972V32.1075C143.17 32.3111 142.472 32.2077 141.689 32.1858V21.6837C142.374 21.433 143.044 21.5646 143.789 21.5771C144.163 22.94 143.755 24.3562 144.028 25.7912H148.638V21.7463C149.449 21.3892 150.175 21.6335 151.002 21.502V32.1263C150.298 32.2861 149.549 32.2391 148.685 32.1419V27.9593V27.9624Z" fill="#23212F"/>
<path d="M63.5658 26.6735C64.9272 28.6787 66.798 30.1888 68.521 32.1125H65.2574C64.138 30.452 62.2578 29.3648 61.2768 27.4379C61.1731 27.4943 61.0693 27.5539 60.9687 27.6103V32.1157C60.1669 32.3068 59.4689 32.2128 58.686 32.1877V21.6887C59.3557 21.413 60.0349 21.6229 60.7769 21.5195C61.1133 22.942 60.8209 24.3424 60.9939 25.8996C62.3018 24.2829 63.9305 23.1487 65.0121 21.554H68.1532C66.5496 23.343 65.0656 25.0004 63.5689 26.6703L63.5658 26.6735Z" fill="#23212F"/>
<path d="M159.532 25.1517C162.01 25.3491 163.026 25.9538 163.431 27.6676C164.076 30.4091 162.557 31.985 160.29 32.1511C158.366 32.2921 156.426 32.1793 154.382 32.1793V21.6113H156.398C156.847 22.7862 156.184 24.0457 156.841 25.1329C157.737 25.1392 158.636 25.1455 159.532 25.1517ZM159.221 26.9063L156.832 26.947C156.288 28.0216 156.599 29.1151 156.652 30.2712C157.372 30.2712 157.992 30.2712 158.611 30.2712C160.095 30.2649 161.064 29.7668 161.23 28.9208C161.406 28.0185 160.862 27.4734 159.224 26.9094L159.221 26.9063Z" fill="#23212F"/>
<path d="M139.74 21.6172C139.988 22.2689 139.79 22.8924 139.888 23.5472C138.79 23.9137 137.677 23.5472 136.442 23.8135V32.1193C135.605 32.2697 134.948 32.2666 134.099 32.1193V23.7759H130.776C130.669 22.9801 130.647 22.3378 130.788 21.6203H139.743L139.74 21.6172Z" fill="#23212F"/>
<path d="M91.225 10.7693C90.3257 10.8946 89.6655 10.9071 88.8668 10.7693V2.38824H85.5686C85.3233 1.6175 85.4397 1.00028 85.4397 0.289062H94.5264V2.22532C93.5171 2.60129 92.4009 2.19085 91.225 2.47596V10.7693Z" fill="#23212F"/>
<path d="M167.418 32.1619H165.336V21.6974C165.968 21.3809 166.648 21.6473 167.418 21.5V32.1619Z" fill="#23212F"/>
<path d="M178.495 16.9727C178.624 17.6807 178.677 18.2384 178.451 18.8682H171.996C171.883 18.251 171.883 17.6525 172.005 16.9727H178.495Z" fill="#23212F"/>
</g>
<defs>
<clipPath id="clip0_16_12496">
<rect width="179.07" height="40.1851" fill="white" transform="translate(0.945801 0.0332031)"/>
</clipPath>
</defs>
</svg>
