<svg width="88" height="28" viewBox="0 0 88 28" fill="none" xmlns="http://www.w3.org/2000/svg">
<path d="M9.58545 9.59119C10.8654 8.42302 12.0503 7.15968 13.2803 5.94154C14.8625 4.37604 16.4327 2.80103 17.9982 1.22126C18.2314 0.98572 18.4621 0.869141 18.8071 0.869141C21.4337 0.883416 24.0627 0.876278 26.6917 0.878657C27.2817 0.878657 27.208 0.838211 27.208 1.41635C27.208 6.98124 27.208 12.5437 27.2151 18.1086C27.2151 18.4251 27.1271 18.6487 26.9011 18.8747C24.1817 21.5727 21.4694 24.2778 18.7572 26.983C18.6929 27.0472 18.6334 27.1186 18.5621 27.1733C18.4598 27.2542 18.3646 27.2899 18.3598 27.0995C18.3575 26.9711 18.3598 26.845 18.3598 26.7165C18.3598 24.2183 18.3598 21.7178 18.3598 19.2197C18.3598 19.0199 18.3432 18.82 18.3337 18.6202C18.3384 18.5987 18.336 18.5773 18.3337 18.5559C18.3408 18.5202 18.3527 18.4845 18.3527 18.4489C18.3575 15.6557 18.3527 12.8649 18.3717 10.0718C18.3741 9.68874 18.1624 9.72442 17.9197 9.72442C15.1432 9.7268 12.3691 9.72918 9.59259 9.73156C9.59259 9.68636 9.59259 9.63877 9.59259 9.59357L9.58545 9.59119Z" fill="#F04C23"/>
<path d="M18.3266 18.5523C18.3313 18.5737 18.3313 18.5951 18.3266 18.6165C16.4518 20.4818 14.5746 22.3447 12.7022 24.2124C11.772 25.1402 10.8369 26.0634 9.91858 27.0031C9.67352 27.2529 9.42847 27.3767 9.06446 27.3743C6.4545 27.3576 3.84217 27.3648 1.23222 27.3648C0.708798 27.3648 0.706419 27.3624 0.706419 26.8223C0.706419 21.2551 0.711177 15.6902 0.70166 10.1229C0.70166 9.80647 0.78969 9.58283 1.01571 9.35681C3.747 6.64693 6.47116 3.92515 9.19769 1.20814C9.28334 1.12249 9.36423 0.948808 9.48795 0.996392C9.65449 1.05825 9.55932 1.25096 9.55932 1.37944C9.56646 3.8966 9.56408 6.41615 9.56646 8.93569C9.56646 9.15458 9.58073 9.37346 9.58787 9.58997C9.58787 9.63517 9.58787 9.68275 9.58787 9.72796C9.58073 12.5497 9.57836 15.3714 9.55932 18.1931C9.55694 18.5832 9.79486 18.5214 10.0256 18.5214C12.0836 18.5214 14.1416 18.5166 16.1996 18.5238C16.9086 18.5261 17.62 18.4833 18.329 18.5523H18.3266Z" fill="#303187"/>
<path d="M72.4383 14.0877C72.4383 11.3493 72.4383 8.61327 72.4383 5.87484C72.4383 5.20867 72.3812 5.27529 73.0117 5.27529C77.1206 5.27529 81.227 5.27529 85.3358 5.27529C85.9045 5.27529 85.9068 5.27529 85.9068 5.82726C85.9068 6.81223 85.9068 7.79721 85.9068 8.78457C85.9068 9.28419 85.9021 9.28895 85.3977 9.28895C82.8234 9.28895 80.2492 9.28895 77.6749 9.28895C76.9826 9.28895 77.073 9.23423 77.0682 9.9123C77.0658 10.4238 77.092 10.9353 77.0587 11.4445C77.0325 11.8228 77.18 11.8989 77.525 11.8941C78.7122 11.8751 79.8994 11.8751 81.0843 11.8918C81.9979 11.9037 82.9019 12.006 83.7822 12.282C86.0639 13.0005 87.3748 14.7135 87.439 17.1117C87.4866 18.8437 87.0845 20.4163 85.688 21.5774C84.5436 22.5267 83.1803 22.905 81.7243 22.924C79.4783 22.9549 77.2348 22.9454 74.9888 22.9525C74.2941 22.9525 73.5994 22.9288 72.907 22.9621C72.5097 22.9811 72.4288 22.8336 72.4312 22.4648C72.4455 19.6717 72.4383 16.8809 72.4383 14.0877ZM79.1571 15.6794V15.6747C78.5742 15.6747 77.989 15.6842 77.4061 15.6699C77.1443 15.6628 77.0563 15.7508 77.0611 16.0149C77.073 16.9451 77.0777 17.873 77.0611 18.8033C77.0539 19.1292 77.1777 19.1958 77.4727 19.1934C78.529 19.1792 79.5878 19.1887 80.6441 19.1863C81.0676 19.1863 81.4768 19.1007 81.8622 18.9175C82.4666 18.6296 82.7497 18.1371 82.7687 17.4757C82.7877 16.7929 82.5213 16.2742 81.9051 15.9554C81.5434 15.7674 81.1509 15.6865 80.744 15.6818C80.2159 15.6747 79.6877 15.6818 79.1571 15.6818V15.6794Z" fill="#303187"/>
<path d="M36.0087 14.0883C36.0087 11.369 36.0087 8.64956 36.0087 5.93254C36.0087 5.19024 35.9421 5.27827 36.6392 5.27589C41.6783 5.27589 46.715 5.27589 51.7541 5.27589C52.3774 5.27589 52.356 5.1831 52.356 5.84927C52.356 11.3594 52.356 16.872 52.356 22.3821C52.356 22.9484 52.356 22.9508 51.8017 22.9508C50.6145 22.9508 49.4296 22.9508 48.2424 22.9508C47.7095 22.9508 47.7071 22.9484 47.7071 22.4178C47.7071 18.2757 47.7071 14.1336 47.7071 9.99141C47.7071 9.86293 47.6976 9.73446 47.7071 9.60836C47.7261 9.37758 47.6405 9.26338 47.3978 9.2848C47.2884 9.29431 47.1789 9.2848 47.0695 9.2848C45.1162 9.2848 43.1629 9.2848 41.2096 9.2848C40.679 9.2848 40.6766 9.28717 40.6766 9.81773C40.6766 13.9956 40.6766 18.1758 40.6766 22.3536C40.6766 22.9841 40.7623 22.9484 40.0985 22.9484C38.8946 22.9484 37.6884 22.9341 36.4845 22.9579C36.092 22.965 36.0016 22.8318 36.004 22.4607C36.0182 19.6699 36.0111 16.8767 36.0111 14.086L36.0087 14.0883Z" fill="#303187"/>
<path d="M54.2141 14.0663C54.3093 10.5046 55.7225 7.68533 58.9154 5.91998C62.5484 3.91196 67.371 4.73277 70.176 7.77811C70.4401 8.06361 70.4805 8.22302 70.1736 8.5109C69.4266 9.208 68.7057 9.93364 68.0062 10.6783C67.735 10.9662 67.5922 10.9162 67.3377 10.6617C65.853 9.1842 64.0711 8.69647 62.063 9.27937C60.331 9.78138 59.3912 11.0685 59.0296 12.7696C58.6108 14.742 58.9201 16.5715 60.4571 18.0038C62.4508 19.8572 65.8435 19.4884 67.6232 17.2734C67.896 16.934 68.1886 16.9197 68.5011 17.2306C69.1863 17.9134 69.8596 18.6081 70.5591 19.2767C70.8065 19.5122 70.8303 19.6668 70.6066 19.9428C66.5383 24.9438 58.6442 24.4775 55.3894 18.6866C54.5853 17.2591 54.2022 15.715 54.2141 14.0686V14.0663Z" fill="#303187"/>
</svg>
