<svg width="249" height="28" viewBox="0 0 249 28" fill="none" xmlns="http://www.w3.org/2000/svg">
<g clip-path="url(#clip0_16_12186)">
<path d="M65.6566 10.6699H62.2153V23.6113H65.6566V10.6699Z" fill="#121617"/>
<path d="M57.3354 10.668L53.9654 20.0856L50.5972 10.668H47.1577L51.789 23.6111H52.7058H55.2285H56.1436L60.7749 10.668H57.3354Z" fill="#121617"/>
<path d="M77.8037 13.5201V10.6679H73.6822V7.09766H70.2444V10.6679H67.5234V13.5201H70.2444V19.0889C70.2444 21.9608 71.6432 23.8789 75.215 23.8789C76.5946 23.8789 77.8055 23.3592 77.8055 23.3592L77.3879 20.5641C77.3879 20.5641 76.7094 20.7713 75.8761 20.7713C74.8566 20.7713 73.6822 20.3194 73.6822 18.8692V13.5201H77.8037Z" fill="#121617"/>
<path d="M44.595 23.6109H48.2589L41.4773 4.6543H38.8207L32.0391 23.6109H35.6995L36.9939 19.9925H43.3006L44.595 23.6109ZM38.0134 17.1402L40.1464 11.1804L42.2793 17.1402H38.0134Z" fill="#121617"/>
<path d="M85.6937 10.3379C81.9654 10.3379 78.9399 13.3741 78.9399 17.1158C78.9399 20.8575 81.9637 23.8972 85.6937 23.8972C89.4238 23.8972 92.4458 20.8628 92.4458 17.1158C92.4458 13.3687 89.422 10.3379 85.6937 10.3379ZM85.6937 20.6521C83.7748 20.6521 82.2211 19.0911 82.2211 17.164C82.2211 15.2369 83.7765 13.6795 85.6937 13.6795C87.6109 13.6795 89.1663 15.2405 89.1663 17.164C89.1663 19.0875 87.6127 20.6521 85.6937 20.6521Z" fill="#121617"/>
<path d="M66.1544 6.87872C66.1544 8.13606 65.161 9.15587 63.9345 9.15587C62.7079 9.15587 61.7197 8.13785 61.7197 6.87872C61.7197 5.61958 62.7114 4.60156 63.9345 4.60156C65.1575 4.60156 66.1544 5.62137 66.1544 6.87872Z" fill="#121617"/>
<path d="M11.7361 6.68143C11.7361 9.96768 9.14038 12.6306 5.94095 12.6306C2.74152 12.6306 0.144043 9.96589 0.144043 6.68143C0.144043 3.39697 2.73978 0.730469 5.94095 0.730469C9.14212 0.730469 11.7361 3.39519 11.7361 6.68143Z" fill="#00AAE7"/>
<path d="M26.242 20.2816C26.242 24.2805 23.0843 27.5203 19.1907 27.5203C15.2971 27.5203 12.1377 24.2805 12.1377 20.2816C12.1377 16.2828 15.2954 13.043 19.1907 13.043C23.0861 13.043 26.242 16.2828 26.242 20.2816Z" fill="#00AAE7"/>
<path d="M23.728 6.68117C23.728 9.2548 21.696 11.3409 19.189 11.3409C16.682 11.3409 14.6499 9.2548 14.6499 6.68117C14.6499 4.10754 16.6837 2.02148 19.189 2.02148C21.6942 2.02148 23.728 4.10754 23.728 6.68117Z" fill="#00AAE7"/>
<path d="M9.22186 20.2803C9.22186 22.1414 7.75176 23.6487 5.93892 23.6487C4.12608 23.6487 2.65771 22.1414 2.65771 20.2803C2.65771 18.4193 4.12608 16.9102 5.93892 16.9102C7.75176 16.9102 9.22186 18.4175 9.22186 20.2803Z" fill="#00AAE7"/>
<path d="M108.49 23.6273H106.766V17.7406H99.897V23.6273H98.1729V10.6895H99.897V16.4582H106.766V10.6895H108.49V23.6255V23.6273Z" fill="#00AAE7"/>
<path d="M118.714 10.6895V12.1165H112.592V16.4136H117.55V17.7852H112.592V22.1985H118.723L118.714 23.6255H110.87V10.6895H118.714Z" fill="#00AAE7"/>
<path d="M130.842 10.6895V22.2538H132.921V26.2527C132.921 26.4081 132.871 26.5349 132.77 26.6313C132.669 26.7278 132.537 26.776 132.37 26.776H131.348V23.6255H121.087V26.2527C121.087 26.4081 121.035 26.5349 120.931 26.6313C120.826 26.7278 120.696 26.776 120.536 26.776H119.506V22.2538H120.804C120.986 22.1645 121.171 22.0181 121.355 21.8163C121.538 21.6144 121.715 21.3269 121.884 20.95C122.053 20.575 122.211 20.0999 122.359 19.5284C122.507 18.9569 122.643 18.2568 122.763 17.4298C122.883 16.6029 122.989 15.6349 123.078 14.5276C123.166 13.4203 123.234 12.1415 123.283 10.6912H130.844L130.842 10.6895ZM124.899 12.07C124.828 13.5506 124.725 14.8473 124.593 15.9617C124.459 17.0762 124.304 18.0406 124.127 18.8551C123.949 19.6695 123.751 20.3535 123.532 20.9036C123.312 21.4537 123.079 21.9038 122.831 22.2538H129.113V12.07H124.901H124.899Z" fill="#00AAE7"/>
<path d="M134.284 23.6273V10.6895H138.344C139.127 10.6895 139.8 10.768 140.366 10.9252C140.931 11.0824 141.396 11.3038 141.759 11.5932C142.125 11.8825 142.393 12.2361 142.563 12.6541C142.735 13.072 142.821 13.5435 142.821 14.0668C142.821 14.3865 142.772 14.6937 142.675 14.9884C142.577 15.2831 142.431 15.5563 142.234 15.8099C142.04 16.0618 141.791 16.2886 141.493 16.4868C141.194 16.6851 140.843 16.8476 140.441 16.9744C141.371 17.1601 142.073 17.5013 142.546 17.9942C143.019 18.4871 143.257 19.1373 143.257 19.9445C143.257 20.491 143.158 20.9911 142.96 21.443C142.762 21.8948 142.471 22.2824 142.088 22.6075C141.706 22.9325 141.236 23.1843 140.681 23.3611C140.124 23.5398 139.491 23.6273 138.779 23.6273H134.284ZM135.997 16.4868H138.271C138.757 16.4868 139.179 16.4332 139.538 16.3243C139.894 16.2153 140.192 16.0653 140.425 15.8724C140.658 15.6795 140.832 15.4474 140.945 15.1723C141.057 14.8991 141.114 14.599 141.114 14.274C141.114 13.5096 140.89 12.9505 140.439 12.5987C139.988 12.2468 139.289 12.07 138.343 12.07H135.997V16.485V16.4868ZM135.997 17.7317V22.236H138.751C139.244 22.236 139.667 22.1788 140.021 22.0645C140.376 21.9502 140.669 21.7895 140.897 21.5823C141.124 21.3751 141.291 21.1269 141.398 20.8429C141.504 20.5589 141.558 20.2428 141.558 19.8999C141.558 19.2319 141.323 18.7033 140.857 18.3157C140.389 17.9281 139.687 17.7335 138.751 17.7335H135.997V17.7317Z" fill="#00AAE7"/>
<path d="M153.259 11.2413C153.343 11.1038 153.449 10.977 153.579 10.8627C153.71 10.7484 153.861 10.6912 154.032 10.6912H155.312V23.6273H153.588V14.4365C153.588 14.1847 153.593 13.9168 153.605 13.6381C153.618 13.3577 153.644 13.0613 153.685 12.7487C153.585 13.0202 153.477 13.2702 153.362 13.5024C153.245 13.7346 153.132 13.9364 153.019 14.1114L147.048 23.0754C146.965 23.2147 146.859 23.3397 146.73 23.454C146.598 23.5683 146.448 23.6255 146.278 23.6255H144.997V10.6895H146.721V19.8892C146.721 20.1481 146.716 20.4178 146.704 20.6964C146.692 20.9768 146.666 21.2769 146.624 21.5948C146.725 21.318 146.833 21.0644 146.947 20.8322C147.062 20.6 147.177 20.391 147.29 20.2053L153.259 11.2413Z" fill="#00AAE7"/>
<path d="M158.174 10.6895C158.358 10.6895 158.525 10.7359 158.675 10.8288C158.826 10.9216 158.95 11.0502 159.044 11.2128L162.233 15.6992C162.415 15.9635 162.61 16.1403 162.814 16.2279C163.017 16.3154 163.258 16.3582 163.529 16.3582H164.79V10.6895H166.417V16.3582H167.687C167.955 16.3582 168.188 16.3154 168.39 16.2279C168.59 16.1403 168.787 15.9635 168.976 15.6992L172.165 11.2128C172.259 11.0502 172.384 10.9234 172.537 10.8288C172.692 10.7359 172.858 10.6895 173.035 10.6895H174.385L170.672 15.8617C170.505 16.1153 170.335 16.3225 170.156 16.485C169.978 16.6476 169.763 16.7744 169.507 16.8655C169.797 16.9548 170.055 17.0923 170.281 17.2762C170.505 17.4602 170.714 17.7084 170.902 18.021L174.677 23.6273H173.533C173.284 23.6273 173.068 23.5719 172.884 23.4594C172.701 23.3486 172.553 23.1968 172.44 23.0039L169.214 18.4175C169.054 18.1639 168.873 17.9835 168.668 17.871C168.463 17.7602 168.204 17.7049 167.891 17.7049H166.415V23.6273H164.789V17.7049H163.324C163.004 17.7049 162.743 17.7602 162.537 17.871C162.334 17.9817 162.151 18.1639 161.991 18.4175L158.765 23.0039C158.659 23.1968 158.515 23.3486 158.331 23.4594C158.146 23.5701 157.93 23.6273 157.682 23.6273H156.526L160.31 18.021C160.5 17.7084 160.705 17.4602 160.928 17.2762C161.151 17.0923 161.403 16.9565 161.688 16.8655C161.439 16.7744 161.225 16.6493 161.048 16.485C160.871 16.3225 160.698 16.1153 160.533 15.8617L156.827 10.6895H158.169H158.174Z" fill="#00AAE7"/>
<path d="M184.163 11.2413C184.247 11.1038 184.353 10.977 184.483 10.8627C184.614 10.7484 184.765 10.6912 184.936 10.6912H186.216V23.6273H184.492V14.4365C184.492 14.1847 184.497 13.9168 184.509 13.6381C184.521 13.3577 184.548 13.0613 184.589 12.7487C184.488 13.0202 184.381 13.2702 184.266 13.5024C184.149 13.7346 184.036 13.9364 183.923 14.1114L177.952 23.0754C177.869 23.2147 177.762 23.3397 177.634 23.454C177.501 23.5683 177.352 23.6255 177.181 23.6255H175.901V10.6895H177.625V19.8892C177.625 20.1481 177.62 20.4178 177.608 20.6964C177.595 20.9768 177.569 21.2769 177.528 21.5948C177.628 21.318 177.736 21.0644 177.851 20.8322C177.966 20.6 178.081 20.391 178.194 20.2053L184.163 11.2413Z" fill="#00AAE7"/>
<path d="M195.062 19.4069C195.127 19.5659 195.193 19.7248 195.257 19.8802C195.316 19.7177 195.379 19.557 195.443 19.398C195.51 19.2373 195.579 19.0872 195.657 18.9426L199.976 10.9895C200.047 10.8502 200.125 10.7663 200.21 10.7359C200.296 10.7055 200.416 10.6912 200.571 10.6912H201.841V23.6273H200.33V14.1204C200.33 13.9936 200.334 13.8578 200.339 13.7149C200.344 13.5721 200.353 13.4238 200.365 13.272L196.002 21.3608C195.866 21.6323 195.659 21.7662 195.379 21.7662H195.13C194.852 21.7662 194.645 21.6305 194.507 21.3608L190.048 13.2452C190.066 13.4024 190.08 13.556 190.088 13.706C190.097 13.856 190.102 13.9953 190.102 14.1204V23.6273H188.592V10.6895H189.862C190.017 10.6895 190.135 10.7037 190.217 10.7341C190.301 10.7645 190.381 10.8484 190.457 10.9877L194.854 18.9497C194.925 19.0944 194.993 19.2462 195.059 19.4052L195.062 19.4069Z" fill="#00AAE7"/>
<path d="M216.012 17.1639C216.012 18.1337 215.861 19.0213 215.56 19.8321C215.257 20.6412 214.833 21.3377 214.281 21.9218C213.73 22.5058 213.069 22.9576 212.295 23.2809C211.522 23.6024 210.668 23.7631 209.732 23.7631C208.796 23.7631 207.943 23.6024 207.173 23.2809C206.402 22.9594 205.743 22.5058 205.191 21.9218C204.641 21.3377 204.213 20.6412 203.912 19.8321C203.61 19.0231 203.46 18.1337 203.46 17.1639C203.46 16.1941 203.611 15.3046 203.912 14.4956C204.215 13.6865 204.641 12.9882 205.191 12.4006C205.743 11.813 206.404 11.3576 207.173 11.0325C207.942 10.7074 208.796 10.5449 209.732 10.5449C210.668 10.5449 211.522 10.7074 212.295 11.0325C213.069 11.3576 213.73 11.813 214.281 12.4006C214.833 12.9882 215.259 13.6847 215.56 14.4956C215.863 15.3046 216.012 16.1941 216.012 17.1639ZM214.245 17.1639C214.245 16.3691 214.137 15.6565 213.925 15.0242C213.711 14.392 213.41 13.858 213.018 13.4222C212.627 12.9864 212.154 12.6506 211.597 12.4149C211.04 12.1791 210.417 12.063 209.732 12.063C209.046 12.063 208.432 12.1809 207.875 12.4149C207.319 12.6488 206.844 12.9846 206.449 13.4222C206.054 13.8597 205.751 14.392 205.539 15.0242C205.327 15.6565 205.219 16.3691 205.219 17.1639C205.219 17.9586 205.327 18.6695 205.539 19.2981C205.751 19.9268 206.056 20.459 206.449 20.8966C206.842 21.3342 207.319 21.6664 207.875 21.8985C208.432 22.1307 209.052 22.2468 209.732 22.2468C210.412 22.2468 211.04 22.1307 211.597 21.8985C212.154 21.6664 212.627 21.3342 213.018 20.8966C213.41 20.459 213.711 19.9268 213.925 19.2981C214.137 18.6695 214.245 17.9568 214.245 17.1639Z" fill="#00AAE7"/>
<path d="M226.897 20.9559C226.991 20.9559 227.074 20.9952 227.145 21.0737L227.829 21.8239C227.307 22.4383 226.676 22.9151 225.933 23.258C225.19 23.6009 224.29 23.7724 223.236 23.7724C222.324 23.7724 221.495 23.6117 220.748 23.2902C220.002 22.9687 219.365 22.5168 218.838 21.9364C218.311 21.3559 217.902 20.6594 217.613 19.8468C217.323 19.0341 217.178 18.1411 217.178 17.166C217.178 16.1908 217.33 15.296 217.631 14.4852C217.933 13.6725 218.356 12.9742 218.906 12.3902C219.454 11.8062 220.11 11.3543 220.873 11.031C221.637 10.7096 222.481 10.5488 223.405 10.5488C224.329 10.5488 225.112 10.6971 225.804 10.9918C226.496 11.2864 227.107 11.6865 227.634 12.192L227.065 12.9957C227.031 13.0564 226.984 13.1064 226.928 13.1439C226.87 13.1832 226.796 13.2028 226.702 13.2028C226.596 13.2028 226.465 13.1439 226.31 13.026C226.157 12.9081 225.955 12.7778 225.707 12.6331C225.458 12.4884 225.146 12.3581 224.774 12.2402C224.402 12.1223 223.941 12.0634 223.396 12.0634C222.739 12.0634 222.137 12.1794 221.592 12.4116C221.047 12.6438 220.578 12.9796 220.185 13.4189C219.79 13.8583 219.485 14.3941 219.264 15.0263C219.045 15.6586 218.935 16.3712 218.935 17.166C218.935 17.9607 219.05 18.6912 219.276 19.3235C219.506 19.9557 219.816 20.4897 220.209 20.9255C220.604 21.3613 221.068 21.6953 221.604 21.9239C222.14 22.1525 222.719 22.2668 223.342 22.2668C223.721 22.2668 224.062 22.2436 224.369 22.1989C224.675 22.1543 224.955 22.0828 225.212 21.9864C225.47 21.89 225.71 21.7685 225.933 21.6221C226.155 21.4738 226.375 21.2988 226.596 21.0934C226.696 21.0041 226.796 20.9577 226.898 20.9577L226.897 20.9559Z" fill="#00AAE7"/>
<path d="M238.372 10.6895V12.1611H234.25V23.6255H232.537V12.1611H228.405V10.6895H238.372Z" fill="#00AAE7"/>
<path d="M241.358 10.6895V16.26H243.837C244.613 16.26 245.283 16.3457 245.845 16.5172C246.407 16.6886 246.871 16.9298 247.235 17.2387C247.598 17.5477 247.868 17.9174 248.044 18.3443C248.218 18.7711 248.306 19.2373 248.306 19.7427C248.306 20.3392 248.207 20.8768 248.009 21.3537C247.809 21.8323 247.52 22.2395 247.137 22.5771C246.754 22.9146 246.285 23.1718 245.73 23.3522C245.173 23.5326 244.538 23.6237 243.828 23.6237H239.644V10.6895H241.358ZM241.358 17.6495V22.236H243.828C244.321 22.236 244.742 22.1788 245.095 22.0645C245.446 21.9502 245.735 21.793 245.956 21.5912C246.177 21.3894 246.34 21.1465 246.445 20.8607C246.547 20.575 246.601 20.2606 246.601 19.9177C246.601 19.557 246.549 19.2355 246.445 18.9569C246.34 18.6765 246.179 18.4389 245.956 18.2442C245.733 18.0496 245.448 17.9013 245.098 17.8013C244.749 17.7013 244.329 17.6513 243.837 17.6513H241.358V17.6495Z" fill="#00AAE7"/>
</g>
<defs>
<clipPath id="clip0_16_12186">
<rect width="248.161" height="26.7901" fill="white" transform="translate(0.144043 0.730469)"/>
</clipPath>
</defs>
</svg>
