<svg width="17" height="17" viewBox="0 0 17 17" fill="#028FBE" xmlns="http://www.w3.org/2000/svg">
<g id="phone">
<path id="Vector" d="M9.85078 11.1433C10.7532 10.2401 12.1747 10.1569 13.1195 10.9513L13.8027 11.5273C14.5819 12.1833 14.6611 13.3649 13.9787 14.1672C13.6061 14.5981 13.0817 14.8686 12.5147 14.9224C10.3324 15.216 8.04361 14.1648 5.64606 11.7673C3.2493 9.36973 2.19732 7.07937 2.49092 4.89861C2.50681 4.72793 2.54224 4.55963 2.59652 4.39702C2.72451 4.02423 2.94851 3.69224 3.2469 3.43464C4.04929 2.75306 5.23086 2.83145 5.88685 3.61064L6.46044 4.29463C7.25642 5.23861 7.17403 6.66018 6.27084 7.56256L5.78125 8.05215C5.71733 8.11627 5.67305 8.19732 5.65363 8.28576C5.63421 8.3742 5.64047 8.46634 5.67166 8.55134C5.85005 9.03933 6.30524 9.64732 7.03563 10.3785C7.76602 11.1097 8.3756 11.5641 8.86199 11.7425C9.03559 11.8065 9.22999 11.7633 9.36118 11.6329L9.85078 11.1433Z" fill="white"/>
</g>
</svg>
