<svg width="17" height="17" viewBox="0 0 17 17" fill="none" xmlns="http://www.w3.org/2000/svg">
<g id="phone">
<path id="Vector" d="M10.3112 11.071C11.2136 10.1678 12.6352 10.0846 13.58 10.879L14.2631 11.455C15.0423 12.111 15.1215 13.2926 14.4391 14.095C14.0666 14.5258 13.5422 14.7963 12.9752 14.8502C10.7928 15.1438 8.50406 14.0926 6.10651 11.695C3.70975 9.29746 2.65777 7.00711 2.95137 4.82635C2.96726 4.65566 3.00269 4.48736 3.05696 4.32476C3.18496 3.95197 3.40896 3.61997 3.70735 3.36238C4.50974 2.68079 5.69131 2.75919 6.3473 3.53837L6.92089 4.22236C7.71687 5.16634 7.63448 6.58791 6.73129 7.4903L6.2417 7.97989C6.17777 8.04401 6.1335 8.12506 6.11408 8.21349C6.09466 8.30193 6.10092 8.39408 6.1321 8.47908C6.3105 8.96707 6.76569 9.57506 7.49608 10.3062C8.22646 11.0374 8.83605 11.4918 9.32244 11.6702C9.49604 11.7342 9.69044 11.691 9.82163 11.5606L10.3112 11.071Z" fill="white"/>
</g>
</svg>
