<svg width="16" height="14" viewBox="0 0 16 14" fill="none" xmlns="http://www.w3.org/2000/svg">
<path id="Vector" d="M5.4595 0.919189L4.69937 2.94614H2.92587C1.80293 2.94614 0.898926 3.8501 0.898926 4.97308V11.0538C0.898926 12.1767 1.80289 13.0807 2.92587 13.0807H13.0604C14.1833 13.0807 15.0873 12.1768 15.0873 11.0538V4.97308C15.0873 3.85014 14.1834 2.94614 13.0604 2.94614H11.2869L10.5268 0.919189H5.4595ZM7.99313 4.71963C9.80621 4.71963 11.2869 6.20031 11.2869 8.01339C11.2869 9.82647 9.80621 11.3072 7.99313 11.3072C6.18005 11.3072 4.69937 9.82647 4.69937 8.01339C4.69937 6.20031 6.18005 4.71963 7.99313 4.71963Z" fill="white"/>
</svg>
