<svg width="12" height="12" viewBox="0 0 12 12" fill="none" xmlns="http://www.w3.org/2000/svg">
<g id="radio_circle_on" clip-path="url(#clip0_85_11800)">
<rect id="Rectangle 292" width="12" height="12" rx="1" fill="#028FBE"/>
<path id="Exclude" fill-rule="evenodd" clip-rule="evenodd" d="M9.30698 4.22162C9.28441 4.27626 9.2513 4.32592 9.20954 4.36775L5.31794 8.26775C5.27614 8.30966 5.22648 8.34291 5.17181 8.3656C5.11714 8.38828 5.05853 8.39996 4.99934 8.39996C4.94015 8.39996 4.88154 8.38828 4.82687 8.3656C4.7722 8.34291 4.72254 8.30966 4.68074 8.26775L2.84834 6.43175C2.80658 6.38992 2.77347 6.34026 2.7509 6.28562C2.72833 6.23099 2.71674 6.17244 2.7168 6.11333C2.71685 6.05422 2.72855 5.99569 2.75122 5.9411C2.7739 5.88651 2.8071 5.83691 2.84894 5.79515C2.89078 5.75339 2.94044 5.72028 2.99507 5.69771C3.04971 5.67514 3.10825 5.66355 3.16737 5.66361C3.22648 5.66367 3.285 5.67536 3.3396 5.69804C3.39419 5.72071 3.44378 5.75391 3.48554 5.79575L4.99934 7.31255L8.57234 3.73175C8.6141 3.68991 8.66369 3.65671 8.71829 3.63404C8.77288 3.61136 8.8314 3.59967 8.89052 3.59961C8.94963 3.59955 9.00818 3.61114 9.06281 3.63371C9.11745 3.65628 9.1671 3.68939 9.20894 3.73115C9.25078 3.77291 9.28398 3.82251 9.30666 3.8771C9.32933 3.93169 9.34103 3.99022 9.34109 4.04933C9.34114 4.10844 9.32955 4.16699 9.30698 4.22162Z" fill="white"/>
</g>
<defs>
<clipPath id="clip0_85_11800">
<rect width="12" height="12" fill="white"/>
</clipPath>
</defs>
</svg>
