<svg width="49" height="49" viewBox="0 0 49 49" fill="none" xmlns="http://www.w3.org/2000/svg">
<g id="renovation">
<path id="Vector" fill-rule="evenodd" clip-rule="evenodd" d="M12.1305 7.2422C13.1758 4.91927 16.4741 4.91927 17.5194 7.2422L24.9351 23.7215C25.8149 25.6767 24.3848 27.8888 22.2407 27.8888H18.2342V25.6159H22.2407C22.7355 25.6159 23.0655 25.1054 22.8624 24.6542L15.4468 8.1749C15.2055 7.63883 14.4443 7.63883 14.2032 8.1749L6.78745 24.6542C6.58441 25.1054 6.91446 25.6159 7.40926 25.6159H13.6885V17.6611H15.9614V30.3049C17.9219 30.8096 19.3706 32.5894 19.3706 34.7074V43.7988H10.2792V34.7074C10.2792 32.5894 11.7279 30.8096 13.6885 30.3049V27.8888H7.40926C5.26515 27.8888 3.83493 25.6767 4.7148 23.7215L12.1305 7.2422ZM12.5521 34.7074C12.5521 33.4521 13.5697 32.4346 14.8249 32.4346C16.0802 32.4346 17.0978 33.4521 17.0978 34.7074V41.526H12.5521V34.7074Z" fill="#82979E"/>
<path id="Vector_2" d="M40.1671 37.9893C40.6947 41.0227 38.3597 43.7989 35.2807 43.7989C32.2016 43.7989 29.8666 41.0227 30.3943 37.9893L31.6225 30.9266C31.7196 30.3688 31.5186 29.8007 31.0925 29.4277L27.8412 26.5829C27.5135 26.2961 27.3257 25.8821 27.3257 25.4468V23.3433H29.5985V25.1004L32.5891 27.7172C33.6124 28.6125 34.0947 29.9766 33.8617 31.3161L32.6335 38.3787C32.3477 40.0221 33.6126 41.5261 35.2807 41.5261C36.9487 41.5261 38.2136 40.0221 37.9278 38.3787L36.6996 31.3161C36.4666 29.9766 36.9489 28.6125 37.9722 27.7172L40.9628 25.1004V23.3433H43.2356V25.4469C43.2356 25.8821 43.0478 26.2961 42.7201 26.5829L39.4688 29.4277C39.0427 29.8007 38.8418 30.3688 38.9388 30.9266L40.1671 37.9893Z" fill="#82979E"/>
<path id="Vector_3" d="M24.6504 6.29688H35.2805V8.56972H27.7277L31.5741 21.0704H38.9221L41.8069 8.56972H39.7409L38.5153 14.2518H36.1902L37.906 6.29688H44.664L40.7302 23.3432H29.8954L24.6504 6.29688Z" fill="#82979E"/>
</g>
</svg>
