<svg width="17" height="17" viewBox="0 0 17 17" fill="none" xmlns="http://www.w3.org/2000/svg">
<g id="search_outline" clip-path="url(#clip0_428_4689)">
<path id="Vector" d="M16.2042 14.7199L11.8243 10.3383C12.6094 9.26747 13.03 7.97288 13.0241 6.6451C13.0091 3.1791 10.2058 0.371738 6.73988 0.351627C5.9187 0.347896 5.10494 0.507027 4.34566 0.819813C3.58638 1.1326 2.89665 1.59283 2.31638 2.17389C1.73611 2.75495 1.27681 3.4453 0.965052 4.205C0.653294 4.9647 0.495265 5.77869 0.500108 6.59985C0.515077 10.0661 3.31867 12.8737 6.7849 12.8938C8.11808 12.8995 9.41739 12.4741 10.4889 11.6808L10.4935 11.6774L14.8694 16.0556C14.9562 16.1475 15.0605 16.221 15.1762 16.2718C15.2918 16.3226 15.4165 16.3497 15.5428 16.3515C15.6692 16.3532 15.7946 16.3297 15.9116 16.2821C16.0287 16.2345 16.135 16.164 16.2243 16.0746C16.3136 15.9853 16.384 15.8789 16.4315 15.7618C16.4789 15.6447 16.5024 15.5193 16.5005 15.393C16.4986 15.2666 16.4714 15.142 16.4205 15.0263C16.3696 14.9107 16.2961 14.8066 16.2042 14.7199ZM6.78045 11.6392C4.00759 11.6232 1.76472 9.37739 1.75261 6.60454C1.74891 5.94769 1.87542 5.29662 2.12485 4.68896C2.37428 4.08131 2.74168 3.52911 3.2058 3.0643C3.66993 2.59948 4.22157 2.23127 4.82886 1.98094C5.43615 1.7306 6.08703 1.60311 6.74388 1.60584C9.51673 1.62184 11.7595 3.86768 11.7717 6.64053C11.7754 7.29738 11.6489 7.94845 11.3995 8.55611C11.15 9.16377 10.7826 9.71596 10.3185 10.1808C9.8544 10.6456 9.30275 11.0138 8.69546 11.2641C8.08818 11.5145 7.4373 11.642 6.78045 11.6392Z" fill="white"/>
</g>
<defs>
<clipPath id="clip0_428_4689">
<rect width="16" height="16" fill="white" transform="translate(0.5 0.351562)"/>
</clipPath>
</defs>
</svg>
