<svg width="128" height="50" viewBox="0 0 128 50" fill="none" xmlns="http://www.w3.org/2000/svg">
<g id="Layer_1" clip-path="url(#clip0_207_6432)">
<g id="P4GnVb.tif">
<g id="Group">
<path id="Vector" d="M24.8228 49.9965C16.7461 49.9965 8.6694 49.9965 0.58927 49.9965C0.200747 49.9965 0.00648556 49.8033 0.00648556 49.4168C0.00648556 33.4444 0.00305741 17.4686 -0.00037073 1.49274C-0.00037073 1.11782 -0.00722702 0.746372 -0.00037073 0.37145C0.01677 0.0312435 0.0476233 0.006943 0.376725 0C0.448716 0 0.520707 0 0.58927 0C16.7735 0 32.9544 0 49.1386 0C49.4837 0 49.6574 0.172418 49.6597 0.517253C49.6597 16.8507 49.6597 33.1841 49.6597 49.5209C49.6597 49.6077 49.6529 49.6945 49.6597 49.7778C49.6769 49.9479 49.6014 50.0104 49.4369 49.9965C49.2963 49.9861 49.1523 49.9965 49.0084 49.9965C40.9454 49.9965 32.8824 49.9965 24.8194 49.9965H24.8228ZM6.84563 39.2696C6.97933 39.3286 7.12331 39.3043 7.26044 39.3043C8.61455 39.3043 9.96524 39.2765 11.3194 39.3182C11.9296 39.3356 12.4095 39.2627 12.5878 38.5857C13.4482 37.2631 14.1819 35.8675 14.9909 34.5136C15.8102 33.1459 16.5884 31.7573 17.3837 30.3756C18.2648 28.8447 19.1801 27.3381 20.0474 25.8002C20.4931 25.0122 20.9456 24.2276 21.3878 23.4396C21.6826 22.9154 22.0083 22.4085 22.262 21.86C22.3888 21.5858 22.6048 21.4539 22.9065 21.4573C23.2047 21.4573 23.503 21.4435 23.8047 21.4435C27.5928 21.4469 31.3808 21.4539 35.1689 21.4608C35.2924 21.4608 35.4569 21.5164 35.5323 21.4087C35.6317 21.2664 35.4741 21.1484 35.4089 21.0303C34.7576 19.8986 34.1062 18.7669 33.448 17.6387C33.0778 17.0034 32.6938 16.3751 32.3236 15.7398C31.9362 15.0733 31.5557 14.3998 31.1717 13.7298C30.9112 13.275 30.6815 12.8029 30.3798 12.3794C29.917 11.7302 29.5605 11.0185 29.1731 10.3277C28.7995 9.66465 28.4086 9.00854 28.0453 8.33854C27.5859 7.49497 27.0854 6.67222 26.6054 5.83906C26.434 5.54051 26.3449 5.52316 26.1769 5.81129C25.7107 6.60626 25.1965 7.37346 24.8194 8.21357C24.5931 8.71694 24.3052 9.18559 24.0241 9.64035C23.5578 10.3971 23.1396 11.1817 22.6528 11.9281C22.3134 12.4419 22.0323 13.0008 21.7306 13.5388C21.141 14.5872 20.5136 15.6113 19.9411 16.6701C19.708 17.1041 19.5058 17.5693 19.2487 17.9754C18.9127 18.5135 18.5699 19.0516 18.2339 19.5931C17.6957 20.4645 17.1918 21.3567 16.7084 22.2593C16.3724 22.8876 15.9851 23.4812 15.6285 24.0957C15.0492 25.092 14.4664 26.0918 13.8836 27.0881C13.2014 28.258 12.4952 29.4175 11.8473 30.6082C11.3811 31.4622 10.8908 32.2988 10.3835 33.1216C9.80069 34.0693 9.27618 35.0517 8.7174 36.0099C8.15518 36.9715 7.54154 37.9018 6.98618 38.8669C6.91762 38.9884 6.83535 39.1064 6.85249 39.2731L6.84563 39.2696ZM45.8956 39.2661C45.8853 39.2036 45.8956 39.1377 45.8648 39.096C45.4157 38.4191 45.0351 37.7005 44.6341 36.9923C43.777 35.4753 42.8926 33.9686 42.0184 32.462C41.535 31.6254 41.0448 30.7957 40.5648 29.9556C40.4414 29.7438 40.3009 29.6188 40.0301 29.6466C39.7181 29.6778 39.4027 29.6535 39.0907 29.6535C35.5015 29.6535 31.9122 29.6535 28.3229 29.6466C28.0487 29.6466 27.9047 29.7091 27.7813 29.9833C27.5208 30.5596 27.1917 31.1012 26.9003 31.6635C26.5575 32.3231 26.0775 32.8994 25.7347 33.5694C25.4707 34.0936 25.0868 34.5588 24.8125 35.0726C24.3052 36.0238 23.7361 36.9333 23.2184 37.8775C22.6219 38.9711 21.9466 40.0229 21.3672 41.1303C21.1616 41.5226 20.9113 41.6406 20.4896 41.6406C15.5908 41.6267 10.6886 41.6302 5.78976 41.6268C5.66292 41.6268 5.53265 41.6337 5.40581 41.6372C5.30982 41.6406 5.24469 41.6962 5.21726 41.7864C5.04928 42.3141 4.79217 42.8036 4.46993 43.241C4.1134 43.7201 3.92828 44.3033 3.53062 44.7511C3.42777 44.8691 3.50319 44.9802 3.6746 44.9976C3.72945 45.0045 3.78773 44.9976 3.84601 44.9976C10.3115 44.9351 16.7804 44.9872 23.2459 44.9733C23.5167 44.9733 23.8012 44.9351 24.0549 45.008C24.5074 45.1399 24.7782 44.9594 24.9908 44.5949C25.2925 44.0776 25.6044 43.5673 25.8958 43.0431C26.5197 41.9218 27.2431 40.8561 27.795 39.6931C27.867 39.5404 28.011 39.4397 28.1721 39.3599C28.3401 39.2765 28.5046 39.3043 28.6692 39.3043C34.2399 39.3043 39.8072 39.3043 45.378 39.3008C45.5425 39.3008 45.7139 39.3356 45.8922 39.2627L45.8956 39.2661ZM14.6995 39.2627C14.7441 39.2765 14.7818 39.3008 14.8195 39.3008C16.4444 39.3043 18.0659 39.3078 19.6909 39.3113C19.8829 39.3113 20.0131 39.221 20.1023 39.0613C20.1571 38.9606 20.1948 38.853 20.2531 38.7558C20.8496 37.7456 21.4529 36.7354 22.0494 35.7217C22.4745 34.9997 22.8928 34.2741 23.311 33.552C23.9281 32.4828 24.5417 31.4101 25.1588 30.3409C25.7107 29.3862 26.3106 28.4594 26.8146 27.4734C26.9311 27.2443 27.0991 27.1263 27.3631 27.1541C27.4625 27.1645 27.5619 27.1541 27.6613 27.1541C30.8666 27.1541 34.0719 27.1541 37.2773 27.1541C37.6646 27.1541 38.0349 27.279 38.4428 27.1749C38.8542 27.0708 38.8953 27.0777 38.6965 26.6889C38.6588 26.6125 38.6142 26.5396 38.5731 26.4667C38.1274 25.6683 37.6166 24.908 37.2087 24.0887C37.1024 23.8735 36.9619 23.7832 36.7082 23.7832C32.4504 23.7937 28.1892 23.7937 23.9315 23.7832C23.695 23.7832 23.5544 23.8666 23.455 24.0575C23.0025 24.9288 22.4265 25.7238 22.0049 26.616C21.6141 27.4387 21.0587 28.1677 20.6028 28.9592C19.972 30.0562 19.3755 31.1741 18.7173 32.2537C18.1654 33.1632 17.6409 34.0901 17.0889 34.9962C16.5713 35.8467 16.1976 36.7805 15.5703 37.5651C15.5463 37.5963 15.536 37.6415 15.5223 37.6831C15.3611 38.0962 15.1212 38.4677 14.8743 38.8357C14.7852 38.9676 14.7098 39.096 14.7064 39.2661L14.6995 39.2627Z" fill="#EC1D30"/>
<path id="Vector_2" d="M87.9592 26.7101C87.9592 27.4704 87.9661 28.2306 87.9558 28.9909C87.9524 29.2235 88.0038 29.3415 88.254 29.3033C88.3226 29.2929 88.398 29.3033 88.4666 29.3033C88.59 29.2964 88.6448 29.3485 88.6448 29.4769C88.6448 30.1643 88.6414 30.8551 88.6448 31.5425C88.6448 31.7299 88.5557 31.7993 88.3877 31.8028C88.0312 31.8028 87.6747 31.8028 87.3216 31.8028C87.1399 31.8028 87.0679 31.7056 87.0885 31.5251C87.0953 31.4696 87.0953 31.4105 87.0919 31.3515C87.0816 31.0599 86.9719 30.9419 86.6771 30.9419C85.5664 30.9419 84.4557 30.9419 83.3484 30.9488C83.0227 30.9488 83.009 30.9766 83.0021 31.3342C82.9953 31.8167 82.9918 31.8202 82.529 31.8098C82.3302 31.8063 82.1314 31.8028 81.9325 31.7959C81.7269 31.7889 81.6274 31.7021 81.6309 31.4765C81.6377 30.8447 81.6377 30.2129 81.6274 29.5811C81.6274 29.3762 81.7063 29.3068 81.9017 29.2929C82.3405 29.2617 82.4022 29.168 82.4845 28.7271C82.6113 28.0571 82.6319 27.3697 82.7553 26.7067C82.9027 25.9013 82.9164 25.0959 82.9953 24.2905C83.0261 23.9538 83.105 23.8809 83.4306 23.8809C84.8533 23.8809 86.276 23.8809 87.6987 23.8843C87.8358 23.8843 87.9009 23.8566 87.9249 24.0961C87.9901 24.78 87.9284 25.4639 87.9592 26.1443C87.9695 26.3317 87.9592 26.5157 87.9592 26.7032V26.7101ZM84.2294 29.3797C84.5722 29.4596 84.8842 29.3867 85.1927 29.3901C85.4704 29.3936 85.8235 29.5082 86.012 29.3138C86.18 29.1402 86.0703 28.793 86.0703 28.5257C86.0772 27.6231 86.0703 26.7205 86.0772 25.8145C86.0772 25.6027 86.0292 25.4986 85.7926 25.5159C85.5252 25.5333 85.251 25.5159 84.9836 25.5229C84.8293 25.5229 84.7471 25.5819 84.7093 25.7694C84.5722 26.4602 84.5722 27.1649 84.4591 27.8592C84.3768 28.3591 84.3665 28.8694 84.2294 29.3762V29.3797Z" fill="white"/>
<path id="Vector_3" d="M112.947 45.1333C112.885 44.9563 112.906 44.8001 112.902 44.6404C112.902 42.5887 112.902 40.5371 112.902 38.4889C112.902 38.416 112.906 38.3466 112.902 38.2737C112.889 38.1001 112.94 38.0168 113.136 38.0168C114.174 38.0237 115.213 37.989 116.248 38.0307C116.797 38.0515 117.311 38.2285 117.726 38.6659C118.35 39.3255 118.473 40.3253 117.962 41.0682C117.75 41.3737 117.733 41.398 117.993 41.6132C118.669 42.1756 118.662 43.3108 118.257 44.0294C117.914 44.6369 117.38 44.9251 116.691 45.0084C115.6 45.1438 114.51 45.0361 113.424 45.0743C113.269 45.0813 113.112 45.0396 112.944 45.1333H112.947ZM115.71 42.3249C115.091 42.3226 114.807 42.6165 114.86 43.2067C114.86 43.2067 114.86 43.2344 114.86 43.2483C114.86 43.3664 114.911 43.4358 115.038 43.4358C115.381 43.4323 115.727 43.4705 116.06 43.4184C116.66 43.3316 116.718 43.224 116.663 42.62C116.649 42.4776 116.588 42.4533 116.468 42.4013C116.2 42.2832 115.933 42.3527 115.703 42.3249H115.71ZM115.535 40.7697C115.607 40.7697 115.676 40.7697 115.748 40.7697C116.313 40.7558 116.509 40.5197 116.406 39.9747C116.382 39.8428 116.324 39.7803 116.173 39.7282C115.796 39.5998 115.419 39.6866 115.045 39.6588C114.922 39.6484 114.87 39.7282 114.867 39.8428C114.867 39.9296 114.867 40.0129 114.867 40.0997C114.877 40.8738 114.774 40.794 115.539 40.7697H115.535Z" fill="white"/>
<path id="Vector_4" d="M108.031 45.1707C106.927 45.2471 106.015 44.7784 105.326 43.9869C104.874 43.4697 104.538 42.8066 104.545 42.0464C104.548 41.5777 104.504 41.1091 104.613 40.6439C104.949 39.1963 105.645 38.4603 107.051 38.0125C107.301 37.9326 107.568 37.891 107.832 37.8701C109.313 37.7556 110.969 38.5575 111.487 40.144C111.898 41.4076 111.816 42.6504 111.031 43.7786C110.53 44.4972 109.81 44.8687 108.994 45.0943C108.676 45.1811 108.353 45.1672 108.031 45.1707ZM106.423 41.5361C106.406 41.852 106.444 42.1991 106.605 42.5185C106.975 43.2475 107.747 43.4836 108.388 43.3725C109.063 43.2579 109.519 42.8552 109.725 42.1783C109.896 41.6159 109.769 41.0986 109.526 40.5883C109.056 39.6024 107.62 39.4011 106.859 40.2204C106.519 40.5849 106.413 41.0153 106.423 41.5361Z" fill="white"/>
<path id="Vector_5" d="M64.5314 16.9069C63.8424 16.9903 63.1122 16.6882 62.4814 16.2057C61.7444 15.6433 61.2918 14.8796 61.1958 13.9249C61.1581 13.5674 61.1307 13.2167 61.1684 12.8557C61.3467 11.2588 62.2072 10.2417 63.7087 9.75218C64.384 9.53348 65.0559 9.51959 65.7416 9.73135C66.3346 9.91534 66.8866 10.1653 67.3322 10.6131C67.8327 11.1165 68.059 11.7379 68.2441 12.4218C68.4361 13.1508 68.3641 13.8277 68.1516 14.5012C67.7642 15.7266 66.914 16.4834 65.6833 16.8167C65.3473 16.9069 65.0114 16.8931 64.5349 16.9035L64.5314 16.9069ZM64.6583 15.1261C64.8331 15.1261 65.0868 15.1399 65.3233 15.0184C65.8684 14.7407 66.2626 14.3901 66.3449 13.6993C66.4272 12.9946 66.3449 12.4044 65.841 11.8802C65.337 11.356 64.7268 11.3213 64.1235 11.5192C63.5373 11.7136 63.1602 12.1718 63.0608 12.821C63.0128 13.1369 63.0162 13.4493 63.0745 13.7618C63.2185 14.5324 63.6401 15.0497 64.6548 15.1261H64.6583Z" fill="white"/>
<path id="Vector_6" d="M93.3963 45.1641C92.7004 45.2231 92.0833 45.0739 91.5074 44.7545C90.5955 44.2476 90.047 43.4631 89.8447 42.4459C89.7007 41.7239 89.759 41.0018 89.9133 40.2797C89.9818 39.9534 90.1327 39.6653 90.3109 39.4153C90.7806 38.7662 91.3908 38.2524 92.1724 38.0441C92.8169 37.8705 93.4717 37.7733 94.1642 37.9712C94.6852 38.1204 95.172 38.2906 95.6108 38.6065C96.2965 39.0994 96.6564 39.7972 96.8518 40.606C96.965 41.0643 97.0301 41.5225 96.9444 41.9981C96.7593 43.0292 96.3787 43.9491 95.4703 44.5427C94.8327 44.9593 94.1573 45.2752 93.3997 45.1676L93.3963 45.1641ZM95.0555 41.6857C95.0246 40.9775 94.8944 40.3735 94.2807 39.9534C93.7116 39.5646 92.5289 39.6479 92.0936 40.1895C91.6719 40.7137 91.5108 41.3351 91.6513 41.9877C91.7439 42.4216 91.929 42.8452 92.3438 43.109C92.9472 43.4943 93.5574 43.5013 94.1744 43.1784C94.7812 42.859 94.9869 42.2897 95.0521 41.6857H95.0555Z" fill="white"/>
<path id="Vector_7" d="M102.659 27.3279C102.659 28.3902 102.659 29.4525 102.659 30.5148C102.659 30.9175 102.642 30.9313 102.258 30.9383C101.86 30.9452 101.459 30.9348 101.061 30.9522C100.839 30.9626 100.76 30.8897 100.763 30.6675C100.774 30.1364 100.77 29.6052 100.767 29.0741C100.767 28.7408 100.732 28.7339 100.407 28.6922C99.9988 28.6401 99.7725 28.8137 99.5874 29.1713C99.3131 29.7094 99.0492 30.2544 98.7304 30.7716C98.6412 30.9175 98.5487 30.9556 98.391 30.9522C97.9213 30.9418 97.4517 30.9487 96.982 30.9418C96.6632 30.9383 96.598 30.8411 96.7455 30.5634C97.0746 29.9454 97.4551 29.3587 97.8425 28.7755C98.0619 28.4492 98.079 28.4631 97.8219 28.1923C97.4037 27.7549 97.1191 27.2515 97.0574 26.6302C96.982 25.8386 97.1911 25.1235 97.7019 24.5403C98.0516 24.1411 98.5589 23.9467 99.0972 23.8703C100.184 23.7141 101.277 23.8217 102.364 23.7801C102.614 23.7696 102.666 23.8668 102.662 24.096C102.652 25.1721 102.659 26.2483 102.659 27.3245V27.3279ZM100.767 26.4982C100.767 26.2587 100.763 26.0712 100.767 25.8872C100.774 25.7137 100.702 25.613 100.523 25.613C100.139 25.6095 99.7554 25.613 99.3714 25.6026C99.152 25.5956 98.9875 25.7345 98.9429 25.8942C98.8538 26.2205 98.8366 26.5711 98.9772 26.9009C99.0115 26.9842 99.08 27.0224 99.152 27.0745C99.416 27.262 99.7108 27.2515 100.009 27.2377C100.249 27.2272 100.551 27.3418 100.708 27.1856C100.887 27.012 100.739 26.6996 100.763 26.4982H100.767Z" fill="white"/>
<path id="Vector_8" d="M73.5814 42.4565C72.9541 42.2412 72.3267 42.3523 71.7097 42.328C71.3668 42.3141 71.3668 42.3245 71.3634 41.9739C71.3634 41.658 71.3737 41.3421 71.3634 41.0262C71.3566 40.8214 71.4251 40.7554 71.6342 40.7624C72.2719 40.7797 72.9129 40.7693 73.5746 40.7693C73.602 40.3493 73.3655 40.0785 73.0706 39.9014C72.6832 39.6689 72.241 39.53 71.7817 39.7175C71.6445 39.773 71.5005 39.707 71.3668 39.7765C71.1029 39.9153 70.8423 40.0438 70.7635 40.3736C70.6984 40.6409 70.5132 40.7138 70.2527 40.6999C69.8687 40.6825 69.4848 40.6999 69.1008 40.6929C68.8026 40.6929 68.7066 40.6027 68.8095 40.3527C69.022 39.8251 69.1968 39.2557 69.6356 38.8635C70.287 38.2803 71.072 37.9539 71.9325 37.94C72.6833 37.9296 73.4409 38.0546 74.0956 38.4851C74.8121 38.9572 75.3229 39.5855 75.5252 40.4499C75.7412 41.3734 75.6829 42.2655 75.3161 43.1438C74.9355 44.0534 74.2465 44.5984 73.3517 44.9282C72.8135 45.126 72.265 45.2267 71.6994 45.1677C70.9829 45.0913 70.3144 44.8622 69.7556 44.3727C69.2894 43.9666 68.9397 43.4875 68.7683 42.8765C68.7375 42.7654 68.7306 42.6578 68.7135 42.5467C68.686 42.3905 68.7375 42.3107 68.9157 42.3141C69.3854 42.3245 69.855 42.3211 70.3247 42.3141C70.4721 42.3141 70.5852 42.3697 70.6024 42.519C70.6538 42.9807 70.976 43.1959 71.3531 43.3417C72.049 43.6125 73.218 43.3938 73.578 42.4495L73.5814 42.4565Z" fill="white"/>
<path id="Vector_9" d="M65.7243 45.1061V41.4749C65.3164 41.8707 64.977 42.1866 64.6513 42.5164C63.9177 43.2558 63.1875 44.0022 62.4573 44.7451C62.3373 44.8666 62.2173 44.9846 62.0562 45.0506C61.7888 45.1582 61.6071 45.061 61.5763 44.7728C61.5591 44.6166 61.5626 44.4569 61.5626 44.3007C61.5557 42.3497 61.5488 40.3953 61.542 38.4443C61.542 37.9618 61.5728 38.0034 61.9534 38.0138C62.3236 38.0242 62.6938 38.0138 63.0641 38.0138C63.4309 38.0138 63.4309 38.0173 63.4275 38.4026C63.4206 39.2913 63.4138 40.1835 63.4103 41.0722C63.4103 41.1139 63.4206 41.1555 63.4309 41.225C63.7531 41.0965 63.9108 40.7841 64.1817 40.614C64.3702 40.4925 64.521 40.312 64.6753 40.1419C65.3335 39.4302 66.0911 38.8227 66.7631 38.1215C66.8453 38.0347 66.9482 37.9861 67.0442 37.9479C67.3733 37.8229 67.5995 37.9861 67.6064 38.3471C67.6132 38.6213 67.5995 38.8921 67.5995 39.1664C67.5995 40.9611 67.6064 42.7559 67.6098 44.5507C67.6098 45.0575 67.5927 45.0714 67.0784 45.0783C66.6431 45.0853 66.2008 45.0471 65.7243 45.1061Z" fill="white"/>
<path id="Vector_10" d="M96.9168 13.3833C96.7008 13.3347 96.6151 13.4874 96.5089 13.5951C95.5387 14.5636 94.572 15.5356 93.6018 16.5076C93.451 16.6604 93.2967 16.8027 93.0636 16.8166C92.8648 16.827 92.7276 16.7715 92.7379 16.5354C92.7413 16.4347 92.7379 16.3341 92.7379 16.2334C92.7379 14.2234 92.7379 12.2134 92.7379 10.2069C92.7379 10.134 92.7413 10.0645 92.7379 9.99164C92.7276 9.83195 92.7893 9.74863 92.9573 9.7521C93.427 9.7521 93.8966 9.7521 94.3663 9.74863C94.6131 9.74863 94.6337 9.90485 94.6302 10.0923C94.6234 10.9116 94.62 11.7274 94.62 12.5467C94.62 12.6716 94.5754 12.8001 94.6474 12.9285C94.6885 12.9216 94.7434 12.932 94.7674 12.9112C95.1822 12.4599 95.6861 12.1093 96.1009 11.658C96.6426 11.0747 97.2836 10.5957 97.8253 10.009C97.9864 9.83542 98.1921 9.71392 98.4595 9.73474C98.672 9.7521 98.768 9.85972 98.7989 10.0472C98.8126 10.1305 98.8092 10.2173 98.8092 10.3041C98.8092 12.3141 98.816 14.3241 98.816 16.3306C98.816 16.8097 98.816 16.8097 98.3429 16.8097C97.9864 16.8097 97.6299 16.8097 97.2768 16.8097C96.9511 16.8027 96.9202 16.7854 96.9408 16.4695C96.9648 16.039 96.9408 15.6051 96.9305 15.1781C96.9168 14.581 96.9957 13.9804 96.9237 13.3868L96.9168 13.3833Z" fill="white"/>
<path id="Vector_11" d="M86.9341 13.0535C87.3352 12.5779 87.7912 12.2898 88.158 11.8975C88.8196 11.1928 89.5635 10.5818 90.2697 9.92919C90.4548 9.75909 90.7017 9.85629 90.9005 9.75562C90.9211 9.74521 91.1062 9.83546 91.1096 9.9778C91.1096 10.0646 91.113 10.1514 91.1096 10.2347C91.0513 12.2586 91.0993 14.2825 91.1096 16.3029C91.1096 16.3897 91.1096 16.4764 91.1096 16.5598C91.1096 16.709 91.0513 16.8062 90.8833 16.8062C90.3863 16.8062 89.8858 16.8028 89.3887 16.8062C89.2138 16.8062 89.2276 16.6847 89.2276 16.5702C89.2378 15.5947 89.2516 14.6192 89.2618 13.6437C89.2618 13.55 89.327 13.4215 89.2138 13.3729C89.1076 13.3278 89.0322 13.4111 88.943 13.4979C87.8494 14.4977 86.8416 15.5808 85.7994 16.6292C85.7343 16.6951 85.6623 16.716 85.5834 16.7472C85.1926 16.9034 85.0624 16.8305 85.0555 16.4105C85.0452 15.7058 85.0486 15.0045 85.0486 14.2998C85.0486 13.2063 85.0658 12.1128 85.0384 11.0227C85.0315 10.6756 85.0555 10.3319 85.0452 9.98474C85.0384 9.80769 85.1035 9.72785 85.292 9.73479C85.7343 9.74868 86.1731 9.76256 86.6153 9.7452C86.8587 9.73826 86.9376 9.81463 86.9341 10.0576C86.9238 10.8908 86.9307 11.724 86.9307 12.5536C86.9307 12.689 86.9307 12.8279 86.9307 13.0466L86.9341 13.0535Z" fill="white"/>
<path id="Vector_12" d="M91.9188 27.1341C92.0319 27.1619 92.0731 27.0681 92.1313 27.0126C93.0467 26.1343 93.9894 25.2838 94.8601 24.3604C95.1104 24.0965 95.3881 23.9195 95.7789 23.9438C95.9606 23.9577 96.0429 24.0097 96.0566 24.1833C96.0634 24.284 96.0669 24.3847 96.0669 24.4853C96.0703 26.4537 96.0737 28.4185 96.0771 30.3869C96.0771 30.5014 96.0874 30.6195 96.06 30.7271C96.0189 30.8902 95.9263 30.9736 95.724 30.9597C95.3401 30.9319 94.9561 30.9493 94.5722 30.9458C94.2568 30.9458 94.0237 30.7306 94.1334 30.4563C94.2636 30.1335 94.1505 29.8314 94.1848 29.5225C94.2431 28.9532 94.2088 28.3769 94.2088 27.8006C94.2088 27.7312 94.2259 27.6375 94.1574 27.6062C94.082 27.5715 93.9894 27.575 93.9243 27.6513C93.8866 27.693 93.8454 27.7347 93.8043 27.7728C92.8067 28.6893 91.8434 29.644 90.8972 30.616C90.7772 30.741 90.6538 30.8555 90.4927 30.918C90.167 31.0465 90.0025 30.9388 90.0025 30.5848C89.999 28.4602 90.0025 26.3356 89.9956 24.2111C89.9956 23.9715 90.0607 23.8743 90.3076 23.8813C90.7498 23.8952 91.192 23.8952 91.6308 23.8813C91.8434 23.8743 91.8982 23.9507 91.8948 24.1486C91.8845 25.0373 91.8811 25.9295 91.8811 26.8182C91.8811 26.9258 91.8228 27.0438 91.9222 27.1376L91.9188 27.1341Z" fill="white"/>
<path id="Vector_13" d="M62.1589 27.1327C62.296 27.15 62.3371 27.0598 62.392 27.0042C62.9165 26.4453 63.5061 25.9558 64.0341 25.3969C64.4866 24.9144 65.0008 24.4805 65.467 24.0049C65.6556 23.8139 65.8956 23.8556 66.1047 23.9042C66.3172 23.9528 66.3206 24.175 66.3206 24.3694C66.3206 26.4384 66.3309 28.5039 66.3309 30.5729C66.3309 30.9236 66.2932 30.9548 65.9298 30.9548C65.5596 30.9548 65.1894 30.9548 64.8191 30.9513C64.5106 30.9513 64.2912 30.7361 64.3803 30.4514C64.4969 30.08 64.4454 29.7155 64.442 29.351C64.442 29.0004 64.466 28.6497 64.4077 28.2922C64.3735 28.0769 64.4386 27.7992 64.4523 27.5423C64.2432 27.459 64.1506 27.6083 64.0478 27.709C63.3587 28.3963 62.6662 29.0767 61.9909 29.7745C61.6515 30.1251 61.271 30.4202 60.9247 30.7569C60.8562 30.8229 60.7671 30.8784 60.6779 30.9166C60.4174 31.0312 60.27 30.9409 60.2597 30.6563C60.246 30.2987 60.2494 29.9377 60.2494 29.5801C60.2494 27.827 60.2494 26.0773 60.2494 24.3242C60.2494 23.8972 60.2494 23.8938 60.6574 23.8868C61.0139 23.8799 61.3704 23.8868 61.7235 23.8868C62.1246 23.8868 62.1417 23.9007 62.1417 24.2895C62.1417 25.1505 62.1315 26.0114 62.1246 26.8723C62.1246 26.9591 62.104 27.0459 62.1555 27.1362L62.1589 27.1327Z" fill="white"/>
<path id="Vector_14" d="M127.973 13.3194C127.973 14.3539 127.973 15.385 127.973 16.4195C127.973 16.784 127.969 16.7944 127.63 16.8013C127.218 16.8083 126.804 16.8013 126.392 16.8083C126.2 16.8152 126.149 16.7354 126.156 16.5549C126.169 16.0515 126.166 15.5516 126.173 15.0482C126.176 14.7011 126.18 14.7011 125.854 14.6594C125.813 14.6525 125.768 14.6525 125.731 14.6386C125.432 14.5345 125.251 14.6733 125.096 14.9163C124.822 15.3572 124.586 15.8259 124.373 16.298C124.205 16.6694 123.965 16.8465 123.547 16.8118C123.166 16.777 122.779 16.8083 122.395 16.7944C122.107 16.784 122.052 16.6729 122.179 16.4056C122.488 15.7564 122.896 15.1732 123.297 14.5865C123.43 14.3887 123.454 14.2845 123.269 14.1283C122.892 13.8124 122.625 13.3923 122.536 12.9272C122.426 12.3752 122.381 11.785 122.601 11.2469C122.81 10.7366 123.125 10.2992 123.66 10.0458C124.075 9.84793 124.49 9.73684 124.942 9.74031C125.741 9.74378 126.536 9.74726 127.335 9.75073C127.448 9.75073 127.565 9.74379 127.674 9.76114C127.99 9.80974 128.017 9.84793 128 10.1812C127.942 11.2296 127.98 12.278 127.976 13.3229L127.973 13.3194ZM126.238 11.4448C125.734 11.4379 125.282 11.4066 124.829 11.4518C124.534 11.4795 124.359 11.6288 124.287 11.9065C124.233 12.1183 124.219 12.3509 124.308 12.5383C124.418 12.7605 124.514 13.0591 124.812 13.0834C125.22 13.1181 125.635 13.0834 126.046 13.0938C126.197 13.0938 126.241 13.0417 126.241 12.8959C126.235 12.4273 126.241 11.9551 126.241 11.4413L126.238 11.4448Z" fill="white"/>
<path id="Vector_15" d="M71.919 30.9905C71.8539 30.8204 71.8779 30.6468 71.8779 30.4767C71.8779 28.9701 71.8779 27.4635 71.8779 25.9568C71.8779 25.5854 71.8779 25.5889 71.5248 25.5854C71.2402 25.5819 70.9557 25.575 70.6712 25.5611C70.5135 25.5541 70.4346 25.6132 70.4243 25.7763C70.3798 26.4012 70.3524 27.0295 70.2701 27.6475C70.1775 28.3591 70.2187 29.0881 70.0198 29.7894C69.7867 30.6225 69.2622 30.9905 68.3126 30.9975C68.0418 30.9975 67.7744 30.9454 67.5036 30.9419C67.3425 30.9419 67.1882 30.8829 67.2465 30.626C67.3047 30.3691 67.2602 30.0983 67.339 29.831C67.4282 29.5117 67.3939 29.5012 67.7401 29.4908C68.0521 29.4839 68.1069 29.4179 68.2063 29.1194C68.3469 28.7063 68.3298 28.2793 68.3846 27.8592C68.4772 27.1614 68.5286 26.4602 68.5972 25.7624C68.6486 25.266 68.82 24.7731 68.7308 24.2627C68.6966 24.0614 68.8577 23.9017 69.0634 23.8844C69.1217 23.8809 69.1765 23.8844 69.2348 23.8844C70.6163 23.8844 71.9944 23.8809 73.376 23.8844C73.7394 23.8844 73.7668 23.9121 73.7668 24.2732C73.7668 26.3526 73.7668 28.4355 73.7634 30.5149C73.7634 30.9037 73.7188 30.9419 73.3108 30.9454C72.9852 30.9489 72.6561 30.9454 72.3304 30.9454C72.1933 30.9454 72.0527 30.928 71.9224 30.9975L71.919 30.9905Z" fill="white"/>
<path id="Vector_16" d="M82.7384 41.5924C82.7384 42.613 82.7384 43.6301 82.7384 44.6507C82.7384 45.0604 82.7109 45.0847 82.303 45.0847C81.9465 45.0847 81.5899 45.0847 81.2368 45.0847C80.8597 45.0847 80.8563 45.0743 80.8597 44.6959C80.8632 43.217 80.8666 41.7382 80.87 40.2593C80.87 39.7177 80.87 39.7177 80.3284 39.7143C80.157 39.7143 79.9856 39.7073 79.8176 39.7073C79.4542 39.7073 79.2794 39.8462 79.3514 40.1968C79.4199 40.5335 79.3445 40.8529 79.3034 41.1619C79.2656 41.4604 79.2417 41.7555 79.2485 42.0506C79.2622 42.7241 79.1491 43.3802 78.9777 44.0259C78.8371 44.5501 78.2921 45.1055 77.6578 45.0986C77.3013 45.0986 76.9482 45.0847 76.5917 45.0743C76.4237 45.0708 76.3209 45.0152 76.3243 44.8243C76.3277 44.4945 76.3277 44.1647 76.3243 43.8349C76.3243 43.6579 76.4134 43.6336 76.5677 43.6301C77.0751 43.6267 77.1985 43.5051 77.2705 43.0053C77.3527 42.4186 77.3596 41.8215 77.4487 41.2383C77.5516 40.5856 77.5481 39.9191 77.6853 39.2699C77.747 38.9679 77.6818 38.6555 77.771 38.343C77.8395 38.1035 77.9287 38.0098 78.1721 38.0098C79.5536 38.0132 80.9352 38.0098 82.3167 38.0098C82.7178 38.0098 82.7521 38.0549 82.7521 38.4437C82.7521 39.4921 82.7521 40.5405 82.7521 41.5889C82.7521 41.5889 82.7486 41.5889 82.7452 41.5889L82.7384 41.5924Z" fill="white"/>
<path id="Vector_17" d="M114.37 16.8987C113.701 16.8987 113.047 16.8918 112.395 16.9022C112.231 16.9022 112.203 16.7841 112.165 16.6974C111.833 15.9197 111.336 15.2289 111.003 14.4513C110.952 14.3333 110.938 14.1458 110.75 14.1423C110.523 14.1389 110.29 14.125 110.071 14.1701C109.951 14.1944 109.985 14.3645 109.985 14.4756C109.989 14.9061 109.999 15.3365 110.006 15.767C110.009 16.0204 109.982 16.2704 109.941 16.5238C109.899 16.7564 109.807 16.805 109.605 16.8015C109.262 16.7946 108.922 16.8015 108.58 16.798C108.439 16.798 108.295 16.7737 108.161 16.8536C108.093 16.7043 108.117 16.5446 108.117 16.3884C108.117 14.3367 108.117 12.2816 108.117 10.23C108.117 10.1293 108.117 10.0286 108.117 9.92793C108.117 9.80296 108.182 9.74394 108.302 9.74394C108.799 9.74394 109.3 9.73005 109.797 9.74394C110.016 9.74741 110.009 9.9314 110.009 10.0946C110.009 10.7541 110.002 11.4137 110.002 12.0768C110.002 12.1775 110.002 12.2781 110.009 12.3788C110.023 12.5454 110.129 12.5975 110.277 12.5697C110.328 12.5593 110.376 12.4968 110.424 12.4968C111.065 12.5038 111.243 12.0594 111.37 11.5422C111.463 11.1673 111.569 10.7923 111.747 10.4452C111.915 10.1223 112.141 9.90016 112.519 9.79601C112.933 9.68145 113.341 9.63632 113.766 9.64327C113.917 9.64327 114.003 9.7127 114.03 9.86197C114.089 10.1848 114.12 10.5111 114.106 10.8375C114.099 11.0284 114.017 11.136 113.814 11.1187C113.465 11.0874 113.334 11.2888 113.228 11.5943C113.023 12.1913 112.834 12.8058 112.464 13.3265C112.381 13.4411 112.433 13.4897 112.488 13.5799C113.029 14.4339 113.561 15.2983 114.109 16.1489C114.253 16.371 114.288 16.614 114.363 16.8883L114.37 16.8987Z" fill="white"/>
<path id="Vector_18" d="M82.8787 12.4203C82.7073 12.4203 82.5359 12.4203 82.3679 12.4203C82.1279 12.4203 81.9394 12.4377 81.8331 12.0975C81.7474 11.8267 81.4286 11.6497 81.1337 11.5247C80.527 11.2643 79.7316 11.5038 79.2757 11.9725C78.9192 12.3405 78.7752 12.7814 78.7615 13.2188C78.7478 13.6458 78.8677 14.1005 79.1523 14.4789C79.7796 15.3121 80.6127 15.3156 81.4389 14.9545C81.6034 14.8816 81.7748 14.7219 81.8159 14.4685C81.8605 14.1873 82.0868 14.0554 82.3747 14.0589C82.7175 14.0589 83.0569 14.0485 83.3997 14.0658C83.7563 14.0832 83.8831 14.2533 83.7666 14.59C83.6431 14.9441 83.5403 15.3503 83.3175 15.6141C82.9609 16.0342 82.5393 16.4299 81.9942 16.6382C81.2949 16.9055 80.551 17.027 79.8413 16.8777C78.8917 16.6833 78.0176 16.2772 77.4862 15.3503C77.0028 14.5102 76.8966 13.6284 77.0063 12.6807C77.0954 11.91 77.3799 11.24 77.9113 10.7019C78.4735 10.1326 79.1831 9.841 79.975 9.72644C80.8321 9.60494 81.6274 9.78893 82.3644 10.1881C82.9575 10.511 83.3758 11.0421 83.6706 11.6566C83.6843 11.6809 83.6877 11.7121 83.6946 11.7399C83.7997 12.1912 83.618 12.4169 83.1495 12.4169C83.0638 12.4169 82.9781 12.4169 82.8924 12.4169L82.8787 12.4203Z" fill="white"/>
<path id="Vector_19" d="M105.909 12.4215C105.837 12.4215 105.765 12.4145 105.697 12.4215C105.302 12.477 105.004 12.4041 104.846 11.9633C104.723 11.623 104.346 11.5293 104.051 11.4668C102.964 11.2412 102.015 11.755 101.891 13.0394C101.854 13.4421 101.905 13.824 102.076 14.2024C102.478 15.0911 103.413 15.3792 104.277 15.0321C104.582 14.9106 104.85 14.7474 104.929 14.3864C104.984 14.1434 105.148 14.0462 105.395 14.0531C105.823 14.067 106.249 14.0635 106.677 14.0739C106.855 14.0774 106.958 14.0948 106.876 14.3516C106.687 14.9487 106.478 15.5146 106.019 15.9728C105.487 16.504 104.836 16.7921 104.13 16.8789C103.173 17.0004 102.248 16.8511 101.442 16.2436C100.688 15.6778 100.212 14.9522 100.085 14.001C99.9887 13.272 99.9922 12.5638 100.26 11.8661C100.695 10.7239 101.518 10.0886 102.687 9.80398C103.674 9.56445 104.586 9.71372 105.439 10.1893C106.163 10.592 106.646 11.2308 106.845 12.0605C106.9 12.2896 106.807 12.4007 106.554 12.4111C106.341 12.418 106.125 12.4111 105.913 12.4111L105.909 12.4215Z" fill="white"/>
<path id="Vector_20" d="M75.1241 12.4216C75.0247 12.4216 74.9219 12.4112 74.8259 12.4216C74.4796 12.4632 74.1985 12.4285 74.0854 12.0119C73.9963 11.6891 73.698 11.5919 73.4135 11.5051C72.5016 11.2309 71.5074 11.519 71.1955 12.5604C71.0138 13.161 71.0103 13.7998 71.3223 14.3691C71.7234 15.1016 72.7141 15.3758 73.5095 15.0356C73.8077 14.9072 74.0374 14.7267 74.1402 14.4107C74.2328 14.1191 74.4248 14.0289 74.7196 14.0497C75.1035 14.0775 75.4875 14.0671 75.8714 14.0636C76.0429 14.0636 76.1114 14.1434 76.0737 14.3031C75.8749 15.1502 75.5081 15.8896 74.7504 16.3756C74.2328 16.7089 73.6671 16.8755 73.0569 16.9033C72.4022 16.9311 71.768 16.872 71.168 16.5665C70.7635 16.3617 70.407 16.1153 70.0916 15.782C69.6665 15.3342 69.3991 14.8134 69.3066 14.2129C69.1386 13.1228 69.1557 12.0536 69.8345 11.1093C70.3384 10.4081 71.0172 9.98458 71.8639 9.82142C72.3062 9.73464 72.7381 9.62355 73.2009 9.72769C73.746 9.85267 74.2842 9.96723 74.7642 10.2797C75.3607 10.6685 75.748 11.2031 75.964 11.8731C76.0017 11.9911 75.9777 12.13 75.9846 12.2584C75.9949 12.3938 75.9194 12.425 75.8029 12.425C75.5766 12.4216 75.3469 12.425 75.1207 12.425L75.1241 12.4216Z" fill="white"/>
<path id="Vector_21" d="M54.7818 13.2707C54.7818 12.2084 54.7818 11.1462 54.7818 10.0874C54.7818 9.76104 54.7886 9.7541 55.104 9.75063C56.0845 9.74368 57.0683 9.70897 58.0488 9.75063C59.0978 9.79575 60.0954 10.3234 60.3662 11.7329C60.517 12.5278 60.4279 13.2534 59.9857 13.9234C59.6189 14.4788 59.0601 14.7635 58.4293 14.9197C57.9425 15.0412 57.4489 15.003 56.9552 15.003C56.7392 15.003 56.6604 15.062 56.6707 15.2946C56.6912 15.6661 56.6809 16.041 56.6707 16.4124C56.6638 16.7075 56.5575 16.7978 56.2421 16.8012C55.8582 16.8012 55.4742 16.7804 55.0903 16.8012C54.84 16.8151 54.7749 16.7353 54.7749 16.4923C54.7852 15.489 54.7783 14.4858 54.7783 13.479C54.7783 13.4061 54.7783 13.3367 54.7783 13.2638L54.7818 13.2707ZM57.4111 13.2846C57.6237 13.2846 57.8362 13.2846 58.0488 13.2846C58.2545 13.2846 58.419 13.1805 58.491 13.0034C58.5939 12.7431 58.6898 12.4653 58.6247 12.1807C58.5356 11.7849 58.3265 11.4898 57.9014 11.4135C57.5791 11.3579 57.25 11.4065 56.9243 11.3857C56.7152 11.3718 56.6535 11.4655 56.6535 11.6634C56.6604 12.1217 56.6604 12.5799 56.6535 13.0381C56.6535 13.2152 56.7015 13.3089 56.8969 13.2916C57.0649 13.2777 57.2363 13.2916 57.4077 13.2916L57.4111 13.2846Z" fill="white"/>
<path id="Vector_22" d="M54.7814 41.5472C54.7814 40.4849 54.7814 39.4227 54.7814 38.3604C54.7814 38.0341 54.7883 38.0271 55.1037 38.0236C56.0875 38.0167 57.0714 37.9785 58.0519 38.0236C59.6768 38.1035 60.4893 39.2664 60.4241 40.7314C60.407 41.1688 60.335 41.6271 60.0985 42.0263C59.7042 42.6928 59.1077 43.0504 58.3707 43.2031C57.9353 43.2934 57.4931 43.2726 57.0509 43.283C56.6806 43.2899 56.6806 43.2899 56.6772 43.6475C56.6772 43.9495 56.6772 44.2515 56.6738 44.5535C56.6703 45.0222 56.6155 45.0812 56.1664 45.0812C55.8236 45.0812 55.4842 45.0673 55.1414 45.0812C54.8226 45.0916 54.778 45.1402 54.7814 44.6959C54.7849 43.8766 54.7814 43.0573 54.7814 42.2415C54.7814 42.0124 54.7814 41.7833 54.7814 41.5507V41.5472ZM56.6566 40.6099C56.6566 40.839 56.6635 41.0681 56.6566 41.2973C56.6498 41.4639 56.6875 41.5437 56.8829 41.5715C57.1503 41.6097 57.4142 41.6305 57.6816 41.6375C58.4084 41.6548 58.8438 40.964 58.5558 40.2732C58.429 39.9642 58.2336 39.749 57.9045 39.69C57.5411 39.624 57.1708 39.6657 56.804 39.6657C56.6669 39.6657 56.66 39.7802 56.66 39.8809C56.66 40.1239 56.66 40.3669 56.66 40.6099H56.6566Z" fill="white"/>
<path id="Vector_23" d="M98.2232 45.1503C98.2163 44.9733 98.2061 44.8448 98.2026 44.7164C98.2026 42.6196 98.2026 40.5228 98.2026 38.426C98.2026 38.0303 98.2026 38.0233 98.5866 38.0233C99.4848 38.0199 100.383 37.999 101.278 38.0233C102.176 38.0476 102.975 38.3427 103.427 39.1863C103.777 39.8424 103.928 40.5193 103.712 41.3039C103.489 42.1162 103.033 42.6578 102.323 43.0153C101.932 43.2132 101.487 43.2341 101.058 43.2653C100.818 43.2827 100.575 43.2757 100.332 43.2722C100.15 43.2722 100.085 43.3451 100.088 43.5326C100.102 43.9041 100.098 44.279 100.088 44.6539C100.081 44.9837 99.9853 45.0739 99.6493 45.0774C99.3202 45.0809 98.9945 45.0774 98.6654 45.0774C98.5249 45.0774 98.3809 45.0496 98.2164 45.1538L98.2232 45.1503ZM100.078 40.5957C100.078 40.8387 100.078 41.0817 100.078 41.3247C100.078 41.4601 100.126 41.5365 100.27 41.5504C100.523 41.5747 100.777 41.6233 101.031 41.6337C101.662 41.658 102.032 41.2865 101.96 40.6547C101.878 39.9292 101.552 39.5994 100.921 39.6515C100.739 39.6654 100.551 39.6688 100.369 39.6515C100.136 39.6306 100.071 39.7417 100.078 39.95C100.085 40.1652 100.078 40.3805 100.078 40.5957Z" fill="white"/>
<path id="Vector_24" d="M121.795 16.8088C121.185 16.8088 120.605 16.8019 120.022 16.8123C119.817 16.8158 119.724 16.6873 119.697 16.5381C119.601 16.0034 119.282 15.8958 118.792 15.9375C118.298 15.9791 117.798 15.9548 117.301 15.9271C117.026 15.9097 116.872 16.0139 116.779 16.2569C116.749 16.3367 116.707 16.4096 116.677 16.4895C116.601 16.6769 116.464 16.7915 116.265 16.7949C115.754 16.8019 115.24 16.8019 114.729 16.7984C114.527 16.7984 114.493 16.7116 114.582 16.5242C114.733 16.1978 114.822 15.8403 114.997 15.5278C115.432 14.7468 115.754 13.9136 116.142 13.1117C116.498 12.3757 116.855 11.6328 117.177 10.8795C117.325 10.5324 117.52 10.206 117.671 9.86236C117.739 9.70614 117.825 9.64018 117.99 9.64713C118.13 9.65407 118.278 9.63324 118.415 9.65407C118.562 9.67837 118.665 9.74086 118.74 9.9179C119.073 10.699 119.399 11.4905 119.779 12.2473C120.317 13.3269 120.794 14.4378 121.325 15.5209C121.514 15.9097 121.713 16.2985 121.795 16.8054V16.8088ZM118.236 14.3094C118.35 14.3094 118.463 14.3163 118.576 14.3094C118.795 14.2989 118.867 14.2191 118.792 14.0316C118.658 13.7053 118.507 13.3859 118.36 13.0666C118.332 13.0041 118.298 12.9277 118.212 12.9416C118.14 12.952 118.075 13.0041 118.058 13.0735C117.972 13.4311 117.822 13.7643 117.64 14.0837C117.571 14.2052 117.599 14.3059 117.767 14.3094C117.921 14.3094 118.079 14.3094 118.233 14.3094H118.236Z" fill="white"/>
<path id="Vector_25" d="M77.1263 30.9416C76.6704 30.9416 76.2144 30.9416 75.7585 30.9416C75.402 30.9416 75.2786 30.7784 75.3677 30.4139C75.402 30.2716 75.3917 30.1292 75.3917 29.9869C75.3883 28.0776 75.3814 26.1682 75.378 24.2589C75.378 23.9014 75.3883 23.884 75.7242 23.8771C76.0945 23.8701 76.4647 23.8736 76.8349 23.8771C77.1469 23.884 77.1812 23.9118 77.1846 24.2207C77.1915 24.7102 77.1949 25.1962 77.1812 25.6857C77.1743 25.8975 77.2463 25.953 77.4486 25.9495C78.0245 25.9426 78.5901 25.9461 79.1661 26.0919C80.0334 26.3106 80.5648 26.8209 80.8116 27.661C81.0995 28.6365 80.9179 29.5182 80.2151 30.2542C79.7386 30.7506 79.1044 30.8999 78.4496 30.9381C78.0108 30.9659 77.5686 30.9416 77.1263 30.9416ZM77.1675 28.4768C77.1675 28.692 77.1675 28.8934 77.1675 29.0912C77.1675 29.2301 77.2155 29.303 77.3629 29.303C77.6748 29.2995 77.9902 29.3308 78.2953 29.2926C78.5353 29.2648 78.8335 29.2544 78.9844 29.0461C79.1626 28.7962 79.2312 28.4733 79.0804 28.1713C78.9467 27.904 78.7821 27.6506 78.4187 27.6749C78.2782 27.6853 78.1342 27.6679 77.9936 27.6749C77.74 27.6888 77.428 27.5673 77.2497 27.7165C77.0406 27.8936 77.2223 28.2303 77.164 28.4733L77.1675 28.4768Z" fill="white"/>
<path id="Vector_26" d="M85.5561 45.1576V39.7386C85.0968 39.6796 84.6614 39.7073 84.2294 39.7073C83.8489 39.7073 83.8489 39.7073 83.8455 39.3394C83.8455 38.9957 83.8489 38.6485 83.8455 38.3048C83.842 38.1209 83.8695 38.0202 84.0957 38.0202C85.6487 38.0237 87.1982 38.0202 88.7512 38.0098C88.9843 38.0098 89.0871 38.0966 89.0803 38.3396C89.0665 38.6971 89.0665 39.0582 89.0803 39.4157C89.0871 39.6518 89.0014 39.7559 88.758 39.742C88.4186 39.7247 88.0758 39.7316 87.733 39.7212C87.3559 39.7108 87.3456 39.7108 87.3456 40.0857C87.3422 41.3077 87.3456 42.5262 87.3456 43.7482C87.3456 44.0363 87.3559 44.321 87.3559 44.6091C87.3559 45.0673 87.3559 45.0708 86.9205 45.0777C86.6223 45.0812 86.324 45.0777 86.0223 45.0777C85.8818 45.0777 85.7378 45.0534 85.563 45.1611L85.5561 45.1576Z" fill="white"/>
<path id="Vector_27" d="M56.6707 28.2443C56.6707 28.9907 56.6707 29.737 56.6707 30.4799C56.6707 30.893 56.6227 30.9347 56.201 30.9382C55.8033 30.9382 55.4057 30.9312 55.008 30.9382C54.8366 30.9416 54.7749 30.8792 54.7852 30.716C54.7852 30.6882 54.7852 30.657 54.7852 30.6292C54.7852 28.4769 54.7886 26.328 54.7783 24.1757C54.7783 23.9153 54.8846 23.8737 55.104 23.8771C56.3964 23.8841 57.6922 23.8841 58.9847 23.8841C59.1389 23.8841 59.1801 23.8945 59.2041 24.1097C59.2486 24.4951 59.2006 24.8769 59.2418 25.2553C59.2692 25.5087 59.1561 25.5817 58.9229 25.5817C58.299 25.5817 57.6717 25.5886 57.0478 25.599C56.6707 25.606 56.6707 25.6094 56.6707 26.0052C56.6707 26.7515 56.6707 27.4979 56.6707 28.2408V28.2443Z" fill="white"/>
<path id="Vector_28" d="M95.9674 9.47779C95.1618 9.45696 94.6716 9.13064 94.4042 8.3808C94.3528 8.235 94.3768 8.09961 94.3665 7.96075C94.3596 7.88438 94.4007 7.82189 94.4625 7.78023C94.7333 7.59277 95.2167 7.64831 95.4463 7.92603C95.5938 8.10655 95.7446 8.18987 95.9846 8.18987C96.2074 8.18987 96.3171 8.06489 96.4439 7.93645C96.7113 7.66567 97.2015 7.58235 97.5238 7.7594C97.6643 7.83577 97.6952 8.01629 97.6815 8.11697C97.6164 8.60645 97.4141 9.03691 96.9376 9.25562C96.6325 9.39448 96.3102 9.47779 95.9708 9.47085L95.9674 9.47779Z" fill="white"/>
<path id="Vector_29" d="M28.5219 17.5076C27.6408 17.5076 26.7495 17.5076 25.8548 17.5076C25.5428 17.5076 25.2274 17.5146 24.9154 17.5076C24.6789 17.5041 24.6412 17.4312 24.7612 17.223C25.1314 16.5946 25.5085 15.9663 25.889 15.3414C26.0707 15.0429 26.2559 14.7478 26.4513 14.4562C26.6672 14.1333 26.8455 14.1264 26.9929 14.4839C27.3631 15.3692 27.9219 16.1468 28.3436 17.0008C28.4156 17.1431 28.5938 17.2542 28.5184 17.5007L28.5219 17.5076Z" fill="#EC1D30"/>
<path id="Vector_30" d="M29.6738 35.8356C30.1538 34.9781 30.6337 34.1241 31.1102 33.2667C31.2028 33.1035 31.3296 33.0098 31.5216 33.0132C31.6484 33.0132 31.7787 33.0098 31.9055 33.0098C33.6573 33.0098 35.4057 33.0237 37.1575 33.0098C37.5277 33.0098 37.7574 33.1452 37.9322 33.4715C38.2613 34.0894 38.6247 34.69 38.9744 35.2975C38.9949 35.3357 39.0224 35.3704 39.0429 35.4086C39.3035 35.8772 39.2692 35.9397 38.731 35.9432C35.9268 35.9501 33.1225 35.9536 30.3183 35.9536C30.1023 35.9536 29.8589 36.0334 29.6738 35.8356Z" fill="#EC1D30"/>
</g>
</g>
</g>
<defs>
<clipPath id="clip0_207_6432">
<rect width="128" height="50" fill="white"/>
</clipPath>
</defs>
</svg>
