<svg width="92" height="51" viewBox="0 0 92 51" fill="none" xmlns="http://www.w3.org/2000/svg">
<g id="xw1DFX">
<g id="Group">
<path id="Vector" d="M54.0554 0.648438C54.0292 0.669099 53.9796 0.673231 53.981 0.711798C53.9838 0.771027 54.0416 0.773782 54.0843 0.780669C54.478 0.831633 54.8552 0.943203 55.2269 1.0837C55.9936 1.37433 56.7012 1.76276 57.3193 2.30822C57.8369 2.76414 58.3146 3.25863 58.6849 3.84265C59.1117 4.51621 59.4558 5.23108 59.6265 6.01621C59.6954 6.32888 59.789 6.63466 59.8055 6.95973C59.8509 7.8578 59.8261 8.75588 59.8372 9.65532C59.8385 9.77654 59.7876 9.80271 59.6843 9.80133C58.8818 9.7848 58.0792 9.8151 57.2766 9.76827C57.088 9.75725 57.0867 9.75588 57.0867 9.57268C57.0867 8.90739 57.0922 8.2421 57.0867 7.57543C57.0825 7.18287 57.0261 6.80271 56.9077 6.41841C56.8003 6.06992 56.6434 5.75863 56.4617 5.45422C56.2456 5.09334 55.9716 4.77654 55.6591 4.49279C55.4168 4.2724 55.1456 4.09885 54.8593 3.93632C54.3486 3.64568 53.7993 3.49692 53.228 3.40877C53.1261 3.39362 53.0215 3.39362 52.9196 3.39499C51.2567 3.4005 49.5937 3.35505 47.9308 3.38397C47.3168 3.39499 46.718 3.51758 46.1549 3.76689C45.6153 4.00519 45.1775 4.38673 44.7728 4.81235C44.1588 5.45698 43.8106 6.2242 43.6578 7.09196C43.6288 7.2545 43.6261 7.41703 43.6261 7.57957C43.6261 11.052 43.6288 14.5231 43.633 17.9955C43.633 18.6553 43.7844 19.282 44.0914 19.8661C44.4837 20.6099 45.0468 21.1884 45.7695 21.6292C46.2307 21.9101 46.7276 22.0713 47.2397 22.1994C47.4407 22.2504 47.6541 22.2352 47.8633 22.2352C49.6185 22.238 51.3737 22.2655 53.1275 22.2269C53.8117 22.2118 54.467 21.9776 55.0562 21.592C55.4347 21.344 55.772 21.052 56.0721 20.7214C56.3433 20.4225 56.5374 20.0658 56.7067 19.7008C56.8334 19.4294 56.9394 19.1512 57.0013 18.855C57.0578 18.5878 57.1101 18.3179 57.1114 18.0451C57.1156 17.2586 57.1087 16.4735 57.1073 15.687C57.1073 15.2118 57.1073 14.7366 57.1087 14.2614C57.1087 14.1044 57.0977 14.0865 56.949 14.0892C56.5126 14.0989 56.0762 14.0713 55.6426 14.0892C54.8992 14.1181 54.1558 14.092 53.4125 14.1154C53.3423 14.1181 53.3147 14.092 53.3037 14.0438C53.2886 13.9776 53.2872 13.9074 53.2872 13.8385C53.29 12.9322 53.2982 12.0258 53.2955 11.1181C53.2955 10.9928 53.3395 10.979 53.4414 10.9804C54.1352 10.9831 54.829 10.9831 55.5228 10.9831C57.3069 10.9831 59.091 10.979 60.8751 10.979C65.3891 10.979 69.903 10.9818 74.4155 10.9818C80.0652 10.9818 85.7148 10.9818 91.3631 10.9818C91.4085 10.9818 91.4553 10.9818 91.5008 10.9818V14.1154C91.4471 14.092 91.3934 14.0892 91.3342 14.092C90.8923 14.1085 90.4518 14.1195 90.0099 14.0989C89.7937 14.0878 89.7855 14.0961 89.7855 14.3082C89.7841 14.7159 89.7882 15.1236 89.7882 15.53C89.7882 17.2931 89.7855 19.0562 89.7827 20.8192C89.7827 20.9969 89.7745 21.0024 89.6024 21.0107C88.8576 21.0438 88.1115 21.0203 87.3668 21.03C87.0171 21.0341 87.024 21.0272 87.0254 20.6898C87.0281 19.1581 87.0267 17.625 87.0267 16.0933C87.0267 15.5369 87.0267 14.9804 87.0281 14.4239C87.0281 14.3661 87.024 14.3096 87.0226 14.2517C87.0199 14.1402 86.9689 14.0878 86.8505 14.092C86.4086 14.1071 85.9681 14.0823 85.5262 14.0989C85.2977 14.1071 85.0678 14.0989 84.8379 14.0906C84.7278 14.0865 84.6906 14.1195 84.6906 14.2366C84.6934 14.9198 84.6879 15.603 84.6851 16.2848C84.6851 16.4928 84.6851 16.4928 84.4786 16.4928C83.6761 16.4928 82.8721 16.4914 82.0695 16.4942C81.9594 16.4942 81.9181 16.4845 81.9195 16.3482C81.9319 15.6539 81.9264 14.9597 81.9291 14.2655C81.9291 14.165 81.9112 14.125 81.7915 14.1099C81.3799 14.0589 80.9682 14.1044 80.558 14.0975C80.3914 14.0947 80.2262 14.1044 80.0597 14.092C79.8766 14.0782 79.8711 14.0851 79.8697 14.2793C79.8697 14.9446 79.8697 15.6112 79.8697 16.2765C79.8697 16.4207 79.7986 16.4928 79.6563 16.4928C78.8593 16.4928 78.0622 16.4928 77.2651 16.4928C77.0655 16.4928 77.0669 16.4928 77.0669 16.2903C77.0697 15.6195 77.071 14.9473 77.0724 14.2765C77.0724 14.0947 77.071 14.0933 76.8962 14.092C76.2946 14.0851 75.6917 14.1223 75.0901 14.0892C74.9703 14.0823 74.9469 14.1347 74.9483 14.2407C74.951 15.125 74.9483 16.0079 74.9483 16.8922C74.9483 18.2118 74.9483 19.5327 74.951 20.8523C74.951 21.0135 74.9276 21.0355 74.7418 21.0341C74.2545 21.0314 73.7672 21.0286 73.2798 21.0272C72.988 21.0272 72.6948 21.03 72.4029 21.03C72.2019 21.03 72.1951 21.0245 72.1951 20.8316C72.1937 19.3399 72.1909 17.8468 72.1909 16.355C72.1909 15.6719 72.1937 14.9887 72.1937 14.3068C72.1937 14.0878 72.1909 14.0865 71.9775 14.0906C69.3675 14.1264 66.7588 14.114 64.1487 14.1057C62.5422 14.1002 60.9371 14.1085 59.3306 14.1071C59.1075 14.1071 58.8845 14.092 58.6615 14.0796C58.6078 14.0768 58.561 14.0768 58.506 14.1374C58.729 14.2077 58.8611 14.3812 59.0139 14.5286C59.4765 14.9776 59.7477 15.5258 59.7917 16.1677C59.8275 16.676 59.8316 17.1884 59.8303 17.698C59.8275 18.9033 59.6031 20.0617 59.0373 21.1374C58.7166 21.749 58.3174 22.3013 57.8397 22.8082C57.1486 23.541 56.3268 24.0672 55.4127 24.4556C54.8373 24.7008 54.2302 24.8482 53.6093 24.9349C53.3189 24.9749 53.027 24.9845 52.7352 24.9845C51.0887 24.9845 49.4423 24.9845 47.7972 24.9845C47.4765 24.9845 47.1599 24.9611 46.8432 24.9005C45.6525 24.6705 44.5608 24.2173 43.6082 23.4597C42.3211 22.4363 41.4717 21.1292 41.0959 19.5245C40.9706 18.9873 40.9031 18.4432 40.9031 17.8895C40.9059 14.3716 40.9004 10.8537 40.9031 7.33576C40.9031 6.80546 41.0422 6.29307 41.1798 5.78342C41.323 5.25588 41.5185 4.74899 41.7883 4.27378C42.2398 3.47902 42.829 2.79995 43.5339 2.21869C44.4369 1.47213 45.4694 1.00794 46.6189 0.798575C46.6973 0.784801 46.7785 0.783424 46.8584 0.784801C46.9506 0.787556 46.9988 0.750366 46.9974 0.656702H54.0526L54.0554 0.648438Z" fill="#D7A116"/>
<path id="Vector_2" d="M13.4268 0.737794C13.5383 0.819062 13.6705 0.773607 13.7916 0.797023C14.5075 0.938896 15.1848 1.18132 15.8153 1.54771C16.198 1.77085 16.56 2.02292 16.9097 2.29565C17.2442 2.55598 17.5209 2.86589 17.7962 3.1827C18.1624 3.60281 18.4501 4.0725 18.6965 4.56837C18.8521 4.8838 19.0021 5.20336 19.0985 5.54633C19.2403 6.05047 19.3601 6.55598 19.4096 7.08077C19.4468 7.47058 19.4358 7.85763 19.4358 8.24606C19.4385 13.8012 19.4371 19.3563 19.4358 24.91C19.4358 25.1359 19.4358 25.1345 19.2073 25.1331C18.4267 25.1331 17.6475 25.1304 16.867 25.1331C16.7527 25.1331 16.7073 25.1097 16.7073 24.9816C16.7128 22.4857 16.7128 19.9899 16.7128 17.4926C16.7128 14.2337 16.7225 10.9733 16.7073 7.71438C16.7004 6.22677 16.0562 5.05322 14.8558 4.17581C14.3492 3.80666 13.782 3.58352 13.179 3.45267C12.9271 3.39757 12.6656 3.36452 12.4012 3.36452C10.7383 3.3714 9.07396 3.34799 7.41238 3.37554C6.56026 3.39069 5.76457 3.64964 5.06662 4.16892C4.17045 4.83559 3.57575 5.69647 3.32383 6.79151C3.25637 7.08766 3.22609 7.38242 3.22609 7.68408C3.22609 13.2846 3.22471 18.8852 3.22333 24.4844C3.22333 24.6331 3.22196 24.7832 3.22333 24.932C3.22333 25.0987 3.19718 25.1276 3.02372 25.1304C2.85715 25.1331 2.69058 25.1304 2.52539 25.1304C1.94583 25.1317 1.36765 25.1345 0.788094 25.1359C0.724769 25.1359 0.662821 25.1304 0.599497 25.129C0.525159 25.129 0.50038 25.0904 0.503134 25.0202C0.505887 24.9003 0.50451 24.7791 0.50451 24.6593C0.50451 19.0009 0.50451 13.3425 0.50451 7.68545C0.50451 6.90997 0.618769 6.15377 0.88308 5.42374C1.31809 4.22402 1.96648 3.16479 2.95351 2.33559C3.87723 1.56011 4.91933 1.02016 6.11148 0.795646C6.24088 0.770852 6.37028 0.746059 6.50381 0.750191H6.84109C6.83283 0.693717 6.73922 0.715756 6.7695 0.645508H13.0331C13.0097 0.726775 13.0551 0.744681 13.1226 0.743304C13.2245 0.740549 13.3263 0.737794 13.4268 0.736417V0.737794Z" fill="white"/>
<path id="Vector_3" d="M16.604 50.5505C16.6067 50.5836 16.6109 50.6153 16.6136 50.6483H15.9941C16.0052 50.6249 16.0175 50.6029 16.0286 50.5794C16.2172 50.5188 16.4113 50.5505 16.604 50.5505Z" fill="#A0712A"/>
<path id="Vector_4" d="M18.7793 50.6483C18.7821 50.6263 18.7848 50.6056 18.7889 50.5836C18.9734 50.512 19.1648 50.5547 19.3533 50.5492C19.3575 50.5822 19.3616 50.6153 19.3657 50.647H18.7807L18.7793 50.6483Z" fill="#A0712A"/>
<path id="Vector_5" d="M13.4272 0.737882C13.3253 0.740637 13.2234 0.743391 13.1229 0.744769C13.0569 0.746146 13.0101 0.72824 13.0335 0.646973C13.1711 0.64835 13.3088 0.64835 13.4464 0.64835C13.4396 0.678653 13.4341 0.708956 13.4272 0.737882Z" fill="#A0712A"/>
<path id="Vector_6" d="M6.76909 0.648438C6.7388 0.718685 6.83241 0.696647 6.84067 0.753121H6.5034C6.58737 0.675986 6.45109 0.692515 6.45935 0.648438H6.59701C6.59701 0.677363 6.61766 0.682873 6.64106 0.681495C6.65896 0.680118 6.66859 0.667721 6.66584 0.648438H6.76909Z" fill="#A0712A"/>
<path id="Vector_7" d="M6.66551 0.648438C6.66826 0.667721 6.65863 0.678741 6.64073 0.681495C6.61733 0.68425 6.59806 0.678741 6.59668 0.648438H6.66551Z" fill="white"/>
<path id="Vector_8" d="M46.9319 0.648438C46.9264 0.656702 46.9209 0.664966 46.9167 0.673231C46.9098 0.664966 46.9043 0.656702 46.8975 0.648438C46.9085 0.648438 46.9209 0.648438 46.9319 0.648438Z" fill="#A0712A"/>
<path id="Vector_9" d="M20.707 16.1031C20.707 13.194 20.7001 10.2835 20.7125 7.37446C20.7152 6.84415 20.8543 6.32625 20.9919 5.81385C21.3141 4.61964 21.9583 3.60724 22.8256 2.75462C23.7603 1.83727 24.8685 1.19402 26.1694 0.925421C26.5934 0.837266 27.0188 0.77666 27.4552 0.778038C29.3246 0.78217 31.1941 0.762886 33.0635 0.78217C34.0024 0.791812 34.8848 1.06867 35.7273 1.47914C36.388 1.80145 36.9717 2.23672 37.4976 2.74223C38.2011 3.41853 38.7448 4.20917 39.0986 5.1279C39.3079 5.6706 39.4772 6.22019 39.546 6.79732C39.6025 7.27666 39.685 7.75049 39.6795 8.23947C39.6644 9.93782 39.6727 11.6362 39.6727 13.3359C39.6727 13.7505 39.6259 14.1596 39.5735 14.57C39.4304 15.6844 38.9871 16.672 38.3442 17.5714C37.3641 18.9433 36.0411 19.8304 34.4181 20.2794C34.0134 20.391 33.6031 20.4461 33.1888 20.4846C32.3133 20.5659 31.4377 20.5039 30.5622 20.5177C29.8739 20.5287 29.1856 20.5177 28.4973 20.5205C28.3101 20.5205 28.1228 20.5232 27.9342 20.5466C27.6933 20.5756 27.451 20.5122 27.2101 20.4915C26.9444 20.4695 26.6843 20.4172 26.4227 20.3745C26.1433 20.3276 25.8721 20.234 25.5981 20.1541C24.8905 19.9475 24.2711 19.57 23.6557 19.1802C23.6268 19.1623 23.6006 19.1375 23.5717 19.121C23.4561 19.0563 23.4244 19.0728 23.4244 19.2064C23.4244 19.6775 23.4286 20.1472 23.4286 20.6183C23.4299 22.0411 23.4299 23.464 23.4354 24.8882C23.4354 24.9984 23.412 25.0356 23.2964 25.0342C22.4814 25.0287 21.6679 25.0287 20.8529 25.0342C20.7331 25.0342 20.7084 24.9902 20.7097 24.8841C20.7125 24.5632 20.7056 24.2408 20.7056 23.9199C20.7056 21.3152 20.7056 18.7092 20.7056 16.1045L20.707 16.1031ZM36.9153 10.7725H36.9125C36.9125 9.79732 36.9139 8.82074 36.9125 7.84553C36.9125 7.5728 36.8823 7.30145 36.8355 7.03286C36.6455 5.95848 36.1045 5.08796 35.2565 4.41578C34.4897 3.80834 33.6059 3.48327 32.623 3.47776C30.9366 3.46812 29.2503 3.47501 27.5639 3.47225C27.4029 3.47225 27.2404 3.48603 27.0849 3.51357C26.2782 3.65269 25.5651 3.99429 24.9442 4.5301C23.9448 5.39374 23.4437 6.49154 23.4341 7.80559C23.4203 9.58382 23.4299 11.3634 23.4286 13.1431C23.4286 13.2932 23.4354 13.4419 23.4588 13.5893C23.4795 13.7202 23.412 13.8442 23.4836 13.9874C23.5332 14.0866 23.5332 14.2285 23.5607 14.3483C23.8553 15.6403 24.5918 16.6072 25.7344 17.2601C26.3718 17.6238 27.0697 17.7973 27.8048 17.7987C29.4623 17.8001 31.1197 17.7987 32.7772 17.7959C33.0098 17.7959 33.2397 17.7629 33.4627 17.705C34.4525 17.4475 35.3102 16.9709 35.9627 16.1637C36.5794 15.4006 36.9167 14.5342 36.9153 13.5439C36.9153 12.6196 36.9153 11.6954 36.9153 10.7725Z" fill="white"/>
<path id="Vector_10" d="M14.0555 33.4665C13.8283 33.5478 13.6122 33.6608 13.3768 33.6305C13.1386 33.6002 12.9018 33.5285 12.7284 33.3453C12.4875 33.0905 12.3567 32.7806 12.2714 32.4404C12.1888 32.1084 12.1874 31.771 12.2163 31.4418C12.2521 31.0395 12.3443 30.6401 12.6609 30.3426C12.9156 30.1029 13.2171 30.0216 13.5571 30.0712C13.7333 30.096 13.8971 30.1511 14.0692 30.2957C14.0692 30.1401 14.0692 30.0244 14.0692 29.9073C14.0692 29.5395 14.0692 29.1732 14.0637 28.8054C14.0637 28.7227 14.0761 28.6828 14.1711 28.6759C14.306 28.6649 14.4409 28.6291 14.5731 28.5988C14.708 28.5671 14.719 28.6222 14.7176 28.7241C14.7149 28.9418 14.7176 29.1608 14.7162 29.3784C14.7135 29.6635 14.7355 29.95 14.6859 30.2379C14.7548 30.2517 14.8016 30.2145 14.8484 30.1897C15.1774 30.0079 15.5298 30.0051 15.8561 30.1456C16.0681 30.2379 16.2429 30.428 16.3434 30.6553C16.5403 31.1015 16.6146 31.5616 16.5485 32.0506C16.5237 32.2351 16.5251 32.4238 16.4714 32.6043C16.3943 32.8632 16.2787 33.107 16.0873 33.2985C15.8093 33.5781 15.4747 33.6979 15.0797 33.585C15.0081 33.5643 14.9392 33.5313 14.8663 33.5216C14.7713 33.5079 14.708 33.5299 14.7107 33.6594C14.7217 34.0092 14.7135 34.3591 14.719 34.709C14.7204 34.8288 14.6901 34.8922 14.5538 34.8784C14.4395 34.8674 14.3239 34.8701 14.2096 34.877C14.0968 34.8839 14.0596 34.8426 14.061 34.7283C14.0692 34.3495 14.0678 33.9707 14.072 33.5919C14.072 33.5519 14.0844 33.512 14.0527 33.4652L14.0555 33.4665ZM14.719 31.8384H14.7217C14.7217 32.1484 14.7217 32.4583 14.7217 32.7682C14.7217 32.8619 14.7328 32.9583 14.825 33.0092C15.2407 33.2365 15.7074 33.1249 15.8162 32.6484C15.94 32.1057 15.9359 31.5561 15.8162 31.012C15.7487 30.7035 15.5284 30.5575 15.2118 30.5671C15.1058 30.5699 15.0108 30.6098 14.9131 30.6429C14.774 30.6883 14.7149 30.782 14.7176 30.928C14.7217 31.2324 14.7176 31.5354 14.7176 31.8398L14.719 31.8384ZM14.0678 31.855C14.0678 31.7007 14.0678 31.5451 14.0678 31.3908C14.0678 31.231 14.0665 31.0699 14.072 30.9101C14.0761 30.815 14.0499 30.7407 13.9674 30.6911C13.6163 30.4748 13.0753 30.4858 12.9652 31.0575C12.8674 31.5657 12.8468 32.0767 12.9665 32.5864C13.0753 33.0506 13.4401 33.2324 13.882 33.0547C14.0087 33.0037 14.072 32.9252 14.0706 32.7833C14.0651 32.4734 14.0692 32.1649 14.0692 31.855H14.0678Z" fill="white"/>
<path id="Vector_11" d="M0.505455 47.2669C0.526104 47.0314 0.472416 46.7504 0.53574 46.4708C0.654129 45.9446 0.911557 45.5121 1.36171 45.2049C1.47597 45.1264 1.60262 45.0713 1.73615 45.0327C2.35563 44.8551 2.94895 44.8964 3.50098 45.2504C3.6703 45.3592 3.79833 45.5135 3.91534 45.676C4.18103 46.0424 4.2884 46.457 4.3297 46.9019C4.35035 47.1181 4.37238 47.333 4.35861 47.5493C4.32282 48.1057 4.20718 48.6402 3.84376 49.0837C3.52576 49.4708 3.11139 49.6608 2.6048 49.6911C2.3336 49.7077 2.07342 49.7077 1.81462 49.6319C1.23093 49.4611 0.867505 49.0575 0.644493 48.5093C0.541247 48.2573 0.483429 47.9983 0.502701 47.7228C0.512338 47.5865 0.504078 47.4473 0.504078 47.2655L0.505455 47.2669ZM1.22956 47.2311C1.22956 47.4143 1.22267 47.5975 1.23093 47.7807C1.2447 48.0975 1.32454 48.4005 1.48285 48.6774C1.70449 49.0658 2.22072 49.2889 2.63095 49.1967C3.10451 49.0892 3.37983 48.7889 3.50511 48.333C3.57531 48.0782 3.58908 47.8165 3.6056 47.5562C3.61799 47.3523 3.59321 47.1471 3.58082 46.9432C3.56568 46.7063 3.53539 46.4749 3.46381 46.2517C3.20363 45.4405 2.58002 45.3606 1.94264 45.5438C1.62465 45.6347 1.44156 45.906 1.33143 46.2201C1.21717 46.5493 1.21441 46.8909 1.23093 47.2325L1.22956 47.2311Z" fill="white"/>
<path id="Vector_12" d="M5.71966 46.7324C5.77472 46.7324 5.79124 46.6842 5.82153 46.6525C6.07483 46.3963 6.39007 46.2517 6.74249 46.2503C7.26423 46.2503 7.67997 46.4693 7.94152 46.9459C8.17004 47.3633 8.20859 47.8096 8.16178 48.2696C8.14526 48.4363 8.10672 48.6016 8.05165 48.7627C7.88233 49.2696 7.52991 49.5603 7.02607 49.6994C6.40797 49.8702 5.72104 49.5892 5.42919 49.1498C5.23509 48.8564 5.14148 48.5327 5.12358 48.1856C5.10844 47.8908 5.0699 47.5933 5.0933 47.3013C5.11257 47.0451 5.10706 46.7861 5.1814 46.53C5.24748 46.2999 5.29979 46.0671 5.41543 45.8564C5.63293 45.4583 5.98122 45.2118 6.38732 45.0382C6.82096 44.8523 7.26698 44.6925 7.68822 44.4749C7.76532 44.4349 7.81625 44.4377 7.8548 44.5189C7.90848 44.6319 7.96217 44.7462 8.01999 44.8578C8.06679 44.9473 8.02963 44.9928 7.94703 45.0272C7.59461 45.1746 7.24358 45.3233 6.89254 45.4735C6.67228 45.5685 6.45064 45.6594 6.23865 45.7682C5.89036 45.9487 5.75408 46.2696 5.69901 46.636C5.69488 46.6663 5.67974 46.7049 5.71966 46.7297V46.7324ZM7.42254 48.0616C7.44181 47.7214 7.41015 47.3936 7.25046 47.0892C7.17337 46.9404 7.06186 46.8261 6.89529 46.7889C6.42174 46.6828 6.0941 46.8578 5.94405 47.3123C5.84218 47.6209 5.8821 47.9363 5.87384 48.2503C5.86833 48.4597 5.91927 48.6594 5.99361 48.8523C6.09135 49.103 6.33501 49.282 6.60483 49.2682C6.98753 49.249 7.22568 49.136 7.35921 48.7228C7.42942 48.5065 7.43355 48.2834 7.42254 48.063V48.0616Z" fill="white"/>
<path id="Vector_13" d="M0.650391 28.906C0.701326 28.8743 0.753637 28.8867 0.804572 28.8867C1.71589 28.8867 2.62722 28.8867 3.53991 28.8867C3.73539 28.8867 3.70235 28.8825 3.70235 29.0561C3.70373 30.4845 3.70511 31.9128 3.70511 33.3412C3.70511 33.5409 3.70373 33.5409 3.50688 33.5368C3.38023 33.5341 3.25495 33.5285 3.1283 33.5327C3.01818 33.5368 2.97688 33.501 2.98238 33.3853C2.99202 33.1621 2.98514 32.9376 2.98514 32.7145C2.98514 31.6759 2.98238 30.6374 2.98927 29.6002C2.98927 29.4624 2.9521 29.4307 2.81994 29.4335C2.37254 29.4418 1.92514 29.4418 1.47912 29.4335C1.35797 29.4321 1.32906 29.4652 1.32906 29.585C1.33319 30.8302 1.33182 32.074 1.33182 33.3192C1.33182 33.5712 1.29052 33.6002 1.0386 33.5451C0.961507 33.5285 0.878909 33.5272 0.800442 33.5354C0.676547 33.5478 0.635248 33.4969 0.649014 33.3784C0.682053 33.0699 0.672417 32.7599 0.672417 32.45C0.672417 31.366 0.669663 30.282 0.66691 29.198C0.66691 29.1002 0.65865 29.0037 0.653144 28.9087L0.650391 28.906Z" fill="white"/>
<path id="Vector_14" d="M5.47248 33.3025C5.46285 33.425 5.5124 33.538 5.52204 33.6565C5.54544 33.9912 5.50827 34.3273 5.54131 34.6633C5.5482 34.7391 5.51378 34.8107 5.41466 34.8273C5.24947 34.8562 5.08428 34.8961 4.92046 34.9319C4.86677 34.943 4.84612 34.9209 4.84612 34.87C4.84612 34.841 4.84612 34.8121 4.84612 34.7846C4.84612 33.4127 4.84612 32.0421 4.84612 30.6702C4.84612 30.5256 4.83648 30.3837 4.79243 30.246C4.76628 30.1661 4.78968 30.1385 4.8709 30.1165C5.04298 30.0711 5.22056 30.0683 5.39402 30.0394C5.44908 30.0297 5.46009 30.0669 5.46009 30.1138C5.46009 30.2157 5.46009 30.319 5.46009 30.4223C5.52204 30.4223 5.55646 30.3892 5.59638 30.3562C5.79323 30.1992 6.01074 30.0848 6.2723 30.0931C6.38243 30.0958 6.49256 30.0793 6.60269 30.0793C6.83258 30.0766 7.00879 30.184 7.1905 30.2804C7.28274 30.33 7.35157 30.4374 7.41352 30.5297C7.59523 30.8038 7.71637 31.0945 7.7384 31.4333C7.76593 31.8493 7.76042 32.2584 7.62414 32.6509C7.41351 33.257 6.99502 33.6082 6.33012 33.5945C6.1016 33.589 5.85794 33.5449 5.66383 33.3823C5.6129 33.3396 5.54957 33.3066 5.47111 33.3025H5.47248ZM6.2778 30.6399C6.0011 30.6096 5.79323 30.7625 5.60601 30.9595C5.55646 31.0118 5.5303 31.0724 5.5303 31.1454C5.5303 31.6096 5.5303 32.0724 5.5303 32.5366C5.5303 32.6413 5.57435 32.7226 5.65833 32.7846C5.74092 32.8465 5.8249 32.9058 5.91851 32.9485C6.36315 33.1523 6.8023 32.9636 6.9372 32.4953C7.07487 32.016 7.03632 31.5339 6.89453 31.0642C6.80092 30.7556 6.6137 30.6413 6.2778 30.6399Z" fill="white"/>
<path id="Vector_15" d="M21.6422 40.7972C21.6422 40.1774 21.6408 39.5589 21.6422 38.9391C21.6422 38.7339 21.6188 38.53 21.5844 38.3289C21.5692 38.238 21.5926 38.198 21.6766 38.1843C21.817 38.1609 21.9574 38.1333 22.0992 38.1154C22.2259 38.0989 22.2465 38.1292 22.2562 38.271C22.2603 38.3344 22.2149 38.4212 22.292 38.4556C22.3608 38.4859 22.3897 38.3936 22.4406 38.362C22.727 38.187 23.0202 38.1002 23.374 38.1305C24.0719 38.1898 24.4574 38.8564 24.529 39.4556C24.5813 39.895 24.5538 40.3275 24.4092 40.7394C24.2702 41.1347 24.0169 41.4501 23.5887 41.5906C23.2184 41.7132 22.8743 41.6526 22.5329 41.4956C22.4585 41.4611 22.3759 41.3854 22.2989 41.4253C22.2039 41.4749 22.2961 41.5713 22.2933 41.6471C22.281 41.9969 22.2851 42.3468 22.2906 42.6967C22.292 42.8193 22.2562 42.8909 22.124 42.9088C22.0001 42.9239 21.8762 42.9515 21.7551 42.9818C21.656 43.008 21.6381 42.9694 21.6394 42.8799C21.6422 42.1856 21.6408 41.4914 21.6408 40.7986L21.6422 40.7972ZM22.3181 39.8647H22.3236C22.3236 40.0947 22.3236 40.3234 22.3236 40.5534C22.3236 40.6416 22.3374 40.7256 22.4007 40.7931C22.6251 41.0341 22.9046 41.1361 23.2253 41.0699C23.513 41.0107 23.67 40.7972 23.7374 40.5245C23.8186 40.1953 23.8393 39.8606 23.7897 39.5231C23.7622 39.3358 23.7223 39.1512 23.619 38.9873C23.5282 38.8413 23.407 38.727 23.2308 38.7008C22.9225 38.6553 22.6568 38.7531 22.4227 38.9556C22.3539 39.0162 22.3154 39.0823 22.3167 39.1774C22.3209 39.4074 22.3181 39.6361 22.3181 39.8661V39.8647Z" fill="white"/>
<path id="Vector_16" d="M19.3542 50.5504C19.1656 50.5546 18.9743 50.5132 18.7898 50.5849C18.7444 50.5256 18.7513 50.454 18.7513 50.3865C18.7485 50.1854 18.7471 49.9843 18.7471 49.7846C18.7471 49.6951 18.7196 49.6482 18.6191 49.6496C17.9831 49.6537 17.3457 49.6537 16.7097 49.6496C16.6175 49.6496 16.6106 49.6868 16.6106 49.7612C16.6106 50.0243 16.6065 50.2887 16.6037 50.5518C16.411 50.5518 16.2183 50.5201 16.0283 50.5807C15.9829 50.4829 15.9994 50.3769 15.9994 50.2749C15.9953 49.9361 15.9953 49.5986 15.9953 49.2598C15.9953 49.2088 15.9664 49.1289 16.0627 49.1372C16.2403 49.1537 16.3229 49.0725 16.4014 48.9113C16.5707 48.5642 16.7166 48.2143 16.7896 47.8328C16.8804 47.3576 16.8887 46.8783 16.8846 46.3975C16.8846 46.2681 16.9176 46.2378 17.0456 46.2391C17.6307 46.246 18.2158 46.2474 18.7994 46.2391C18.9357 46.2364 18.955 46.2805 18.955 46.4017C18.9495 47.2557 18.955 48.111 18.9495 48.9664C18.9495 49.0904 18.9646 49.1482 19.1106 49.14C19.3639 49.1262 19.3666 49.1372 19.3639 49.3989C19.3597 49.7832 19.3776 50.1675 19.3542 50.5504ZM16.9341 49.1345C17.3595 49.1345 17.7931 49.1345 18.2254 49.1345C18.3025 49.1345 18.3011 49.0821 18.3011 49.0284C18.3011 48.8452 18.3011 48.662 18.3011 48.4774C18.3011 47.9554 18.2984 47.4347 18.3025 46.9127C18.3025 46.7997 18.2667 46.7598 18.1552 46.7626C17.9487 46.7667 17.7436 46.7626 17.5371 46.7598C17.4903 46.7598 17.4338 46.7598 17.4407 46.8245C17.4545 46.9526 17.387 47.0697 17.4036 47.1964C17.4256 47.3576 17.3802 47.5132 17.3623 47.6703C17.3113 48.1496 17.153 48.6014 16.941 49.0339C16.9286 49.0601 16.9135 49.0849 16.9341 49.1331V49.1345Z" fill="white"/>
<path id="Vector_17" d="M0.672379 39.4625C0.672379 38.7848 0.673756 38.1608 0.672379 37.5355C0.672379 37.3812 0.65586 37.2269 0.646223 37.074C0.63934 36.9762 0.682016 36.9459 0.778379 36.9473C1.27121 36.9514 1.76404 36.9514 2.25687 36.9473C2.6492 36.9446 3.00162 37.0575 3.29897 37.3137C3.53299 37.5148 3.66102 37.7944 3.69819 38.0878C3.74362 38.4432 3.72434 38.8041 3.49582 39.1181C3.19434 39.5341 2.79375 39.7572 2.27752 39.7641C2.00219 39.7683 1.72687 39.7696 1.45292 39.7627C1.35518 39.76 1.32903 39.7917 1.3304 39.8867C1.33453 40.3908 1.33316 40.8964 1.33178 41.4005C1.33178 41.5727 1.31801 41.5851 1.15007 41.5878C1.0303 41.5878 0.909158 41.5851 0.789392 41.5919C0.688899 41.5975 0.644847 41.5699 0.65173 41.457C0.697158 40.7751 0.657236 40.0933 0.672379 39.4625ZM1.33178 38.3509C1.33178 38.5864 1.34142 38.822 1.32765 39.0561C1.31939 39.1994 1.37308 39.2283 1.49973 39.2187C1.63601 39.209 1.77505 39.2187 1.91134 39.2159C2.06552 39.2118 2.22108 39.2324 2.37388 39.2021C2.91351 39.0975 3.04705 38.4335 2.91351 38.0906C2.76484 37.7104 2.46749 37.5286 2.0724 37.5024C1.85489 37.4873 1.63601 37.4983 1.41851 37.49C1.33316 37.4873 1.32903 37.53 1.3304 37.5947C1.33178 37.8468 1.3304 38.0988 1.3304 38.3509H1.33178Z" fill="white"/>
<path id="Vector_18" d="M35.6185 48.764C35.6777 48.7558 35.6846 48.7089 35.7011 48.6773C35.9984 48.0616 36.3605 47.4844 36.7184 46.9059C36.8203 46.7406 36.9125 46.5684 37.0158 46.4045C37.0612 46.3315 37.1052 46.2902 37.1934 46.2737C37.3517 46.2461 37.51 46.2241 37.6683 46.2076C37.7495 46.1993 37.777 46.2282 37.777 46.3136C37.7743 47.3742 37.7729 48.4362 37.7757 49.4968C37.7757 49.6194 37.7302 49.6649 37.6118 49.6483C37.5664 49.6428 37.5196 49.6483 37.4742 49.6456C37.3627 49.6387 37.2195 49.6979 37.1465 49.6222C37.0805 49.5547 37.1273 49.4142 37.1273 49.3067C37.1259 48.6924 37.13 48.0795 37.1231 47.4651C37.1231 47.366 37.203 47.2888 37.1755 47.1745C37.0791 47.2089 37.0529 47.2943 37.0158 47.3646C36.6234 48.1098 36.1636 48.815 35.7479 49.5464C35.6488 49.7213 35.4919 49.6952 35.3446 49.6773C35.2606 49.6676 35.178 49.6442 35.0926 49.6497C34.9729 49.658 34.9522 49.6029 34.9536 49.4941C34.9591 48.72 34.9715 47.9445 34.9495 47.1704C34.9426 46.9224 34.9674 46.6759 34.9591 46.4293C34.9563 46.3301 34.9632 46.2489 35.116 46.2682C35.222 46.2819 35.3377 46.2296 35.4478 46.2062C35.6323 46.1676 35.6392 46.1717 35.6405 46.3673C35.6419 46.7627 35.6433 47.1593 35.6433 47.5547C35.6433 47.8067 35.6474 48.0602 35.6378 48.3122C35.6323 48.4624 35.591 48.6098 35.6185 48.7627V48.764Z" fill="white"/>
<path id="Vector_19" d="M20.0647 49.6207C20.062 49.4375 20.0565 49.2543 20.0565 49.0712C20.0565 48.2048 20.0592 47.3384 20.0537 46.4734C20.0537 46.3384 20.0895 46.2681 20.2258 46.2612C20.2712 46.2585 20.3153 46.2447 20.3607 46.242C20.4708 46.2364 20.6057 46.1428 20.6842 46.2268C20.7544 46.3026 20.7049 46.4458 20.7049 46.5588C20.7076 47.1786 20.7049 47.797 20.7117 48.4169C20.7117 48.4802 20.6223 48.5753 20.7283 48.6097C20.8205 48.6386 20.7971 48.5174 20.8287 48.4734C21.0063 48.2116 21.1536 47.9293 21.3285 47.6634C21.5267 47.3604 21.7029 47.0436 21.8901 46.7337C21.9493 46.6359 22.0071 46.5353 22.0594 46.4362C22.1586 46.2461 22.3017 46.2048 22.4931 46.2406C22.555 46.2516 22.6115 46.2158 22.6693 46.1951C22.8028 46.1469 22.8703 46.1924 22.8703 46.3315C22.8717 47.3067 22.8703 48.2819 22.8716 49.2571C22.8716 49.3645 22.8235 49.4665 22.8386 49.578C22.8482 49.6538 22.7863 49.651 22.734 49.651C22.5963 49.651 22.4587 49.6442 22.321 49.651C22.2136 49.6566 22.1806 49.6125 22.1833 49.5105C22.1902 49.3273 22.1888 49.1442 22.1888 48.9596C22.1888 48.6042 22.1888 48.2488 22.1888 47.8935C22.1888 47.6993 22.1888 47.505 22.2508 47.315C22.2659 47.2681 22.2577 47.2144 22.2632 47.1386C22.1159 47.2723 22.0539 47.4334 21.9713 47.5794C21.5928 48.2406 21.1867 48.8838 20.7902 49.534C20.7406 49.6152 20.6732 49.6497 20.581 49.6469C20.4144 49.6428 20.2492 49.6414 20.0826 49.64L20.0785 49.6262L20.0633 49.6235L20.0647 49.6207Z" fill="white"/>
<path id="Vector_20" d="M4.38597 40.8067C4.408 40.7227 4.40662 40.6386 4.38597 40.5546C4.43278 40.534 4.4314 40.5147 4.38597 40.4954C4.408 40.4513 4.39836 40.4059 4.39836 40.3604C4.39836 39.753 4.39561 39.1455 4.39974 38.5381C4.39974 38.4362 4.32127 38.3273 4.408 38.2323C4.49197 38.14 4.60898 38.2213 4.7081 38.1868C4.77693 38.1634 4.86091 38.1744 4.92285 38.1428C5.05776 38.0739 5.04813 38.1565 5.04813 38.2433C5.04813 38.9775 5.04813 39.7103 5.04813 40.4444C5.04813 40.5188 5.04813 40.5932 5.04813 40.6662C5.1142 40.6813 5.12246 40.629 5.13761 40.5987C5.43495 39.9651 5.83968 39.3935 6.18797 38.7902C6.27607 38.6359 6.36968 38.4857 6.46191 38.3342C6.4977 38.275 6.54038 38.2199 6.61472 38.2048C6.78817 38.1717 6.96438 38.1497 7.14196 38.1428C7.21905 38.14 7.21905 38.1896 7.21905 38.2447C7.21768 38.4568 7.2163 38.6689 7.21768 38.8811C7.21768 39.4885 7.22043 40.0959 7.22181 40.702C7.16812 40.7778 7.17225 40.8535 7.21768 40.9306C7.21492 41.1083 7.21217 41.286 7.21217 41.4637C7.21217 41.5532 7.18464 41.6001 7.08001 41.5918C6.94924 41.5822 6.8157 41.5835 6.68492 41.5918C6.58306 41.5987 6.56378 41.5574 6.56516 41.4651C6.56929 40.8232 6.56654 40.18 6.56654 39.5381C6.56654 39.4072 6.56654 39.275 6.56654 39.14C6.49495 39.151 6.49082 39.213 6.4688 39.253C6.04342 40.0119 5.5795 40.7475 5.14311 41.4995C5.1087 41.5601 5.0674 41.5918 4.99306 41.5891C4.83888 41.5835 4.68332 41.5835 4.52914 41.5849C4.44241 41.5849 4.40662 41.5505 4.408 41.4609C4.408 41.3411 4.39698 41.2213 4.3901 41.1014C4.45205 41.0023 4.45205 40.9031 4.38872 40.8039L4.38597 40.8067Z" fill="white"/>
<path id="Vector_21" d="M27.351 30.1896C27.5107 30.1056 27.691 30.1276 27.859 30.0835C27.9512 30.0601 27.9608 30.1235 27.9636 30.1923C27.9705 30.3783 27.9498 30.5656 27.976 30.7516C27.9182 30.7943 27.9195 30.8356 27.9774 30.8769C27.9498 31.2888 27.9719 31.702 27.9636 32.1138C27.9608 32.2461 27.954 32.3769 27.9484 32.5092C27.9484 32.5408 27.9237 32.5822 27.9691 32.5973C28.0228 32.6152 28.0352 32.5656 28.0517 32.5312C28.1219 32.3907 28.1962 32.253 28.2692 32.1138C28.422 31.8218 28.6189 31.556 28.773 31.2653C28.9561 30.9224 29.2108 30.6207 29.3498 30.2543C29.3705 30.1992 29.6389 30.0656 29.7036 30.1014C29.7986 30.1552 29.8716 30.0945 29.9487 30.0822C30.1331 30.056 30.1318 30.0463 30.1318 30.2406C30.1318 30.6772 30.1318 31.1125 30.1331 31.5491C30.1345 32.1579 30.1331 32.7653 30.1428 33.3742C30.1442 33.5036 30.107 33.5491 29.9776 33.5367C29.8578 33.5257 29.7367 33.5257 29.6169 33.5339C29.5109 33.5408 29.4792 33.505 29.4806 33.399C29.4861 32.7736 29.4861 32.1483 29.4875 31.5229C29.4875 31.3921 29.4875 31.2626 29.4586 31.1207C29.3636 31.2695 29.2631 31.4141 29.175 31.567C28.8226 32.1813 28.4248 32.7695 28.093 33.3962C28.0421 33.4926 27.976 33.5408 27.8603 33.5326C27.7296 33.5229 27.596 33.5271 27.4653 33.5326C27.3524 33.5381 27.3193 33.4954 27.3193 33.3811C27.3235 32.9802 27.3427 32.5794 27.3359 32.1772C27.3262 31.5243 27.3372 30.87 27.34 30.2171C27.3538 30.2116 27.3565 30.202 27.351 30.1882V30.1896Z" fill="white"/>
<path id="Vector_22" d="M41.1364 31.8578C41.1364 32.0878 41.1446 32.3165 41.1336 32.5465C41.1267 32.7063 41.1708 32.8536 41.2066 33.0038C41.2148 33.041 41.2396 33.0768 41.2603 33.1098C41.2988 33.1718 41.4406 33.1925 41.3814 33.2875C41.2988 33.4198 41.2162 33.563 41.0703 33.6415C41.0221 33.6677 40.9712 33.6333 40.9285 33.6002C40.839 33.5286 40.7537 33.4528 40.7014 33.3468C40.6546 33.2503 40.6133 33.2269 40.5114 33.3109C40.2443 33.53 39.9263 33.6567 39.5808 33.6333C39.1141 33.6016 38.7094 33.4432 38.5263 32.9542C38.4933 32.866 38.5153 32.7765 38.5043 32.687C38.4313 32.0933 38.8581 31.7187 39.3027 31.563C39.6304 31.4487 39.9704 31.4266 40.3145 31.4349C40.5031 31.439 40.5031 31.4349 40.5018 31.2503C40.5018 31.1484 40.4949 31.0479 40.4728 30.9459C40.4233 30.7104 40.3228 30.6291 40.0778 30.6043C39.7033 30.5671 39.3688 30.6691 39.0536 30.8633C38.8911 30.9638 38.8608 30.9501 38.7824 30.7806C38.7507 30.7131 38.7108 30.6512 38.6695 30.5892C38.6185 30.512 38.6447 30.4638 38.719 30.4239C39.2711 30.1195 39.8561 29.9845 40.4839 30.0947C40.7055 30.1333 40.8927 30.26 41.0249 30.4294C41.102 30.5272 41.1322 30.6746 41.1543 30.8109C41.2107 31.1608 41.1488 31.5093 41.1378 31.8592L41.1364 31.8578ZM40.5004 32.2145C40.5004 32.1567 40.4976 32.1002 40.5004 32.0424C40.5086 31.9198 40.4646 31.8647 40.3324 31.8729C40.1631 31.8839 39.9924 31.8784 39.8245 31.9143C39.6524 31.9501 39.501 32.0244 39.3839 32.1581C39.205 32.3633 39.1678 32.6277 39.2972 32.8771C39.406 33.0864 39.5946 33.1457 39.8176 33.1278C40.0998 33.1043 40.3132 32.9735 40.4522 32.7242C40.4632 32.7049 40.4618 32.6801 40.4632 32.6567C40.4756 32.5093 40.5059 32.3619 40.499 32.2118L40.5004 32.2145Z" fill="white"/>
<path id="Vector_23" d="M34.9897 39.8331C34.9718 40.2063 34.9594 40.5796 34.775 40.924C34.5602 41.3248 34.2312 41.5713 33.7921 41.6567C32.9055 41.8275 32.2103 41.3303 31.9969 40.4364C31.8827 39.9529 31.9295 39.4832 32.0851 39.0424C32.3108 38.4005 32.8381 38.0342 33.6406 38.1402C33.8857 38.1719 34.1101 38.2201 34.3083 38.3565C34.6772 38.6099 34.8617 38.9818 34.9539 39.4074C34.9842 39.5479 34.9952 39.6912 34.9897 39.8358V39.8331ZM34.2326 39.9667C34.2477 39.7036 34.2216 39.4474 34.1637 39.1967C34.0894 38.8716 33.7824 38.6237 33.4617 38.6168C33.1175 38.6099 32.856 38.7945 32.772 39.1416C32.6412 39.6774 32.6357 40.2146 32.8202 40.7421C32.9165 41.0149 33.145 41.1774 33.43 41.1857C33.7618 41.1953 33.9738 41.0672 34.1004 40.7862C34.2188 40.5245 34.2519 40.249 34.234 39.968L34.2326 39.9667Z" fill="white"/>
<path id="Vector_24" d="M54.2802 30.0604C55.0154 30.0191 55.5453 30.5397 55.7078 31.1871C55.8675 31.8262 55.8455 32.4406 55.4848 33.0136C55.2783 33.3442 54.9617 33.5067 54.5927 33.5976C54.1825 33.6995 53.7998 33.6141 53.4556 33.4103C53.2023 33.2601 53.0371 33.0026 52.9174 32.7257C52.7274 32.2877 52.7081 31.8359 52.7976 31.3745C52.8279 31.2161 52.8403 31.0494 52.9009 30.902C52.9559 30.7684 53.0578 30.6527 53.15 30.537C53.435 30.1802 53.8218 30.0577 54.2802 30.0618V30.0604ZM53.508 31.7147C53.4901 32.037 53.5135 32.3331 53.6098 32.6183C53.6897 32.8566 53.8218 33.0673 54.0861 33.1114C54.5074 33.1802 54.846 33.0962 54.9892 32.5508C55.0828 32.194 55.0828 31.829 55.0374 31.4654C55.0126 31.2588 54.9575 31.0618 54.8515 30.8827C54.7139 30.6499 54.5088 30.526 54.2417 30.5439C53.9746 30.5618 53.7668 30.6885 53.6484 30.9447C53.5314 31.1981 53.4763 31.4612 53.5093 31.7161L53.508 31.7147Z" fill="white"/>
<path id="Vector_25" d="M34.0624 31.7833C34.0583 32.1938 34.0129 32.5202 33.8587 32.8301C33.6425 33.264 33.2956 33.501 32.8303 33.6015C32.3898 33.6965 31.9906 33.5932 31.6354 33.3467C31.4441 33.2144 31.2927 33.0257 31.2045 32.793C31.0793 32.4638 30.9926 32.1235 31.0063 31.7764C31.0242 31.3095 31.133 30.8577 31.451 30.4858C31.652 30.2503 31.9176 30.1263 32.2136 30.0822C32.6665 30.0133 33.1015 30.0671 33.4773 30.3632C33.7596 30.585 33.9013 30.8935 33.9908 31.2296C34.0445 31.4335 34.0748 31.6428 34.0638 31.7833H34.0624ZM33.3053 31.8866C33.3273 31.6635 33.2943 31.4087 33.2309 31.1607C33.1786 30.9582 33.1181 30.7503 32.9116 30.6346C32.533 30.4238 31.9892 30.5781 31.8557 31.0464C31.7084 31.5574 31.7359 32.0657 31.8529 32.5726C31.9369 32.9348 32.1861 33.1235 32.5371 33.1318C32.8895 33.1401 33.1263 32.9624 33.2406 32.5974C33.3094 32.3784 33.3204 32.1511 33.3053 31.8866Z" fill="white"/>
<path id="Vector_26" d="M17.6942 39.8138C17.6887 39.5934 17.7176 39.3607 17.7589 39.132C17.7823 39.0012 17.8649 38.8758 17.9379 38.7753C18.1802 38.4461 18.461 38.1554 18.918 38.1417C19.086 38.1375 19.2484 38.1224 19.4205 38.1389C19.967 38.194 20.3318 38.4833 20.537 38.9695C20.8081 39.6127 20.782 40.2753 20.5177 40.9075C20.4048 41.1775 20.1694 41.4006 19.8803 41.5287C19.594 41.6568 19.287 41.745 18.9814 41.6857C18.4307 41.5797 18.0136 41.2766 17.8154 40.7243C17.7108 40.4337 17.6846 40.1334 17.6942 39.8138ZM19.9932 39.9888C19.9877 39.5259 19.9326 39.2312 19.8239 38.9956C19.7523 38.84 19.6477 38.7229 19.4838 38.6541C19.1369 38.5108 18.6221 38.6375 18.5037 39.1458C18.3977 39.6031 18.3977 40.0645 18.4885 40.5246C18.5119 40.643 18.5532 40.756 18.6138 40.8607C18.6909 40.9943 18.7983 41.0907 18.9456 41.1444C19.3379 41.2849 19.6834 41.1403 19.85 40.756C19.9657 40.4888 19.9946 40.205 19.9946 39.9888H19.9932Z" fill="white"/>
<path id="Vector_27" d="M8.48951 31.8231C8.45784 31.4085 8.5487 31.0201 8.77584 30.6785C8.94517 30.4237 9.16818 30.2033 9.48067 30.1248C9.65688 30.0807 9.84134 30.0352 10.0286 30.0848C10.0561 30.0917 10.085 30.0903 10.1139 30.089C10.7251 30.0669 11.1188 30.3892 11.3391 30.9195C11.6034 31.5545 11.6103 32.2019 11.3088 32.8328C11.0954 33.2777 10.732 33.5201 10.2461 33.6013C9.65413 33.7005 9.18745 33.4884 8.81301 33.0476C8.67948 32.8906 8.63956 32.6799 8.56384 32.4912C8.47574 32.2721 8.49501 32.0449 8.49088 31.8204L8.48951 31.8231ZM9.23563 31.7887C9.23563 32.0931 9.23839 32.3961 9.34989 32.6854C9.45452 32.9567 9.75186 33.1799 10.0258 33.1496C10.2943 33.1206 10.5241 33.0022 10.6467 32.7322C10.7389 32.5297 10.7733 32.3162 10.7788 32.0986C10.7885 31.7322 10.8022 31.3644 10.6632 31.0146C10.5944 30.8424 10.5049 30.6867 10.3204 30.6055C9.8854 30.414 9.40496 30.6606 9.28106 31.1385C9.226 31.352 9.23701 31.571 9.23563 31.7873V31.7887Z" fill="white"/>
<path id="Vector_28" d="M29.2726 46.1964C29.6842 46.2736 29.9911 46.4884 30.1921 46.8631C30.2995 47.0628 30.3298 47.2749 30.3422 47.4926C30.3518 47.6565 30.3931 47.819 30.3794 47.9857C30.3738 48.0573 30.3642 48.1028 30.2747 48.1028C30.0297 48.1028 29.7819 48.1331 29.5424 48.1207C29.1886 48.1028 28.8362 48.1317 28.4824 48.1028C28.2773 48.0862 28.2745 48.0972 28.28 48.3107C28.291 48.7515 28.4975 49.0862 28.8761 49.1716C29.2106 49.2474 29.563 49.2818 29.8452 48.9912C29.9402 48.8934 30.0614 48.9141 30.1453 49.0242C30.3436 49.2818 30.3422 49.297 30.0641 49.4554C29.5658 49.7391 29.0371 49.7984 28.4961 49.6124C28.0501 49.4581 27.7734 49.1303 27.6275 48.684C27.4651 48.1854 27.4747 47.6771 27.6082 47.1854C27.6894 46.8879 27.8959 46.6358 28.152 46.4375C28.3874 46.2557 28.6489 46.1744 28.9422 46.1771C29.022 46.1771 29.1019 46.173 29.1831 46.1716C29.2023 46.2198 29.2381 46.2116 29.2753 46.1978L29.2726 46.1964ZM28.9835 47.6193C29.1831 47.6193 29.3841 47.6193 29.5837 47.6193C29.6291 47.6193 29.6965 47.6413 29.6897 47.5532C29.6663 47.2887 29.636 47.0229 29.4185 46.8369C29.1184 46.5807 28.7715 46.6069 28.5306 46.8273C28.3502 46.9926 28.2869 47.2364 28.2621 47.4788C28.2525 47.5711 28.2883 47.6262 28.3998 47.622C28.5939 47.6138 28.788 47.6193 28.9821 47.6193H28.9835Z" fill="white"/>
<path id="Vector_29" d="M40.6058 48.107C40.3649 48.107 40.124 48.1139 39.8831 48.1042C39.7619 48.0987 39.6477 48.1387 39.5279 48.1331C39.4866 48.1318 39.4687 48.1469 39.4632 48.1896C39.404 48.6607 39.7289 49.2006 40.2713 49.2075C40.5563 49.2117 40.8151 49.1524 41.0573 49.0078C41.0711 48.9995 41.0918 49.0009 41.1041 48.9913C41.2514 48.8838 41.257 48.8811 41.3478 49.0436C41.3932 49.1263 41.5213 49.191 41.4841 49.2805C41.4524 49.3563 41.3382 49.4004 41.2556 49.4527C40.8977 49.6814 40.5012 49.7544 40.0868 49.702C39.3641 49.6111 38.947 49.2296 38.7722 48.5161C38.6579 48.0533 38.6758 47.5904 38.8162 47.1373C38.958 46.68 39.2856 46.3756 39.7234 46.2268C39.8803 46.1731 40.0841 46.1304 40.2727 46.1965C40.369 46.2309 40.4764 46.1896 40.5783 46.2172C41.0725 46.3508 41.3506 46.691 41.4896 47.1648C41.5213 47.275 41.5309 47.388 41.5281 47.5037C41.5254 47.6566 41.5199 47.8108 41.5598 47.961C41.5846 48.0519 41.5708 48.1028 41.4469 48.096C41.1661 48.0836 40.8853 48.0918 40.6044 48.0918C40.6044 48.096 40.6044 48.1001 40.6044 48.1042L40.6058 48.107ZM40.1873 47.618C40.3938 47.618 40.5989 47.618 40.8054 47.618C40.8522 47.618 40.9211 47.6373 40.9004 47.5464C40.866 47.3962 40.8385 47.2433 40.7889 47.0987C40.6815 46.7847 40.3732 46.6235 40.0579 46.6758C39.5733 46.7557 39.4591 47.2227 39.4632 47.5519C39.4632 47.6373 39.5238 47.618 39.5706 47.618C39.7771 47.618 39.9822 47.618 40.1887 47.618H40.1873Z" fill="white"/>
<path id="Vector_30" d="M20.1528 31.6332C20.1446 31.9803 20.1446 31.9789 19.7949 31.9803C19.2443 31.9831 18.6936 31.9913 18.1444 31.9941C18.0521 31.9941 18.0081 32.0106 18.0205 32.1194C18.0397 32.2999 18.0356 32.5079 18.1389 32.6415C18.2985 32.8467 18.4747 33.0616 18.7804 33.0933C19.13 33.1291 19.4439 33.0464 19.7302 32.8563C19.8252 32.793 19.861 32.8136 19.9119 32.899C20.0826 33.1842 20.0881 33.1897 19.7963 33.3508C19.3393 33.6043 18.8533 33.6855 18.3495 33.5258C17.8966 33.3825 17.5896 33.074 17.4271 32.6263C17.3198 32.3302 17.2496 32.0258 17.2702 31.709C17.2991 31.282 17.3762 30.8701 17.6722 30.534C18.0122 30.147 18.4458 30.0134 18.9469 30.0643C19.5458 30.1249 19.9133 30.4569 20.0647 31.0327C20.1047 31.1855 20.1322 31.3426 20.1363 31.5024C20.1226 31.5492 20.1033 31.596 20.1528 31.6332ZM18.7446 31.5037C18.8533 31.5037 18.9621 31.5037 19.0708 31.5037C19.3847 31.5037 19.4934 31.3513 19.3971 31.0464C19.3007 30.742 19.0213 30.5271 18.7377 30.5368C18.333 30.5519 17.9695 31.0079 18.0205 31.4266C18.0301 31.5065 18.0741 31.5024 18.1251 31.5024C18.3316 31.5024 18.5381 31.5024 18.7446 31.5024V31.5037Z" fill="white"/>
<path id="Vector_31" d="M14.6692 48.1083C14.3828 48.1083 14.0965 48.1083 13.8088 48.1083C13.6284 48.1083 13.6229 48.1262 13.6119 48.3053C13.5734 48.91 14.135 49.2736 14.5783 49.2351C14.8275 49.213 15.0615 49.1386 15.268 48.9885C15.396 48.8948 15.4222 48.9031 15.502 49.0395C15.5075 49.0491 15.5062 49.0629 15.5117 49.0725C15.5979 49.2259 15.5658 49.3503 15.4153 49.4458C15.0381 49.6855 14.6155 49.7612 14.1846 49.7117C13.5073 49.6331 13.0076 49.1097 12.9016 48.4224C12.8383 48.0119 12.8341 47.6001 12.9484 47.2006C13.031 46.9155 13.2044 46.6855 13.4275 46.4761C13.7868 46.1414 14.2149 46.1745 14.643 46.18C14.7407 46.18 14.8371 46.264 14.9349 46.3039C15.3465 46.4692 15.5474 46.7998 15.6493 47.2103C15.6796 47.3342 15.6934 47.4596 15.681 47.5836C15.6686 47.7117 15.7113 47.8315 15.7181 47.9555C15.725 48.0588 15.6865 48.1001 15.5805 48.0987C15.2763 48.0946 14.9734 48.0973 14.6692 48.0973C14.6692 48.1015 14.6692 48.1056 14.6692 48.1083ZM14.3057 47.618C14.5177 47.618 14.7297 47.618 14.9417 47.618C14.9844 47.618 15.0464 47.6276 15.034 47.5546C14.9927 47.3163 14.9872 47.0643 14.7999 46.8756C14.6155 46.6896 14.4076 46.6111 14.1474 46.6937C13.8349 46.7929 13.5665 47.1896 13.5803 47.5285C13.5844 47.6125 13.6229 47.6194 13.6863 47.6194C13.8928 47.6194 14.0992 47.6194 14.3044 47.6194L14.3057 47.618Z" fill="white"/>
<path id="Vector_32" d="M38.5789 39.899C38.5734 40.0133 38.5156 40.045 38.4014 40.0436C37.7998 40.0381 37.1968 40.0436 36.5952 40.0381C36.4741 40.0381 36.419 40.0588 36.4314 40.1965C36.4507 40.421 36.5002 40.6359 36.6351 40.8177C36.7824 41.0174 36.9931 41.1249 37.2409 41.1442C37.574 41.169 37.8948 41.1331 38.1604 40.9004C38.177 40.8866 38.2045 40.8659 38.2196 40.8714C38.3422 40.9169 38.3766 41.0436 38.4509 41.1345C38.5115 41.2075 38.4413 41.264 38.3876 41.3039C38.0985 41.5188 37.7667 41.6139 37.4157 41.6538C37.2505 41.6731 37.077 41.6717 36.9242 41.6442C36.7742 41.6166 36.6173 41.5409 36.4755 41.4582C36.0363 41.2048 35.8243 40.8039 35.75 40.3218C35.7018 40.0147 35.7183 39.702 35.75 39.3949C35.794 38.9637 36.1754 38.2874 36.7219 38.1745C37.0633 38.1042 37.4019 38.0794 37.7364 38.2172C38.1522 38.388 38.3931 38.7034 38.4977 39.1304C38.5555 39.3632 38.5542 39.6042 38.5789 39.8425C38.5321 39.8618 38.5321 39.8811 38.5789 39.9004V39.899ZM37.1775 39.5601V39.5629C37.3785 39.5629 37.5781 39.5629 37.7791 39.5629C37.8535 39.5629 37.9071 39.5491 37.8892 39.4582C37.8411 39.2089 37.7764 38.9679 37.5864 38.7805C37.3207 38.5188 36.7219 38.5588 36.5704 38.9954C36.5278 39.1207 36.4934 39.2475 36.4741 39.3769C36.4493 39.5395 36.4658 39.5574 36.6283 39.5588C36.8114 39.5601 36.9944 39.5588 37.1775 39.5588V39.5601Z" fill="white"/>
<path id="Vector_33" d="M56.5236 31.7558C56.5016 31.3688 56.5966 31.0162 56.8045 30.6897C57.0288 30.3385 57.3234 30.1236 57.7543 30.0864C58.0173 30.0644 58.2705 30.0726 58.5197 30.1456C58.7937 30.2269 58.9781 30.4253 59.1475 30.6484C59.2824 30.8261 59.2975 31.0382 59.3416 31.2379C59.3842 31.4308 59.3705 31.636 59.3884 31.8344C59.398 31.9501 59.3526 31.9817 59.2411 31.9817C58.6491 31.9817 58.0586 31.9914 57.4666 31.9955C57.267 31.9969 57.2463 32.0162 57.256 32.2076C57.2808 32.6484 57.5988 33.0313 57.9925 33.0878C58.3449 33.1374 58.6684 33.0547 58.9533 32.8481C59.0346 32.7889 59.0759 32.8068 59.1158 32.8702C59.3195 33.198 59.42 33.1236 59.0332 33.3454C58.6491 33.5644 58.2361 33.6553 57.7915 33.5754C57.1706 33.4625 56.7989 33.0837 56.6062 32.501C56.5264 32.2586 56.5222 32.0079 56.5222 31.7586L56.5236 31.7558ZM57.9856 31.5024C58.1907 31.5024 58.3972 31.4996 58.6023 31.5038C58.6863 31.5051 58.7166 31.4817 58.6973 31.3963C58.667 31.2572 58.6532 31.114 58.6023 30.9804C58.4688 30.6277 58.1288 30.4624 57.7722 30.574C57.479 30.6663 57.2188 31.0919 57.256 31.4046C57.2684 31.5079 57.3358 31.501 57.4033 31.5024C57.5974 31.5038 57.7915 31.5024 57.9856 31.5024Z" fill="white"/>
<path id="Vector_34" d="M51.8898 31.7887C51.8898 32.3217 51.8871 32.8548 51.8926 33.3892C51.8926 33.4994 51.865 33.5463 51.7494 33.5394C51.6186 33.5311 51.4851 33.5284 51.3543 33.5352C51.2359 33.5421 51.1946 33.5063 51.1974 33.381C51.207 32.9746 51.2029 32.5669 51.2015 32.1592C51.2015 31.9857 51.2001 31.9857 51.0322 31.9843C50.7059 31.9843 50.3783 31.9898 50.052 31.9801C49.9213 31.976 49.8868 32.0201 49.8896 32.1454C49.8965 32.5587 49.8868 32.9719 49.8937 33.3837C49.8951 33.5063 49.8607 33.5463 49.7382 33.5352C49.6074 33.5228 49.4739 33.527 49.3431 33.5339C49.2343 33.5394 49.2013 33.4912 49.2054 33.3906C49.2123 33.2308 49.2164 33.0697 49.2164 32.9099C49.2206 32.0669 49.2261 31.2239 49.2261 30.381C49.2261 30.1537 49.288 30.0972 49.5248 30.111C49.606 30.1165 49.69 30.0931 49.7726 30.0793C49.8662 30.0628 49.8924 30.1014 49.891 30.1923C49.8882 30.5655 49.8979 30.9374 49.891 31.3107C49.8882 31.4333 49.924 31.4705 50.0452 31.4677C50.3838 31.4609 50.7211 31.4677 51.0597 31.4677C51.2112 31.4677 51.2139 31.465 51.174 31.3025C51.1547 31.2239 51.2098 31.1633 51.2043 31.0876C51.185 30.8038 51.229 30.5187 51.174 30.2363C51.1575 30.1496 51.2346 30.1317 51.3089 30.1234C51.4493 30.1082 51.5897 30.0903 51.7301 30.0683C51.8747 30.0463 51.8829 30.0504 51.8829 30.2047C51.8829 30.7322 51.8829 31.2598 51.8829 31.7873H51.8884L51.8898 31.7887Z" fill="white"/>
<path id="Vector_35" d="M26.5885 47.9803C26.6091 48.4183 26.5651 48.9376 26.6077 49.4569C26.6201 49.6139 26.5596 49.6566 26.393 49.6497C26.2897 49.6456 26.1865 49.6387 26.0832 49.6497C25.9662 49.6607 25.9346 49.6139 25.9373 49.5037C25.947 49.1883 25.947 48.8729 25.9511 48.5574C25.9511 48.4831 25.9511 48.4087 25.947 48.3343C25.9359 48.1029 25.9359 48.1043 25.695 48.1029C25.3908 48.1029 25.0866 48.1043 24.7837 48.0974C24.6653 48.0946 24.624 48.1318 24.6268 48.2558C24.6337 48.669 24.6309 49.0822 24.6295 49.4955C24.6295 49.6842 24.6282 49.6828 24.4478 49.6842C24.3047 49.6869 24.1684 49.6346 24.0252 49.6442C23.944 49.6497 23.9412 49.5864 23.9426 49.5244C23.9454 49.3288 23.9467 49.1346 23.9467 48.939C23.9467 48.1704 23.944 47.4018 23.944 46.6318C23.944 46.5395 23.9481 46.4486 23.9495 46.3563C23.9522 46.2723 23.988 46.2351 24.0789 46.2393C24.1904 46.2448 24.2978 46.2393 24.4093 46.1869C24.5538 46.1194 24.6295 46.1828 24.6295 46.3412C24.6323 46.709 24.6364 47.0753 24.6295 47.4431C24.6282 47.5478 24.6488 47.585 24.7589 47.5836C25.0577 47.5781 25.355 47.5795 25.6537 47.5905C25.7363 47.5933 25.8093 47.5258 25.8988 47.574C25.9194 47.585 25.9497 47.5161 25.9483 47.4638C25.9456 47.1483 25.9676 46.8329 25.9511 46.5175C25.9387 46.2682 25.9621 46.2475 26.2182 46.2393C26.2636 46.2379 26.3104 46.2448 26.3558 46.2393C26.5898 46.2007 26.5898 46.1993 26.5898 46.4349C26.5898 46.9225 26.5898 47.4101 26.5898 47.9803H26.5885Z" fill="white"/>
<path id="Vector_36" d="M31.2413 47.9528C31.2413 47.4432 31.2413 46.9321 31.2413 46.4225C31.2413 46.2434 31.2454 46.2407 31.423 46.2434C31.5387 46.2434 31.6557 46.2393 31.763 46.2035C31.8897 46.1608 31.8924 46.2173 31.8924 46.3137C31.8897 46.6925 31.8952 47.0713 31.8883 47.4487C31.8869 47.5589 31.9145 47.5947 32.0287 47.5919C32.366 47.5837 32.7046 47.5823 33.0433 47.5905C33.1768 47.5933 33.2085 47.5423 33.2057 47.4197C33.1989 47.0809 33.2057 46.7434 33.2002 46.4046C33.1989 46.2917 33.2305 46.249 33.3517 46.2366C33.4714 46.2242 33.5953 46.2393 33.7178 46.1815C33.8211 46.1319 33.8817 46.1939 33.8817 46.3151C33.883 47.2958 33.8817 48.2765 33.883 49.2572C33.883 49.3647 33.8362 49.4666 33.85 49.5782C33.8596 49.6539 33.7963 49.6498 33.744 49.6498C33.6118 49.6498 33.4797 49.6429 33.3489 49.6525C33.2223 49.6622 33.1933 49.6071 33.1947 49.4927C33.2002 49.0864 33.1989 48.6787 33.1989 48.271C33.1989 48.1029 33.1961 48.1112 33.0282 48.1016C32.7707 48.0878 32.5174 48.1388 32.2614 48.1346C32.1994 48.1346 32.1416 48.1319 32.0783 48.1112C31.9406 48.0658 31.8924 48.1112 31.8911 48.2586C31.8911 48.6663 31.8911 49.0726 31.8911 49.4804C31.8911 49.6512 31.8883 49.6512 31.7231 49.6498C31.6089 49.6498 31.4932 49.6456 31.379 49.6525C31.2647 49.6608 31.233 49.6153 31.2344 49.5024C31.2399 48.9859 31.2372 48.4707 31.2372 47.9542H31.2413V47.9528Z" fill="white"/>
<path id="Vector_37" d="M9.59264 48.2213C9.59264 47.786 9.58851 47.3494 9.5954 46.9141C9.59815 46.797 9.55547 46.7612 9.44947 46.7612C9.22096 46.7612 8.99106 46.7543 8.76254 46.7557C8.67168 46.7557 8.62901 46.7364 8.62488 46.6331C8.62213 46.545 8.59046 46.4582 8.59184 46.3645C8.59322 46.2791 8.62075 46.2392 8.71161 46.2392C9.20444 46.2405 9.69727 46.2419 10.1901 46.2378C10.292 46.2378 10.2796 46.2956 10.2796 46.359C10.2796 46.6978 10.2851 47.0353 10.2754 47.3728C10.2713 47.4995 10.3195 47.5312 10.4324 47.5257C10.7476 47.5091 11.0601 47.5215 11.3712 47.5821C11.7705 47.6607 12.0582 47.8797 12.1642 48.2722C12.2702 48.6662 12.2344 49.0477 11.9067 49.348C11.6837 49.5518 11.407 49.629 11.1179 49.6386C10.6375 49.6538 10.1557 49.6441 9.67524 49.6524C9.56236 49.6538 9.59402 49.5808 9.59402 49.527C9.59264 49.0918 9.59402 48.6551 9.59402 48.2199L9.59264 48.2213ZM10.2782 48.6001C10.2782 48.7488 10.2837 48.8976 10.2768 49.0463C10.2727 49.1414 10.3016 49.1813 10.4007 49.1731C10.599 49.1565 10.7972 49.1675 10.9968 49.14C11.2762 49.1028 11.4924 48.9485 11.4924 48.6221C11.4924 48.3094 11.3864 48.1331 11.0835 48.0601C10.8399 48.0009 10.5934 48.0436 10.3484 48.0312C10.2796 48.027 10.2796 48.0697 10.2796 48.1193C10.2796 48.2791 10.2796 48.4403 10.2796 48.6001H10.2782Z" fill="white"/>
<path id="Vector_38" d="M36.9683 32.9239C36.9655 32.7517 36.9628 32.5795 36.96 32.4073C36.9586 32.3454 36.9669 32.2834 36.9242 32.2283C36.9022 32.1993 36.8967 32.1704 36.9242 32.1291C36.9807 32.0478 36.9531 31.9872 36.8485 31.9872C36.4644 31.9845 36.0803 31.9872 35.6963 31.9831C35.5916 31.9817 35.6082 32.0437 35.6082 32.1057C35.6082 32.501 35.6082 32.8977 35.6082 33.293C35.6082 33.5327 35.5311 33.5933 35.2888 33.5465C35.2723 33.5437 35.2558 33.5396 35.2392 33.5368C35.1456 33.5203 35.0162 33.5795 34.9653 33.4969C34.9226 33.4266 34.957 33.3082 34.957 33.2117C34.957 32.4542 34.9543 31.698 34.9598 30.9404C34.9612 30.7241 34.9075 30.512 34.9185 30.2944C34.924 30.1814 34.9488 30.1222 35.074 30.1319C35.2558 30.1456 35.4251 30.0712 35.6082 30.0437C35.6082 30.4721 35.6123 30.8977 35.6054 31.3233C35.604 31.4418 35.6316 31.4776 35.7555 31.4748C36.1106 31.4666 36.4658 31.4693 36.821 31.4776C36.9256 31.4803 36.9586 31.4569 36.96 31.3481C36.9614 31.0038 36.971 30.6608 36.9573 30.3164C36.9517 30.1525 36.9669 30.136 37.1266 30.1305C37.2422 30.1263 37.3565 30.1098 37.4652 30.0768C37.5877 30.0396 37.6029 30.0919 37.6015 30.1925C37.5988 30.4445 37.6015 30.6966 37.6015 30.95C37.6015 31.7186 37.6015 32.4872 37.6015 33.2558C37.6015 33.3137 37.6015 33.3701 37.5974 33.428C37.5919 33.5079 37.5588 33.552 37.4666 33.5465C37.3358 33.5382 37.2023 33.5327 37.0715 33.5409C36.9476 33.5492 36.9394 33.4858 36.9586 33.3936C36.9628 33.3922 36.9655 33.3908 36.9696 33.3894C36.9669 33.3839 36.9628 33.3784 36.96 33.3729C36.96 33.2641 36.96 33.1566 36.9614 33.0478C37.0027 33.0093 36.9958 32.9693 36.9683 32.9266V32.9239Z" fill="white"/>
<path id="Vector_39" d="M28.6229 39.9044C28.6229 39.4058 28.6256 38.9058 28.6201 38.4072C28.6201 38.2887 28.649 38.2281 28.7729 38.2102C28.9078 38.1923 29.0414 38.1578 29.1776 38.1413C29.2892 38.1289 29.3153 38.1661 29.3139 38.2708C29.307 38.6496 29.3139 39.0284 29.3043 39.4058C29.3002 39.5339 29.3305 39.5793 29.464 39.5656C29.6278 39.5504 29.7958 39.5752 29.9582 39.5215C30.0504 39.4912 30.1179 39.4443 30.1619 39.3534C30.2294 39.2129 30.2789 39.0683 30.312 38.9168C30.3423 38.7763 30.3946 38.6441 30.4496 38.5118C30.546 38.2749 30.7374 38.2033 30.9673 38.1813C31.0182 38.1771 31.0664 38.1785 31.1187 38.1633C31.1903 38.1413 31.288 38.1041 31.3293 38.2019C31.3789 38.3162 31.4147 38.4402 31.3651 38.5669C31.35 38.6041 31.3045 38.5917 31.2729 38.5972C31.0498 38.633 30.959 38.7983 30.897 38.9843C30.8585 39.0959 30.8379 39.2143 30.7993 39.3259C30.7387 39.4967 30.6575 39.6496 30.4923 39.7419C30.4207 39.7818 30.3863 39.8286 30.4868 39.8686C30.6616 39.9361 30.7305 40.0835 30.7855 40.2419C30.8557 40.4471 30.9191 40.6537 30.9893 40.8589C31.0457 41.0256 31.138 41.1551 31.3321 41.1785C31.4436 41.1923 31.4697 41.2653 31.4436 41.3658C31.4367 41.3934 31.4257 41.4196 31.4188 41.4471C31.3623 41.673 31.3472 41.6813 31.1159 41.6303C31.0154 41.6083 30.9108 41.6069 30.8117 41.5862C30.5639 41.5339 30.4056 41.3851 30.3505 41.1344C30.301 40.9113 30.2652 40.684 30.2032 40.465C30.1619 40.3176 30.1096 40.1537 29.9307 40.1207C29.7696 40.0917 29.6072 40.06 29.4406 40.0724C29.336 40.0807 29.3084 40.1207 29.3112 40.2226C29.3167 40.589 29.3126 40.9567 29.3112 41.3231C29.3112 41.3686 29.3112 41.4154 29.307 41.4609C29.3015 41.5545 29.2644 41.6083 29.1556 41.5945C29.0538 41.5821 28.9491 41.5862 28.8459 41.5835C28.638 41.578 28.6325 41.578 28.6311 41.3617C28.6284 40.8741 28.6311 40.3865 28.6311 39.8989H28.6256L28.6229 39.9044Z" fill="white"/>
<path id="Vector_40" d="M44.6951 31.7958C44.6951 32.3068 44.6951 32.8164 44.6951 33.3274C44.6951 33.5327 44.6938 33.5327 44.4831 33.5327C44.3854 33.5327 44.2877 33.5272 44.1913 33.5354C44.0688 33.5451 44.0385 33.4927 44.0385 33.3743C44.044 32.5423 44.0412 31.7104 44.0412 30.8784C44.0412 30.6484 44.0399 30.6511 43.8169 30.6525C43.6503 30.6525 43.4851 30.6484 43.3185 30.6401C43.2359 30.636 43.1932 30.6401 43.1754 30.7489C43.1368 30.9748 43.1533 31.2035 43.1134 31.428C43.0528 31.7792 43.0625 32.1374 42.9854 32.4872C42.9565 32.6181 42.9455 32.7544 42.9193 32.888C42.8353 33.3219 42.538 33.4996 42.1415 33.5616C41.8593 33.6057 41.7684 33.5299 41.7395 33.2448C41.734 33.1952 41.745 33.1718 41.8042 33.1511C41.9502 33.1002 42.0906 33.0382 42.2048 32.9211C42.3549 32.7682 42.3659 32.5699 42.3879 32.3825C42.4182 32.1263 42.4609 31.8729 42.4925 31.6181C42.5063 31.5065 42.5146 31.3922 42.5215 31.2834C42.5325 31.1084 42.582 30.9363 42.5669 30.7586C42.5504 30.5712 42.6206 30.388 42.5999 30.1993C42.5889 30.1002 42.666 30.1277 42.7169 30.1277C43.2277 30.1277 43.737 30.125 44.2477 30.1277C44.3937 30.1277 44.5891 30.063 44.6731 30.1594C44.7447 30.242 44.6951 30.4321 44.6951 30.574C44.6951 30.9817 44.6951 31.388 44.6951 31.7958Z" fill="white"/>
<path id="Vector_41" d="M13.9969 39.8867C13.9969 40.4033 13.9928 40.9198 13.9996 41.4363C14.001 41.5658 13.9639 41.6154 13.8345 41.5989C13.767 41.5906 13.6968 41.5947 13.628 41.5933C13.4389 41.5906 13.3444 41.4919 13.3444 41.2972C13.3444 40.4942 13.3444 39.6911 13.343 38.8867C13.343 38.7022 13.3416 38.7022 13.153 38.7008C12.9644 38.698 12.7745 38.6994 12.5859 38.6939C12.5143 38.6925 12.4867 38.7132 12.4812 38.7889C12.4496 39.1787 12.4041 39.5686 12.3711 39.9584C12.3422 40.3068 12.3037 40.6567 12.21 40.9969C12.1164 41.333 11.9017 41.5341 11.5603 41.6002C11.4557 41.6209 11.3552 41.6608 11.245 41.6608C11.1638 41.6608 11.1143 41.6416 11.106 41.552C11.1005 41.49 11.0936 41.4239 11.0674 41.3675C11.0151 41.2531 11.0881 41.2077 11.1693 41.1856C11.2808 41.1553 11.3662 41.0906 11.4543 41.0245C11.658 40.8716 11.6897 40.6402 11.72 40.4157C11.7599 40.1223 11.7709 39.8248 11.8053 39.5314C11.8384 39.2352 11.8507 38.9363 11.8975 38.6402C11.9141 38.5341 11.9099 38.4226 11.9017 38.3137C11.8962 38.2297 11.9361 38.2008 12.0063 38.1939C12.0627 38.1884 12.1206 38.187 12.1784 38.187C12.7345 38.187 13.2907 38.1911 13.8468 38.187C13.9652 38.187 14.0038 38.2159 14.001 38.3385C13.9941 38.8551 13.9983 39.3716 13.9983 39.8881L13.9969 39.8867Z" fill="white"/>
<path id="Vector_42" d="M45.7977 31.862C45.7977 31.351 45.8004 30.8414 45.7949 30.3303C45.7949 30.2174 45.828 30.1595 45.9408 30.1458C46.0661 30.1306 46.19 30.1086 46.3139 30.0907C46.4116 30.0769 46.4543 30.1044 46.4502 30.2188C46.4406 30.5576 46.4502 30.8951 46.4419 31.2339C46.4392 31.3606 46.4791 31.4102 46.6085 31.4047C46.9389 31.3909 47.2693 31.3951 47.5928 31.4708C47.9714 31.559 48.2563 31.7601 48.3568 32.1582C48.4642 32.5838 48.4036 32.9598 48.0498 33.2656C47.8364 33.4502 47.5859 33.5108 47.3271 33.5232C46.8756 33.5438 46.4213 33.5328 45.9684 33.5356C45.8564 33.5356 45.8 33.4773 45.7991 33.3606C45.7991 32.862 45.7991 32.362 45.7991 31.8634L45.7977 31.862ZM46.4502 32.4667C46.4502 32.4667 46.4433 32.4667 46.4406 32.4667C46.4406 32.6265 46.4406 32.7876 46.4406 32.9474C46.4406 32.9998 46.435 33.0576 46.5121 33.0562C46.8081 33.048 47.1068 33.0907 47.3946 32.9818C47.5391 32.9268 47.641 32.8345 47.6768 32.6857C47.7139 32.5342 47.7125 32.3799 47.6602 32.2298C47.5997 32.0576 47.4675 31.9364 47.2982 31.9267C47.0545 31.913 46.8136 31.8703 46.5672 31.8799C46.4764 31.8827 46.4461 31.9199 46.4474 32.0053C46.4502 32.1595 46.4474 32.3138 46.4474 32.4695L46.4502 32.4667Z" fill="white"/>
<path id="Vector_43" d="M9.3668 39.5629C9.50446 39.5629 9.64212 39.5574 9.77978 39.5643C9.88991 39.5698 9.91331 39.523 9.90918 39.421C9.89679 39.0588 9.69581 38.702 9.4136 38.6524C9.119 38.6001 8.80376 38.5588 8.55046 38.7929C8.45134 38.8852 8.38389 38.8604 8.31506 38.7654C8.28753 38.7282 8.25999 38.6924 8.22971 38.6566C8.06176 38.4541 8.05212 38.461 8.3068 38.3205C8.65233 38.1304 9.02126 38.0863 9.42048 38.1373C9.74124 38.1772 9.99591 38.3039 10.2162 38.5202C10.4392 38.7406 10.5713 39.0161 10.6168 39.3205C10.6787 39.7337 10.687 40.1511 10.5865 40.5615C10.4392 41.1634 10.0345 41.5574 9.43563 41.6607C8.92352 41.7489 8.48025 41.6249 8.07828 41.3067C7.99018 41.2365 7.97779 41.18 8.05488 41.1001C8.0948 41.0588 8.13059 41.0133 8.16638 40.9692C8.28064 40.8329 8.35636 40.8081 8.46786 40.9238C8.58901 41.0477 8.71841 41.1125 8.89049 41.129C8.96895 41.1373 9.04604 41.18 9.13415 41.1855C9.54025 41.2075 9.86651 40.9183 9.89955 40.4513C9.92845 40.0395 9.93259 40.0409 9.52235 40.0409C9.32687 40.0409 9.13277 40.0367 8.93729 40.0422C8.8423 40.045 8.80789 40.0092 8.79963 39.9155C8.7721 39.5739 8.78173 39.5615 9.12451 39.5643C9.20435 39.5643 9.28557 39.5643 9.36542 39.5643C9.36542 39.5643 9.36542 39.5643 9.36542 39.5629H9.3668Z" fill="white"/>
<path id="Vector_44" d="M26.7348 41.6594C26.0052 41.6429 25.5289 41.2269 25.3596 40.501C25.2398 39.9886 25.2976 39.501 25.4821 39.012C25.6101 38.6746 25.8455 38.4583 26.1401 38.2696C26.3838 38.1126 26.6453 38.1057 26.9124 38.1181C27.1863 38.1305 27.4383 38.2255 27.6654 38.3826C27.7452 38.4377 27.7535 38.4941 27.6929 38.5671C27.653 38.6153 27.6213 38.6718 27.5787 38.7173C27.5195 38.7793 27.4892 38.8757 27.408 38.9046C27.3199 38.9363 27.2937 38.8233 27.2276 38.7903C26.6729 38.512 26.3218 38.7118 26.1236 39.2737C26.0107 39.5933 26.0093 39.9487 26.0479 40.2889C26.0768 40.5396 26.1429 40.7875 26.3494 40.9721C26.549 41.1498 26.8312 41.2035 27.0762 41.0961C27.2249 41.0299 27.3515 40.9308 27.4727 40.8261C27.5291 40.7765 27.5484 40.7889 27.5911 40.8399C27.6737 40.939 27.7342 41.0561 27.8375 41.1401C27.8898 41.1828 27.8499 41.2407 27.8141 41.2696C27.5043 41.5079 27.2331 41.6718 26.7362 41.6594H26.7348Z" fill="white"/>
<path id="Vector_45" d="M23.075 32.7433C23.1686 32.8645 23.2471 32.9747 23.3338 33.078C23.3847 33.14 23.3641 33.18 23.3159 33.2227C23.2168 33.3094 23.1108 33.3866 22.991 33.4444C22.417 33.7199 21.6984 33.629 21.3019 33.2227C21.1422 33.0601 21.0238 32.8728 20.9536 32.6565C20.86 32.3687 20.7967 32.0725 20.816 31.7709C20.8545 31.1855 21.0362 30.6414 21.5346 30.297C21.9324 30.0216 22.4004 29.9692 22.8685 30.1497C22.9896 30.1965 23.119 30.2351 23.214 30.3425C23.2691 30.4045 23.2663 30.4499 23.2278 30.5078C23.2058 30.5408 23.1824 30.5739 23.1562 30.6042C23.0888 30.6813 23.0571 30.8039 22.9621 30.8384C22.8547 30.8756 22.8024 30.7351 22.7061 30.7034C22.2187 30.5422 21.792 30.6015 21.6474 31.2103C21.5373 31.6717 21.5318 32.1483 21.6791 32.6014C21.8319 33.0739 22.322 33.2378 22.724 32.9885C22.841 32.9155 22.9594 32.8453 23.0764 32.7433H23.075Z" fill="white"/>
<path id="Vector_46" d="M23.9817 31.8192C24.0092 31.5134 24.0422 31.2131 24.1785 30.928C24.3258 30.6208 24.5612 30.4018 24.8242 30.2076C24.9302 30.1291 25.0678 30.1125 25.2014 30.0878C25.4065 30.0506 25.6061 30.0836 25.8071 30.0946C26.037 30.1084 26.2256 30.2269 26.4018 30.3701C26.4486 30.4073 26.4444 30.4514 26.4142 30.49C26.3123 30.6194 26.2077 30.7448 26.0948 30.8825C25.869 30.607 25.5606 30.607 25.2661 30.6484C25.0169 30.6828 24.9081 30.8991 24.8324 31.1291C24.7223 31.4665 24.7223 31.8137 24.7374 32.1594C24.7471 32.3577 24.7897 32.5588 24.8902 32.7324C25.1435 33.1676 25.6391 33.2035 25.9819 32.9238C26.2256 32.7241 26.2256 32.7227 26.41 32.9803C26.4293 33.0079 26.4513 33.034 26.4733 33.0588C26.527 33.1167 26.5202 33.1635 26.461 33.2172C26.2848 33.3798 26.0879 33.501 25.8511 33.5533C25.3321 33.6676 24.8517 33.6002 24.4525 33.2214C24.195 32.9789 24.0725 32.6608 24.0147 32.3178C23.9941 32.1938 23.9913 32.0685 23.9817 31.9431C24.0188 31.9004 24.023 31.8591 23.9775 31.8192H23.9817Z" fill="white"/>
<path id="Vector_47" d="M16.266 40.1442C16.266 40.563 16.266 40.9817 16.266 41.4004C16.266 41.5933 16.2633 41.5933 16.0623 41.5933C15.9646 41.5933 15.8668 41.5947 15.7705 41.5933C15.5901 41.5891 15.586 41.5836 15.586 41.4073C15.5846 40.5754 15.5819 39.7434 15.5805 38.9128C15.5805 38.7733 15.5126 38.703 15.3768 38.7021C15.1703 38.7007 14.9638 38.6993 14.7573 38.6993C14.6609 38.6993 14.6169 38.669 14.6141 38.5588C14.6072 38.1911 14.6017 38.1911 14.9679 38.1911C15.4263 38.1911 15.8861 38.2035 16.3431 38.1842C16.6075 38.1732 16.8704 38.2062 17.1333 38.1897C17.2407 38.1828 17.2737 38.2214 17.2641 38.3288C17.2324 38.698 17.2352 38.698 16.8663 38.7007C16.7121 38.7007 16.5565 38.7048 16.4023 38.7007C16.2922 38.6993 16.2578 38.7393 16.2592 38.855C16.2674 39.2847 16.2619 39.7159 16.2619 40.1456H16.266V40.1442Z" fill="white"/>
<path id="Vector_48" d="M4.38673 40.8069C4.45143 40.9061 4.45006 41.0039 4.38811 41.1044C4.34543 41.0052 4.34681 40.9061 4.38673 40.8069Z" fill="#A0712A"/>
<path id="Vector_49" d="M7.21582 40.9306C7.16902 40.8534 7.16489 40.7777 7.21995 40.7019C7.30393 40.779 7.3053 40.8562 7.21582 40.9306Z" fill="#A0712A"/>
<path id="Vector_50" d="M27.9786 30.8768C27.9208 30.8355 27.9194 30.7942 27.9773 30.7515C28.0186 30.7928 28.0186 30.8341 27.9786 30.8768Z" fill="#A0712A"/>
<path id="Vector_51" d="M20.1531 31.6333C20.1036 31.5947 20.1228 31.5479 20.1366 31.5024C20.2082 31.5383 20.2068 31.5823 20.1531 31.6333Z" fill="#A0712A"/>
<path id="Vector_52" d="M23.9808 31.8191C24.0276 31.859 24.0235 31.9004 23.9849 31.9431C23.9299 31.9045 23.923 31.8632 23.9808 31.8191Z" fill="#A0712A"/>
<path id="Vector_53" d="M36.9679 32.9238C36.9954 32.9651 37.0023 33.0065 36.961 33.045C36.9059 33.001 36.899 32.961 36.9679 32.9238Z" fill="#A0712A"/>
<path id="Vector_54" d="M29.2719 46.1966C29.2348 46.2104 29.199 46.2187 29.1797 46.1705C29.2279 46.1167 29.2554 46.1374 29.2719 46.1966Z" fill="#A0712A"/>
<path id="Vector_55" d="M27.3503 30.1897C27.3558 30.2035 27.353 30.2131 27.3392 30.2186C27.3227 30.2214 27.3021 30.2269 27.3062 30.2007C27.3062 30.1952 27.3351 30.1938 27.3503 30.1897Z" fill="#A0712A"/>
<path id="Vector_56" d="M38.5781 39.8989C38.5313 39.8796 38.5313 39.8603 38.5781 39.8411C38.6139 39.8603 38.6139 39.8796 38.5781 39.8989Z" fill="#A0712A"/>
<path id="Vector_57" d="M4.38524 40.4956C4.43067 40.5149 4.43342 40.5342 4.38524 40.5548C4.34945 40.5355 4.34945 40.5163 4.38524 40.4956Z" fill="#A0712A"/>
<path id="Vector_58" d="M36.9593 33.3687C36.9593 33.3687 36.9663 33.38 36.9691 33.3856C36.9649 33.3871 36.9621 33.3885 36.9579 33.3899C36.9509 33.3828 36.9523 33.3757 36.9579 33.3687H36.9593Z" fill="#A0712A"/>
<path id="Vector_59" d="M20.065 49.6208L20.0804 49.6237L20.0846 49.6378C20.065 49.6463 20.0607 49.6378 20.065 49.6208Z" fill="#A0712A"/>
</g>
</g>
</svg>
