<svg width="19" height="19" viewBox="0 0 19 19" fill="none" xmlns="http://www.w3.org/2000/svg">
<g id="whatsapp" clip-path="url(#clip0_406_1025)">
<path id="Vector" fill-rule="evenodd" clip-rule="evenodd" d="M15.2777 4.07581C13.7528 2.54903 11.7247 1.70794 9.56397 1.70703C5.11184 1.70703 1.48849 5.3302 1.48668 9.7836C1.48614 11.2071 1.85796 12.5966 2.56485 13.8217L1.41895 18.0072L5.70083 16.884C6.8806 17.5275 8.20888 17.8667 9.56071 17.867H9.56397C9.56379 17.867 9.56415 17.867 9.56397 17.867C14.0156 17.867 17.6393 14.2435 17.6411 9.78994C17.642 7.63179 16.8027 5.6026 15.2777 4.07581ZM6.28383 10.0775C6.18295 9.94279 5.45976 8.98326 5.45976 7.98985C5.45976 6.99644 5.98119 6.50816 6.1661 6.30622C6.35102 6.10428 6.56981 6.05375 6.70437 6.05375C6.83894 6.05375 6.97369 6.05502 7.09123 6.06081C7.21511 6.06715 7.38156 6.01372 7.54528 6.40728C7.71354 6.81135 8.11706 7.80493 8.16759 7.90581C8.21812 8.00688 8.25162 8.1246 8.18443 8.25935C8.11724 8.39391 8.08355 8.47813 7.98267 8.59604C7.88179 8.71394 7.77077 8.85919 7.67985 8.94957C7.57879 9.05027 7.47356 9.15948 7.59128 9.36142C7.70901 9.56354 8.11398 10.2244 8.71401 10.7596C9.48482 11.4473 10.1352 11.6603 10.337 11.7614C10.5387 11.8624 10.6564 11.8456 10.7742 11.7108C10.8919 11.5761 11.2788 11.1215 11.4133 10.9195C11.5479 10.7176 11.6825 10.7513 11.8674 10.8185C12.0525 10.8859 13.0446 11.3741 13.2464 11.475C13.4481 11.5761 13.5827 11.6266 13.6332 11.7108C13.6838 11.795 13.6838 12.1991 13.5155 12.6705C13.3472 13.142 12.5409 13.5723 12.1532 13.6301C11.8054 13.6821 11.3655 13.7038 10.8819 13.55C10.5889 13.4571 10.2129 13.3329 9.73132 13.125C7.70702 12.2507 6.38489 10.2123 6.28383 10.0775Z" fill="#02BE37"/>
</g>
<defs>
<clipPath id="clip0_406_1025">
<rect width="18" height="18" fill="white" transform="translate(0.539062 0.867188)"/>
</clipPath>
</defs>
</svg>
