<svg width="12" height="13" viewBox="0 0 12 13" fill="none" xmlns="http://www.w3.org/2000/svg">
<g id="arrow_triangle_down">
<path id="Vector" d="M9.62643 3.86963C9.69908 3.86957 9.77018 3.89072 9.83099 3.93048C9.8918 3.97024 9.93969 4.02688 9.96878 4.09346C9.99787 4.16004 10.0069 4.23366 9.99475 4.3053C9.98261 4.37693 9.94982 4.44346 9.90041 4.49674L6.27364 8.42512C6.23869 8.46289 6.19631 8.49302 6.14916 8.51363C6.10201 8.53424 6.05111 8.54488 5.99965 8.54488C5.9482 8.54488 5.8973 8.53424 5.85015 8.51363C5.803 8.49302 5.76062 8.46289 5.72567 8.42512L2.0989 4.49599C2.04973 4.44269 2.01716 4.37622 2.00515 4.30471C1.99315 4.2332 2.00223 4.15974 2.03129 4.09331C2.06035 4.02688 2.10813 3.97035 2.16879 3.93062C2.22945 3.8909 2.30037 3.86971 2.37288 3.86963H9.62643Z" fill="#028FBE"/>
</g>
</svg>
